<svg xmlns="http://www.w3.org/2000/svg" width="25.269" height="20.563" viewBox="0 0 25.269 20.563">
  <path id="_x30_4.Twitter" d="M35.169,19.932a10.627,10.627,0,0,1-2.969.821,5.053,5.053,0,0,0,2.274-2.874,10.909,10.909,0,0,1-3.285,1.263,5.184,5.184,0,0,0-8.97,3.538,4.736,4.736,0,0,0,.126,1.169,14.581,14.581,0,0,1-10.644-5.4,5.2,5.2,0,0,0,1.579,6.917,4.974,4.974,0,0,1-2.337-.632,5.235,5.235,0,0,0,4.138,5.148,5.685,5.685,0,0,1-2.337.095,5.2,5.2,0,0,0,4.833,3.6A10.436,10.436,0,0,1,9.9,35.725,14.72,14.72,0,0,0,32.579,23.343a4.665,4.665,0,0,0-.032-.663,10.281,10.281,0,0,0,2.622-2.748Z" transform="translate(-9.9 -17.5)" fill="#061455"/>
</svg>
