<svg xmlns="http://www.w3.org/2000/svg" viewBox="0 0 400 75.03"><title>Asset 10</title><g id="Layer_2" data-name="Layer 2"><g id="Layer_1-2" data-name="Layer 1"><path d="M112.63,23.84H101.14V55.38H96.61V23.84H85.16v-4h27.47Z" fill="#fff"/><path d="M132.15,51.67l.46,2.94c-2.37,1-6.85,1.39-9.73,1.39-8.66,0-12-3.61-12-13.25,0-9.84,3.45-13.09,11.54-13.09,7.58,0,10.77,2.78,10.77,8.2,0,4.48-1.8,7.11-6,7.11H115.56c.41,6,2.73,7.32,7.88,7.32A69.47,69.47,0,0,0,132.15,51.67Zm-16.7-10.1h10.62c2.27,0,2.73-1.86,2.73-3.71-.05-3.2-1.7-4.49-6.18-4.49C117.41,33.37,115.61,35.23,115.45,41.57Z" fill="#fff"/><path d="M158.58,30.85,158,33.68c-2.27-.2-5-.31-6.8-.31-6,0-8,2.12-8,9.43s2.06,9.49,8,9.49a54.12,54.12,0,0,0,7.37-.52l.46,2.94A27.59,27.59,0,0,1,150.43,56c-8.66,0-11.9-3.51-11.9-13.2s3.24-13.14,11.95-13.14A25.45,25.45,0,0,1,158.58,30.85Z" fill="#fff"/><path d="M187,36.57V55.38h-4.43V37.81c0-3.36-1-4.44-3.56-4.44-3,0-5.67,1.39-9.69,3.92V55.38H165V19.3h4.38l.06,10a34.36,34.36,0,0,1-.31,4.89c3.76-2.73,7.42-4.48,11.13-4.48C184.64,29.66,187,32,187,36.57Z" fill="#fff"/><path d="M199.62,21v2.94c0,.93-.41,1.34-1.34,1.34h-2.06a1.18,1.18,0,0,1-1.34-1.34V21a1.23,1.23,0,0,1,1.34-1.34h2.06A1.2,1.2,0,0,1,199.62,21Zm-.2,34.43h-4.33V30.28h4.33Z" fill="#fff"/><path d="M227.7,51.67l.47,2.94c-2.37,1-6.86,1.39-9.74,1.39-8.66,0-12-3.61-12-13.25,0-9.84,3.45-13.09,11.54-13.09,7.58,0,10.78,2.78,10.78,8.2,0,4.48-1.81,7.11-6,7.11H211.11c.41,6,2.73,7.32,7.88,7.32A69.34,69.34,0,0,0,227.7,51.67ZM211,41.57h10.61c2.27,0,2.73-1.86,2.73-3.71,0-3.2-1.7-4.49-6.18-4.49C213,33.37,211.16,35.23,211,41.57Z" fill="#fff"/><path d="M274,22.76l1.39,32.62h-7.42L266.75,26h-.88l-5.36,22a2.92,2.92,0,0,1-3.19,2.52h-5.15A2.93,2.93,0,0,1,249,48l-5.41-22h-.88l-1,29.43h-7.43l1.29-32.62c.1-1.91,1-2.94,2.94-2.94H246a2.89,2.89,0,0,1,3.09,2.52l4.34,17.73c.41,1.7.67,3.35.92,5h.67c.31-1.65.57-3.3.93-5l4.28-17.73a3,3,0,0,1,3.19-2.52H271A2.66,2.66,0,0,1,274,22.76Z" fill="#fff"/><path d="M304.56,38.58v16.8h-6l-.78-3.87A12.17,12.17,0,0,1,288.38,56c-4.75,0-8.3-2.58-8.3-7.32V46.1c0-4.07,2.94-6.44,7.78-6.44h9.07V38.53c-.05-2.58-.93-3.3-4.18-3.3-2.42,0-6.64.15-10.71.41l-.73-5.15a90.75,90.75,0,0,1,13.25-1.24C301.1,29.25,304.56,31.41,304.56,38.58Zm-14,11.7a11.27,11.27,0,0,0,6.34-2.48V44.25h-6.85c-1.86,0-2.48,1-2.48,2.42v1C287.6,49.45,288.53,50.28,290.59,50.28Z" fill="#fff"/><path d="M320.46,35.07v12c0,1.91.73,2.58,2.79,2.58h3.25l.82,5.31a27.06,27.06,0,0,1-7.17,1c-4.58,0-7.26-2.68-7.26-7.32V35.07h-4.48V30.23l4.48-.26V22.86h7.57V30h7.07v5.1Z" fill="#fff"/><path d="M341.64,35.07v12c0,1.91.72,2.58,2.78,2.58h3.25l.82,5.31a27,27,0,0,1-7.16,1c-4.59,0-7.27-2.68-7.27-7.32V35.07h-4.48V30.23l4.48-.26V22.86h7.58V30h7.06v5.1Z" fill="#fff"/><path d="M375.44,49.35l.72,4.74c-3,1.44-7.48,1.91-11.08,1.91-9.64,0-13.25-3.92-13.25-13.3,0-10.05,3.71-13.45,12.94-13.45,8.66,0,12,3,12.06,8.86,0,4.64-2.22,7.12-7.74,7.12h-9.17c.52,3.86,2.17,4.69,6,4.69C368.27,49.92,372,49.71,375.44,49.35Zm-15.67-8.71H367c2.06,0,2.37-1.19,2.37-2.63,0-2.37-1-3.19-4.33-3.19C361.21,34.76,360,35.85,359.77,40.64Z" fill="#fff"/><path d="M400,29.25l-.77,7.06h-2.06c-2.22,0-4.33.57-7.79,1.75V55.38h-7.62V30h5.92l.67,3.76c3.41-2.88,7-4.48,10.31-4.48Z" fill="#fff"/><path d="M44,31.65c-4.84.82-8.76,5.62-8.76,10.72S39.18,50.85,44,50a11.26,11.26,0,0,0,8.75-10.72C52.77,34.22,48.85,30.83,44,31.65Z" fill="#fff"/><path d="M54,22.06V9.9L42.64,12V0L6.16,6.67A7.53,7.53,0,0,0,0,14.07V75l11.75-2.15,20.87-3.81,3.85-.71a1.29,1.29,0,0,0,.21-.06L44,67l3.85-.71h.06l7.43-1.36,3.86-.71a7.52,7.52,0,0,0,6.17-7.4V20ZM11.35,24V69l-.3,0L3.89,70.36V14.07a3.63,3.63,0,0,1,3-3.57L38.75,4.67v8L17.51,16.57A7.53,7.53,0,0,0,11.35,24ZM22.69,34.06V66.9l-.3,0-7.15,1.31V24a3.63,3.63,0,0,1,3-3.57L50.1,14.57v8.2L28.86,26.66A7.52,7.52,0,0,0,22.69,34.06ZM58.47,60.35l-2.17.4A10,10,0,0,0,44,52c-6.15,1.16-11.23,6.85-12.23,13.23l-5.2,1V34.06a3.62,3.62,0,0,1,3-3.57l31.88-5.83V56.78A3.63,3.63,0,0,1,58.47,60.35Z" fill="#fff"/></g></g></svg>