<svg id="Exp-4.-F--Updated-" xmlns="http://www.w3.org/2000/svg" width="52.56" height="73" viewBox="0 0 52.56 73">
  <g id="Group_751" data-name="Group 751" transform="translate(0 0)">
    <path id="Path_649" data-name="Path 649" d="M77.778,41.809a2.92,2.92,0,0,1,2.92-2.92h27.74l21.9,18.25v51.83a2.92,2.92,0,0,1-2.92,2.92H80.7a2.92,2.92,0,0,1-2.92-2.92Z" transform="translate(-77.778 -38.889)" fill="#f5f5f5" fill-rule="evenodd"/>
    <path id="Path_650" data-name="Path 650" d="M194.444,38.889l21.9,17.52h-18.98a2.92,2.92,0,0,1-2.92-2.92Z" transform="translate(-163.784 -38.889)" fill="#061455" fill-rule="evenodd"/>
    <path id="Path_651" data-name="Path 651" d="M150.64,212.571c-1.076-.889-4.38-1.46-4.38-1.46a7.676,7.676,0,0,1-5.825,2.92,7.769,7.769,0,0,1-5.855-2.92s-3.315.564-4.38,1.46a17.536,17.536,0,0,0-2.345,2.878,2.9,2.9,0,0,0,1.1,4.469c2.9,1.255,7.44,2.873,11.747,2.873a29.176,29.176,0,0,0,11.356-2.829,2.881,2.881,0,0,0,1.028-4.457A17.618,17.618,0,0,0,150.64,212.571Z" transform="translate(-114.225 -165.851)" fill="#62c5fa" fill-rule="evenodd"/>
    <path id="Path_652" data-name="Path 652" d="M149.934,142.093s-.569-8.76,7.377-8.76,7.192,8.76,7.192,8.76c0,4.432-4.278,8.76-7.192,8.76S149.934,146.525,149.934,142.093Z" transform="translate(-130.965 -108.513)" fill="#f19b48" fill-rule="evenodd"/>
  </g>
</svg>
