<svg id="Exp-4.-F--Updated-" xmlns="http://www.w3.org/2000/svg" width="74.057" height="54.181" viewBox="0 0 74.057 54.181">
  <g id="Group_468" data-name="Group 468" transform="translate(0 0)">
    <g id="Group_467" data-name="Group 467" transform="translate(8.403)">
      <path id="Path_110" data-name="Path 110" d="M144.182,83.238c0-3.686-.762-11.059,8.6-11.059s8.6,7.373,8.6,11.059c0,4.915-5.168,11.059-8.6,11.059S144.182,88.2,144.182,83.238Z" transform="translate(-124.157 -72.151)" fill="#f19b48" fill-rule="evenodd"/>
      <path id="Path_111" data-name="Path 111" d="M232.79,81.394c0-3.108-.642-9.323,7.251-9.323s7.251,6.215,7.251,9.323c0,4.143-4.356,9.322-7.251,9.322S232.79,85.578,232.79,81.394Z" transform="translate(-190.052 -72.071)" fill="#f19b48" fill-rule="evenodd"/>
      <path id="Path_112" data-name="Path 112" d="M66.123,81.394c0-3.108-.642-9.323,7.251-9.323s7.251,6.215,7.251,9.323c0,4.143-4.357,9.322-7.251,9.322S66.123,85.578,66.123,81.394Z" transform="translate(-66.111 -72.071)" fill="#f19b48" fill-rule="evenodd"/>
    </g>
    <path id="Path_113" data-name="Path 113" d="M33.333,170.581l1.615-10.888a5.7,5.7,0,0,1,3.288-4.355l5.592-2.528a6.114,6.114,0,0,0,5.1,3.1,6.494,6.494,0,0,0,5.244-3.1l5.573,2.559a5.7,5.7,0,0,1,3.234,4.2l1.892,10.824c-4.249,4.867-8.561,5.934-15.862,5.934s-11.423-.866-15.674-5.743Z" transform="translate(-33.333 -132.112)" fill="#061455" fill-rule="evenodd"/>
    <path id="Path_114" data-name="Path 114" d="M199.207,170.39l1.778-10.765a5.7,5.7,0,0,1,3.274-4.263l5.647-2.553a6.114,6.114,0,0,0,5.1,3.1,6.494,6.494,0,0,0,5.244-3.1l5.518,2.534a5.7,5.7,0,0,1,3.25,4.289l1.728,10.948c-4.249,4.867-8.358,5.743-15.658,5.743s-11.626-1.057-15.877-5.934Z" transform="translate(-156.685 -132.112)" fill="#061455" fill-rule="evenodd"/>
    <path id="Path_115" data-name="Path 115" d="M96.2,189.015l2.422-13.239a5.7,5.7,0,0,1,3.557-4.291l8.782-3.382a7.273,7.273,0,0,0,6.064,3.69c4.123,0,6.238-3.69,6.238-3.69l8.667,3.387a5.7,5.7,0,0,1,3.519,4.223l2.575,13.3c-5.6,5.79-12.219,8.651-20.9,8.651S101.8,194.817,96.2,189.015Z" transform="translate(-80.086 -143.485)" fill="#62c5fa" fill-rule="evenodd"/>
    <path id="Path_116" data-name="Path 116" d="M119.438,226.706v8.611a1.424,1.424,0,0,0,2.848,0v-8.611a1.424,1.424,0,1,0-2.848,0Z" transform="translate(-97.365 -186.006)" fill="#2a7de4" fill-rule="evenodd"/>
    <path id="Path_117" data-name="Path 117" d="M225.006,226.706v8.611a1.424,1.424,0,0,0,2.848,0v-8.611a1.424,1.424,0,1,0-2.848,0Z" transform="translate(-175.87 -186.006)" fill="#2a7de4" fill-rule="evenodd"/>
    <path id="Path_118" data-name="Path 118" d="M168.558,182.5H166.1l-2.349,12.92a1.424,1.424,0,0,0,.262,1.109l2.178,2.9a1.424,1.424,0,0,0,2.279,0l2.178-2.9a1.424,1.424,0,0,0,.262-1.109l-2.349-12.92Z" transform="translate(-130.3 -154.19)" fill="#061455" fill-rule="evenodd"/>
  </g>
</svg>
