<svg id="Exp-4.-F--Updated-" xmlns="http://www.w3.org/2000/svg" width="59.945" height="54.181" viewBox="0 0 59.945 54.181">
  <g id="Group_462" data-name="Group 462" transform="translate(0 0)">
    <path id="Path_92" data-name="Path 92" d="M93.278,54.611A4.611,4.611,0,0,0,88.667,50H37.944a4.611,4.611,0,0,0-4.611,4.611V89.195a4.611,4.611,0,0,0,4.611,4.611H88.667a4.611,4.611,0,0,0,4.611-4.611V54.611Z" transform="translate(-33.333 -50)" fill="#f5f5f5" fill-rule="evenodd"/>
    <path id="Path_93" data-name="Path 93" d="M93.278,227.778H33.333v2.306a4.611,4.611,0,0,0,4.611,4.611H88.667a4.611,4.611,0,0,0,4.611-4.611v-2.306Z" transform="translate(-33.333 -190.889)" fill="#061455" fill-rule="evenodd"/>
    <path id="Path_94" data-name="Path 94" d="M145.711,156.709a10.749,10.749,0,0,0-3.458-1.153,6.061,6.061,0,0,1-4.6,2.306,6.134,6.134,0,0,1-4.623-2.306,10.521,10.521,0,0,0-3.458,1.153,13.849,13.849,0,0,0-1.851,2.272,2.29,2.29,0,0,0,.866,3.529,24.92,24.92,0,0,0,9.275,2.269,23.037,23.037,0,0,0,8.966-2.234,2.275,2.275,0,0,0,.812-3.52A13.917,13.917,0,0,0,145.711,156.709Z" transform="translate(-107.737 -133.653)" fill="#62c5fa" fill-rule="evenodd"/>
    <path id="Path_95" data-name="Path 95" d="M149.932,84.695s-.45-6.917,5.825-6.917,5.678,6.917,5.678,6.917c0,3.5-3.378,6.917-5.678,6.917S149.932,88.194,149.932,84.695Z" transform="translate(-125.732 -72.014)" fill="#f19b48" fill-rule="evenodd"/>
    <path id="Path_96" data-name="Path 96" d="M141.819,261.111H125.68l-3.458,9.222h23.056Z" transform="translate(-103.777 -217.305)" fill="#19319f" fill-rule="evenodd"/>
    <path id="Path_97" data-name="Path 97" d="M131.125,300H101.153a1.153,1.153,0,1,0,0,2.306h29.972a1.153,1.153,0,1,0,0-2.306Z" transform="translate(-86.167 -248.125)" fill="#061455" fill-rule="evenodd"/>
    <circle id="Ellipse_41" data-name="Ellipse 41" cx="2.466" cy="2.466" r="2.466" transform="translate(49.238 5.869)" fill="#ff4a64"/>
  </g>
</svg>
