<svg xmlns="http://www.w3.org/2000/svg" xmlns:xlink="http://www.w3.org/1999/xlink" width="62.046" height="62.046" viewBox="0 0 62.046 62.046">
  <defs>
    <clipPath id="clip-path">
      <path id="path6609" d="M0-682.665H62.046v62.046H0Z" transform="translate(0 682.665)"/>
    </clipPath>
  </defs>
  <g id="g6603" transform="translate(0 682.665)">
    <g id="g6605" transform="translate(0 -682.665)">
      <g id="g6607" transform="translate(0 0)" clip-path="url(#clip-path)">
        <g id="g6613" transform="translate(7.565 5.14)">
          <path id="path6615" d="M0-29.044c2.254-2.053,5.491-2.9,9.086-2.9,6.809,0,12.33,3.053,12.33,11.54A118.65,118.65,0,0,1,19.249-2.316" transform="translate(0 31.948)" fill="none" stroke="#fff" stroke-linecap="round" stroke-linejoin="round" stroke-width="2"/>
        </g>
        <g id="g6617" transform="translate(4.32 11.51)">
          <path id="path6619" d="M-8.824,0a13.959,13.959,0,0,0-.882,5.171A118.769,118.769,0,0,0-7.54,23.262" transform="translate(9.707)" fill="none" stroke="#fff" stroke-linecap="round" stroke-linejoin="round" stroke-width="2"/>
        </g>
        <g id="g6621" transform="translate(13.303 29.469)">
          <path id="path6623" d="M0-53.044v-5.3" transform="translate(0 58.347)" fill="none" stroke="#fff" stroke-linecap="round" stroke-linejoin="round" stroke-width="2"/>
        </g>
        <g id="g6625" transform="translate(19.999 29.469)">
          <path id="path6627" d="M0-53.044v-5.3" transform="translate(0 58.347)" fill="none" stroke="#fff" stroke-linecap="round" stroke-linejoin="round" stroke-width="2"/>
        </g>
        <g id="g6629" transform="translate(23.952 18.474)">
          <path id="path6631" d="M0-46.936H1.672a2.346,2.346,0,0,0,2.346-2.346,2.346,2.346,0,0,0-2.346-2.346H0" transform="translate(0 51.628)" fill="none" stroke="#fff" stroke-linecap="round" stroke-linejoin="round" stroke-width="2"/>
        </g>
        <g id="g6633" transform="translate(9.35 13.074)">
          <path id="path6635" d="M-146.052-38.3v6.325a6.9,6.9,0,0,1-6.9,6.9h-.8a6.9,6.9,0,0,1-6.9-6.9v-.855a25.134,25.134,0,0,0,11.018-9.3A3.838,3.838,0,0,1-146.052-38.3Z" transform="translate(160.653 42.133)" fill="none" stroke="#fff" stroke-linecap="round" stroke-linejoin="round" stroke-width="2"/>
        </g>
        <g id="g6637" transform="translate(14.821 24.851)">
          <path id="path6639" d="M-36.607,0a2.417,2.417,0,0,1-1.687.688h-.285A2.417,2.417,0,0,1-40.267,0" transform="translate(40.267)" fill="none" stroke="#fff" stroke-linecap="round" stroke-linejoin="round" stroke-width="2"/>
        </g>
        <g id="g6641" transform="translate(26.81 49.687)">
          <path id="path6643" d="M0,0V5.98" fill="none" stroke="#fff" stroke-linecap="round" stroke-linejoin="round" stroke-width="2"/>
        </g>
        <g id="g6645" transform="translate(5.383 34.772)">
          <path id="path6647" d="M-27.15-209h24.3v-16.42a4.475,4.475,0,0,0-4.474-4.474H-29.864" transform="translate(29.864 229.894)" fill="none" stroke="#fff" stroke-linecap="round" stroke-linejoin="round" stroke-width="2"/>
        </g>
        <g id="g6649" transform="translate(32.454 8.931)">
          <path id="path6651" d="M0,0V19.8a.606.606,0,0,0,.606.606H26.259a.606.606,0,0,0,.606-.606V0" fill="none" stroke="#fff" stroke-linecap="round" stroke-linejoin="round" stroke-width="2"/>
        </g>
        <g id="g6653" transform="translate(30.637 6.028)">
          <path id="path6655" d="M0-22.974v-1.691a.606.606,0,0,1,.606-.606H29.894a.606.606,0,0,1,.606.606v1.691a.606.606,0,0,1-.606.606H.606A.606.606,0,0,1,0-22.974Z" transform="translate(0 25.271)" fill="none" stroke="#fff" stroke-linecap="round" stroke-linejoin="round" stroke-width="2"/>
        </g>
        <g id="g6657" transform="translate(0.909 34.772)">
          <path id="path6659" d="M-140.424-169.447l-8.157,4.71a3.609,3.609,0,0,1-1.8.484h-.467a3.61,3.61,0,0,1-3.61-3.61v-14.053a4.475,4.475,0,0,1,4.474-4.47h2.545" transform="translate(154.462 186.388)" fill="none" stroke="#fff" stroke-linecap="round" stroke-linejoin="round" stroke-width="2"/>
        </g>
        <g id="g6661" transform="translate(26.235 25.539)">
          <path id="path6663" d="M-118.863,0l-11.883,15.777" transform="translate(130.746)" fill="none" stroke="#fff" stroke-linecap="round" stroke-linejoin="round" stroke-width="2"/>
        </g>
        <g id="g6665" transform="translate(18.683 40.382)">
          <path id="path6667" d="M0-27.265l4.072-2.351a2.792,2.792,0,0,1,3.814,1.022,2.792,2.792,0,0,1-1.022,3.814L2.792-22.429" transform="translate(0 29.991)" fill="none" stroke="#fff" stroke-linecap="round" stroke-linejoin="round" stroke-width="2"/>
        </g>
        <g id="g6669" transform="translate(46.015 29.333)">
          <path id="path6671" d="M0,0V2.985" fill="none" stroke="#fff" stroke-linecap="round" stroke-linejoin="round" stroke-width="2"/>
        </g>
        <g id="g6673" transform="translate(44.072 32.318)">
          <path id="path6675" d="M-19.433,0a1.943,1.943,0,0,0-1.943,1.943,1.943,1.943,0,0,0,1.943,1.943A1.943,1.943,0,0,0-17.49,1.943,1.943,1.943,0,0,0-19.433,0Z" transform="translate(21.376)" fill="none" stroke="#fff" stroke-linecap="round" stroke-linejoin="round" stroke-width="2"/>
        </g>
        <g id="g6677" transform="translate(12.045 11.14)">
          <path id="path6679" d="M0-98.682a25.169,25.169,0,0,0,8.324-7.932q.612-.94,1.133-1.934" transform="translate(0 108.548)" fill="none" stroke="#fff" stroke-linecap="round" stroke-linejoin="round" stroke-width="2"/>
        </g>
        <g id="g6681" transform="translate(16.773 34.772)">
          <path id="path6683" d="M0,0C1.4,5.392,4.728,4.346,7.179,0" fill="none" stroke="#fff" stroke-linecap="round" stroke-linejoin="round" stroke-width="2"/>
        </g>
        <g id="g6685" transform="translate(9.714 34.772)">
          <path id="path6687" d="M-71.806,0c-1.4,5.392-4.729,4.346-7.179,0" transform="translate(78.985)" fill="none" stroke="#fff" stroke-linecap="round" stroke-linejoin="round" stroke-width="2"/>
        </g>
        <g id="g6689" transform="translate(6.493 43.108)">
          <path id="path6691" d="M-121.94-64.491l2.792-1.612-2.792-4.836L-134.13-63.9v-4.251" transform="translate(134.13 70.938)" fill="none" stroke="#fff" stroke-linecap="round" stroke-linejoin="round" stroke-width="2"/>
        </g>
      </g>
    </g>
  </g>
</svg>
