<svg xmlns="http://www.w3.org/2000/svg" xmlns:xlink="http://www.w3.org/1999/xlink" width="16.365" height="16.321" viewBox="0 0 16.365 16.321">
  <defs>
    <clipPath id="clip-path">
      <rect id="Rectangle_563" data-name="Rectangle 563" width="16.365" height="16.321" fill="#061455"/>
    </clipPath>
  </defs>
  <g id="Group_1241" data-name="Group 1241" transform="translate(0)">
    <g id="Group_940" data-name="Group 940" transform="translate(0 0)" clip-path="url(#clip-path)">
      <path id="Path_4406" data-name="Path 4406" d="M31.54,26.924c.227-.255.414-.513.647-.733a3.547,3.547,0,0,1,2.552-1.007,5.9,5.9,0,0,1,1.6.2,3.137,3.137,0,0,1,2.227,2.342,9.818,9.818,0,0,1,.3,2.684c0,1.908-.006,3.815,0,5.723,0,.179-.05.225-.225.224q-1.474-.012-2.948,0c-.173,0-.21-.052-.21-.216q.008-2.722,0-5.445a4.892,4.892,0,0,0-.158-1.352,1.52,1.52,0,0,0-1.672-1.185,1.827,1.827,0,0,0-1.92,1.824,6.807,6.807,0,0,0-.052.851c0,1.765,0,3.531,0,5.3,0,.176-.043.228-.223.226q-1.485-.013-2.969,0c-.159,0-.2-.042-.2-.2q.006-5.242,0-10.485c0-.173.056-.213.22-.212q1.41.01,2.82,0c.173,0,.218.054.214.218-.01.418,0,.835,0,1.253" transform="translate(-22.502 -20.031)" fill="#061455"/>
      <path id="Path_4407" data-name="Path 4407" d="M4.664,31.961c0,1.729,0,3.458,0,5.187,0,.192-.047.25-.246.248-.982-.011-1.965-.008-2.947,0-.157,0-.2-.038-.2-.2q.007-5.251,0-10.5c0-.145.035-.2.189-.2,1,.007,1.993.008,2.99,0,.191,0,.217.072.217.236q-.007,2.615,0,5.23" transform="translate(-1.011 -21.075)" fill="#061455"/>
      <path id="Path_4408" data-name="Path 4408" d="M3.924,1.952A1.962,1.962,0,1,1,1.965,0,1.969,1.969,0,0,1,3.924,1.952" transform="translate(0 0)" fill="#061455"/>
    </g>
  </g>
</svg>
