<svg id="Group_1634" data-name="Group 1634" xmlns="http://www.w3.org/2000/svg" xmlns:xlink="http://www.w3.org/1999/xlink" width="1920" height="1078" viewBox="0 0 1920 1078">
  <defs>
    <clipPath id="clip-path">
      <rect id="Rectangle_1600" data-name="Rectangle 1600" width="1084" height="861" transform="translate(111 217)" fill="#fff" stroke="#707070" stroke-width="1"/>
    </clipPath>
    <clipPath id="clip-path-2">
      <rect id="Rectangle_781" data-name="Rectangle 781" width="1100.424" height="1095.421" fill="none"/>
    </clipPath>
    <clipPath id="clip-path-4">
      <rect id="Rectangle_767" data-name="Rectangle 767" width="501.139" height="502.916" fill="none"/>
    </clipPath>
    <clipPath id="clip-path-5">
      <rect id="Rectangle_768" data-name="Rectangle 768" width="286.735" height="302.264" fill="none"/>
    </clipPath>
    <clipPath id="clip-path-6">
      <rect id="Rectangle_769" data-name="Rectangle 769" width="121.281" height="63.643" fill="none"/>
    </clipPath>
    <clipPath id="clip-path-7">
      <path id="Path_4748" data-name="Path 4748" d="M295.767,119.516C187.5,137.976,114.7,240.707,133.162,348.973S254.356,530.04,362.619,511.581s181.065-121.194,162.607-229.46c-16.534-96.952-100.647-165.464-195.793-165.467a200.268,200.268,0,0,0-33.667,2.862" transform="translate(-130.3 -116.654)" fill="none"/>
    </clipPath>
  </defs>
  <rect id="Rectangle_176" data-name="Rectangle 176" width="1920" height="1078" fill="#061455"/>
  <g id="Mask_Group_103" data-name="Mask Group 103" clip-path="url(#clip-path)">
    <g id="Group_1266" data-name="Group 1266" transform="translate(69.576 217)">
      <g id="Group_1281" data-name="Group 1281" clip-path="url(#clip-path-2)">
        <path id="Path_4636" data-name="Path 4636" d="M788.056,848.192,613.218,13.816l-556.506,146L240.805,822.127Z" transform="translate(88.329 21.518)" fill="#62c5fa"/>
        <path id="Path_4637" data-name="Path 4637" d="M630.021,4.732,64.792,140.046l-41.7,87.118L200.116,966.637l624.4-149.48Z" transform="translate(35.958 7.37)" fill="#fff"/>
        <g id="Group_1276" data-name="Group 1276">
          <g id="Group_1275" data-name="Group 1275" clip-path="url(#clip-path-2)">
            <path id="Path_4638" data-name="Path 4638" d="M64.792,112.242l-41.7,87.118L64.554,372.576C139.2,207.986,293.027,95.948,439.312,22.584Z" transform="translate(35.958 35.174)" fill="#e8e7f7"/>
            <path id="Path_4639" data-name="Path 4639" d="M23.087,144.759l73.3-32.741-31.6-54.377Z" transform="translate(35.958 89.775)" fill="#fff"/>
            <rect id="Rectangle_757" data-name="Rectangle 757" width="213.692" height="238.698" transform="translate(420.768 216.967) rotate(-13.445)" fill="#e8e7f7"/>
            <path id="Path_4640" data-name="Path 4640" d="M294.224,136.863l-12.128-.125-14.864,4.279-2.586,11.371-7.358-9.048-15.22,2.747-10.818,5.483-35.477,31.137,10.36,44.362,43.851-10.24,56.344-13.158,43.853-10.24-10.36-44.362Z" transform="translate(304.915 212.966)" fill="#3e3d5e"/>
            <path id="Path_4641" data-name="Path 4641" d="M240.641,211.21l36.288-8.475.637-64.134-33.173,7.747-.716,3.138-2.028-2.5-32.411,7.57Z" transform="translate(325.884 215.869)" fill="#e8e7f7"/>
            <path id="Path_4642" data-name="Path 4642" d="M246.837,154.465l-10.345,16.649-16.649-10.345,4.524-7.284a11.026,11.026,0,0,1,15.186-3.545Z" transform="translate(342.402 230.94)" fill="#3e3d5e"/>
            <path id="Path_4643" data-name="Path 4643" d="M246.173,180.55l-17.928-26.521-4.327,31.718Z" transform="translate(348.749 239.897)" fill="#3e3d5e"/>
            <path id="Path_4644" data-name="Path 4644" d="M266.413,146.7c1.885,8.074-8.662,17.439-23.56,20.918s-28.5-.246-30.388-8.319,8.665-17.439,23.56-20.918,28.5.246,30.388,8.32" transform="translate(330.572 213.491)" fill="#edb29a"/>
            <path id="Path_4645" data-name="Path 4645" d="M212.342,138.686l4.713,20.189a20.5,20.5,0,1,0,39.933-9.327l-4.711-20.186Z" transform="translate(330.719 201.478)" fill="#edb29a"/>
            <path id="Path_4646" data-name="Path 4646" d="M214.308,147.1c17.181,9.117,31.7,11.13,42.981,10.225a20.392,20.392,0,0,0-.3-7.78l-4.714-20.189-39.935,9.327Z" transform="translate(330.718 201.476)" fill="#d88d87"/>
            <path id="Path_4647" data-name="Path 4647" d="M292,132.538c7.734,33.117-5.245,64.459-32.749,70.881s-53.019-15.928-60.753-49.045,8.092-52.262,35.6-58.687S284.263,99.421,292,132.538" transform="translate(306.099 146.194)" fill="#edb29a"/>
            <path id="Path_4648" data-name="Path 4648" d="M282.541,111.971c-10.923-16.578-28.851-21.107-49.505-16.283-18.225,4.256-31.311,14.1-35.825,29.9,43.291,25.767,71.154,4.427,85.33-13.613" transform="translate(307.153 146.194)" fill="#d88d87"/>
            <path id="Path_4649" data-name="Path 4649" d="M196.056,139.2s-4.979-24.792,6.059-37.265l20.795,5.688-18.427,12.089-.036,22.071Z" transform="translate(303.61 158.757)" fill="#3e3d5e"/>
            <path id="Path_4650" data-name="Path 4650" d="M257.23,126.184s-6.516-24.434-21.938-30.728l-16.125,14.309,21.877,2.68,9.808,19.772Z" transform="translate(341.349 148.671)" fill="#3e3d5e"/>
            <path id="Path_4651" data-name="Path 4651" d="M218.7,118.9a6.064,6.064,0,1,1-7.284-4.527A6.064,6.064,0,0,1,218.7,118.9" transform="translate(321.978 177.884)" fill="#34344f"/>
            <path id="Path_4652" data-name="Path 4652" d="M232.521,115.671a6.064,6.064,0,1,1-7.284-4.527,6.065,6.065,0,0,1,7.284,4.527" transform="translate(343.504 172.857)" fill="#34344f"/>
            <path id="Path_4653" data-name="Path 4653" d="M223.1,111.87l-1.054,16.094-9.417,1.491s2.1,8.992,10.591,8.99l-5.765-6.506,8.483-.637Z" transform="translate(331.172 174.236)" fill="#d88d87"/>
            <path id="Path_4654" data-name="Path 4654" d="M230.582,123.708c.644,9.455,6.317,16.9,12.672,16.639s10.984-8.135,10.34-17.59-6.317-16.9-12.672-16.636-10.984,8.138-10.34,17.588" transform="translate(359.034 165.27)" fill="#edb29a"/>
            <path id="Path_4655" data-name="Path 4655" d="M234.839,119.589a5.365,5.365,0,0,0-2.7.887c-.015-.156-.038-.309-.049-.465-.425-6.245,2.634-11.447,6.831-11.621s7.946,4.749,8.373,10.992c.325,4.8-1.409,8.974-4.135,10.731-.578-6.018-4.233-10.693-8.325-10.524" transform="translate(361.423 168.808)" fill="#d88d87"/>
            <path id="Path_4656" data-name="Path 4656" d="M215.477,127c3.609,8.759,1.821,17.951-3.992,20.529s-13.452-2.43-17.061-11.189-1.821-17.951,3.992-20.529,13.452,2.43,17.061,11.189" transform="translate(299.907 179.314)" fill="#edb29a"/>
            <path id="Path_4657" data-name="Path 4657" d="M206.7,126a5.36,5.36,0,0,1,2.811-.4c-.056-.146-.1-.292-.164-.437-2.384-5.788-7.43-9.1-11.271-7.394s-5.023,7.775-2.639,13.562c1.834,4.447,5.24,7.422,8.46,7.79-2.148-5.652-.941-11.463,2.8-13.122" transform="translate(302.469 182.732)" fill="#d88d87"/>
            <path id="Path_4658" data-name="Path 4658" d="M242.113,122.665a68.59,68.59,0,0,1-30.539,5.816s5.243,11.5,18.478,8.8,12.061-14.616,12.061-14.616" transform="translate(329.523 191.049)" fill="#34344f"/>
            <path id="Path_4659" data-name="Path 4659" d="M213.473,132.393l.471-1.931-1.627-2.281a70.074,70.074,0,0,0,27.383-5.294l-1.115,3.616,1.437,1.757c-1.292,3.407-4.276,7.276-11.13,8.672-7.609,1.552-12.57-1.588-15.419-4.54" transform="translate(330.68 191.394)" fill="#fbf2eb"/>
            <path id="Path_4660" data-name="Path 4660" d="M238.285,125.023c-1.844,1.353-5.133,3.023-10.905,4.245-8.509,1.806-12.833.471-14.491-.33l.166-.678c11.094,2.79,24.639-3.959,24.639-3.959Z" transform="translate(331.571 193.598)" fill="#daceea"/>
            <path id="Path_4661" data-name="Path 4661" d="M206.122,120.97a37.1,37.1,0,0,1,16.524-6.509l-2.905-6.765s-10.243,3.719-15.66,9.775Z" transform="translate(317.853 167.736)" fill="#3e3d5e"/>
            <path id="Path_4662" data-name="Path 4662" d="M235.947,111.921a37.146,37.146,0,0,0-17.7,1.483l-.391-7.35s10.831-1.2,18.368,1.829Z" transform="translate(339.31 164.809)" fill="#3e3d5e"/>
            <path id="Path_4663" data-name="Path 4663" d="M286.8,114.323s-24.759,19.821-56.6,21.488-38.5-10.486-38.419-14.181,5.036-6.253,9.153-4.808c0,0-11.035-13.23-4.258-22.058s20.8-4.974,26.744,4.276c0,0-4.818-7.55-.268-10.506S233.91,87.9,236.478,95.4c0,0,43.163-12.335,50.319,18.923" transform="translate(298.694 135.95)" fill="#4c4c72"/>
            <path id="Path_4664" data-name="Path 4664" d="M258.184,106.773c-32.935,12.033-44.672-3.716-48.81-14.961a75.677,75.677,0,0,1,15.8-2.274c4.394,8.084,13.191,16.931,29.79,11.2a25.632,25.632,0,0,1,3.22,6.033" transform="translate(326.096 139.454)" fill="#60608c"/>
            <path id="Path_4665" data-name="Path 4665" d="M277.564,142.848l-11.575-6.974-4.79,1.655L247.166,166.95l-25.611-20.163-5.028.637L209.238,158.8l23.723,30.217,15.048-18.46,21.667,9.887Z" transform="translate(325.885 211.621)" fill="#f6f4ff"/>
            <rect id="Rectangle_758" data-name="Rectangle 758" width="247.928" height="37.518" transform="translate(136.633 289.167) rotate(-13.446)" fill="#aeaed6"/>
            <rect id="Rectangle_759" data-name="Rectangle 759" width="247.929" height="11.555" transform="translate(153.612 355.872) rotate(-13.446)" fill="#c4c4e8"/>
            <rect id="Rectangle_760" data-name="Rectangle 760" width="247.929" height="11.556" transform="translate(162.102 392.862) rotate(-13.445)" fill="#c4c4e8"/>
            <rect id="Rectangle_761" data-name="Rectangle 761" width="247.929" height="11.555" transform="translate(170.591 429.853) rotate(-13.446)" fill="#c4c4e8"/>
            <rect id="Rectangle_762" data-name="Rectangle 762" width="247.929" height="11.557" transform="translate(179.081 466.844) rotate(-13.446)" fill="#c4c4e8"/>
            <rect id="Rectangle_763" data-name="Rectangle 763" width="247.929" height="11.556" transform="translate(187.571 503.834) rotate(-13.446)" fill="#c4c4e8"/>
            <path id="Path_4666" data-name="Path 4666" d="M396.743,179.575,196.536,226.584l8.724,36.49,200.207-47.009Z" transform="translate(306.101 279.684)" fill="#aeaed6"/>
            <path id="Path_4667" data-name="Path 4667" d="M403.382,205.657,203.175,252.666l2.685,11.24L406.07,216.9Z" transform="translate(316.442 320.307)" fill="#c4c4e8"/>
            <path id="Path_4668" data-name="Path 4668" d="M406.7,220.12,206.495,267.129l2.685,11.24,200.21-47.009Z" transform="translate(321.612 342.834)" fill="#c4c4e8"/>
            <path id="Path_4669" data-name="Path 4669" d="M410.022,234.584,209.814,281.593l2.685,11.24,200.21-47.009Z" transform="translate(326.782 365.361)" fill="#c4c4e8"/>
            <path id="Path_4670" data-name="Path 4670" d="M413.341,249.048,213.134,296.057l2.685,11.24,200.21-47.009Z" transform="translate(331.952 387.888)" fill="#c4c4e8"/>
            <path id="Path_4671" data-name="Path 4671" d="M416.661,263.512,216.453,310.521l2.685,11.24,200.21-47.009Z" transform="translate(337.122 410.415)" fill="#c4c4e8"/>
            <rect id="Rectangle_764" data-name="Rectangle 764" width="58.408" height="58.409" transform="translate(211.274 559.957) rotate(-14.222)" fill="#fff"/>
            <path id="Path_4672" data-name="Path 4672" d="M142.45,226.048,88.615,251.375l-6-23.687,56.618-14.35Z" transform="translate(128.664 332.27)" fill="#e4eaf4"/>
            <path id="Path_4673" data-name="Path 4673" d="M100.849,294.595a6.4,6.4,0,0,1-6.192-4.826l-14.35-56.615a6.4,6.4,0,0,1,4.627-7.77l56.618-14.353a6.4,6.4,0,0,1,7.77,4.629l14.347,56.617a6.4,6.4,0,0,1-4.626,7.772L102.424,294.4a6.44,6.44,0,0,1-1.575.2M94.274,236.21l11.207,44.221L149.7,269.222,138.5,225Z" transform="translate(124.77 328.375)" fill="#9b9bba"/>
            <path id="Path_4674" data-name="Path 4674" d="M118.144,250.214a6.4,6.4,0,0,1-1.565-12.6l144.027-36.444a6.4,6.4,0,0,1,3.143,12.4L119.72,250.017a6.437,6.437,0,0,1-1.575.2" transform="translate(174.056 313.02)" fill="#c4c4e8"/>
            <path id="Path_4675" data-name="Path 4675" d="M120,254.731a6.4,6.4,0,0,1-1.565-12.6L244.284,210.3a6.4,6.4,0,0,1,3.141,12.4L121.576,254.534a6.42,6.42,0,0,1-1.575.2" transform="translate(176.946 327.234)" fill="#c4c4e8"/>
            <path id="Path_4676" data-name="Path 4676" d="M111.535,285.269l-17.26-12.854a5.114,5.114,0,0,1,6.112-8.2l7.8,5.805,36.649-67.359a5.114,5.114,0,1,1,8.984,4.89Z" transform="translate(143.625 311.481)" fill="#4edd70"/>
            <rect id="Rectangle_765" data-name="Rectangle 765" width="58.408" height="58.408" transform="translate(237.038 669.077) rotate(-14.222)" fill="#fff"/>
            <path id="Path_4677" data-name="Path 4677" d="M152.524,268.715,98.689,294.042l-6-23.687L149.3,256Z" transform="translate(144.354 398.722)" fill="#e4eaf4"/>
            <path id="Path_4678" data-name="Path 4678" d="M110.923,337.262a6.4,6.4,0,0,1-6.194-4.826L90.381,275.821a6.4,6.4,0,0,1,4.626-7.77L151.625,253.7a6.4,6.4,0,0,1,7.77,4.629l14.348,56.62a6.393,6.393,0,0,1-4.627,7.77L112.5,337.065a6.437,6.437,0,0,1-1.575.2m-6.575-58.385L115.554,323.1l44.221-11.209-11.2-44.221Z" transform="translate(140.46 394.828)" fill="#9b9bba"/>
            <path id="Path_4679" data-name="Path 4679" d="M128.217,292.881a6.4,6.4,0,0,1-1.565-12.6l144.027-36.444a6.4,6.4,0,1,1,3.143,12.4l-144.03,36.444a6.405,6.405,0,0,1-1.575.2" transform="translate(189.747 379.473)" fill="#c4c4e8"/>
            <path id="Path_4680" data-name="Path 4680" d="M130.074,297.4a6.4,6.4,0,0,1-1.565-12.6l125.849-31.838a6.4,6.4,0,0,1,3.141,12.4L131.65,297.2a6.423,6.423,0,0,1-1.575.2" transform="translate(192.636 393.688)" fill="#c4c4e8"/>
            <path id="Path_4681" data-name="Path 4681" d="M121.608,327.936,104.35,315.082a5.114,5.114,0,1,1,6.112-8.2l7.8,5.806,36.649-67.359a5.114,5.114,0,1,1,8.984,4.89Z" transform="translate(159.316 377.934)" fill="#4edd70"/>
            <rect id="Rectangle_766" data-name="Rectangle 766" width="58.408" height="58.409" transform="translate(262.802 778.195) rotate(-14.222)" fill="#fff"/>
            <path id="Path_4682" data-name="Path 4682" d="M162.6,311.381l-53.835,25.327-6-23.687,56.618-14.35Z" transform="translate(160.044 465.175)" fill="#e4eaf4"/>
            <path id="Path_4683" data-name="Path 4683" d="M121,379.929A6.4,6.4,0,0,1,114.8,375.1l-14.347-56.615a6.4,6.4,0,0,1,4.626-7.77L161.7,296.365a6.4,6.4,0,0,1,7.77,4.629l14.347,56.62a6.393,6.393,0,0,1-4.626,7.77l-56.618,14.347a6.437,6.437,0,0,1-1.575.2m-6.575-58.385,11.207,44.221,44.221-11.209-11.2-44.221Z" transform="translate(156.15 461.281)" fill="#9b9bba"/>
            <path id="Path_4684" data-name="Path 4684" d="M138.293,335.548a6.4,6.4,0,0,1-1.565-12.6l144.027-36.444a6.4,6.4,0,0,1,3.143,12.4l-144.03,36.444a6.44,6.44,0,0,1-1.575.2" transform="translate(205.437 445.925)" fill="#c4c4e8"/>
            <path id="Path_4685" data-name="Path 4685" d="M140.149,340.065a6.4,6.4,0,0,1-1.565-12.6l125.849-31.838a6.4,6.4,0,0,1,3.141,12.4L141.725,339.868a6.418,6.418,0,0,1-1.575.2" transform="translate(208.328 460.141)" fill="#c4c4e8"/>
            <path id="Path_4686" data-name="Path 4686" d="M131.682,370.6l-17.258-12.854a5.114,5.114,0,1,1,6.112-8.2l7.8,5.805,36.646-67.359a5.116,5.116,0,0,1,8.987,4.89Z" transform="translate(175.006 444.388)" fill="#4edd70"/>
            <path id="Path_4687" data-name="Path 4687" d="M279.819,9.287a21.122,21.122,0,0,0-38.232,7.846l-1.624,8.435,5.458-1.3L246.61,18.1a16.007,16.007,0,1,1,31.437,6.056L268.157,75.5l-5.749,29.843a10.041,10.041,0,1,1-19.718-3.8L253.1,47.519l-5.023-.967-10.4,54.024a15.154,15.154,0,1,0,29.761,5.734l6.286-32.633,9.353-48.554a20.984,20.984,0,0,0-3.251-15.836" transform="translate(369.731 -0.001)" fill="#f19b48"/>
            <g id="Group_1268" data-name="Group 1268" transform="translate(290.904 257.142)" opacity="0.14" style="mix-blend-mode: multiply;isolation: isolate">
              <g id="Group_1267" data-name="Group 1267">
                <g id="Group_1266-2" data-name="Group 1266" clip-path="url(#clip-path-4)">
                  <path id="Path_4688" data-name="Path 4688" d="M219.826,557.153c113.3,80.292,270.239,53.531,350.529-59.771a250.34,250.34,0,0,0,44.531-115.289L574.191,212.105a250.87,250.87,0,0,0-63.607-65.252c-113.3-80.29-270.236-53.531-350.529,59.771s-53.531,270.239,59.771,350.529" transform="translate(-113.746 -100.545)" fill="#7991a5"/>
                </g>
              </g>
            </g>
            <path id="Path_4689" data-name="Path 4689" d="M331.736,245.278,636.609,428.189a62.365,62.365,0,1,1-64.17,106.957,67.855,67.855,0,0,1-7.739-5.483L291.093,302.632a35.25,35.25,0,0,1,40.643-57.354" transform="translate(433.527 374.201)" fill="#683e38"/>
            <path id="Path_4690" data-name="Path 4690" d="M340.775,260.179,588.459,410.365a47.9,47.9,0,0,1-49.288,82.152,52.249,52.249,0,0,1-5.944-4.212L309.558,304.232a27.074,27.074,0,0,1,31.217-44.053" transform="translate(466.889 399.222)" fill="#784741"/>
            <line id="Line_77" data-name="Line 77" x2="251.201" y2="164.738" transform="translate(780.952 666.349)" fill="none" stroke="#935954" stroke-linecap="round" stroke-width="16"/>
            <path id="Path_4691" data-name="Path 4691" d="M270.665,315.234l67.842,47.792a17.842,17.842,0,0,0,24.805-4.23l40.344-56.93a17.847,17.847,0,0,0-4.23-24.805L331.584,229.27a17.842,17.842,0,0,0-24.8,4.23l-40.344,56.927a17.849,17.849,0,0,0,4.23,24.808" transform="translate(409.895 352.008)" fill="#c7bfbf"/>
            <path id="Path_4692" data-name="Path 4692" d="M368.454,255.247l-35.521-25.022a17.841,17.841,0,0,0-24.8,4.23l-40.344,56.93a17.846,17.846,0,0,0,4.23,24.8l35.475,24.992a181.725,181.725,0,0,0,60.965-85.934" transform="translate(411.996 353.495)" fill="#a19a9a"/>
            <path id="Path_4693" data-name="Path 4693" d="M365.014,252.81l-35.521-25.022a17.844,17.844,0,0,0-24.805,4.23l-40.344,56.93a17.846,17.846,0,0,0,4.23,24.8l35.475,24.992a181.723,181.723,0,0,0,60.965-85.934" transform="translate(406.638 349.7)" fill="#706e6e"/>
            <path id="Path_4694" data-name="Path 4694" d="M259.708,391.152a15.015,15.015,0,0,0,18.6,12.023,180.854,180.854,0,0,0,133.92-188.98,15.013,15.013,0,0,0-17.506-13.565L231.954,228.383Z" transform="translate(361.264 312.139)" fill="#553530"/>
            <path id="Path_4695" data-name="Path 4695" d="M285.4,236.73a7.238,7.238,0,0,1,10.064-1.716L316.5,249.9q-5.263,9.126-11.46,17.913-6.292,8.877-13.276,16.948l-21.01-14.867a7.243,7.243,0,0,1-1.716-10.064Z" transform="translate(416.96 363.971)" fill="#706e6e"/>
            <path id="Path_4696" data-name="Path 4696" d="M159.93,201.6c-74.31,104.862-49.544,250.109,55.318,324.419S465.358,575.566,539.668,470.7s49.541-250.109-55.318-324.419S234.241,96.741,159.93,201.6" transform="translate(182.335 161.082)" fill="#cacbcc"/>
            <path id="Path_4697" data-name="Path 4697" d="M304.923,111.7c-119.567,20.388-199.97,133.846-179.581,253.413S259.187,565.078,378.755,544.69s199.97-133.846,179.581-253.413S424.49,91.307,304.923,111.7" transform="translate(190.296 169.042)" fill="#9caab5"/>
            <path id="Path_4698" data-name="Path 4698" d="M300.031,115.872C186.5,135.23,110.158,242.959,129.518,356.488S256.6,546.36,370.134,527,560.007,399.916,540.649,286.385,413.56,96.514,300.031,115.872" transform="translate(197.049 175.796)" fill="#ede8e8"/>
            <path id="Path_4699" data-name="Path 4699" d="M297.827,117.755C187.019,136.65,112.507,241.8,131.4,352.6S255.442,537.927,366.25,519.032s185.32-124.04,166.426-234.851S408.635,98.861,297.827,117.755" transform="translate(200.095 178.841)" fill="#706e6e"/>
            <path id="Path_4700" data-name="Path 4700" d="M295.767,119.515C187.5,137.975,114.7,240.709,133.162,348.973S254.353,530.04,362.619,511.58s181.065-121.194,162.6-229.46-121.192-181.065-229.457-162.6" transform="translate(202.94 181.687)" fill="#e8e7f7"/>
            <path id="Path_4701" data-name="Path 4701" d="M138.364,338.239c17.179,100.747,112.775,168.492,213.522,151.313S520.377,376.775,503.2,276.028,390.421,107.539,289.677,124.718,121.185,237.492,138.364,338.239" transform="translate(211.352 190.098)" fill="#f6f4ff"/>
            <g id="Group_1271" data-name="Group 1271" transform="translate(444.291 393.86)" opacity="0.2" style="mix-blend-mode: color-dodge;isolation: isolate">
              <g id="Group_1270" data-name="Group 1270">
                <g id="Group_1269" data-name="Group 1269" clip-path="url(#clip-path-5)">
                  <path id="Path_4702" data-name="Path 4702" d="M176.583,386.319a198.675,198.675,0,0,0,19.91,59,197.957,197.957,0,0,0,98.5,8.089c108.266-18.46,181.067-121.191,162.6-229.457a198.675,198.675,0,0,0-19.91-59,197.954,197.954,0,0,0-98.5-8.089c-108.263,18.46-181.065,121.191-162.6,229.457" transform="translate(-173.722 -154.003)" fill="#e0e5e8"/>
                </g>
              </g>
            </g>
            <line id="Line_78" data-name="Line 78" x2="19.685" y2="13.951" transform="translate(775.992 637.26)" fill="none" stroke="#fff" stroke-linecap="round" stroke-linejoin="round" stroke-width="10"/>
            <g id="Group_1274" data-name="Group 1274" transform="translate(505.87 321.455)" opacity="0.62" style="mix-blend-mode: color-dodge;isolation: isolate">
              <g id="Group_1273" data-name="Group 1273">
                <g id="Group_1272" data-name="Group 1272" clip-path="url(#clip-path-6)">
                  <path id="Path_4703" data-name="Path 4703" d="M318.654,172.952c-3.938,15.363-34.091,20.907-67.346,12.383s-57.019-27.892-53.081-43.257,34.091-20.91,67.346-12.383,57.019,27.892,53.081,43.257" transform="translate(-197.8 -125.692)" fill="#e0e5e8"/>
                </g>
              </g>
            </g>
          </g>
        </g>
        <g id="Group_1278" data-name="Group 1278" transform="translate(333.24 298.341)">
          <g id="Group_1277" data-name="Group 1277" clip-path="url(#clip-path-7)">
            <rect id="Rectangle_771" data-name="Rectangle 771" width="282.936" height="316.045" transform="translate(42.967 -29.441) rotate(-13.445)" fill="#e8e7f7"/>
            <path id="Path_4704" data-name="Path 4704" d="M318.828,174.029l-16.058-.166-19.68,5.665-3.424,15.056L269.927,182.6l-20.153,3.637L235.449,193.5l-46.973,41.227,13.718,58.738,58.06-13.56,74.6-17.419,58.063-13.56L379.2,190.187Z" transform="translate(-39.692 -27.553)" fill="#3e3d5e"/>
            <path id="Path_4705" data-name="Path 4705" d="M247.88,272.468l48.047-11.22.841-84.919-43.922,10.258-.946,4.153-2.688-3.307L206.3,197.454Z" transform="translate(-11.927 -23.711)" fill="#e8e7f7"/>
            <path id="Path_4706" data-name="Path 4706" d="M256.086,198.155l-13.7,22.045-22.046-13.7,7.877-12.677a11.029,11.029,0,0,1,15.189-3.547Z" transform="translate(9.94 -4.576)" fill="#3e3d5e"/>
            <path id="Path_4707" data-name="Path 4707" d="M255.205,231.871l-23.736-35.114-5.729,41.994Z" transform="translate(18.347 8.105)" fill="#3e3d5e"/>
            <path id="Path_4708" data-name="Path 4708" d="M282,187.049c2.5,10.69-11.47,23.089-31.194,27.695s-37.736-.325-40.234-11.015,11.47-23.091,31.194-27.695,37.738.325,40.234,11.015" transform="translate(-5.721 -26.859)" fill="#edb29a"/>
            <path id="Path_4709" data-name="Path 4709" d="M210.412,176.443l6.243,26.728a27.148,27.148,0,1,0,52.873-12.345l-6.24-26.731Z" transform="translate(-5.527 -42.765)" fill="#edb29a"/>
            <path id="Path_4710" data-name="Path 4710" d="M213.017,187.588c22.749,12.071,41.973,14.736,56.909,13.537a27.006,27.006,0,0,0-.4-10.3L263.29,164.1l-52.879,12.348Z" transform="translate(-5.529 -42.765)" fill="#d88d87"/>
            <path id="Path_4711" data-name="Path 4711" d="M315.879,168.3c10.24,43.848-6.944,85.346-43.36,93.849s-70.2-21.092-80.441-64.94,10.716-69.2,47.129-77.7,66.431,4.944,76.671,48.792" transform="translate(-38.123 -115.961)" fill="#edb29a"/>
            <path id="Path_4712" data-name="Path 4712" d="M303.358,141.071c-14.463-21.951-38.2-27.946-65.546-21.56-24.13,5.634-41.459,18.675-47.434,39.585,57.316,34.114,94.21,5.862,112.979-18.025" transform="translate(-36.728 -115.961)" fill="#d88d87"/>
            <path id="Path_4713" data-name="Path 4713" d="M188.849,177.12s-6.591-32.825,8.023-49.342l27.534,7.532-24.4,16.007-.049,29.222Z" transform="translate(-41.42 -99.329)" fill="#3e3d5e"/>
            <path id="Path_4714" data-name="Path 4714" d="M269.845,159.889s-8.629-32.352-29.045-40.684l-21.35,18.946,28.964,3.547L261.4,167.876Z" transform="translate(8.55 -112.681)" fill="#3e3d5e"/>
            <path id="Path_4715" data-name="Path 4715" d="M218.83,150.242a8.029,8.029,0,1,1-9.644-5.992,8.031,8.031,0,0,1,9.644,5.992" transform="translate(-17.099 -74.004)" fill="#34344f"/>
            <path id="Path_4716" data-name="Path 4716" d="M237.129,145.969a8.029,8.029,0,1,1-9.644-5.992,8.031,8.031,0,0,1,9.644,5.992" transform="translate(11.402 -80.659)" fill="#34344f"/>
            <path id="Path_4717" data-name="Path 4717" d="M224.661,140.937l-1.394,21.312L210.8,164.223s2.78,11.905,14.023,11.9l-7.634-8.616,11.232-.844Z" transform="translate(-4.924 -78.834)" fill="#d88d87"/>
            <path id="Path_4718" data-name="Path 4718" d="M234.562,156.61c.852,12.516,8.366,22.375,16.78,22.03s14.542-10.772,13.69-23.288-8.366-22.378-16.78-22.028S233.71,144.1,234.562,156.61" transform="translate(31.963 -90.704)" fill="#edb29a"/>
            <path id="Path_4719" data-name="Path 4719" d="M240.2,151.155a7.085,7.085,0,0,0-3.57,1.176c-.02-.207-.049-.409-.061-.619-.565-8.266,3.486-15.153,9.043-15.383s10.521,6.284,11.084,14.552c.432,6.355-1.864,11.882-5.473,14.209-.765-7.969-5.606-14.161-11.023-13.936" transform="translate(35.129 -86.019)" fill="#d88d87"/>
            <path id="Path_4720" data-name="Path 4720" d="M214.563,160.966c4.777,11.6,2.412,23.767-5.286,27.181s-17.81-3.217-22.588-14.816-2.412-23.767,5.286-27.181,17.81,3.217,22.588,14.815" transform="translate(-46.322 -72.109)" fill="#edb29a"/>
            <path id="Path_4721" data-name="Path 4721" d="M202.94,159.649a7.091,7.091,0,0,1,3.721-.527c-.074-.194-.138-.389-.217-.583-3.156-7.66-9.836-12.043-14.923-9.787s-6.649,10.3-3.493,17.959c2.427,5.89,6.936,9.826,11.2,10.314-2.844-7.483-1.245-15.176,3.711-17.376" transform="translate(-42.931 -67.585)" fill="#d88d87"/>
            <path id="Path_4722" data-name="Path 4722" d="M249.83,155.23a90.85,90.85,0,0,1-40.434,7.7s6.941,15.225,24.462,11.652S249.83,155.23,249.83,155.23" transform="translate(-7.109 -56.573)" fill="#34344f"/>
            <path id="Path_4723" data-name="Path 4723" d="M211.912,168.11l.624-2.557-2.156-3.02a92.913,92.913,0,0,0,36.257-7.007l-1.478,4.788,1.9,2.325c-1.708,4.511-5.66,9.634-14.734,11.486-10.074,2.054-16.649-2.1-20.416-6.013" transform="translate(-5.577 -56.113)" fill="#fbf2eb"/>
            <path id="Path_4724" data-name="Path 4724" d="M244.76,158.351c-2.442,1.793-6.8,4-14.44,5.621-11.263,2.389-16.989.624-19.184-.437l.217-.9c14.69,3.7,32.626-5.24,32.626-5.24Z" transform="translate(-4.398 -53.197)" fill="#daceea"/>
            <path id="Path_4725" data-name="Path 4725" d="M202.177,152.984a49.141,49.141,0,0,1,21.877-8.619l-3.844-8.954s-13.562,4.923-20.733,12.941Z" transform="translate(-22.56 -87.439)" fill="#3e3d5e"/>
            <path id="Path_4726" data-name="Path 4726" d="M241.665,141.006a49.135,49.135,0,0,0-23.432,1.962l-.517-9.731s14.337-1.593,24.319,2.419Z" transform="translate(5.85 -91.314)" fill="#3e3d5e"/>
            <path id="Path_4727" data-name="Path 4727" d="M308.992,144.185s-32.782,26.242-74.937,28.449-50.981-13.882-50.866-18.777,6.662-8.276,12.117-6.363c0,0-14.611-17.516-5.639-29.206s27.539-6.588,35.411,5.662c0,0-6.378-10-.355-13.913s14.243-.844,17.644,9.092c0,0,57.152-16.332,66.625,25.056" transform="translate(-47.927 -129.528)" fill="#4c4c72"/>
            <path id="Path_4728" data-name="Path 4728" d="M271.108,134.191c-43.608,15.931-59.147-4.921-64.625-19.81a100.442,100.442,0,0,1,20.918-3.013c5.818,10.706,17.468,22.416,39.444,14.836a33.718,33.718,0,0,1,4.263,7.987" transform="translate(-11.646 -124.887)" fill="#60608c"/>
            <path id="Path_4729" data-name="Path 4729" d="M296.771,181.953l-15.327-9.235L275.1,174.91l-18.58,38.956-33.91-26.7-6.657.841L206.3,203.078l31.414,40.009,19.923-24.442,28.687,13.092Z" transform="translate(-11.928 -29.335)" fill="#f6f4ff"/>
            <rect id="Rectangle_772" data-name="Rectangle 772" width="328.265" height="49.676" transform="translate(-333.24 66.156) rotate(-13.445)" fill="#aeaed6"/>
            <rect id="Rectangle_773" data-name="Rectangle 773" width="328.266" height="15.301" transform="translate(-310.758 154.475) rotate(-13.445)" fill="#c4c4e8"/>
            <rect id="Rectangle_774" data-name="Rectangle 774" width="328.266" height="15.301" transform="translate(-299.518 203.452) rotate(-13.445)" fill="#c4c4e8"/>
            <rect id="Rectangle_775" data-name="Rectangle 775" width="328.266" height="15.301" transform="translate(-288.277 252.429) rotate(-13.445)" fill="#c4c4e8"/>
            <rect id="Rectangle_776" data-name="Rectangle 776" width="328.266" height="15.301" transform="translate(-277.036 301.406) rotate(-13.445)" fill="#c4c4e8"/>
            <rect id="Rectangle_777" data-name="Rectangle 777" width="328.265" height="15.3" transform="translate(-265.795 350.383) rotate(-13.445)" fill="#c4c4e8"/>
            <path id="Path_4730" data-name="Path 4730" d="M454.568,230.58,189.484,292.822l11.55,48.316L466.117,278.9Z" transform="translate(-38.121 60.784)" fill="#aeaed6"/>
            <path id="Path_4731" data-name="Path 4731" d="M463.358,265.114,198.275,327.355l3.557,14.882L466.915,280Z" transform="translate(-24.43 114.57)" fill="#c4c4e8"/>
            <path id="Path_4732" data-name="Path 4732" d="M467.753,284.264,202.67,346.506l3.557,14.882,265.083-62.241Z" transform="translate(-17.585 144.396)" fill="#c4c4e8"/>
            <path id="Path_4733" data-name="Path 4733" d="M472.148,303.415,207.065,365.656l3.557,14.882L475.706,318.3Z" transform="translate(-10.74 174.223)" fill="#c4c4e8"/>
            <path id="Path_4734" data-name="Path 4734" d="M476.544,322.565,211.46,384.807l3.557,14.882L480.1,337.447Z" transform="translate(-3.894 204.05)" fill="#c4c4e8"/>
            <path id="Path_4735" data-name="Path 4735" d="M480.939,341.716,215.856,403.957l3.557,14.882L484.5,356.6Z" transform="translate(2.951 233.876)" fill="#c4c4e8"/>
            <rect id="Rectangle_778" data-name="Rectangle 778" width="77.335" height="77.335" transform="translate(-234.413 424.692) rotate(-14.222)" fill="#fff"/>
            <path id="Path_4736" data-name="Path 4736" d="M117.872,292.112l-71.28,33.534-7.949-31.365,74.962-19Z" transform="translate(-273.054 130.41)" fill="#e4eaf4"/>
            <path id="Path_4737" data-name="Path 4737" d="M62.791,382.872a8.472,8.472,0,0,1-8.2-6.391l-19-74.962a8.465,8.465,0,0,1,6.125-10.286l74.965-19a8.468,8.468,0,0,1,10.284,6.128l19,74.965a8.47,8.47,0,0,1-6.128,10.289l-74.962,19a8.515,8.515,0,0,1-2.087.263m-8.706-77.305,14.839,58.551,58.551-14.841-14.836-58.551Z" transform="translate(-278.21 125.253)" fill="#9b9bba"/>
            <path id="Path_4738" data-name="Path 4738" d="M85.693,324.109a8.469,8.469,0,0,1-2.074-16.677l190.7-48.252a8.468,8.468,0,0,1,4.158,16.417l-190.7,48.252a8.639,8.639,0,0,1-2.087.261" transform="translate(-212.953 104.921)" fill="#c4c4e8"/>
            <path id="Path_4739" data-name="Path 4739" d="M88.15,330.091a8.469,8.469,0,0,1-2.074-16.677l166.63-42.155a8.467,8.467,0,0,1,4.158,16.416L90.236,329.83a8.622,8.622,0,0,1-2.087.261" transform="translate(-209.126 123.742)" fill="#c4c4e8"/>
            <path id="Path_4740" data-name="Path 4740" d="M76.938,370.524,54.087,353.5a6.771,6.771,0,1,1,8.092-10.859L72.5,350.333l48.523-89.185a6.773,6.773,0,0,1,11.9,6.473Z" transform="translate(-253.246 102.886)" fill="#4edd70"/>
            <rect id="Rectangle_779" data-name="Rectangle 779" width="77.334" height="77.335" transform="translate(-200.299 569.17) rotate(-14.222)" fill="#fff"/>
            <path id="Path_4741" data-name="Path 4741" d="M131.21,348.6,59.928,382.138l-7.946-31.365,74.962-19Z" transform="translate(-252.279 218.395)" fill="#e4eaf4"/>
            <path id="Path_4742" data-name="Path 4742" d="M76.129,439.365a8.473,8.473,0,0,1-8.2-6.389l-19-74.965a8.465,8.465,0,0,1,6.125-10.286l74.965-19a8.472,8.472,0,0,1,10.286,6.128l19,74.968a8.466,8.466,0,0,1-6.128,10.286l-74.962,19a8.515,8.515,0,0,1-2.087.263m-8.706-77.305L82.262,420.61l58.551-14.841-14.836-58.551Z" transform="translate(-257.437 213.239)" fill="#9b9bba"/>
            <path id="Path_4743" data-name="Path 4743" d="M99.031,380.6a8.469,8.469,0,0,1-2.074-16.677l190.7-48.252a8.467,8.467,0,0,1,4.158,16.416l-190.7,48.252a8.633,8.633,0,0,1-2.087.261" transform="translate(-192.179 192.908)" fill="#c4c4e8"/>
            <path id="Path_4744" data-name="Path 4744" d="M101.489,386.583a8.469,8.469,0,0,1-2.074-16.677L266.042,327.75a8.468,8.468,0,1,1,4.161,16.416L103.575,386.322a8.641,8.641,0,0,1-2.087.261" transform="translate(-188.351 211.728)" fill="#c4c4e8"/>
            <path id="Path_4745" data-name="Path 4745" d="M90.277,427.016,67.426,410a6.771,6.771,0,0,1,8.092-10.859l10.325,7.688,48.521-89.185a6.773,6.773,0,1,1,11.9,6.473Z" transform="translate(-232.471 190.872)" fill="#4edd70"/>
            <path id="Path_4746" data-name="Path 4746" d="M112.37,437.094a8.469,8.469,0,0,1-2.074-16.677L301,372.165a8.467,8.467,0,0,1,4.159,16.416l-190.7,48.252a8.639,8.639,0,0,1-2.087.261" transform="translate(-171.404 280.893)" fill="#c4c4e8"/>
            <path id="Path_4747" data-name="Path 4747" d="M103.615,483.508l-22.851-17.02a6.771,6.771,0,1,1,8.092-10.859l10.325,7.688L147.7,374.13a6.774,6.774,0,0,1,11.9,6.476Z" transform="translate(-211.697 278.857)" fill="#4edd70"/>
          </g>
        </g>
        <g id="Group_1280" data-name="Group 1280">
          <g id="Group_1279" data-name="Group 1279" clip-path="url(#clip-path-2)">
            <path id="Path_4749" data-name="Path 4749" d="M297.827,117.755C187.019,136.65,112.507,241.8,131.4,352.6S255.442,537.927,366.25,519.032s185.32-124.04,166.426-234.851S408.635,98.861,297.827,117.755Z" transform="translate(200.095 178.841)" fill="none" stroke="#4c4c72" stroke-width="4"/>
          </g>
        </g>
      </g>
    </g>
  </g>
</svg>
