<svg xmlns="http://www.w3.org/2000/svg" xmlns:xlink="http://www.w3.org/1999/xlink" width="16.32" height="16.32" viewBox="0 0 16.32 16.32">
  <defs>
    <clipPath id="clip-path">
      <rect id="Rectangle_564" data-name="Rectangle 564" width="16.32" height="16.321" fill="#061455"/>
    </clipPath>
  </defs>
  <g id="Group_1242" data-name="Group 1242" transform="translate(0)">
    <g id="Group_942" data-name="Group 942" transform="translate(0 0)" clip-path="url(#clip-path)">
      <path id="Path_4409" data-name="Path 4409" d="M8.244,1.486c2.2,0,2.462.008,3.331.048a4.56,4.56,0,0,1,1.531.284,2.554,2.554,0,0,1,.948.617,2.554,2.554,0,0,1,.617.948,4.565,4.565,0,0,1,.284,1.531c.04.869.048,1.13.048,3.332s-.008,2.462-.048,3.332a4.565,4.565,0,0,1-.284,1.531,2.73,2.73,0,0,1-1.565,1.565,4.56,4.56,0,0,1-1.531.284c-.869.04-1.13.048-3.331.048S5.782,15,4.913,14.956a4.56,4.56,0,0,1-1.531-.284,2.554,2.554,0,0,1-.948-.617,2.554,2.554,0,0,1-.617-.948,4.56,4.56,0,0,1-.284-1.531c-.04-.869-.048-1.13-.048-3.332s.008-2.462.048-3.332a4.56,4.56,0,0,1,.284-1.531,2.554,2.554,0,0,1,.617-.948,2.554,2.554,0,0,1,.948-.617,4.56,4.56,0,0,1,1.531-.284c.869-.04,1.13-.048,3.332-.048M8.244,0c-2.239,0-2.52.01-3.4.05a6.052,6.052,0,0,0-2,.383,4.04,4.04,0,0,0-1.46.951,4.041,4.041,0,0,0-.951,1.46,6.053,6.053,0,0,0-.383,2C.01,5.725,0,6.006,0,8.245s.01,2.52.05,3.4a6.053,6.053,0,0,0,.383,2,4.041,4.041,0,0,0,.951,1.46,4.043,4.043,0,0,0,1.46.951,6.052,6.052,0,0,0,2,.383c.879.04,1.16.05,3.4.05s2.52-.01,3.4-.05a6.052,6.052,0,0,0,2-.383,4.215,4.215,0,0,0,2.411-2.411,6.053,6.053,0,0,0,.383-2c.04-.879.05-1.16.05-3.4s-.01-2.52-.05-3.4a6.053,6.053,0,0,0-.383-2,4.043,4.043,0,0,0-.951-1.46,4.04,4.04,0,0,0-1.46-.951,6.052,6.052,0,0,0-2-.383C10.764.01,10.483,0,8.244,0" transform="translate(-0.075 -0.057)" fill="#061455"/>
      <path id="Path_4410" data-name="Path 4410" d="M24.91,20.676a4.234,4.234,0,1,0,4.234,4.234,4.234,4.234,0,0,0-4.234-4.234m0,6.982a2.748,2.748,0,1,1,2.748-2.748,2.748,2.748,0,0,1-2.748,2.748" transform="translate(-16.741 -16.722)" fill="#061455"/>
      <path id="Path_4411" data-name="Path 4411" d="M62.066,15.7a.989.989,0,1,1-.989-.989.989.989,0,0,1,.989.989" transform="translate(-48.507 -11.915)" fill="#061455"/>
    </g>
  </g>
</svg>
