<svg id="Group_941" data-name="Group 941" xmlns="http://www.w3.org/2000/svg" xmlns:xlink="http://www.w3.org/1999/xlink" width="22.414" height="22.353" viewBox="0 0 22.414 22.353">
  <defs>
    <clipPath id="clip-path">
      <rect id="Rectangle_563" data-name="Rectangle 563" width="22.414" height="22.353" fill="#061455"/>
    </clipPath>
  </defs>
  <g id="Group_940" data-name="Group 940" transform="translate(0 0)" clip-path="url(#clip-path)">
    <path id="Path_4406" data-name="Path 4406" d="M32.741,27.567c.31-.349.567-.7.886-1a4.858,4.858,0,0,1,3.5-1.379,8.081,8.081,0,0,1,2.2.268,4.3,4.3,0,0,1,3.05,3.208,13.446,13.446,0,0,1,.406,3.676c0,2.613-.008,5.225,0,7.837,0,.245-.068.309-.309.307q-2.019-.016-4.038,0c-.237,0-.288-.071-.287-.3q.011-3.729,0-7.457a6.7,6.7,0,0,0-.216-1.851,2.082,2.082,0,0,0-2.29-1.623,2.5,2.5,0,0,0-2.629,2.5,9.322,9.322,0,0,0-.071,1.166c0,2.417,0,4.835.006,7.253,0,.241-.059.312-.306.31q-2.034-.018-4.067,0c-.217,0-.28-.057-.28-.277q.009-7.18,0-14.359c0-.237.077-.292.3-.29q1.931.014,3.862,0c.237,0,.3.075.293.3-.013.572,0,1.144,0,1.716" transform="translate(-20.363 -18.127)" fill="#061455"/>
    <path id="Path_4407" data-name="Path 4407" d="M5.919,33.981c0,2.368,0,4.736.006,7.1,0,.263-.064.343-.337.34-1.345-.015-2.691-.011-4.036,0-.215,0-.28-.052-.28-.275q.01-7.192,0-14.383c0-.2.048-.269.259-.268,1.365.009,2.73.011,4.095,0,.262,0,.3.1.3.324q-.01,3.581,0,7.162" transform="translate(-0.915 -19.071)" fill="#061455"/>
    <path id="Path_4408" data-name="Path 4408" d="M5.375,2.674A2.687,2.687,0,1,1,2.692,0,2.7,2.7,0,0,1,5.375,2.674" transform="translate(0 0)" fill="#061455"/>
  </g>
</svg>
