<svg id="Group_746" data-name="Group 746" xmlns="http://www.w3.org/2000/svg" xmlns:xlink="http://www.w3.org/1999/xlink" width="453.725" height="425.706" viewBox="0 0 453.725 425.706">
  <defs>
    <clipPath id="clip-path">
      <rect id="Rectangle_354" data-name="Rectangle 354" width="453.725" height="425.706" fill="none"/>
    </clipPath>
    <clipPath id="clip-path-5">
      <rect id="Rectangle_345" data-name="Rectangle 345" width="87.16" height="190.208" fill="none"/>
    </clipPath>
    <clipPath id="clip-path-6">
      <rect id="Rectangle_348" data-name="Rectangle 348" width="149.219" height="149.232" fill="none"/>
    </clipPath>
  </defs>
  <g id="Group_745" data-name="Group 745" clip-path="url(#clip-path)">
    <rect id="Rectangle_302" data-name="Rectangle 302" width="27.474" height="11.61" transform="translate(410.925 14.64)" fill="#ebebeb"/>
    <rect id="Rectangle_303" data-name="Rectangle 303" width="27.474" height="11.61" transform="translate(426.25)" fill="#ebebeb"/>
    <rect id="Rectangle_304" data-name="Rectangle 304" width="27.474" height="11.61" transform="translate(78.647 189.123)" fill="#ebebeb"/>
    <rect id="Rectangle_305" data-name="Rectangle 305" width="27.474" height="11.61" transform="translate(93.972 174.483)" fill="#ebebeb"/>
    <rect id="Rectangle_306" data-name="Rectangle 306" width="27.474" height="11.61" transform="translate(109.238 189.123)" fill="#ebebeb"/>
    <rect id="Rectangle_307" data-name="Rectangle 307" width="27.474" height="11.61" fill="#ebebeb"/>
    <rect id="Rectangle_308" data-name="Rectangle 308" width="27.474" height="11.61" transform="translate(15.326 293.733)" fill="#ebebeb"/>
    <rect id="Rectangle_309" data-name="Rectangle 309" width="27.474" height="11.611" transform="translate(0 279.093)" fill="#ebebeb"/>
    <rect id="Rectangle_310" data-name="Rectangle 310" width="27.474" height="11.61" transform="translate(410.925 293.733)" fill="#ebebeb"/>
    <rect id="Rectangle_311" data-name="Rectangle 311" width="81.527" height="98.891" transform="translate(266.464 27.429)" fill="#ebebeb"/>
    <rect id="Rectangle_312" data-name="Rectangle 312" width="62.895" height="80.84" transform="translate(275.779 36.454)" fill="#fff"/>
    <rect id="Rectangle_313" data-name="Rectangle 313" width="2.455" height="80.84" transform="translate(275.778 36.454)" fill="#dbdbdb"/>
    <rect id="Rectangle_314" data-name="Rectangle 314" width="2.455" height="98.891" transform="translate(347.99 27.429)" fill="#dbdbdb"/>
    <rect id="Rectangle_315" data-name="Rectangle 315" width="14.83" height="44.184" transform="translate(299.811 54.783)" fill="#dbdbdb"/>
    <rect id="Rectangle_316" data-name="Rectangle 316" width="39.544" height="21.647" transform="translate(287.455 66.051)" fill="none" stroke="#ebebeb" stroke-width="1"/>
    <rect id="Rectangle_317" data-name="Rectangle 317" width="81.527" height="98.891" transform="translate(347.043 150.142)" fill="#ebebeb"/>
    <rect id="Rectangle_318" data-name="Rectangle 318" width="62.895" height="80.84" transform="translate(356.359 159.168)" fill="#fff"/>
    <rect id="Rectangle_319" data-name="Rectangle 319" width="2.454" height="80.84" transform="translate(356.36 159.168)" fill="#dbdbdb"/>
    <rect id="Rectangle_320" data-name="Rectangle 320" width="2.455" height="98.891" transform="translate(428.57 150.142)" fill="#dbdbdb"/>
    <rect id="Rectangle_321" data-name="Rectangle 321" width="12.704" height="32.124" transform="translate(381.718 180.065)" fill="#ebebeb"/>
    <rect id="Rectangle_322" data-name="Rectangle 322" width="34.13" height="22.145" transform="translate(370.742 199.588)" fill="none" stroke="#dbdbdb" stroke-width="1"/>
    <rect id="Rectangle_323" data-name="Rectangle 323" width="181.193" height="7.944" transform="translate(23.164 73.892)" fill="#ebebeb"/>
    <rect id="Rectangle_324" data-name="Rectangle 324" width="7.949" height="26.279" transform="translate(186.25 81.84)" fill="#ebebeb"/>
    <rect id="Rectangle_325" data-name="Rectangle 325" width="7.949" height="8.123" transform="translate(186.249 81.84)" fill="#dbdbdb"/>
    <rect id="Rectangle_326" data-name="Rectangle 326" width="7.948" height="26.279" transform="translate(33.317 81.84)" fill="#ebebeb"/>
    <rect id="Rectangle_327" data-name="Rectangle 327" width="7.948" height="8.123" transform="translate(33.317 81.84)" fill="#dbdbdb"/>
    <rect id="Rectangle_328" data-name="Rectangle 328" width="12.752" height="50.64" transform="translate(157.783 23.253)" fill="#c7c7c7"/>
    <rect id="Rectangle_329" data-name="Rectangle 329" width="12.752" height="5.565" transform="translate(157.783 20.545)" fill="#dbdbdb"/>
    <rect id="Rectangle_330" data-name="Rectangle 330" width="12.752" height="2.065" transform="translate(157.783 33.241)" fill="#dbdbdb"/>
    <rect id="Rectangle_331" data-name="Rectangle 331" width="14.342" height="5.564" transform="translate(156.193 61.686)" fill="#dbdbdb"/>
    <rect id="Rectangle_332" data-name="Rectangle 332" width="8.912" height="59.072" transform="translate(148.87 14.821)" fill="#dbdbdb"/>
    <rect id="Rectangle_333" data-name="Rectangle 333" width="5.348" height="22.72" transform="translate(150.691 20.375)" fill="#ebebeb"/>
    <rect id="Rectangle_334" data-name="Rectangle 334" width="59.073" height="8.912" transform="translate(85.463 67.565) rotate(-44.666)" fill="#c7c7c7"/>
    <rect id="Rectangle_335" data-name="Rectangle 335" width="22.721" height="5.349" transform="translate(96.554 59.066) rotate(-44.665)" fill="#dbdbdb"/>
    <rect id="Rectangle_336" data-name="Rectangle 336" width="15.135" height="44.871" transform="translate(133.741 29.033)" fill="#a6a6a6"/>
    <rect id="Rectangle_337" data-name="Rectangle 337" width="15.135" height="4.182" transform="translate(133.741 64.964)" fill="#c7c7c7"/>
    <rect id="Rectangle_338" data-name="Rectangle 338" width="15.135" height="1.622" transform="translate(133.741 60.598)" fill="#c7c7c7"/>
    <rect id="Rectangle_339" data-name="Rectangle 339" width="10.455" height="42.169" transform="translate(170.535 31.735)" fill="#a6a6a6"/>
    <rect id="Rectangle_340" data-name="Rectangle 340" width="10.455" height="3.93" transform="translate(170.535 65.503)" fill="#c7c7c7"/>
    <rect id="Rectangle_341" data-name="Rectangle 341" width="10.455" height="3.93" transform="translate(170.535 40.427)" fill="#c7c7c7"/>
    <rect id="Rectangle_342" data-name="Rectangle 342" width="10.455" height="1.524" transform="translate(170.535 47.049)" fill="#c7c7c7"/>
    <g id="Group_730" data-name="Group 730">
      <g id="Group_729" data-name="Group 729" clip-path="url(#clip-path)">
        <path id="Path_540" data-name="Path 540" d="M57.676,19.158C66.6,27.891,68.093,41.4,66.214,53.232c-.05.269-.464.2-.464-.057,0-2.693.081-5.363.074-8.024-.05-.122-.09-.236-.14-.358a17.93,17.93,0,0,1-5.795-6.225c-1.488-2.93-2.075-6.234-3.214-9.294-.106-.293.208-.208.411-.056,5.426,4,7.155,8.307,8.712,14.061a47.868,47.868,0,0,0-.943-8.96c-1.171-5.46-3.491-10.872-7.414-14.926-.146-.155.082-.39.236-.236" transform="translate(2.125 0.717)" fill="#a6a6a6"/>
        <path id="Path_541" data-name="Path 541" d="M56.317,20.429c-1.534.052-2.5,2.5-3.693,3.219a1.15,1.15,0,0,1-1.693-.266c-1.185-1.654.441-3.695,1.97-4.836a17.051,17.051,0,0,1-3.179,1.464,1.109,1.109,0,0,1-1.436-.86c-.52-2.255,2.308-3.258,4.25-3.306-.941-.654-3.638-2.432-2.2-3.306,1.451-.878,4.615,1.664,5.647,2.5,1.517,1.23,3.326,3.07,3.394,4.995.089,2.247-1.875.864-3.055.393" transform="translate(1.809 0.464)" fill="#dbdbdb"/>
        <path id="Path_542" data-name="Path 542" d="M56.681,20.733c-1.962-.892-5.73.392-6.051-.351-.651-1.512,2.361-2.548,3.987-2.748-1.5-.407-4.366-1.052-4.278-2.5.108-1.763,4.4-.247,6.573,1.419,2.737,2.1,2.719,4.123,2.267,4.529-.621.556-2.175-.205-2.5-.353" transform="translate(1.889 0.538)" fill="#ebebeb"/>
        <path id="Path_543" data-name="Path 543" d="M77.588,18.325c-9.245,8.386-11.255,21.829-9.826,33.724.038.271.455.213.465-.039.1-2.691.123-5.362.232-8.021.054-.119.1-.232.151-.352a17.929,17.929,0,0,0,6.028-6c1.6-2.871,2.311-6.15,3.565-9.164.117-.289-.2-.215-.409-.073-5.574,3.792-7.465,8.03-9.24,13.72A47.847,47.847,0,0,1,69.839,33.2c1.379-5.412,3.9-10.732,7.976-14.632.151-.149-.066-.393-.227-.245" transform="translate(2.527 0.686)" fill="#a6a6a6"/>
        <path id="Path_544" data-name="Path 544" d="M78.905,19.649c1.531.11,2.4,2.6,3.567,3.358a1.15,1.15,0,0,0,1.7-.2c1.247-1.607-.3-3.708-1.785-4.906a17.036,17.036,0,0,0,3.121,1.583,1.109,1.109,0,0,0,1.467-.8c.6-2.234-2.183-3.344-4.12-3.465.965-.617,3.727-2.292,2.328-3.219-1.417-.933-4.675,1.488-5.739,2.285-1.562,1.172-3.439,2.941-3.582,4.862-.174,2.242,1.841.935,3.039.509" transform="translate(2.846 0.442)" fill="#dbdbdb"/>
        <path id="Path_545" data-name="Path 545" d="M78.452,19.937c1.994-.817,5.712.609,6.06-.12.707-1.486-2.264-2.636-3.88-2.9,1.512-.349,4.4-.885,4.369-2.331-.04-1.766-4.387-.414-6.621,1.168-2.815,1.993-2.874,4.017-2.437,4.44.6.58,2.181-.122,2.51-.257" transform="translate(2.842 0.516)" fill="#ebebeb"/>
        <path id="Path_546" data-name="Path 546" d="M68.369,40.806A90.826,90.826,0,0,1,65.5,54.067a.33.33,0,0,1-.645-.131c.607-4.086,1.714-8.1,2.321-12.184a61.339,61.339,0,0,0,.711-12.508c-.39-6.886-2.26-14.211-6.753-19.6-.1-.129.111-.308.213-.19,9,10.489,7.565,23.349,7.556,24.5,1.274-4.343,2.587-9.32,7.4-13.742.207-.191.37-.1.335.224-.861,8.054-3.1,12.259-7.77,16.565-.133,1.277-.3,2.547-.5,3.8" transform="translate(2.293 0.353)" fill="#a6a6a6"/>
        <path id="Path_547" data-name="Path 547" d="M61.332,11.205c-1.619-.719-3.85,1.342-5.452,1.483a1.327,1.327,0,0,1-1.623-1.129c-.4-2.313,2.317-3.612,4.478-4.026-1.36-.084-2.7.279-4.035-.082a1.279,1.279,0,0,1-1.057-1.614c.6-2.6,4.036-2.218,6.074-1.291-.647-1.152-2.55-4.354-.624-4.54,1.947-.179,3.951,4.05,4.6,5.439.955,2.041,1.906,4.859,1.007,6.89-1.039,2.377-2.381-.047-3.369-1.13" transform="translate(2.011 0)" fill="#dbdbdb"/>
        <path id="Path_548" data-name="Path 548" d="M61.533,11.735c-1.586-1.913-6.143-2.478-6.1-3.41.086-1.895,3.733-1.455,5.521-.845-1.349-1.174-4-3.289-3.182-4.742,1-1.775,4.69,1.959,6.106,4.781,1.784,3.556.745,5.647.072,5.84-.924.265-2.153-1.308-2.414-1.624" transform="translate(2.08 0.085)" fill="#ebebeb"/>
        <path id="Path_549" data-name="Path 549" d="M74.541,42.009l3.967,30.314H54.365c.5-2.686,4.99-30.349,4.99-30.349Z" transform="translate(2.04 1.575)" fill="#dbdbdb"/>
      </g>
    </g>
    <g id="Group_732" data-name="Group 732">
      <g id="Group_731" data-name="Group 731" clip-path="url(#clip-path)">
        <path id="Path_550" data-name="Path 550" d="M427.165,399.929c0,6.182-41.625,11.193-92.972,11.193s-92.972-5.011-92.972-11.193,41.625-11.193,92.972-11.193,92.972,5.011,92.972,11.193" transform="translate(9.05 14.584)" fill="#ebebeb"/>
      </g>
    </g>
    <path id="Path_551" data-name="Path 551" d="M120.962,373.484l-52.657.091-52.656.254,52.656.254,52.657.09,105.313.173,105.313-.174,52.656-.091,52.657-.252-52.657-.252-52.656-.091-105.313-.175Z" transform="translate(0.587 14.006)" fill="#263238"/>
    <g id="Group_740" data-name="Group 740">
      <g id="Group_739" data-name="Group 739" clip-path="url(#clip-path)">
        <path id="Path_552" data-name="Path 552" d="M254.156,221.854a3.807,3.807,0,1,1-3.807-3.807,3.806,3.806,0,0,1,3.807,3.807" transform="translate(9.25 8.181)" fill="#fff"/>
        <path id="Path_553" data-name="Path 553" d="M310.146,221.854a3.807,3.807,0,1,1-3.807-3.807,3.806,3.806,0,0,1,3.807,3.807" transform="translate(11.35 8.181)" fill="#fff"/>
        <path id="Path_554" data-name="Path 554" d="M366.135,221.854a3.807,3.807,0,1,1-3.807-3.807,3.806,3.806,0,0,1,3.807,3.807" transform="translate(13.451 8.181)" fill="#fff"/>
        <path id="Path_555" data-name="Path 555" d="M173.02,181.7c42.757,41.784,101.027,138.845,108.638,153.987,5.166,10.278-48.531,38.774-50.993,31.272-3.153-9.606-58.151-111.478-71.281-168.874-5.75-25.135,5-24.819,13.635-16.385" transform="translate(5.919 6.624)" fill="#f7a9a0"/>
        <path id="Path_556" data-name="Path 556" d="M225.423,354.339c2,5.127,8.9,26.955,13.467,29.6s28.2,1.561,40.122,1.313,14.2-3.62,13.916-7.72-25.313-4.359-25.313-4.359,33.608,8.878,42.044,10.266,27.9,5.869,30.552-1.16c1.2-3.168-4.169-6.234-4.169-6.234s8.173,2.2,9.38-1.863c1.375-4.627-5.136-7.024-5.136-7.024s5.1.917,5.138-2.83c.085-8.377-31.773-11.827-31.773-11.827s24.574,11.335,25.212,4.487c.886-9.479-49.19-18.807-54.467-22.821a35.358,35.358,0,0,1-8.529-10.091Z" transform="translate(8.457 12.158)" fill="#f7a9a0"/>
        <path id="Path_557" data-name="Path 557" d="M291.275,377.968a3.657,3.657,0,0,0-1.2-3.165,10.318,10.318,0,0,0-2.944-1.825,39.252,39.252,0,0,0-6.877-2.073c-4.723-1.1-9.557-1.837-14.378-2.978a58.346,58.346,0,0,1,14.755,1.348,27.029,27.029,0,0,1,7.082,2.541,9.526,9.526,0,0,1,2.985,2.46,3.81,3.81,0,0,1,.577,3.693" transform="translate(9.975 13.802)" fill="#263238"/>
        <path id="Path_558" data-name="Path 558" d="M333.514,374.568c-3.455-.767-6.862-1.668-10.265-2.574-3.408-.888-6.786-1.873-10.174-2.818l-10.128-2.942c-3.377-.982-6.752-1.955-10.164-2.894a78.586,78.586,0,0,1,10.478,1.646c3.464.713,6.876,1.63,10.273,2.582,3.389.989,6.764,2.018,10.09,3.2,3.331,1.164,6.647,2.376,9.89,3.8" transform="translate(10.984 13.632)" fill="#263238"/>
        <path id="Path_559" data-name="Path 559" d="M300.391,355.134a66.937,66.937,0,0,1,9.667,1.131,90.605,90.605,0,0,1,9.479,2.231,85.753,85.753,0,0,1,9.194,3.217,68.887,68.887,0,0,1,8.743,4.276c-3.095-.995-6.111-2.112-9.187-3.067-3.065-.974-6.127-1.944-9.217-2.819-3.076-.924-6.184-1.742-9.29-2.587-3.113-.827-6.24-1.6-9.389-2.382" transform="translate(11.27 13.324)" fill="#263238"/>
        <path id="Path_560" data-name="Path 560" d="M304.968,347.349a64.684,64.684,0,0,1,29.664,9.46c-4.977-1.657-9.818-3.414-14.762-4.948-4.923-1.587-9.883-3.013-14.9-4.512" transform="translate(11.442 13.032)" fill="#263238"/>
        <path id="Path_561" data-name="Path 561" d="M280.581,328.36l-62.945,37.769s-51.863-129.077-58.579-162.848,5.5-34.987,25.1-14.171c22.921,24.351,96.428,139.25,96.428,139.25" transform="translate(5.898 6.577)" fill="#f19b48"/>
        <path id="Path_562" data-name="Path 562" d="M214.685,345.146c4.734-2.267,9.182-5.22,13.664-7.943q6.627-4.029,13.2-8.147c8.844-5.538,17.885-10.9,26.353-17.008a.193.193,0,0,0-.193-.334c-9.423,4.682-18.4,10.364-27.348,15.887q-6.731,4.157-13.349,8.5a136.915,136.915,0,0,0-12.571,8.727c-.186.155.048.413.243.32" transform="translate(8.043 11.694)" fill="#263238"/>
        <path id="Path_563" data-name="Path 563" d="M217.106,337.624a3.773,3.773,0,0,0-2.407,3.434,2.912,2.912,0,0,1-1.338,2.5,3.168,3.168,0,0,1-1.536.5c-.6.1-1.224.187-1.847.353,1.224.208,2.459.7,3.88.145a3.789,3.789,0,0,0,2.3-3.486,2.848,2.848,0,0,1,1.411-2.417,3.239,3.239,0,0,1,1.556-.467c.612-.1,1.235-.187,1.847-.342-1.235-.218-2.407-.7-3.87-.218m38.731-47.933A3.769,3.769,0,0,0,254.6,292.4a2.927,2.927,0,0,1-1.328,2.5,3.247,3.247,0,0,1-1.546.5c-.6.1-1.224.187-1.847.353,1.235.207,2.459.7,3.88.145a3.773,3.773,0,0,0,2.3-3.486,2.62,2.62,0,0,1,.519-1.587c-.249-.373-.5-.757-.747-1.131m-43.918-4.42a3.742,3.742,0,0,0-2.407,3.434,2.937,2.937,0,0,1-1.338,2.5,3.206,3.206,0,0,1-1.536.5c-.612.1-1.224.187-1.847.353,1.224.207,2.449.7,3.88.145a3.763,3.763,0,0,0,2.293-3.486,2.894,2.894,0,0,1,1.411-2.417,3.312,3.312,0,0,1,1.556-.467c.622-.1,1.245-.187,1.847-.342-1.224-.218-2.407-.7-3.86-.218m-.259-44.624a3.718,3.718,0,0,0-4.067.83,2.9,2.9,0,0,1-2.729.716,3.08,3.08,0,0,1-1.411-.789c-.519-.363-1.006-.726-1.567-1.058.726,1.027,1.224,2.21,2.6,2.884a3.717,3.717,0,0,0,4.119-.706,2.894,2.894,0,0,1,2.708-.83,2.971,2.971,0,0,1,1.432.737c.508.353,1,.726,1.556,1.048-.716-1.006-1.235-2.231-2.646-2.832m-23.614-23.157a3.767,3.767,0,0,0-3.476-2.283,2.856,2.856,0,0,1-2.438-1.421,3.163,3.163,0,0,1-.436-1.556c-.135-.622-.2-1.224-.374-1.847-.187,1.224-.685,2.417-.187,3.88a3.714,3.714,0,0,0,3.4,2.407,2.966,2.966,0,0,1,3,2.853c.125.623.187,1.224.353,1.847.208-1.193.716-2.449.156-3.88M270.88,330.641a3.7,3.7,0,0,0-3.465-2.283,2.915,2.915,0,0,1-2.438-1.411,3.446,3.446,0,0,1-.446-1.587c-.124-.581-.187-1.2-.342-1.826-.218,1.224-.716,2.407-.218,3.86a3.678,3.678,0,0,0,3.413,2.407,2.918,2.918,0,0,1,2.5,1.359,2.871,2.871,0,0,1,.519,1.515c.062.353.114.7.176,1.048l.374-.228a4.646,4.646,0,0,0-.073-2.853m-32.661-63.683a3.715,3.715,0,0,0-3.465-2.283,2.9,2.9,0,0,1-2.438-1.411,3.212,3.212,0,0,1-.446-1.587c-.124-.591-.187-1.2-.342-1.826-.218,1.224-.716,2.407-.218,3.86a3.678,3.678,0,0,0,3.413,2.407,3.038,3.038,0,0,1,3.009,2.874c.114.623.187,1.245.342,1.836.207-1.2.716-2.428.145-3.87M184.9,265.672a3.731,3.731,0,0,0-3.465-2.283A2.878,2.878,0,0,1,179,261.978a3.2,3.2,0,0,1-.446-1.577c-.125-.591-.187-1.214-.342-1.836a11.322,11.322,0,0,0-.425,2.884,4.528,4.528,0,0,0,.208.986,3.428,3.428,0,0,0,.477.9,3.791,3.791,0,0,0,2.936,1.5,3.039,3.039,0,0,1,3.009,2.864c.114.622.187,1.245.342,1.836.208-1.193.716-2.428.145-3.87m52.135,51.782a3.737,3.737,0,0,0-3.455-2.283,2.885,2.885,0,0,1-2.428-1.411,3.245,3.245,0,0,1-.467-1.567c-.1-.6-.187-1.224-.353-1.836-.2,1.214-.685,2.407-.2,3.87a3.688,3.688,0,0,0,3.424,2.386,3.006,3.006,0,0,1,2.5,1.359,2.808,2.808,0,0,1,.477,1.535c.145.6.208,1.2.363,1.826.218-1.2.716-2.438.135-3.88M159.762,192.506a3.505,3.505,0,0,0-2.3-.239c.041.456.093.913.145,1.39a3.117,3.117,0,0,1,1.774-.1,3.319,3.319,0,0,1,1.432.778c.508.342.986.737,1.536,1.058-.716-1.006-1.214-2.189-2.583-2.884" transform="translate(5.907 7.21)" fill="#fff"/>
        <g id="Group_735" data-name="Group 735" transform="translate(163.099 182.503)" opacity="0.1">
          <g id="Group_734" data-name="Group 734">
            <g id="Group_733" data-name="Group 733" clip-path="url(#clip-path-5)">
              <path id="Path_564" data-name="Path 564" d="M244.361,350.072l-26.726,16.04s-51.865-129.078-58.578-162.849c-3.247-16.362-2.065-25.087,2.251-27.359Z" transform="translate(-157.201 -175.904)"/>
            </g>
          </g>
        </g>
        <path id="Path_565" data-name="Path 565" d="M195.778,381.608H29.65c-2.4-2.81,29.619-154.117,97.392-201.684,21.521-15.106,49.088-8.8,53.682,9.783,19.6,79.284,17.269,189.358,15.054,191.9" transform="translate(1.108 6.433)" fill="#f19b48"/>
        <path id="Path_566" data-name="Path 566" d="M135.213,211.095a3.748,3.748,0,0,0-2.407,3.424,2.888,2.888,0,0,1-1.338,2.5,3.1,3.1,0,0,1-1.536.5c-.6.114-1.224.187-1.847.363,1.224.2,2.459.7,3.88.135a3.774,3.774,0,0,0,2.3-3.476,2.835,2.835,0,0,1,1.411-2.417,3.123,3.123,0,0,1,1.546-.467c.622-.114,1.245-.187,1.857-.342-1.235-.218-2.407-.705-3.87-.218m-11.88,80.491a3.706,3.706,0,0,0-2.407,3.393,2.952,2.952,0,0,1-1.318,2.521,3.246,3.246,0,0,1-1.546.5c-.612.1-1.214.187-1.836.353,1.214.2,2.438.7,3.88.135a3.779,3.779,0,0,0,2.272-3.476,2.919,2.919,0,0,1,1.421-2.417,3.126,3.126,0,0,1,1.567-.456c.623-.114,1.214-.2,1.836-.353-1.214-.2-2.407-.7-3.87-.2M195.721,367.6a2.943,2.943,0,0,1-1.546.5c-.612.124-1.214.187-1.836.363,1.214.2,2.438.706,3.88.156a2.867,2.867,0,0,0,.56-.29c.031-.685.052-1.4.073-2.137a2.981,2.981,0,0,1-1.131,1.411M94.532,352.716a3.654,3.654,0,0,0-2.407,3.4,2.922,2.922,0,0,1-1.338,2.5,3,3,0,0,1-1.536.508c-.612.114-1.224.187-1.836.363,1.193.2,2.428.7,3.87.135a3.756,3.756,0,0,0,2.283-3.476,2.964,2.964,0,0,1,1.411-2.438,3.166,3.166,0,0,1,1.587-.436c.6-.135,1.2-.2,1.816-.353-1.214-.207-2.4-.716-3.849-.207M168.59,233.681a3.7,3.7,0,0,0-2.407,3.413,2.888,2.888,0,0,1-1.338,2.5,3,3,0,0,1-1.515.508c-.623.1-1.245.187-1.847.342,1.2.218,2.438.716,3.86.135a3.725,3.725,0,0,0,2.3-3.455,2.843,2.843,0,0,1,1.411-2.438,3.359,3.359,0,0,1,1.567-.456c.6-.124,1.224-.187,1.826-.353-1.224-.2-2.4-.685-3.86-.2M40.706,355.89A3.693,3.693,0,0,0,38.3,359.3a2.913,2.913,0,0,1-1.338,2.5,3.1,3.1,0,0,1-1.536.5c-.6.125-1.224.187-1.826.353,1.193.208,2.417.716,3.86.156a3.761,3.761,0,0,0,2.283-3.476,2.978,2.978,0,0,1,1.411-2.438,3.169,3.169,0,0,1,1.587-.446c.6-.125,1.214-.208,1.836-.363-1.235-.2-2.407-.674-3.87-.2m25.575-64.316a3.693,3.693,0,0,0-2.407,3.413,2.913,2.913,0,0,1-1.338,2.5,3.064,3.064,0,0,1-1.536.5c-.6.124-1.224.187-1.826.353,1.193.207,2.417.716,3.86.156a3.761,3.761,0,0,0,2.283-3.476,2.964,2.964,0,0,1,1.411-2.438,3.169,3.169,0,0,1,1.587-.446c.6-.125,1.214-.207,1.836-.363-1.235-.2-2.407-.685-3.87-.2M190.14,313.2a3.693,3.693,0,0,0-2.407,3.413,2.913,2.913,0,0,1-1.338,2.5,3.064,3.064,0,0,1-1.535.5c-.6.124-1.224.187-1.826.353,1.193.208,2.417.716,3.86.156a3.761,3.761,0,0,0,2.283-3.476,2.964,2.964,0,0,1,1.411-2.438,3.169,3.169,0,0,1,1.587-.446c.6-.124,1.214-.207,1.836-.363-1.235-.2-2.407-.685-3.87-.2M101.017,270.97a3.713,3.713,0,0,0-4.067.84,2.942,2.942,0,0,1-2.739.716,3.106,3.106,0,0,1-1.411-.8c-.508-.353-1.006-.726-1.567-1.048.726,1.017,1.224,2.2,2.6,2.884a3.7,3.7,0,0,0,4.119-.716,2.9,2.9,0,0,1,2.718-.82,2.962,2.962,0,0,1,1.421.726c.519.363,1,.737,1.556,1.058-.716-1.006-1.224-2.241-2.635-2.843M168.1,348.815a3.766,3.766,0,0,0-4.067.861,2.912,2.912,0,0,1-2.718.706,2.959,2.959,0,0,1-1.432-.788c-.508-.342-1.006-.726-1.556-1.038.716,1,1.235,2.189,2.594,2.874a3.714,3.714,0,0,0,4.119-.716,2.894,2.894,0,0,1,2.718-.809,2.714,2.714,0,0,1,1.421.726c.529.342,1,.737,1.556,1.048-.7-1.017-1.224-2.22-2.635-2.864M166,282.631a3.793,3.793,0,0,0-4.088.84,2.888,2.888,0,0,1-2.718.716,3.264,3.264,0,0,1-1.421-.789c-.519-.342-1-.737-1.556-1.048.726,1.017,1.224,2.189,2.594,2.874a3.683,3.683,0,0,0,4.129-.716,2.921,2.921,0,0,1,2.7-.82,3.055,3.055,0,0,1,1.452.747c.508.342,1.006.726,1.546,1.038-.716-1-1.224-2.22-2.635-2.843M67.038,374.566a3.706,3.706,0,0,0-4.067.84,2.905,2.905,0,0,1-2.718.706,3.162,3.162,0,0,1-1.421-.788c-.529-.353-1.006-.726-1.556-1.058.716,1.027,1.214,2.21,2.594,2.895a3.718,3.718,0,0,0,4.1-.716,2.931,2.931,0,0,1,2.718-.82,2.851,2.851,0,0,1,1.442.726c.529.353,1,.726,1.556,1.058-.716-1.017-1.235-2.241-2.646-2.843m6.505-127.158c-.166.311-.322.623-.477.944a3,3,0,0,1,1.266.685c.529.363,1,.737,1.546,1.058a7.094,7.094,0,0,0-2.334-2.687m52.685,89.2a3.717,3.717,0,0,0-4.067.84,2.924,2.924,0,0,1-2.718.716,3.24,3.24,0,0,1-1.432-.789c-.529-.363-1.006-.737-1.546-1.058.706,1.027,1.2,2.2,2.583,2.884a3.681,3.681,0,0,0,4.1-.716,3.022,3.022,0,0,1,4.16-.093c.529.363,1,.737,1.556,1.058-.716-1.006-1.224-2.231-2.635-2.843m4.389-155.783a3.64,3.64,0,0,0-2.345-2.1c-.457.291-.923.6-1.38.923-.135.093-.27.187-.4.291a3.2,3.2,0,0,0,.633.062,2.933,2.933,0,0,1,2.49,1.328,2.882,2.882,0,0,1,.5,1.546c.135.6.2,1.224.353,1.826.208-1.214.716-2.438.156-3.88M94.543,317.959a3.8,3.8,0,0,0-3.476-2.283,2.9,2.9,0,0,1-2.428-1.411,3.245,3.245,0,0,1-.467-1.567c-.1-.6-.187-1.224-.342-1.836-.2,1.214-.7,2.407-.2,3.87a3.671,3.671,0,0,0,3.4,2.386,3.011,3.011,0,0,1,2.511,1.359,3.1,3.1,0,0,1,.5,1.535c.1.6.187,1.2.353,1.826.208-1.2.706-2.438.145-3.88m9.016-80.989a3.75,3.75,0,0,0-3.476-2.283,2.839,2.839,0,0,1-2.428-1.411,3.132,3.132,0,0,1-.446-1.567c-.124-.6-.187-1.224-.363-1.847-.2,1.245-.7,2.417-.2,3.88a3.7,3.7,0,0,0,3.413,2.407,2.927,2.927,0,0,1,2.5,1.328,3.027,3.027,0,0,1,.5,1.525c.125.623.187,1.245.353,1.847.207-1.193.716-2.438.145-3.88M185.6,212.858a4.268,4.268,0,0,0,.187,1.909,3.174,3.174,0,0,0,.28.6c-.145-.84-.3-1.681-.467-2.511M138.834,257.3a3.759,3.759,0,0,0-3.486-2.283,2.916,2.916,0,0,1-2.438-1.432,3.163,3.163,0,0,1-.425-1.556c-.145-.612-.207-1.224-.374-1.847-.187,1.235-.685,2.428-.187,3.88a3.674,3.674,0,0,0,3.393,2.407,2.938,2.938,0,0,1,2.5,1.328,2.847,2.847,0,0,1,.5,1.536c.125.623.187,1.224.363,1.847.2-1.193.706-2.459.156-3.88m50.714,8.881a3.731,3.731,0,0,0-3.465-2.283,2.878,2.878,0,0,1-2.438-1.411,3.2,3.2,0,0,1-.446-1.577c-.125-.591-.187-1.214-.342-1.836-.218,1.224-.716,2.407-.218,3.87a3.708,3.708,0,0,0,3.413,2.407,3.039,3.039,0,0,1,3.009,2.864c.114.623.187,1.245.342,1.836.208-1.193.716-2.428.145-3.87M131.51,379.65a3.71,3.71,0,0,0-3.465-2.283,2.891,2.891,0,0,1-2.417-1.421,3.244,3.244,0,0,1-.467-1.567c-.1-.6-.187-1.224-.353-1.826-.207,1.2-.685,2.407-.207,3.86a3.711,3.711,0,0,0,3.434,2.4,3.022,3.022,0,0,1,2.5,1.349,2.747,2.747,0,0,1,.436,1.183h.8a3.671,3.671,0,0,0-.259-1.691m-67.117-38.5a3.71,3.71,0,0,0-3.465-2.283,2.878,2.878,0,0,1-2.417-1.421,3.137,3.137,0,0,1-.467-1.567c-.114-.6-.187-1.224-.353-1.826-.208,1.2-.685,2.407-.208,3.859a3.7,3.7,0,0,0,3.434,2.4,3.022,3.022,0,0,1,2.5,1.349,2.956,2.956,0,0,1,.477,1.535c.145.6.208,1.214.353,1.836.218-1.214.716-2.438.145-3.88m87.432-23.188a3.741,3.741,0,0,0-3.465-2.283,2.881,2.881,0,0,1-2.417-1.411,3.137,3.137,0,0,1-.467-1.567c-.114-.6-.187-1.224-.353-1.836-.208,1.214-.685,2.407-.208,3.87a3.691,3.691,0,0,0,3.434,2.386,3.006,3.006,0,0,1,2.5,1.359,2.9,2.9,0,0,1,.477,1.535c.145.6.207,1.2.353,1.826.218-1.2.716-2.438.145-3.88m12.585-124.948a3.716,3.716,0,0,0-4.109.705,2.984,2.984,0,0,1-4.15.114c-.519-.353-1.006-.747-1.567-1.058.716,1,1.245,2.22,2.656,2.843a3.729,3.729,0,0,0,4.067-.84,2.884,2.884,0,0,1,2.718-.716,3.32,3.32,0,0,1,1.432.778c.508.342.986.737,1.536,1.058-.716-1.006-1.214-2.189-2.583-2.884" transform="translate(1.261 6.705)" fill="#fff"/>
        <path id="Path_567" data-name="Path 567" d="M165.53,207.223c-9.023.047-20.7-16.4-24.056-28.318-.226-.819,9.487-29.142,10.829-34.954.27-1.194,34.462,17.278,34.462,17.278s-6.4,11.356-8.676,21.5c-.182.851-3.838,24.44-12.559,24.491" transform="translate(5.308 5.399)" fill="#f7a9a0"/>
        <path id="Path_568" data-name="Path 568" d="M186.535,161.222s-6.4,11.358-8.679,21.508c-.04.2-.278,1.675-.722,3.808-16.98-5.6-25.565-18.789-29.592-27.781,2.073-6.415,3.99-12.448,4.53-14.8.278-1.2,34.463,17.267,34.463,17.267" transform="translate(5.535 5.399)" fill="#061455"/>
        <path id="Path_569" data-name="Path 569" d="M205.331,100.848s10.015,8.7,8.2,21.223-8.639,24-9.863,24.268,1.66-45.491,1.66-45.491" transform="translate(7.63 3.784)" fill="#263238"/>
        <path id="Path_570" data-name="Path 570" d="M156.955,101.027c-8.279,11.132-14.558,49.579-8.533,60.8,8.736,16.268,29.459,24.919,44.913,12.975,14.982-11.578,22.277-61.829,14.949-72.688-10.8-15.993-39.1-17.53-51.329-1.087" transform="translate(5.479 3.354)" fill="#f7a9a0"/>
        <path id="Path_571" data-name="Path 571" d="M195.813,137.689c.045-.093.17.173.14.278-.739,2.552-1.155,5.6.956,7.05.065.045.025.172-.058.138-2.739-1.125-2.147-5.166-1.038-7.466" transform="translate(7.311 5.165)" fill="#061455"/>
        <path id="Path_572" data-name="Path 572" d="M198.788,135.664c4.221.743,2.426,9.128-1.484,8.44-3.848-.676-2.053-9.062,1.484-8.44" transform="translate(7.321 5.089)" fill="#061455"/>
        <path id="Path_573" data-name="Path 573" d="M173.622,156.453c.433.777.8,1.777,1.7,2.129a7.028,7.028,0,0,0,2.928.169.093.093,0,0,1,.072.163,3.579,3.579,0,0,1-3.643.427,2.829,2.829,0,0,1-1.336-2.846c0-.159.216-.156.279-.043" transform="translate(6.503 5.867)" fill="#061455"/>
        <path id="Path_574" data-name="Path 574" d="M189.727,149.294s-.372,3.987-.8,5.81c-.042.17-5.123-1.485-10.887-.936-.864.083-.7-.59.329-.919,2.052-.659,4.622-1.2,9.363-.1.247-.474.46-6.15.753-6.1a16.331,16.331,0,0,1,3.919,1.908c1.016-8.285.7-16.665,1.831-24.9a.255.255,0,0,1,.5-.006c.958,8.759,0,18.318-.832,26.9-.094,1.071-3.523-1.177-4.18-1.658" transform="translate(6.659 4.646)" fill="#061455"/>
        <path id="Path_575" data-name="Path 575" d="M182.985,130.105a33.331,33.331,0,0,1-3.466.138c-1.33.037-2.386.205-3.561-.534a1.782,1.782,0,0,1-.53-2.113c.766-1.51,2.383-1.961,3.983-2.072a6.507,6.507,0,0,1,4.524,1.23,1.9,1.9,0,0,1-.949,3.351" transform="translate(6.576 4.708)" fill="#061455"/>
        <path id="Path_576" data-name="Path 576" d="M203.282,126.12a32.883,32.883,0,0,1-2.98-1.776c-1.137-.694-2.113-1.13-2.694-2.39a1.78,1.78,0,0,1,.709-2.06c1.463-.848,3.066-.342,4.468.437a6.505,6.505,0,0,1,3.121,3.5,1.9,1.9,0,0,1-2.623,2.292" transform="translate(7.41 4.482)" fill="#061455"/>
        <path id="Path_577" data-name="Path 577" d="M173.758,133.788a8.4,8.4,0,0,1,2.452-.244,8.68,8.68,0,0,1,2.484.5,7.143,7.143,0,0,1,2.279,1.407,6.346,6.346,0,0,1,1.533,2.361l.6,1.614-1.639-.4a16.672,16.672,0,0,0-3.535-.487,7.126,7.126,0,0,0-3.576.759,5.319,5.319,0,0,1,3.445-2.112,9.877,9.877,0,0,1,4.1.071l-1.036,1.212a6.17,6.17,0,0,0-2.774-3.014,18.294,18.294,0,0,0-4.334-1.66" transform="translate(6.519 5.01)" fill="#061455"/>
        <path id="Path_578" data-name="Path 578" d="M177.5,141.14a14.589,14.589,0,0,0,3.766-.915c.28-.138,1.387-.764,1.358-.987a7.637,7.637,0,0,0-.413-1.944,5.218,5.218,0,0,1,.793,1.942,2.527,2.527,0,0,1-1.517,1.543,7.464,7.464,0,0,1-3.987.361" transform="translate(6.659 5.151)" fill="#061455"/>
        <path id="Path_579" data-name="Path 579" d="M185.578,152.989s-3.52,3.844-6.992,3.919c-3.992.085-3.99-3.5.6-4.926,2.4-.748,6.4,1.007,6.4,1.007" transform="translate(6.59 5.695)" fill="#263238"/>
        <path id="Path_580" data-name="Path 580" d="M178.6,156.841a7.97,7.97,0,0,0,4.2-1.562c-.642-1.326-2.339-2.913-6.833-1.208-.826,1.435.11,2.83,2.63,2.77" transform="translate(6.591 5.752)" fill="#ff99ba"/>
        <path id="Path_581" data-name="Path 581" d="M149.141,137.523c4.311,2.072,11.578-10.738,13.842-15.744,2-4.413,5.706-18.8,6.079-19.767s17.756,15.926,29.661,14.323,21.075-10.679,21.956-15.43-11.435-19.019-23.589-21.5S166,89.985,166,89.985s6.652-5.87,6.545-6.451-8.5,1.381-10.811,6.8c0,0,2.638-6.838,2.061-7.061s-7.648,4.905-6.956,9.709c0,0-8.048,5.083-9.73,11.737s-3.03,30.372,2.037,32.807" transform="translate(5.462 2.967)" fill="#061455"/>
        <path id="Path_582" data-name="Path 582" d="M206.473,114.541c-3.708,1.07-7.446,2.3-11.354,2.22-4.224-.081-8.361-1.772-11.993-3.834a39.251,39.251,0,0,1-9.812-8.014c-2.494-2.779-4.594-5.995-7.321-8.548-.682-.638-1.731.325-1.37,1.1C168.2,105.1,175.5,112.13,183,115.824c7.894,3.888,15.972,3.219,23.5-1.187.045-.026.031-.114-.029-.1" transform="translate(6.174 3.608)" fill="#061455"/>
        <path id="Path_583" data-name="Path 583" d="M154.373,133.98s-4.3-14.5-10.619-13.358-5.831,20.25-.341,24.676a6.726,6.726,0,0,0,9.688-.568Z" transform="translate(5.221 4.523)" fill="#f7a9a0"/>
        <path id="Path_584" data-name="Path 584" d="M143.861,125.9c-.1-.043-.165.092-.089.157,3.8,3.247,4.754,8.092,4.962,12.854-.764-2.062-2.246-3.546-4.946-2.721-.141.044-.091.26.041.275a4.139,4.139,0,0,1,3.86,2.81,19.929,19.929,0,0,1,.9,4.177c.075.462.855.489.856-.013,0-.036,0-.076,0-.113,1.984-5.56.247-14.849-5.583-17.424" transform="translate(5.391 4.723)" fill="#061455"/>
        <path id="Path_585" data-name="Path 585" d="M189.439,162.827a114.567,114.567,0,0,0-8.207,18.748c-.519,1.65-.986,3.3-1.349,4.928-.01.062-.042.218-.083.467-.021.093-.041.208-.062.332-.124.664-.311,1.691-.571,2.957a1.3,1.3,0,0,0-.031.2.193.193,0,0,0-.021.073.228.228,0,0,0,.01-.083,74.474,74.474,0,0,1-7.532-37.1q1.229.638,2.428,1.276c.56.29,1.121.591,1.67.882,0,0,0-.01.01,0l1.629.861c.5.259.986.519,1.463.768l.01.01c0,.01,0,.01.01.01.29.156.581.311.872.457q.716.389,1.4.747h.01c.01,0,.01.01.021.01s.031.021.052.031c.477.259.955.508,1.4.747s.892.467,1.307.7.82.446,1.2.643c2.666,1.432,4.358,2.345,4.358,2.345" transform="translate(6.433 5.753)" fill="#061455"/>
        <path id="Path_586" data-name="Path 586" d="M189.439,162.816v.01a114.567,114.567,0,0,0-8.207,18.748c-.519,1.65-.986,3.3-1.349,4.928-.01.062-.042.218-.083.467-.021.093-.041.208-.062.332-.124.664-.311,1.691-.571,2.957a1.209,1.209,0,0,1-.042.187,74.474,74.474,0,0,1-7.532-37.1q1.229.638,2.428,1.276c.56.29,1.121.581,1.67.882,0,0,0-.01.01,0,.55.29,1.089.571,1.629.861.5.259.986.519,1.463.768h.01c.3.166.591.322.882.477q.716.373,1.4.747h.01c.01,0,.01.01.021.01s.031.021.052.031q.731.374,1.4.747c.456.239.892.467,1.307.7s.82.436,1.2.643c2.666,1.421,4.358,2.334,4.358,2.334" transform="translate(6.433 5.753)" fill="#061455"/>
        <path id="Path_587" data-name="Path 587" d="M211.035,96.687s11.028,9.585,9.032,23.368-9.513,26.43-10.86,26.721,1.828-50.089,1.828-50.089" transform="translate(7.836 3.627)" fill="#061455"/>
        <path id="Path_588" data-name="Path 588" d="M212.98,143.88v.021c-3.341,14.629-8.923,28.283-16.113,33.833a28.549,28.549,0,0,1-15.635,6.059,29.689,29.689,0,0,1-5.841-.176,74.106,74.106,0,0,1-3.8-28.054,74.884,74.884,0,0,1,3.268-17.97,76.245,76.245,0,0,1,3.424-8.943,1.961,1.961,0,0,1,.062-1.4,3.646,3.646,0,0,1,1.307-1.432,73.608,73.608,0,0,1,7.813-12.18c.591-.768,1.2-1.515,1.826-2.241.332-.394.674-.778,1.006-1.162a74.8,74.8,0,0,1,20.232-16.019,27.969,27.969,0,0,1,2.615,3.227.01.01,0,0,0,.01.01c.052.083.1.166.166.249,1.463,2.168,2.4,5.779,2.843,10.3.954,9.514-.259,23.064-3.185,35.877" transform="translate(6.433 3.535)" fill="#f7a9a0"/>
        <path id="Path_589" data-name="Path 589" d="M200.555,137.252c.05-.1.188.19.155.306-.813,2.811-1.271,6.167,1.051,7.763.073.05.028.189-.063.151-3.016-1.238-2.363-5.688-1.142-8.22" transform="translate(7.486 5.149)" fill="#061455"/>
        <path id="Path_590" data-name="Path 590" d="M203.83,135.022c4.647.818,2.671,10.05-1.634,9.294-4.237-.746-2.261-9.979,1.634-9.294" transform="translate(7.497 5.064)" fill="#061455"/>
        <path id="Path_591" data-name="Path 591" d="M176.121,157.912c.477.855.88,1.957,1.873,2.345a7.755,7.755,0,0,0,3.224.186.1.1,0,0,1,.079.179,3.942,3.942,0,0,1-4.011.47,3.115,3.115,0,0,1-1.472-3.132c.005-.176.239-.172.308-.048" transform="translate(6.596 5.921)" fill="#061455"/>
        <path id="Path_592" data-name="Path 592" d="M193.853,150.03s-.41,4.391-.88,6.4c-.046.188-5.641-1.634-11.987-1.03-.95.091-.769-.649.362-1.013,2.26-.725,5.089-1.32,10.31-.107.272-.522.506-6.771.829-6.721,1.12.164,3.105,1.416,4.314,2.1,1.119-9.122.767-18.348,2.017-27.414a.281.281,0,0,1,.554-.007c1.054,9.645,0,20.169-.916,29.62-.1,1.179-3.879-1.3-4.6-1.826" transform="translate(6.767 4.577)" fill="#061455"/>
        <path id="Path_593" data-name="Path 593" d="M186.426,128.9a35.828,35.828,0,0,1-3.808.156c-1.473.042-2.635.228-3.922-.591a1.686,1.686,0,0,1-.654-.923,1.961,1.961,0,0,1,.062-1.4,3.646,3.646,0,0,1,1.307-1.432,6.67,6.67,0,0,1,3.081-.851,7.159,7.159,0,0,1,4.98,1.359,2.091,2.091,0,0,1-1.048,3.683" transform="translate(6.676 4.646)" fill="#061455"/>
        <path id="Path_594" data-name="Path 594" d="M208.779,124.513a36.383,36.383,0,0,1-3.282-1.956c-1.251-.765-2.326-1.244-2.966-2.632a1.961,1.961,0,0,1,.78-2.269c1.611-.934,3.376-.378,4.919.481a7.169,7.169,0,0,1,3.437,3.852c.687,1.721-1.333,3.265-2.888,2.523" transform="translate(7.594 4.396)" fill="#061455"/>
        <path id="Path_595" data-name="Path 595" d="M176.271,132.957a9.256,9.256,0,0,1,2.7-.269,9.573,9.573,0,0,1,2.735.547,7.866,7.866,0,0,1,2.51,1.548,7.006,7.006,0,0,1,1.689,2.6l.664,1.778-1.805-.444a18.366,18.366,0,0,0-3.892-.536,7.832,7.832,0,0,0-3.937.837,5.847,5.847,0,0,1,3.792-2.326,10.872,10.872,0,0,1,4.512.077L184.1,138.1a6.8,6.8,0,0,0-3.054-3.318,20.139,20.139,0,0,0-4.773-1.828" transform="translate(6.613 4.978)" fill="#061455"/>
        <path id="Path_596" data-name="Path 596" d="M180.394,141.051a16.1,16.1,0,0,0,4.147-1.007c.308-.151,1.528-.84,1.5-1.087a8.427,8.427,0,0,0-.454-2.14,5.751,5.751,0,0,1,.874,2.138,2.785,2.785,0,0,1-1.67,1.7,8.214,8.214,0,0,1-4.391.4" transform="translate(6.768 5.133)" fill="#061455"/>
        <path id="Path_597" data-name="Path 597" d="M189.285,154.1s-3.876,4.233-7.7,4.314c-4.4.094-4.393-3.851.656-5.423,2.647-.824,7.043,1.109,7.043,1.109" transform="translate(6.692 5.732)" fill="#061455"/>
        <path id="Path_598" data-name="Path 598" d="M181.6,158.34a8.776,8.776,0,0,0,4.627-1.72c-.707-1.461-2.575-3.208-7.523-1.33-.91,1.58.12,3.117,2.9,3.05" transform="translate(6.692 5.795)" fill="#ff99ba"/>
        <path id="Path_599" data-name="Path 599" d="M226.264,96.151c-.488,2.666-3.362,6.578-7.8,10a32,32,0,0,1-2.978,2.054,32.365,32.365,0,0,1-4.534,2.4,32.766,32.766,0,0,1-8.86,2.532c-3.849.519-8.217-.716-12.471-2.7a74.8,74.8,0,0,1,20.232-16.019,73.371,73.371,0,0,1,13.415-5.665c2.158,3.019,3.31,5.737,3,7.4" transform="translate(7.114 3.33)" fill="#061455"/>
        <path id="Path_600" data-name="Path 600" d="M211.54,111.148c-.2.114-.384.228-.581.332-7.74,4.337-15.978,5.094-24.07,1.536.591-.768,1.2-1.515,1.826-2.241a25.3,25.3,0,0,0,10.292,2.708c4.119.083,8.062-1.152,11.963-2.283h.01l.529-.156c.073-.021.083.073.031.1" transform="translate(7.012 4.156)" fill="#061455"/>
        <rect id="Rectangle_346" data-name="Rectangle 346" width="65.765" height="21.238" transform="translate(196.818 306.26) rotate(-72.683)" fill="#ebebeb"/>
        <path id="Path_601" data-name="Path 601" d="M273.354,74.933a89.8,89.8,0,1,0,58.991,112.459A89.788,89.788,0,0,0,273.354,74.933m44.483,107.935a74.591,74.591,0,1,1-49.006-93.426,74.6,74.6,0,0,1,49.006,93.426" transform="translate(5.883 2.658)" fill="#86c3f7"/>
        <rect id="Rectangle_347" data-name="Rectangle 347" width="96.304" height="32.119" transform="translate(168.738 378.043) rotate(-72.682)" fill="#061455"/>
        <g id="Group_738" data-name="Group 738" transform="translate(177.9 88.703)" opacity="0.3">
          <g id="Group_737" data-name="Group 737">
            <g id="Group_736" data-name="Group 736" clip-path="url(#clip-path-6)">
              <path id="Path_602" data-name="Path 602" d="M174.867,137.917A74.59,74.59,0,1,0,268.283,88.9a74.593,74.593,0,0,0-93.416,49.021" transform="translate(-171.467 -85.495)" fill="#fff"/>
              <path id="Path_603" data-name="Path 603" d="M171.482,156.1a74.677,74.677,0,0,0,72.564,75.948Z" transform="translate(-171.467 -82.846)" fill="#ebebeb"/>
              <path id="Path_604" data-name="Path 604" d="M209.248,94.469l99.383,104.018a74.512,74.512,0,0,0,7.238-16.167,73.381,73.381,0,0,0,3.35-20L245.849,85.51a74.542,74.542,0,0,0-36.6,8.959" transform="translate(-170.05 -85.495)" fill="#ebebeb"/>
              <path id="Path_605" data-name="Path 605" d="M177.225,129.756l94.666,99.082a75.681,75.681,0,0,0,13.15-6.434L184.237,116.9a72.092,72.092,0,0,0-7.012,12.858" transform="translate(-171.251 -84.317)" fill="#ebebeb"/>
              <path id="Path_606" data-name="Path 606" d="M200.932,99.461,303.1,206.407c.572-.707,1.127-1.413,1.668-2.136L203.142,97.907c-.746.493-1.493,1-2.21,1.554" transform="translate(-170.362 -85.029)" fill="#ebebeb"/>
              <path id="Path_607" data-name="Path 607" d="M268.2,89.938,313.552,137.4c-.671-2.13-1.448-4.232-2.317-6.292l-36.882-38.6q-2.982-1.418-6.15-2.57" transform="translate(-167.838 -85.328)" fill="#ebebeb"/>
            </g>
          </g>
        </g>
        <path id="Path_608" data-name="Path 608" d="M291.91,175.428c.027-.1.051-.191.077-.287.345-1.344-.284,1.338-.1.43.223-1.086.445-2.171.62-3.266a69.95,69.95,0,0,0,.859-11.592c0-.547-.03-1.094-.032-1.639,0-.181.063,1.3,0,.12-.019-.334-.036-.669-.058-1q-.121-1.934-.353-3.86a65.255,65.255,0,0,0-1.566-8.391c-.17-.66-.359-1.313-.541-1.971-.243-.886.327.989-.059-.183-.127-.389-.251-.778-.385-1.165q-.756-2.211-1.683-4.36-1-2.322-2.2-4.55c-.366-.681-.75-1.35-1.14-2.017-.674-1.155.318.461-.209-.343-.255-.389-.5-.782-.762-1.168a63.655,63.655,0,0,0-7.976-9.594c-.059-.06-.6-.58-.148-.148s-.25-.228-.331-.3c-.456-.415-.913-.829-1.379-1.234q-1.346-1.169-2.749-2.266c-1.981-1.548-4.046-2.98-6.17-4.324-2.438-1.545-2.774-5.252-1.155-7.469a5.447,5.447,0,0,1,7.469-1.155c13.473,8.536,24.09,21.208,28.829,36.542a73.616,73.616,0,0,1,2.561,31.891,54.2,54.2,0,0,1-1.432,7.1c-.759,2.7-4.4,4.172-6.892,3.1a5.484,5.484,0,0,1-3.1-6.892" transform="translate(9.885 3.854)" fill="#fff"/>
        <path id="Path_609" data-name="Path 609" d="M285.212,187.145a5.253,5.253,0,1,0,6.777-3.045,5.254,5.254,0,0,0-6.777,3.045" transform="translate(10.687 6.894)" fill="#fff"/>
        <path id="Path_610" data-name="Path 610" d="M112.934,188.827C53,229.577,5.911,322.018,27.182,337.147,46.62,350.971,135.358,362.482,164.734,361.9c8.629-.172,16.122-71.986,6.9-71.814-11.151.209-75.306-6.125-76.381-6.44-2.3-.673,29.011-56.85,42.908-82.4,19.361-35.6-2.719-27.724-25.223-12.421" transform="translate(0.825 6.6)" fill="#f7a9a0"/>
        <path id="Path_611" data-name="Path 611" d="M246.085,305.018c1.327,7.027-5.2,10.523-5.2,10.523s3.992,4.083,4,9.568c.012,6.282-9.834,9.058-9.834,9.058a18.809,18.809,0,0,1,2.614,10.764c-.593,6.014-10.128,10.231-10.128,10.231s.423,6.258-3.665,10.914c-6.987,7.959-22.951,5.352-33.115,3.8s-37.539-15.483-43.025-17.609l9.413-65.323s47.563-6,59.255-2.474c9.849,2.968,28.195,12.665,29.683,20.552" transform="translate(5.543 10.631)" fill="#f7a9a0"/>
        <path id="Path_612" data-name="Path 612" d="M238.367,313.709c-9.714-5.669-20.576-8.157-31.277-11.257a.193.193,0,0,0-.1.371c10.678,2.959,20.63,8,31.168,11.377a.271.271,0,0,0,.212-.492" transform="translate(7.761 11.347)" fill="#263238"/>
        <path id="Path_613" data-name="Path 613" d="M232.957,331.723a29.3,29.3,0,0,0-7.324-2.272q-3.967-.937-7.963-1.74c-5.333-1.076-10.691-2.031-16.073-2.827-.238-.035-.351.321-.1.371,5.313,1.082,10.61,2.243,15.873,3.548q3.95.977,7.886,2.02a34.925,34.925,0,0,0,7.5,1.616.389.389,0,0,0,.2-.717" transform="translate(7.554 12.189)" fill="#263238"/>
        <path id="Path_614" data-name="Path 614" d="M225.48,352.733c-1.9-1.135-4.552-1.306-6.7-1.693q-3.66-.66-7.313-1.36c-4.868-.933-9.737-1.869-14.57-2.971-.242-.055-.347.314-.1.371,4.905,1.145,9.794,2.357,14.71,3.459q3.621.812,7.25,1.583c2.057.437,4.579,1.218,6.692.858a.136.136,0,0,0,.036-.247" transform="translate(7.378 13.007)" fill="#263238"/>
        <path id="Path_615" data-name="Path 615" d="M96.98,281.5c-.558-.632,30.647-54.539,44.547-83.427s-.534-30.274-28.191-10.589c-29.626,21.085-90.526,84.292-95.322,143.9-1.553,19.3,135.267,35.039,135.267,35.039l6.163-79.554s-61.6-4.394-62.464-5.37" transform="translate(0.675 6.539)" fill="#f19b48"/>
        <path id="Path_616" data-name="Path 616" d="M152.048,317.966a3.741,3.741,0,0,0-3.465-2.283,2.881,2.881,0,0,1-2.417-1.411,3.137,3.137,0,0,1-.467-1.567c-.114-.6-.187-1.224-.353-1.836-.208,1.214-.685,2.407-.208,3.87a3.691,3.691,0,0,0,3.434,2.386,3.006,3.006,0,0,1,2.5,1.359,2.9,2.9,0,0,1,.477,1.535c.145.6.208,1.2.353,1.826.218-1.2.716-2.438.145-3.88M43.918,277.15a3.71,3.71,0,0,0-3.465-2.283,2.9,2.9,0,0,1-2.417-1.411,2.594,2.594,0,0,1-.363-.913c-.239.415-.467.83-.7,1.245a.546.546,0,0,0,.031.124,3.7,3.7,0,0,0,3.434,2.4,3.022,3.022,0,0,1,2.5,1.349,2.956,2.956,0,0,1,.477,1.536c.145.612.208,1.214.363,1.836.218-1.214.706-2.438.135-3.88m20.7,64a3.709,3.709,0,0,0-3.465-2.283,2.878,2.878,0,0,1-2.417-1.421,3.137,3.137,0,0,1-.467-1.567c-.114-.6-.187-1.224-.353-1.826-.208,1.2-.685,2.407-.208,3.86a3.7,3.7,0,0,0,3.434,2.4,3.022,3.022,0,0,1,2.5,1.349,2.956,2.956,0,0,1,.477,1.535c.145.6.208,1.214.353,1.836.218-1.214.716-2.438.145-3.88m39.166-104.177a3.75,3.75,0,0,0-3.476-2.283,2.839,2.839,0,0,1-2.428-1.411,3.131,3.131,0,0,1-.446-1.567c-.124-.6-.187-1.224-.363-1.847-.2,1.245-.7,2.417-.2,3.88a3.7,3.7,0,0,0,3.413,2.407,2.927,2.927,0,0,1,2.5,1.328,3.027,3.027,0,0,1,.5,1.525c.125.623.187,1.245.353,1.847.208-1.193.716-2.438.145-3.88m-9.016,80.989a3.8,3.8,0,0,0-3.476-2.283,2.9,2.9,0,0,1-2.428-1.411,3.245,3.245,0,0,1-.467-1.567c-.1-.6-.187-1.224-.342-1.836-.2,1.214-.7,2.407-.2,3.87a3.671,3.671,0,0,0,3.4,2.386,3.011,3.011,0,0,1,2.511,1.359,3.1,3.1,0,0,1,.5,1.535c.1.6.187,1.2.353,1.826.208-1.2.706-2.438.145-3.88m36.074-137.139a3.732,3.732,0,0,0-3.476-2.262c-.125,0-.249-.01-.373-.021-.529.27-1.069.56-1.619.851a3.773,3.773,0,0,0,1.971.612,2.933,2.933,0,0,1,2.49,1.328,2.882,2.882,0,0,1,.5,1.546c.135.6.2,1.224.353,1.826.208-1.214.716-2.438.156-3.88M126.453,336.61a3.717,3.717,0,0,0-4.067.84,2.924,2.924,0,0,1-2.718.716,3.241,3.241,0,0,1-1.432-.789c-.529-.363-1.006-.737-1.546-1.058.705,1.027,1.2,2.2,2.583,2.884a3.682,3.682,0,0,0,4.1-.716,3.022,3.022,0,0,1,4.16-.093c.529.363,1,.737,1.556,1.058-.716-1.006-1.224-2.231-2.635-2.843M73.467,247.259a3.721,3.721,0,0,0-4.067.84,2.917,2.917,0,0,1-2.718.716,3.085,3.085,0,0,1-1.421-.8c-.529-.353-1.017-.726-1.556-1.048.716,1.017,1.214,2.2,2.594,2.884a3.7,3.7,0,0,0,4.1-.716,2.923,2.923,0,0,1,2.718-.82,2.979,2.979,0,0,1,1.442.726c.529.363,1,.737,1.546,1.058-.706-1.006-1.224-2.241-2.635-2.843M37.382,313.971a3.74,3.74,0,0,0-4.067.84,2.917,2.917,0,0,1-2.718.716,3.06,3.06,0,0,1-1.421-.788c-.529-.363-1.017-.737-1.556-1.058.716,1.027,1.214,2.2,2.594,2.884a3.684,3.684,0,0,0,4.1-.716,2.949,2.949,0,0,1,2.718-.82,3.118,3.118,0,0,1,1.442.726c.529.363,1,.737,1.546,1.058-.706-1.006-1.224-2.231-2.635-2.843m63.859-42.995a3.713,3.713,0,0,0-4.067.84,2.942,2.942,0,0,1-2.739.716,3.106,3.106,0,0,1-1.411-.8c-.508-.353-1.006-.726-1.567-1.048.726,1.017,1.224,2.2,2.6,2.884a3.7,3.7,0,0,0,4.119-.716,2.9,2.9,0,0,1,2.718-.82,2.31,2.31,0,0,1,.457.135c.156-.28.311-.571.477-.871a3.21,3.21,0,0,0-.591-.322M66.505,291.581a3.693,3.693,0,0,0-2.407,3.413,2.912,2.912,0,0,1-1.338,2.5,3.064,3.064,0,0,1-1.536.5c-.6.124-1.224.187-1.826.353,1.193.207,2.417.716,3.86.156a3.761,3.761,0,0,0,2.283-3.476,2.964,2.964,0,0,1,1.411-2.438,3.169,3.169,0,0,1,1.587-.446c.6-.124,1.214-.207,1.836-.363-1.235-.2-2.407-.685-3.87-.2m32.786-90.876a3.678,3.678,0,0,0-2.407,3.413,3,3,0,0,1-2.874,3c-.6.124-1.224.187-1.826.353,1.193.208,2.417.716,3.86.156a3.75,3.75,0,0,0,2.283-3.476,2.992,2.992,0,0,1,1.411-2.438,3.169,3.169,0,0,1,1.587-.446c.6-.124,1.214-.2,1.826-.353-1.224-.208-2.407-.685-3.86-.208M94.757,352.722a3.654,3.654,0,0,0-2.407,3.4,2.775,2.775,0,0,1-.239,1.2l1.4.249a3.409,3.409,0,0,0,.28-1.421,2.964,2.964,0,0,1,1.411-2.438,3.167,3.167,0,0,1,1.587-.436c.6-.135,1.2-.2,1.816-.353-1.214-.207-2.4-.716-3.849-.207m28.8-61.13a3.706,3.706,0,0,0-2.407,3.393,2.951,2.951,0,0,1-1.318,2.521,3.247,3.247,0,0,1-1.546.5c-.612.1-1.214.187-1.836.353,1.214.2,2.438.7,3.88.135a3.779,3.779,0,0,0,2.272-3.476,2.919,2.919,0,0,1,1.421-2.417,3.126,3.126,0,0,1,1.567-.457c.623-.114,1.214-.2,1.836-.353-1.214-.2-2.407-.7-3.87-.2m9.545-77.72c.332-.633.664-1.255.975-1.878a3.815,3.815,0,0,0-.975,1.878m-2.947,3.652c-.6.114-1.224.187-1.847.363a14.845,14.845,0,0,0,2.49.394c.176-.353.363-.706.55-1.058a3.416,3.416,0,0,1-1.193.3" transform="translate(1.036 6.698)" fill="#fff"/>
        <path id="Path_617" data-name="Path 617" d="M68.283,278.522c2.621.362,74.271,2.736,89.359,5.073.238.037.277-.781.024-.815-46.667-6.244-86.726-5.963-89.861-5.737-3.716.267-4.406.8.478,1.48" transform="translate(2.432 10.391)" fill="#263238"/>
        <path id="Path_618" data-name="Path 618" d="M94.635,280.176c-.007-.143,11.426-20.945,12.643-22.083,1.251-1.183,3.988-3.826,5.167-5.089,2.376-2.547,4.586-5.222,6.861-7.843.19-.217-.128-.531-.317-.314-2.35,2.488-4.914,4.776-7.482,7.024-1.272,1.1-2.547,2.213-3.817,3.3-.092.071,10.939-20.4,12.728-24.046.136-.267-.147-.445-.309-.236-2.459,3.457-24.939,44.349-27.656,48.807a20.13,20.13,0,0,0,2.182.478" transform="translate(3.469 8.659)" fill="#263238"/>
        <path id="Path_619" data-name="Path 619" d="M40.142,339.646C62.194,346.18,147.578,359.274,151.956,360a26.792,26.792,0,0,1,.67-4.657c.043-.167.378-.189.393,0a60.511,60.511,0,0,1,.177,6.542c-.014.369-84.073-11.118-113.082-22.029-.126-.048-.109-.251.027-.212" transform="translate(1.502 12.742)" fill="#263238"/>
        <path id="Path_620" data-name="Path 620" d="M131.153,353.921c1.057-5.393,1.359-10.975,1.875-16.441q.761-8.085,1.414-16.18c.88-10.889,2.028-21.837,2.2-32.766a.2.2,0,0,0-.4-.047c-1.961,10.841-2.805,21.934-3.761,32.9q-.721,8.251-1.212,16.525a143.291,143.291,0,0,0-.533,16.013c.013.253.377.218.42,0" transform="translate(4.902 10.817)" fill="#263238"/>
      </g>
    </g>
    <g id="Group_742" data-name="Group 742">
      <g id="Group_741" data-name="Group 741" clip-path="url(#clip-path)">
        <path id="Path_621" data-name="Path 621" d="M390.576,316.243a58.572,58.572,0,0,1-11.237,34.592l-.005.008a58.848,58.848,0,1,1-47.6-93.443q2.42,0,4.794.193a58.48,58.48,0,0,1,25.746,8.344,58.824,58.824,0,0,1,28.3,50.306" transform="translate(10.238 9.657)" fill="#62c5fa"/>
        <path id="Path_622" data-name="Path 622" d="M344.077,344.016c-.742,1.977.495,2.06.577,2.884s0,2.39-2.389,4.78-6.347,1.9-7.17,2.884-2.225,5.193-4.2,6.593-2.307.577-5.11,1.154-4.945,4.2-5.77,5.934.165,4.616-1.813,4.7-2.884-4.2-4.7-6.51a15.391,15.391,0,0,1-2.966-7.087c-.577-2.72.329-8.407,0-10.631s-6.263-6.182-8.406-8.9-5.11-8.159-4.945-9.973a7.372,7.372,0,0,1,2.472-4.532c.989-.742.577-1.154.742-1.814s.989-.824,1.154-1.648-.495-3.3-1.319-3.709-1.4.989-1.9.742-1.979-1.978-2.555-2.143-.412,1.071-1.236-.495-1.237-5.522-1.9-6.18-1.154,1.154-2.719,0-2.225-3.379-2.885-3.709-1.566.083-2.243-1.236.6-3.709,0-3.461-1.877,2.142-2.207.329,1.649-7.911,1.319-11.208a13.176,13.176,0,0,1,3.131-9.56s.33-1.813.66-2.966,7.417-5.77,8.241-7.088a6.372,6.372,0,0,0,.582-2.344A58.577,58.577,0,0,1,331.37,257.4c1.613,0,3.214.064,4.794.193.055.076.109.148.165.219.714.907,1.484,1.484,3.572,2.254s2.581,1.758,2.142,2.581a2.1,2.1,0,0,1-1.978,1.045c-.825.054-1.594-.386-2.472.165s-1.759,3.516-2.913,3.68-3.185-2.637-3.625-3.461.989-2.582.314-3.407-1.853-.659-3.722-.824-6.207.551-6.043,1.265,6.371-.111,6.536,1.318-4.559,3.846-5.383,3.627-1.924-1.649-3.132-1.814-2.2.825-2.958.935-1.657-.825-2.811-.6-1.429,1.208-2.034,1.594-2.032.384-2.2,1.263,1.813,1.375,2.307,1.924-.6,2.418-.11,2.8,3.571-2.307,4.341-2.966,1.428-3.515,3.076-3.461,2.2,2.856,2.747,3.131,1.759-.659,3.572-.275,3.075,4.342,3.405,5.55,1.1,2.418.44,2.912-3.626-.33-4.01-1.1,1.978-1.923,1.813-2.2a2.35,2.35,0,0,0-2.252-.229c-.714.431-1.044,1.327-1.814,1.548s-2.8-2.089-3.351-1.43.549,2.747,1.1,3.242,2.583.769,2.748,1.319-1.374,1.758-3.242,1.649-3.405-1.54-4.121-.935-.33,2.2-.824,2.747-3.186.165-4.5,1.593-1.924,3.572-3.242,4.78-1.922-.329-3.68,1.375-2.032,5.494-2.089,6.812,0,2.361-.439,2.2a3.666,3.666,0,0,1-1.21-2.033c-.165-.714.386-1.924.386-2.362s-2.528-2.693-4.012-2.912-2.8.989-3.9,1.868-3.077.715-3.79,1.43-1.265,7.032-.716,8.516,1.264,1.484,3.023.714.768-2.253,1.813-1.924a2.455,2.455,0,0,1,1.593,2.307c0,.88-2.087,2.967-1.814,3.572s2.089-.111,2.967.165,1.319.824,1.045,3.077-.11,4.01,1.209,4.752,2.06-1.072,2.636-.825,1.4,1.567,2.225,1.484.412-.824,1.979-1.319.988-.824,1.318-1.813a1.809,1.809,0,0,1,2.39-1.319c1.071.494.329,1.236.412,2.061s1.978.906,3.461,1.4,2.307,0,5.275.989,3.131,3.956,4.368,4.451,5.357-.33,8.323,1.813,2.143,6.1,3.627,7.252,7,2.719,9.148,3.132,2.472-1.072,4.2-.66,2.719.907,3.3,3.3c.507,2.1-5.934,6.51-6.675,8.488" transform="translate(10.601 9.657)" fill="#061455"/>
        <path id="Path_623" data-name="Path 623" d="M299.17,300.322c.055.466,1.429.659,3.077,1.593s2.252,3.682,3.131,3.627.6-1.319.934-1.649a1.066,1.066,0,0,0,0-1.759c-.879-.714-1.735-2.252-3.34-2.472s-1.88-.879-2.594-.824a1.243,1.243,0,0,0-1.209,1.484" transform="translate(11.224 11.212)" fill="#061455"/>
        <path id="Path_624" data-name="Path 624" d="M307.911,304.764c-.245.673,0,1.154,1.759,1.594s3.406-.44,2.856-.8-1.374-.192-1.044-.8.218-1.484-1.21-1.319-2.141.714-2.361,1.319" transform="translate(11.549 11.384)" fill="#061455"/>
        <path id="Path_625" data-name="Path 625" d="M313.862,304.9c-.6.086-.934,1.131-.33,1.791s.6.549,1.319,0,1.814-.823,1.539-1.373-1.923-.505-2.527-.418" transform="translate(11.751 11.437)" fill="#061455"/>
        <path id="Path_626" data-name="Path 626" d="M318.447,307.072c.269-.824,1.649-.015,2.252.864a3.551,3.551,0,0,1,0,3.077c-.329.934-.549,2.033-1.319,1.594s.055-1.759-.055-2.527-1.1-2.333-.879-3.008" transform="translate(11.946 11.508)" fill="#061455"/>
        <path id="Path_627" data-name="Path 627" d="M341.27,262.9c-.287.69,1.044.934,1.814,1.374s1.373.714,1.813,0a1.209,1.209,0,0,0-.769-1.7c-.6-.165-2.582-.329-2.857.33" transform="translate(12.802 9.845)" fill="#061455"/>
        <path id="Path_628" data-name="Path 628" d="M351.282,269.129c.507.535,1.374.44,1.977,1.209s.385,2.087,1.155,2.472,1.318,0,1.373-.549-1.1-1.924-.989-2.2,1.594.385,1.923,1.209-.329,1.979.44,2.2.6-.77.934-.99,1.045-.109.989-.769a4.961,4.961,0,0,0-1.648-2.582,6.182,6.182,0,0,0-2.472-1.319,3.649,3.649,0,0,0-2.967.44c-.6.495-1.026.549-.714.879" transform="translate(13.175 10.043)" fill="#061455"/>
        <path id="Path_629" data-name="Path 629" d="M374.77,279.561a.981.981,0,0,1-.31.578c-1.154.825-2.528-2.031-4.12-2.58s-2.307-2.583-2.637-2.144-.221,1.044-.716,1.758-1.208.551-1.538,1.924,1.538,3.9,1.1,4.725-.989.549-1.87.495-.714.714-1.865.384-.167-1.759-1.98-3.461-2.418-2.032-2.03-2.8-.167-1.869.658-1.979,1.483,1.1,2.032,1.429,1.265-.659,1.319-1.54-1.924-2.086-2.637-2.769-.769-3.164-.494-3.658,1.1-.33,1.319-1.538c.129-.711-1-1.9-1.945-2.755a59.1,59.1,0,0,1,15.716,13.933" transform="translate(13.457 9.966)" fill="#061455"/>
        <path id="Path_630" data-name="Path 630" d="M382.846,328.155c.165-1.759-.714-1.869.165-5.11a9.412,9.412,0,0,0-1.593-7.417c-.659-.715-2.089-.495-3.242.219s-.33,1.265-1.1,1.539-1.538-.165-2.25-.109-1.376,1.867-2.913,1.812-2.526-2.252-3.68-3.819-3.517-2.554-4.286-4.478.714-4.889.384-7.141-1.812-1.76-2.088-3.022.221-.659.6-1.869-.44-1.867.329-3.956,2.143-3.131,1.814-4.065-1.374-2.472-1.43-3.568,1.045-1.047,3.132-2.587,2.637-1.427,4.231-.878a22.834,22.834,0,0,0,3.516.989c.934.165,2.2,2.582,2.582,2.472s.44-.824.6-1.868a2.331,2.331,0,0,1,.686-1.184,58.876,58.876,0,0,1-2.324,65.746c5.6-8.555,6.692-19.951,6.857-21.708" transform="translate(13.587 10.63)" fill="#061455"/>
        <path id="Path_631" data-name="Path 631" d="M264.711,316.328c.015,6,.259,12.123,1.91,17.986l.509,2.222.716,2.163,1.462,4.329,1.876,4.171c.323.691.606,1.4.963,2.079l1.137,1.988a67.829,67.829,0,0,0,11.045,14.625l3.357,3.16c1.1,1.078,2.4,1.916,3.6,2.885a72.705,72.705,0,0,0,7.672,5.143c1.337.765,2.747,1.4,4.121,2.1l2.074,1.032c.7.319,1.437.563,2.155.849l4.34,1.634,4.481,1.2,2.244.594,2.291.371,4.586.737,4.636.277,2.321.134c.773.007,1.547-.053,2.321-.076l4.645-.205c1.541-.158,3.07-.437,4.605-.652a74.394,74.394,0,0,0,9.076-2.029c1.477-.47,2.924-1.041,4.387-1.558l2.188-.8c.712-.307,1.4-.661,2.107-.989l4.2-2.017,3.988-2.406a31.47,31.47,0,0,0,3.834-2.636c1.225-.951,2.515-1.825,3.684-2.842a72.221,72.221,0,0,0,6.659-6.494,66.715,66.715,0,0,0,10.538-15.258l1.983-4.206c.6-1.427,1.067-2.909,1.6-4.362l.778-2.188c.241-.735.39-1.5.589-2.245l1.117-4.506a73.282,73.282,0,0,0,1.106-18.447,67.362,67.362,0,0,0-40.219-56.963,68.943,68.943,0,0,1,26.19,23.872A67.384,67.384,0,0,1,398.278,312.3a75,75,0,0,1-1.444,17.484l-1.131,4.239c-.2.7-.349,1.421-.588,2.111l-.773,2.053c-.532,1.36-.989,2.751-1.578,4.086l-1.936,3.93a34.383,34.383,0,0,1-2.163,3.8c-.793,1.223-1.453,2.537-2.351,3.689a64.161,64.161,0,0,1-5.506,6.794,67.772,67.772,0,0,1-6.289,6.071c-1.1.951-2.324,1.76-3.479,2.649l-1.753,1.306c-.592.423-1.242.763-1.856,1.154-19.607,12.877-46.148,13.567-66.864,2.493a71.934,71.934,0,0,1-14.291-10.28,66.412,66.412,0,0,1-11.2-13.683l-1.208-1.87c-.381-.636-.689-1.312-1.039-1.967l-2.044-3.965-1.65-4.148-.815-2.084-.614-2.151c-.4-1.436-.839-2.869-1.215-4.316l-.8-4.418c-.132-.738-.295-1.473-.4-2.215l-.193-2.242Z" transform="translate(9.931 9.572)" fill="#061455"/>
        <path id="Path_632" data-name="Path 632" d="M352.385,263.325l7.966,3.788,5.615-16.8-4.1-1.948Z" transform="translate(13.221 9.318)" fill="#061455"/>
        <rect id="Rectangle_350" data-name="Rectangle 350" width="8.552" height="20.938" transform="translate(336.786 393.594)" fill="#061455"/>
        <rect id="Rectangle_351" data-name="Rectangle 351" width="62.667" height="7.769" transform="translate(309.729 406.744)" fill="#061455"/>
      </g>
    </g>
    <g id="Group_744" data-name="Group 744">
      <g id="Group_743" data-name="Group 743" clip-path="url(#clip-path)">
        <path id="Path_633" data-name="Path 633" d="M53.82,81.9a36.45,36.45,0,0,0,60.915,23.061l18.24,2.677-9.126-15.768A36.462,36.462,0,1,0,53.82,81.9" transform="translate(2.012 1.562)" fill="#fff"/>
        <path id="Path_634" data-name="Path 634" d="M64.732,51.806A36.4,36.4,0,0,1,95.28,41.661a36.776,36.776,0,0,1,15.56,5.838,37.3,37.3,0,0,1,11.418,12.16,36.864,36.864,0,0,1,2.246,32.5l-.043-.624,9.072,15.8.67,1.166-1.323-.2-18.222-2.8.432-.133a36.776,36.776,0,0,1-18.037,8.906,31.957,31.957,0,0,1-5.045.525,35.737,35.737,0,0,1-5.065-.1,36.363,36.363,0,0,1-9.816-2.341,35.935,35.935,0,0,1-8.8-4.9,41.256,41.256,0,0,1-3.848-3.258,40.663,40.663,0,0,1-3.3-3.8,36.67,36.67,0,0,1,3.554-48.591m-3.445,48.507a40.64,40.64,0,0,0,3.316,3.766,41.048,41.048,0,0,0,3.85,3.214,33.936,33.936,0,0,0,8.8,4.739,35.947,35.947,0,0,0,9.737,2.145,35.433,35.433,0,0,0,4.989.007,31.322,31.322,0,0,0,4.946-.6,35.909,35.909,0,0,0,17.458-8.992l.179-.169.252.036,18.257,2.556-.653.963-9.18-15.737-.174-.3.132-.326a36.436,36.436,0,0,0,2.567-15.883A36,36,0,0,0,121.131,60.3a37.573,37.573,0,0,0-10.908-11.9,35.835,35.835,0,0,0-15.058-5.948A36.384,36.384,0,0,0,78.95,43.675,36.222,36.222,0,0,0,53.82,81.915a36.636,36.636,0,0,0,7.467,18.4" transform="translate(2.012 1.551)" fill="#263238"/>
        <path id="Path_635" data-name="Path 635" d="M90.5,82.512v3.839a2.826,2.826,0,0,1-2.893,2.894,2.9,2.9,0,0,1-2.895-2.894V80.21c0-.059.06-.059.06-.118-.06-.06-.06-.06-.06-.118a2.979,2.979,0,0,1,2.895-2.894,6.615,6.615,0,1,0,0-13.228A6.527,6.527,0,0,0,81.939,67.1a2.914,2.914,0,0,1-4.016,1.062,2.878,2.878,0,0,1-1-3.956A12.411,12.411,0,1,1,90.5,82.512m0,12.933v1.062A2.825,2.825,0,0,1,87.608,99.4a2.9,2.9,0,0,1-2.895-2.894V95.445a2.938,2.938,0,0,1,2.895-2.894A2.861,2.861,0,0,1,90.5,95.445" transform="translate(2.87 2.178)" fill="#f19b48"/>
      </g>
    </g>
  </g>
</svg>
