<svg xmlns="http://www.w3.org/2000/svg" width="99" height="99" viewBox="0 0 99 99">
  <g id="Group_1262" data-name="Group 1262" transform="translate(-298 -3716)">
    <rect id="Rectangle_194" data-name="Rectangle 194" width="99" height="99" rx="20" transform="translate(298 3716)" fill="#f5f5f5"/>
    <rect id="Rectangle_195" data-name="Rectangle 195" width="87" height="87" rx="20" transform="translate(304 3722)" fill="#fff"/>
    <g id="Exp-4.-F--Updated-" transform="translate(310.542 3734.205)">
      <g id="Group_461" data-name="Group 461" transform="translate(0 0)">
        <path id="Path_85" data-name="Path 85" d="M279.1,197.3l7.21,7.21a2.843,2.843,0,1,1-4.021,4.02l-7.21-7.21A14.312,14.312,0,0,0,279.1,197.3Z" transform="translate(-213.222 -161.032)" fill="#061455" fill-rule="evenodd"/>
        <path id="Path_86" data-name="Path 86" d="M33.333,190.832l2.89-15.793a5.687,5.687,0,0,1,3.55-4.283l10.618-4.088s2.242,4.264,7.007,4.264,7.208-4.264,7.208-4.264l10.475,4.094a5.686,5.686,0,0,1,3.512,4.215l3.07,15.855c-6.47,6.691-14.119,10-24.154,10S39.806,197.536,33.333,190.832Z" transform="translate(-33.333 -138.238)" fill="#62c5fa" fill-rule="evenodd"/>
        <path id="Path_87" data-name="Path 87" d="M186.176,250.261v-9.95a1.421,1.421,0,0,0-2.843,0v9.95a1.421,1.421,0,1,0,2.843,0Z" transform="translate(-144.954 -191.981)" fill="#2a7de4" fill-rule="evenodd"/>
        <path id="Path_88" data-name="Path 88" d="M61.111,240.31v9.95a1.421,1.421,0,1,0,2.843,0v-9.95a1.421,1.421,0,0,0-2.843,0Z" transform="translate(-54.004 -191.981)" fill="#2a7de4" fill-rule="evenodd"/>
        <path id="Path_89" data-name="Path 89" d="M88.839,68.349c0-4.264-.881-12.793,9.95-12.793s9.95,8.529,9.95,12.793c0,5.686-5.979,12.793-9.95,12.793S88.839,74.091,88.839,68.349Z" transform="translate(-74.624 -55.556)" fill="#f19b48" fill-rule="evenodd"/>
        <path id="Path_90" data-name="Path 90" d="M117.053,183.333H114.21l-2.732,15.026a1.421,1.421,0,0,0,.261,1.107l2.755,3.673a1.422,1.422,0,0,0,2.274,0l2.755-3.673a1.422,1.422,0,0,0,.262-1.107Z" transform="translate(-91.467 -150.64)" fill="#061455" fill-rule="evenodd"/>
        <ellipse id="Ellipse_31" data-name="Ellipse 31" cx="14.215" cy="14.215" rx="14.215" ry="14.215" transform="translate(39.801 14.215)" fill="#f3f5f0"/>
        <path id="Path_91" data-name="Path 91" d="M198.969,105.557a15.636,15.636,0,1,0,15.636,15.636A15.643,15.643,0,0,0,198.969,105.557Zm0,2.843a12.793,12.793,0,1,1-12.793,12.793A12.8,12.8,0,0,1,198.969,108.4Z" transform="translate(-144.954 -92.764)" fill="#061455" fill-rule="evenodd"/>
      </g>
    </g>
  </g>
</svg>
