<svg id="Group_1031" data-name="Group 1031" xmlns="http://www.w3.org/2000/svg" xmlns:xlink="http://www.w3.org/1999/xlink" width="809" height="725.28" viewBox="0 0 809 725.28">
  <defs>
    <clipPath id="clip-path">
      <rect id="Rectangle_623" data-name="Rectangle 623" width="809" height="725.28" fill="none"/>
    </clipPath>
    <clipPath id="clip-path-2">
      <rect id="Rectangle_622" data-name="Rectangle 622" width="809.001" height="725.281" fill="none"/>
    </clipPath>
    <clipPath id="clip-path-3">
      <rect id="Rectangle_608" data-name="Rectangle 608" width="179.284" height="118.378" fill="none"/>
    </clipPath>
    <clipPath id="clip-path-4">
      <rect id="Rectangle_609" data-name="Rectangle 609" width="244.495" height="305.269" fill="none"/>
    </clipPath>
    <clipPath id="clip-path-5">
      <rect id="Rectangle_610" data-name="Rectangle 610" width="122.49" height="117.976" fill="none"/>
    </clipPath>
    <clipPath id="clip-path-6">
      <rect id="Rectangle_611" data-name="Rectangle 611" width="236.147" height="299.777" fill="none"/>
    </clipPath>
    <clipPath id="clip-path-7">
      <rect id="Rectangle_612" data-name="Rectangle 612" width="104.156" height="114.877" fill="none"/>
    </clipPath>
    <clipPath id="clip-path-8">
      <rect id="Rectangle_613" data-name="Rectangle 613" width="227.715" height="364.267" fill="none"/>
    </clipPath>
    <clipPath id="clip-path-9">
      <rect id="Rectangle_614" data-name="Rectangle 614" width="109.006" height="110.384" fill="none"/>
    </clipPath>
    <clipPath id="clip-path-10">
      <rect id="Rectangle_616" data-name="Rectangle 616" width="195.776" height="79.965" fill="none"/>
    </clipPath>
    <clipPath id="clip-path-11">
      <rect id="Rectangle_617" data-name="Rectangle 617" width="64.483" height="60.364" fill="none"/>
    </clipPath>
    <clipPath id="clip-path-12">
      <rect id="Rectangle_618" data-name="Rectangle 618" width="163.993" height="393.751" fill="none"/>
    </clipPath>
    <clipPath id="clip-path-13">
      <rect id="Rectangle_619" data-name="Rectangle 619" width="262.218" height="137.105" fill="none"/>
    </clipPath>
    <clipPath id="clip-path-14">
      <rect id="Rectangle_621" data-name="Rectangle 621" width="76.506" height="72.705" fill="none"/>
    </clipPath>
  </defs>
  <g id="Group_1030" data-name="Group 1030" clip-path="url(#clip-path)">
    <g id="Group_1029" data-name="Group 1029" transform="translate(0 -0.001)">
      <g id="Group_1028" data-name="Group 1028" clip-path="url(#clip-path-2)">
        <path id="Path_4437" data-name="Path 4437" d="M367.817,705.684H776.966c106.924-67.818,177.9-187.225,177.9-323.215C954.865,171.235,783.626,0,572.392,0S189.918,171.235,189.918,382.469c0,135.989,70.975,255.4,177.9,323.215" transform="translate(-145.864 0.004)" fill="#081e86"/>
        <path id="Path_4438" data-name="Path 4438" d="M617.576,2639.118c-6.447-12.2-31.214-40.838-77.526-49.719-7.578-1.453-24.4-4.68-30.5-.386-12.117,8.532,41.971,41.816,34.95,46.25-7.464,4.715-71.158-30.363-81.974-24.667-5.08,2.676,43.927,24.436,42.576,53.959a32.046,32.046,0,0,1-5.719,16.188H631.673s1.79-11.563-14.1-41.625" transform="translate(-354.952 -1986.807)" fill="#061455"/>
        <path id="Path_4439" data-name="Path 4439" d="M2445.745,2425.71l2.64,1.869,2.724,1.928,1.957,1.4a208.21,208.21,0,0,1,43.367-32.3c1.414-.77,2.836-1.527,4.294-2.26,11.25-5.687,23.639-10.158,36.168-11.4a66.087,66.087,0,0,1,11.151-.2c.066.006.144.009.216.01,14.572,1.039,30.694.487,46.441-3.191,2.2-.5,4.4-1.087,6.58-1.721A97.981,97.981,0,0,0,2638,2360.3c.945-.807,1.879-1.643,2.789-2.5a95.749,95.749,0,0,0,20.473-27.973c.5-1,.971-2.014,1.443-3.049a136.669,136.669,0,0,0,9.59-30.841,39.08,39.08,0,0,0,.739-7.424,27.818,27.818,0,0,0-.166-3.3c-1.21-11.746-9.021-19.82-21.086-24.18a62.955,62.955,0,0,0-13.642-3.16q-1.746-.22-3.566-.372c-1.227-.108-2.477-.176-3.752-.237-12.992-.55-28.094,1.448-43.964,5.988-1.186.334-2.36.688-3.553,1.055a204.584,204.584,0,0,0-40.49,17.56c-1.257.7-2.5,1.435-3.748,2.172a209.434,209.434,0,0,0-29.466,21.128c-1.229,1.053-2.445,2.132-3.652,3.222-.47.421-.947.846-1.413,1.278a189.428,189.428,0,0,0-30.915,36.454q-2.607,3.985-4.991,8.166a175.838,175.838,0,0,0-9.777,19.731,180.7,180.7,0,0,0-13.106,51.7" transform="translate(-1878.424 -1733.588)" fill="#061455"/>
        <path id="Path_4440" data-name="Path 4440" d="M2457.125,2427.873l2.724,1.928a275.891,275.891,0,0,1,21.334-33.285,99.075,99.075,0,0,1,23.989,2.382c1.414-.77,2.836-1.526,4.294-2.26-9.618-3.01-20.3-3.469-25.732-3.469a260.743,260.743,0,0,1,25.233-28.2c2.231,4.3,10.086,11.906,36.666,20.271a66.143,66.143,0,0,1,11.152-.2c-18.4-5.019-29.111-9.707-35.34-13.348-7.8-4.553-9.533-7.911-9.918-9.162a263.493,263.493,0,0,1,36.518-28.717,66.931,66.931,0,0,0,15.243,24.623,83.3,83.3,0,0,0,27.521,18.9,101.811,101.811,0,0,0,11.046,4.047c.524.164,1.055.324,1.588.473,2.2-.5,4.4-1.087,6.58-1.722-22.159-5.246-35.963-15.216-44.193-23.838a63.778,63.778,0,0,1-14.89-24.343,275.05,275.05,0,0,1,40.228-21.08c1.541,3.968,6.232,14.172,16.957,25.14,7.933,8.117,20.277,17.62,38.612,24.577.946-.807,1.879-1.644,2.789-2.5-18.594-6.757-31-16.209-38.9-24.248-10.388-10.591-14.972-20.614-16.388-24.236,3.256-1.341,6.455-2.576,9.559-3.72,9.664-3.546,18.964-6.384,27.657-8.63a57.616,57.616,0,0,0,10.16,15.573,58.924,58.924,0,0,0,26.612,16.783c.585.169,1.181.34,1.772.505.5-1,.972-2.014,1.443-3.049a55.609,55.609,0,0,1-27.366-16.462,55,55,0,0,1-9.365-14.177,281.561,281.561,0,0,1,47.06-7.625,27.814,27.814,0,0,0-.166-3.3,285.134,285.134,0,0,0-47.457,7.656c.044-1.3.146-3.164.359-5.412a84.782,84.782,0,0,1,4.842-21.733,52.025,52.025,0,0,1,3.962-8.223c-1.227-.108-2.477-.176-3.752-.237a62.136,62.136,0,0,0-5.27,12.927,93.407,93.407,0,0,0-3.334,19.623c-.1,1.664-.144,3-.161,3.9-5.524,1.431-11.3,3.087-17.243,5.009-.012,0-.019.013-.03.011q-5.345,1.722-10.861,3.75c-.061.029-.119.046-.18.069-.017,0-.023.007-.041.009q-4.5,1.661-8.905,3.455c-.033-.352-.071-.744-.106-1.18-.23-2.649-.482-6.771-.5-11.947a162.081,162.081,0,0,1,2.665-29.637c-1.187.334-2.36.688-3.552,1.055a165.626,165.626,0,0,0-2.412,29.693c.041,5.007.31,8.97.532,11.5.062.732.123,1.346.177,1.83a278.236,278.236,0,0,0-40.052,20.719,159.157,159.157,0,0,1-1.07-20.185c.01-1.21.033-2.458.071-3.73a152.411,152.411,0,0,1,2.265-22.267c-1.257.7-2.5,1.434-3.748,2.172a157.027,157.027,0,0,0-1.859,19.623c-.021.6-.04,1.188-.052,1.773-.015.751-.025,1.481-.028,2.207a153.611,153.611,0,0,0,1.324,22.375A263.415,263.415,0,0,0,2525,2346.274q-7.542,6.047-14.619,12.628c-.71-2.263-1.608-6.683-1.232-13.918a102.735,102.735,0,0,1,2.532-17.115,188.493,188.493,0,0,1,5.693-19.7c.311-.884.633-1.8.961-2.72-1.229,1.053-2.445,2.131-3.652,3.222-.469.421-.947.846-1.413,1.278a169.017,169.017,0,0,0-5.776,21.737c-3.409,17.978-1,26.684.264,29.691a266.187,266.187,0,0,0-27.344,30.593c-1.318-3.007-3.26-10.658-1.133-27.788.627-5.058,1.61-10.941,3.073-17.78q-2.607,3.986-4.991,8.167-1.47,8.315-2.032,15.275a87.774,87.774,0,0,0-.208,12.572c.467,7.175,2.028,10.805,3.086,12.487a283.3,283.3,0,0,0-21.088,32.965" transform="translate(-1887.164 -1733.884)" fill="#fff"/>
        <g id="Group_994" data-name="Group 994" transform="translate(580.429 523.58)" opacity="0.18" style="mix-blend-mode: multiply;isolation: isolate">
          <g id="Group_993" data-name="Group 993">
            <g id="Group_992" data-name="Group 992" clip-path="url(#clip-path-3)">
              <path id="Path_4441" data-name="Path 4441" d="M2502.245,2374.01l1.385.549,2.481.987s1.349-2.256,3.879-5.992c1.1-1.63,2.417-3.538,3.95-5.661a230.529,230.529,0,0,1,28.213-32.5c.743-.7,1.5-1.4,2.267-2.1.636-.576,1.273-1.152,1.92-1.72q1.043-.932,2.115-1.843c9.58-8.185,20.413-15.543,32.093-20.306q1.688-.694,3.394-1.3c.185-.068.37-.136.554-.2a73.756,73.756,0,0,1,11.98-3.152l.231-.044a191.551,191.551,0,0,0,27.577-6.739q1.652-.532,3.3-1.11a152.629,152.629,0,0,0,18.4-7.8q3.371-1.7,6.65-3.6a118.947,118.947,0,0,0,16.309-11.305q2.587-2.145,5.06-4.467a102.646,102.646,0,0,0,7.528-7.852q-1.746-.22-3.566-.372c-1.226-.108-2.478-.176-3.751-.237-12.992-.55-28.094,1.448-43.964,5.987-1.187.334-2.36.688-3.553,1.055a204.6,204.6,0,0,0-40.489,17.56c-1.257.7-2.5,1.434-3.748,2.171a209.5,209.5,0,0,0-29.465,21.129c-1.229,1.053-2.445,2.131-3.652,3.222-.471.421-.947.846-1.414,1.278a189.441,189.441,0,0,0-30.915,36.454q-2.607,3.986-4.991,8.166a175.759,175.759,0,0,0-9.777,19.731" transform="translate(-2502.247 -2257.168)" fill="#003889"/>
            </g>
          </g>
        </g>
        <path id="Path_4442" data-name="Path 4442" d="M2451.1,1937.418l3.418,1.1,3.534,1.132,2.543.817s13.2-25.948,35.052-48.768q1.854-1.928,3.782-3.832c10-9.8,21.617-18.7,34.465-24.22a74.122,74.122,0,0,1,11.737-3.965c.074-.017.152-.039.226-.055,15.774-3.806,32.665-9.8,48.094-18.983q3.241-1.921,6.386-4.04a108.854,108.854,0,0,0,32.3-33.018q1.091-1.762,2.114-3.587a106.431,106.431,0,0,0,12.27-36.49q.278-1.832.5-3.711a151.74,151.74,0,0,0-.214-35.869,43.35,43.35,0,0,0-1.706-8.11,33.223,33.223,0,0,0-1.285-3.438c-7.42-17.073-26.414-21.828-49.854-16.469-1.332.3-2.683.64-4.045,1.008-13.946,3.79-29.262,10.97-44.533,21.113-1.137.749-2.268,1.518-3.405,2.3a227.638,227.638,0,0,0-36.965,32.2c-1.09,1.168-2.165,2.358-3.234,3.558a231.971,231.971,0,0,0-24.094,32.268q-1.974,3.183-3.847,6.46a210.762,210.762,0,0,0-20.483,48.985q-1.408,5.093-2.542,10.319a198.682,198.682,0,0,0-.217,83.3" transform="translate(-1879.231 -1300.914)" fill="#061455"/>
        <path id="Path_4443" data-name="Path 4443" d="M2473.28,1891.27c-3-7.706-5.338-17.812-6.993-30.226q1.131-5.223,2.542-10.318c3.3,33.895,10.144,45.336,13.259,48.884a294.7,294.7,0,0,1,18.67-41.57c-3.153-3.706-11.924-17.542-11.447-56.3q1.878-3.277,3.847-6.46c-.8,22.117,1.3,36.319,3.554,44.928,2.039,7.791,4.469,12.162,5.986,14.326q5.277-9.354,11.232-18.29a294.294,294.294,0,0,1,18.12-24.359,174.853,174.853,0,0,1-10.177-27.479,172.641,172.641,0,0,1-4.621-21.393q1.6-1.8,3.233-3.558a180.409,180.409,0,0,0,14.178,49.316,308.835,308.835,0,0,1,35.442-35.393,179.657,179.657,0,0,1-12.655-46.122c1.137-.786,2.269-1.555,3.405-2.3a176.685,176.685,0,0,0,12.19,45.959q4.162-3.469,8.473-6.8c9.189-7.126,18.241-13.346,26.84-18.736-1.568-5.227-6.548-24-2.97-41.534,1.362-.368,2.714-.709,4.045-1.008-3.847,16.114.443,34.3,2.186,40.524a316.807,316.807,0,0,1,47.668-24.055,33.389,33.389,0,0,1,1.284,3.438,312.9,312.9,0,0,0-47.26,23.882,60.981,60.981,0,0,0,14.676,11.862,61.773,61.773,0,0,0,34.5,8.235q-.223,1.879-.5,3.711c-.687.029-1.371.047-2.043.055a65.312,65.312,0,0,1-33.812-8.821,63.79,63.79,0,0,1-15.988-13.071c-8.448,5.3-17.338,11.428-26.376,18.431q-4.36,3.384-8.878,7.148c2.729,3.353,10.941,12.435,25.5,20.152,11.055,5.854,27.365,11.691,49.326,12.6q-1.019,1.824-2.114,3.587c-21.749-1.2-38.013-7.118-49.137-13.045-15.031-8.006-23.43-17.238-26.393-20.914a305.768,305.768,0,0,0-35.5,35.829c2.281,3.3,9.813,13.037,23.937,20.769,11.613,6.358,29.569,12.28,54.793,10.38q-3.145,2.117-6.386,4.04-.923.026-1.844.037a114.792,114.792,0,0,1-13.05-.576,92.769,92.769,0,0,1-35.484-10.762,74.485,74.485,0,0,1-24.408-20.947,292.933,292.933,0,0,0-29.01,42.671c.828,1.194,3.794,4.166,13.578,6.367,7.813,1.756,20.741,3.122,41.9,2.25a74.158,74.158,0,0,0-11.737,3.965c-30.952.074-41.818-5.341-45.629-9.139A290.517,290.517,0,0,0,2486,1899.759c5.749-1.821,17.217-4.926,28.4-4.975q-1.934,1.9-3.783,3.832a111.035,111.035,0,0,0-26.191,5.538,307.12,307.12,0,0,0-11.4,42.413l-3.534-1.132a315.158,315.158,0,0,1,11.251-41.985c-1.682-1.42-4.558-4.735-7.459-12.18" transform="translate(-1894.201 -1307.836)" fill="#fff"/>
        <path id="Path_4444" data-name="Path 4444" d="M997.4,2981.072c0,10.553-149.632,19.107-334.213,19.107s-334.212-8.555-334.212-19.107,149.632-19.108,334.212-19.108,334.213,8.555,334.213,19.108" transform="translate(-252.668 -2274.898)" fill="#081e86"/>
        <path id="Path_4445" data-name="Path 4445" d="M1482.422,1050.872l-273.682-10.236a23.8,23.8,0,0,1-22.9-24.675L1205.3,495.745a23.8,23.8,0,0,1,24.674-22.9l273.682,10.236a23.8,23.8,0,0,1,22.9,24.675L1507.1,1027.976a23.8,23.8,0,0,1-24.674,22.9" transform="translate(-910.76 -363.152)" fill="#c4d7f2"/>
        <path id="Path_4446" data-name="Path 4446" d="M1449.068,1139.9H1175.195a23.8,23.8,0,0,1-23.8-23.8V595.518a23.8,23.8,0,0,1,23.8-23.8h273.873a23.8,23.8,0,0,1,23.8,23.8V1116.1a23.8,23.8,0,0,1-23.8,23.8" transform="translate(-884.313 -439.099)" fill="#62c5fa"/>
        <path id="Path_4447" data-name="Path 4447" d="M1498.615,1375.733h-13.055a2.657,2.657,0,0,1,0-5.314H1498.7a2.657,2.657,0,0,1,.011,5.315Zm-26.111,0h-13.055a2.657,2.657,0,1,1,0-5.314H1472.5a2.657,2.657,0,1,1,0,5.314m-26.11,0h-13.055a2.657,2.657,0,0,1,0-5.314h13.055a2.657,2.657,0,1,1,0,5.314m-26.111,0h-13.055a2.657,2.657,0,1,1,0-5.314h13.055a2.657,2.657,0,1,1,0,5.314m-26.11,0h-13.056a2.657,2.657,0,1,1,0-5.314h13.056a2.657,2.657,0,1,1,0,5.314m-26.111,0h-13.055a2.657,2.657,0,1,1,0-5.314h13.055a2.657,2.657,0,1,1,0,5.314m-26.111,0H1328.9a2.657,2.657,0,1,1,0-5.314h13.055a2.657,2.657,0,1,1,0,5.314m-26.11,0h-13.055a2.657,2.657,0,1,1,0-5.314h13.055a2.657,2.657,0,1,1,0,5.314m-26.111,0h-13.055a2.657,2.657,0,1,1,0-5.314h13.055a2.657,2.657,0,1,1,0,5.314m-26.11,0h-.02a22.237,22.237,0,0,1-13.719-4.809,2.657,2.657,0,1,1,3.29-4.174,16.97,16.97,0,0,0,10.469,3.668,2.657,2.657,0,0,1-.02,5.315m247.186-4.195a2.657,2.657,0,0,1-1.639-4.75,17.23,17.23,0,0,0,6.068-9.292,2.657,2.657,0,1,1,5.152,1.3,22.571,22.571,0,0,1-7.947,12.173,2.644,2.644,0,0,1-1.635.564m-266.252-10.8a2.658,2.658,0,0,1-2.577-2.015,22.558,22.558,0,0,1-.665-5.446v-8.2a2.657,2.657,0,0,1,5.315,0v8.2a17.227,17.227,0,0,0,.508,4.161,2.66,2.66,0,0,1-2.581,3.3m273.862-12.935a2.657,2.657,0,0,1-2.657-2.657v-13.055a2.657,2.657,0,1,1,5.314,0v13.055a2.657,2.657,0,0,1-2.657,2.657m-274.447-13.127a2.657,2.657,0,0,1-2.657-2.658v-13.055a2.657,2.657,0,1,1,5.315,0v13.055a2.658,2.658,0,0,1-2.657,2.658m274.447-12.984a2.657,2.657,0,0,1-2.657-2.657v-13.055a2.657,2.657,0,0,1,5.314,0v13.055a2.657,2.657,0,0,1-2.657,2.657m-274.447-13.127a2.657,2.657,0,0,1-2.657-2.657v-13.055a2.657,2.657,0,1,1,5.315,0v13.055a2.657,2.657,0,0,1-2.657,2.657m274.447-12.984a2.657,2.657,0,0,1-2.657-2.657v-13.055a2.657,2.657,0,1,1,5.314,0v13.055a2.657,2.657,0,0,1-2.657,2.657m-274.447-13.127a2.657,2.657,0,0,1-2.657-2.657V1266.74a2.657,2.657,0,1,1,5.315,0V1279.8a2.657,2.657,0,0,1-2.657,2.657m274.447-12.984a2.657,2.657,0,0,1-2.657-2.657v-13.055a2.657,2.657,0,1,1,5.314,0v13.055a2.657,2.657,0,0,1-2.657,2.657m-274.447-13.127a2.657,2.657,0,0,1-2.657-2.657v-13.056a2.657,2.657,0,0,1,5.315,0v13.056a2.657,2.657,0,0,1-2.657,2.657m274.447-12.984a2.657,2.657,0,0,1-2.657-2.657v-13.055a2.657,2.657,0,1,1,5.314,0V1240.7a2.657,2.657,0,0,1-2.657,2.657m-274.447-13.127a2.658,2.658,0,0,1-2.657-2.658v-13.056a2.657,2.657,0,1,1,5.315,0v13.056a2.658,2.658,0,0,1-2.657,2.658m274.447-12.984a2.657,2.657,0,0,1-2.657-2.658v-13.055a2.657,2.657,0,1,1,5.314,0v13.055a2.657,2.657,0,0,1-2.657,2.658m-274.447-13.127a2.657,2.657,0,0,1-2.657-2.657v-13.055a2.657,2.657,0,1,1,5.315,0v13.055a2.657,2.657,0,0,1-2.657,2.657m274.447-12.984a2.657,2.657,0,0,1-2.657-2.657v-13.055a2.657,2.657,0,1,1,5.314,0v13.055a2.657,2.657,0,0,1-2.657,2.657m-274.447-13.127a2.657,2.657,0,0,1-2.657-2.657V1162.3a2.657,2.657,0,0,1,5.315,0v13.055a2.657,2.657,0,0,1-2.657,2.657m274.447-12.984a2.657,2.657,0,0,1-2.657-2.657v-13.055a2.657,2.657,0,1,1,5.314,0v13.055a2.657,2.657,0,0,1-2.657,2.657M1243.969,1151.9a2.657,2.657,0,0,1-2.657-2.657v-13.055a2.657,2.657,0,0,1,5.315,0v13.055a2.657,2.657,0,0,1-2.657,2.657m274.447-12.984a2.657,2.657,0,0,1-2.657-2.657V1123.2a2.657,2.657,0,1,1,5.314,0v13.055a2.657,2.657,0,0,1-2.657,2.657m-274.447-13.127a2.657,2.657,0,0,1-2.657-2.657v-13.055a2.657,2.657,0,1,1,5.315,0v13.055a2.657,2.657,0,0,1-2.657,2.657m274.447-12.984a2.657,2.657,0,0,1-2.657-2.657v-13.055a2.657,2.657,0,1,1,5.314,0v13.055a2.657,2.657,0,0,1-2.657,2.657m-274.447-13.127a2.657,2.657,0,0,1-2.657-2.657v-13.056a2.657,2.657,0,1,1,5.315,0v13.056a2.657,2.657,0,0,1-2.657,2.657m274.447-12.984a2.657,2.657,0,0,1-2.657-2.657v-13.055a2.657,2.657,0,1,1,5.314,0v13.055a2.657,2.657,0,0,1-2.657,2.657m-274.447-13.127a2.657,2.657,0,0,1-2.657-2.657v-13.055a2.657,2.657,0,0,1,5.315,0v13.055a2.657,2.657,0,0,1-2.657,2.657m274.447-12.984a2.657,2.657,0,0,1-2.657-2.657v-13.056a2.657,2.657,0,0,1,5.314,0v13.056a2.657,2.657,0,0,1-2.657,2.657m-274.447-13.126a2.658,2.658,0,0,1-2.657-2.658v-13.055a2.657,2.657,0,1,1,5.315,0V1044.8a2.658,2.658,0,0,1-2.657,2.658m274.447-12.984a2.657,2.657,0,0,1-2.657-2.657V1018.76a2.657,2.657,0,1,1,5.314,0v13.055a2.657,2.657,0,0,1-2.657,2.657m-274.447-13.127a2.657,2.657,0,0,1-2.657-2.657v-13.055a2.657,2.657,0,1,1,5.315,0v13.055a2.657,2.657,0,0,1-2.657,2.657m274.447-12.984a2.657,2.657,0,0,1-2.657-2.657V992.65a2.657,2.657,0,1,1,5.314,0v13.055a2.657,2.657,0,0,1-2.657,2.657m-274.447-13.127a2.657,2.657,0,0,1-2.657-2.657V979.523a2.657,2.657,0,0,1,5.315,0v13.055a2.657,2.657,0,0,1-2.657,2.657m274.447-12.984a2.657,2.657,0,0,1-2.657-2.657V966.539a2.657,2.657,0,1,1,5.314,0v13.055a2.657,2.657,0,0,1-2.657,2.657m-274.447-13.127a2.657,2.657,0,0,1-2.657-2.657V953.412a2.657,2.657,0,0,1,5.315,0v13.055a2.657,2.657,0,0,1-2.657,2.657m274.447-12.984a2.657,2.657,0,0,1-2.657-2.657V940.428a2.657,2.657,0,1,1,5.314,0v13.055a2.657,2.657,0,0,1-2.657,2.657m-274.447-13.127a2.657,2.657,0,0,1-2.657-2.657v-8.091a22.556,22.556,0,0,1,.7-5.568,2.657,2.657,0,0,1,5.15,1.313,17.235,17.235,0,0,0-.531,4.255v8.091a2.657,2.657,0,0,1-2.657,2.657m273.848-12.933a2.658,2.658,0,0,1-2.575-2.01,17.227,17.227,0,0,0-6.054-9.3,2.658,2.658,0,0,1,3.281-4.182,22.574,22.574,0,0,1,7.928,12.187,2.66,2.66,0,0,1-2.58,3.305m-266.2-10.788a2.657,2.657,0,0,1-1.635-4.754,22.242,22.242,0,0,1,13.745-4.732h.005a2.657,2.657,0,0,1,.005,5.314,16.979,16.979,0,0,0-10.49,3.61,2.645,2.645,0,0,1-1.631.561m247.112-4.171H1485.67a2.657,2.657,0,1,1,0-5.315h13.071a2.657,2.657,0,0,1-.015,5.314m-26.111,0H1459.56a2.657,2.657,0,0,1,0-5.315h13.056a2.657,2.657,0,0,1,0,5.315m-26.111,0h-13.055a2.657,2.657,0,1,1,0-5.315H1446.5a2.657,2.657,0,1,1,0,5.315m-26.111,0h-13.056a2.657,2.657,0,1,1,0-5.315h13.056a2.657,2.657,0,0,1,0,5.315m-26.111,0h-13.055a2.657,2.657,0,0,1,0-5.315h13.055a2.657,2.657,0,1,1,0,5.315m-26.11,0h-13.055a2.657,2.657,0,0,1,0-5.315h13.055a2.657,2.657,0,0,1,0,5.315m-26.111,0h-13.055a2.657,2.657,0,0,1,0-5.315h13.055a2.657,2.657,0,0,1,0,5.315m-26.111,0H1302.9a2.657,2.657,0,1,1,0-5.315h13.055a2.657,2.657,0,0,1,0,5.315m-26.11,0h-13.055a2.657,2.657,0,0,1,0-5.315h13.055a2.657,2.657,0,0,1,0,5.315" transform="translate(-953.374 -698.766)" fill="#acc6e5"/>
        <g id="Group_997" data-name="Group 997" transform="translate(151.795 213.699)" opacity="0.2" style="mix-blend-mode: multiply;isolation: isolate">
          <g id="Group_996" data-name="Group 996">
            <g id="Group_995" data-name="Group 995" clip-path="url(#clip-path-4)">
              <path id="Path_4448" data-name="Path 4448" d="M898.722,1178.927l-26.606-234.72a25.854,25.854,0,0,0-28.6-22.777L677.338,940.267a25.853,25.853,0,0,0-22.777,28.6l26.606,234.719a25.854,25.854,0,0,0,28.6,22.777l166.178-18.837a25.853,25.853,0,0,0,22.777-28.6" transform="translate(-654.394 -921.263)" fill="#003889"/>
            </g>
          </g>
        </g>
        <path id="Path_4449" data-name="Path 4449" d="M901.3,1118.938l-165.26,25.677a25.854,25.854,0,0,1-29.516-21.578L670.259,889.615A25.854,25.854,0,0,1,691.837,860.1L857.1,834.422A25.854,25.854,0,0,1,886.613,856l36.267,233.422a25.854,25.854,0,0,1-21.578,29.516" transform="translate(-514.546 -640.628)" fill="#fff"/>
        <path id="Path_4450" data-name="Path 4450" d="M960.476,1829.781l5.462-.057a1.493,1.493,0,0,1,1.21,2.389l-3.277,4.369a1.494,1.494,0,0,0-.221,1.372l1.742,5.177a1.493,1.493,0,0,1-1.9,1.889l-5.168-1.766a1.493,1.493,0,0,0-1.373.214l-4.385,3.256a1.493,1.493,0,0,1-2.383-1.221l.083-5.461a1.492,1.492,0,0,0-.628-1.24l-4.452-3.164a1.493,1.493,0,0,1,.425-2.644l5.219-1.609a1.492,1.492,0,0,0,.985-.98l1.634-5.212a1.493,1.493,0,0,1,2.646-.412l3.143,4.467a1.494,1.494,0,0,0,1.237.634" transform="translate(-725.457 -1400.935)" fill="#f19b48"/>
        <path id="Path_4451" data-name="Path 4451" d="M1095.946,1808.734l5.462-.057a1.493,1.493,0,0,1,1.21,2.389l-3.277,4.37a1.494,1.494,0,0,0-.221,1.372l1.742,5.177a1.493,1.493,0,0,1-1.9,1.889l-5.168-1.766a1.493,1.493,0,0,0-1.373.214l-4.385,3.256a1.493,1.493,0,0,1-2.383-1.221l.083-5.461a1.493,1.493,0,0,0-.628-1.24l-4.452-3.164a1.493,1.493,0,0,1,.425-2.644l5.219-1.609a1.493,1.493,0,0,0,.985-.98l1.634-5.212a1.493,1.493,0,0,1,2.646-.412l3.143,4.467a1.493,1.493,0,0,0,1.237.634" transform="translate(-829.503 -1384.769)" fill="#f19b48"/>
        <path id="Path_4452" data-name="Path 4452" d="M1231.416,1787.684l5.462-.057a1.493,1.493,0,0,1,1.21,2.389l-3.277,4.37a1.493,1.493,0,0,0-.22,1.372l1.742,5.177a1.493,1.493,0,0,1-1.9,1.889l-5.168-1.766a1.493,1.493,0,0,0-1.373.214l-4.385,3.256a1.493,1.493,0,0,1-2.383-1.221l.083-5.461a1.494,1.494,0,0,0-.628-1.24l-4.452-3.164a1.493,1.493,0,0,1,.425-2.644l5.219-1.609a1.493,1.493,0,0,0,.985-.98l1.634-5.212a1.493,1.493,0,0,1,2.646-.413l3.143,4.467a1.5,1.5,0,0,0,1.237.634" transform="translate(-933.548 -1368.603)" fill="#f19b48"/>
        <path id="Path_4453" data-name="Path 4453" d="M1366.885,1766.636l5.462-.057a1.493,1.493,0,0,1,1.21,2.389l-3.277,4.37a1.493,1.493,0,0,0-.221,1.372l1.742,5.177a1.493,1.493,0,0,1-1.9,1.889l-5.168-1.766a1.493,1.493,0,0,0-1.373.214l-4.385,3.256a1.493,1.493,0,0,1-2.383-1.221l.083-5.461a1.494,1.494,0,0,0-.628-1.24l-4.452-3.164a1.493,1.493,0,0,1,.425-2.644l5.219-1.609a1.493,1.493,0,0,0,.985-.98l1.634-5.212a1.493,1.493,0,0,1,2.646-.413l3.143,4.467a1.494,1.494,0,0,0,1.237.634" transform="translate(-1037.594 -1352.437)" fill="#f19b48"/>
        <path id="Path_4454" data-name="Path 4454" d="M1502.355,1745.587l5.462-.057a1.493,1.493,0,0,1,1.21,2.389l-3.277,4.37a1.493,1.493,0,0,0-.221,1.372l1.742,5.177a1.493,1.493,0,0,1-1.9,1.889l-5.168-1.766a1.493,1.493,0,0,0-1.373.214l-4.385,3.256a1.493,1.493,0,0,1-2.383-1.221l.083-5.461a1.494,1.494,0,0,0-.628-1.24l-4.452-3.164a1.493,1.493,0,0,1,.425-2.644l5.219-1.609a1.494,1.494,0,0,0,.985-.98l1.634-5.212a1.493,1.493,0,0,1,2.646-.413l3.143,4.467a1.494,1.494,0,0,0,1.236.634" transform="translate(-1141.64 -1336.271)" fill="#c4d7f2"/>
        <path id="Path_4455" data-name="Path 4455" d="M1026.286,1136.572a73.651,73.651,0,0,1-2.142,43.258q-.585,1.618-1.245,3.206a74,74,0,1,1,3.388-46.464" transform="translate(-676.277 -829.998)" fill="#ecf3fe"/>
        <g id="Group_1000" data-name="Group 1000" transform="translate(225.377 280.734)" opacity="0.18" style="mix-blend-mode: multiply;isolation: isolate">
          <g id="Group_999" data-name="Group 999">
            <g id="Group_998" data-name="Group 998" clip-path="url(#clip-path-5)">
              <path id="Path_4456" data-name="Path 4456" d="M1094.1,1279.351c-.389,1.079-.807,2.146-1.245,3.206a74.1,74.1,0,0,1-73.553,45.489c-21.088-3.294-38.816-16.88-47.692-37.063l37.542-2.979,9.287-4.482-.687-2.275.876-.19c-7.424-3.3-13.581-14.553-9.467-21.682,4.575-7.926-2.12-8.69-.916-23.267.855-10.39,8.37-14.518,12.611-16.026a8.786,8.786,0,0,1,1.125-2.52c18.606-18.234,33.251,2.608,33.647,9s11.5,17.7,18.952,33.246c3.714,7.757,3.259,12.706.877,15.319,6.024,1.077,12.514,2.611,18.643,4.224" transform="translate(-971.611 -1210.253)" fill="#003889"/>
            </g>
          </g>
        </g>
        <path id="Path_4457" data-name="Path 4457" d="M1075.458,1260.774s-14.519,2.089-14.229,16.213,7.283,14.906,3.393,22.563,5.866,20.346,14.746,21.872,23.587-5.1,23.587-5.1Z" transform="translate(-815.061 -968.321)" fill="#1f3a6f"/>
        <path id="Path_4458" data-name="Path 4458" d="M1121.724,1291.823c.009.036.011.084.021.121a25.958,25.958,0,0,1-1.46,14.785c-.08.185-.159.37-.25.548-2.289,5-6.291,8.607-11.311,9.526-9.374,1.707-18.746-6.653-20.937-18.671-1.279-7.026.177-13.752,3.492-18.462a14.942,14.942,0,0,1,9.52-6.394c8.732-1.594,17.467,5.549,20.392,16.245.207.744.383,1.515.533,2.3" transform="translate(-835.108 -977.751)" fill="#fdc8aa"/>
        <path id="Path_4459" data-name="Path 4459" d="M1055.607,1487.979a74.013,74.013,0,0,1-132.5,8.583l38.435-2.636,9.112-4.281,3.222-1.513,2.022-.948.967-.45,10.433-4.889,7.743-2.606,4.1-1.379.426-.145,2.04.459,8.3,1.863,1.443.323c.2-.014.413-.023.623-.033s.422-.013.646-.013l.006,0c1.129-.029,2.347-.005,3.646.066a108.633,108.633,0,0,1,12.349,1.51c8.768,1.5,18.557,3.858,26.985,6.09" transform="translate(-708.982 -1134.939)" fill="#3b82f4"/>
        <path id="Path_4460" data-name="Path 4460" d="M1187.419,1422.824l-26.881,30.447-9.844-23.573,10.277-4.815-1.45-3.893-2.435-6.529,13.981-11.592,1.732,5.724,3.606,11.909a.288.288,0,0,1,0,.189l9.743,2.184c.41-.03.832-.046,1.273-.051" transform="translate(-883.775 -1077.455)" fill="#fdc8aa"/>
        <path id="Path_4461" data-name="Path 4461" d="M1196.389,1408.593c-2.953,3.973-8.2,10.221-13.278,12.4l-1.7-4.567c4.817-1.037,8.658-4.578,10.886-9.442.086-.177.171-.362.247-.546a21.719,21.719,0,0,0,.922-2.576l1.192-.989Z" transform="translate(-907.366 -1077.455)" fill="#efa37d"/>
        <path id="Path_4462" data-name="Path 4462" d="M1218.521,1479.624l6.849-.428s-27.645,37.884-27.741,37.5-4.483-4.809-4.483-4.809Z" transform="translate(-916.381 -1136.077)" fill="#fff"/>
        <path id="Path_4463" data-name="Path 4463" d="M1130.882,1513.43l-6.89,1.437,12.541,29.11,3.5-5.794Z" transform="translate(-863.267 -1162.37)" fill="#fff"/>
        <path id="Path_4464" data-name="Path 4464" d="M1199.959,1669.8a2.252,2.252,0,1,1-2.735-1.632,2.252,2.252,0,0,1,2.735,1.632" transform="translate(-918.206 -1281.163)" fill="#fff"/>
        <path id="Path_4465" data-name="Path 4465" d="M1109.117,1230.4c-.9.915-4.91,15.154,6.012,16.117s11.27-4.383,13.748,5.75,7.254,5.471,7.942,6.915-2.328,7.307,1.1,16.094,4.815,13.939,11.923,11.658,1.022-2.361,9.589.814,17.727-.918,8.408-16.038-21.977-26.161-23.057-32.36-18.383-26.5-35.67-8.951" transform="translate(-850.721 -939.628)" fill="#1f3a6f"/>
        <path id="Path_4466" data-name="Path 4466" d="M1027.927,928.318,953.836,939.83a5.961,5.961,0,0,1-1.831-11.782l74.091-11.512a5.961,5.961,0,1,1,1.831,11.782" transform="translate(-727.299 -703.878)" fill="#36588e"/>
        <path id="Path_4467" data-name="Path 4467" d="M1132.333,1892.276,1011.176,1911.1a3.613,3.613,0,0,1-4.125-3.015h0a3.613,3.613,0,0,1,3.016-4.125l121.156-18.824a3.613,3.613,0,1,1,1.11,7.14" transform="translate(-773.42 -1447.82)" fill="#c4d7f2"/>
        <path id="Path_4468" data-name="Path 4468" d="M1097.729,1941.774l-159.484,24.78a3.613,3.613,0,0,1-4.125-3.015h0a3.613,3.613,0,0,1,3.016-4.125l159.485-24.78a3.613,3.613,0,0,1,1.109,7.14" transform="translate(-717.405 -1485.837)" fill="#c4d7f2"/>
        <g id="Group_1003" data-name="Group 1003" transform="translate(465.832 219.069)" opacity="0.2" style="mix-blend-mode: multiply;isolation: isolate">
          <g id="Group_1002" data-name="Group 1002">
            <g id="Group_1001" data-name="Group 1001" clip-path="url(#clip-path-6)">
              <path id="Path_4469" data-name="Path 4469" d="M2220.445,956.991,2053.67,944.485a25.853,25.853,0,0,0-27.714,23.848l-17.664,235.561a25.854,25.854,0,0,0,23.848,27.714l166.774,12.506a25.853,25.853,0,0,0,27.714-23.848l17.664-235.562a25.854,25.854,0,0,0-23.848-27.714" transform="translate(-2008.219 -944.411)" fill="#003889"/>
            </g>
          </g>
        </g>
        <path id="Path_4470" data-name="Path 4470" d="M2135.417,1174.768l-166.314-17.6a25.853,25.853,0,0,1-22.989-28.43l24.857-234.911a25.853,25.853,0,0,1,28.43-22.989l166.313,17.6a25.853,25.853,0,0,1,22.99,28.43l-24.857,234.911a25.853,25.853,0,0,1-28.43,22.989" transform="translate(-1494.576 -668.724)" fill="#fff"/>
        <path id="Path_4471" data-name="Path 4471" d="M2278.753,1236.566q-1.305.94-2.66,1.826a74.1,74.1,0,1,1,2.66-1.826" transform="translate(-1660.193 -846.718)" fill="#ecf3fe"/>
        <g id="Group_1006" data-name="Group 1006" transform="translate(518.017 288.848)" opacity="0.18" style="mix-blend-mode: multiply;isolation: isolate">
          <g id="Group_1005" data-name="Group 1005">
            <g id="Group_1004" data-name="Group 1004" clip-path="url(#clip-path-7)">
              <path id="Path_4472" data-name="Path 4472" d="M2332.431,1334.1c-.99-8.832-16.668-16.349-23.97-18.358h-.006a6.635,6.635,0,0,0,.127-.906c.041-.677.1-1.488.185-2.386a37.57,37.57,0,0,1,1.732-8.653,30.411,30.411,0,0,0,8.824-8.286c9.221,7.3,15.088-3.367,17.169-14.231,1.186-6.2,1.147-12.454-.2-15.459-3.758-8.345-12.286-5.959-14.691-6.78s-2.454-7.312-14.292-12.621-25.374,8.2-22.577,19.237c1.237,4.893,3.591,7.389,7.156,8.692-.546,1.075-1.047,2.179-1.49,3.32-.409,1.047-.779,2.122-1.09,3.228-2.405,8.338-1.378,15.956,2.153,20.69l-3.926,5.449-4.7,6.5a104.585,104.585,0,0,0-11.116.706c-3.641.388-7.162.862-10.412,1.188-3.743.377-15.288,6.287-28.122,13.278a55.1,55.1,0,0,0,8.413,12.869,74.024,74.024,0,0,0,89.471,6.477q1.355-.889,2.66-1.826c-.541-5.07-1-9.393-1.3-12.129m-5.7-53.714-.479.9a.725.725,0,0,0-.118-.031c.329-.464.546-.789.6-.869" transform="translate(-2233.187 -1245.228)" fill="#003889"/>
            </g>
          </g>
        </g>
        <path id="Path_4473" data-name="Path 4473" d="M2544.241,1389.835l4.3-13.645,10.3-.9c.041,11.517-3.776,22.863-14.6,14.549" transform="translate(-1954.072 -1056.27)" fill="#1f3a6f"/>
        <path id="Path_4474" data-name="Path 4474" d="M2313.276,1560.1a74.03,74.03,0,0,1-103.262-22.744c11.232-7.344,21.414-13.561,25-13.968,6.243-.714,13.452-2.03,20.731-2.071a47.88,47.88,0,0,1,8.812.686c5.859,1.048,9.29,2.587,11.392,2.77,2.066.176,3.324-1.822,5.323-1.273,7.539,2.065,24.343,9.83,27,19.032,1.069,3.71,2.9,10.2,5,17.568" transform="translate(-1697.373 -1168.424)" fill="#f19b48"/>
        <path id="Path_4475" data-name="Path 4475" d="M2427.583,1534.031s-4.231,17.514-17.953,25.319c0,0-11.579-7.858-7.994-27.032Z" transform="translate(-1844.017 -1176.876)" fill="#fff"/>
        <path id="Path_4476" data-name="Path 4476" d="M2428.96,1475.754c-1.964,2.813-6.192,6.817-14.17,6.26-8.021-.558-10.239-4.983-10.827-7.923a6.541,6.541,0,0,1,.584-4.159l3.424-6.952,4.32-8.764,17.849,3.844c-.775,2.979-.622,7.24-.325,10.473.086.933.187,1.78.275,2.486a6.737,6.737,0,0,1-1.129,4.735" transform="translate(-1846.243 -1116.891)" fill="#fdc8aa"/>
        <path id="Path_4477" data-name="Path 4477" d="M2443.473,1468.533c-4,9.316-17.335-1.518-21.844-5.553l4.32-8.764,17.849,3.844c-.775,2.979-.622,7.24-.325,10.473" transform="translate(-1859.902 -1116.891)" fill="#efa37d"/>
        <path id="Path_4478" data-name="Path 4478" d="M2442.607,1299.31c-1.207,13.875-10.132,24.429-19.937,23.582s-16.782-12.788-15.58-26.663q.149-1.722.453-3.369c2.228-12.168,10.487-20.989,19.484-20.213,6.959.607,12.489,6.792,14.688,15.288a33.933,33.933,0,0,1,.892,11.375" transform="translate(-1848.631 -977.403)" fill="#fdc8aa"/>
        <path id="Path_4479" data-name="Path 4479" d="M2443.662,1287.935l-3.986,11.88s-.458-6.034-16.507-5.236c-6.7.332-10.968-.559-13.679-1.719,2.229-12.168,10.487-20.989,19.484-20.213,6.959.607,12.489,6.792,14.688,15.288" transform="translate(-1850.578 -977.403)" fill="#efa37d"/>
        <path id="Path_4480" data-name="Path 4480" d="M2390.109,1215.123c12.611,5.481,13.9,12.254,16.417,13.1s10.411-1.683,15.692,7c1.9,3.124,3.139,9.647,3.161,16.116l-10.3.9.571-1.813s-3.85,8.86-6.3,8.229,5.348-12.283-9.712-12.7-23.108.818-27.962-10.678,5.827-25.641,18.438-20.159" transform="translate(-1820.614 -932.324)" fill="#1f3a6f"/>
        <path id="Path_4481" data-name="Path 4481" d="M2534.984,1378.473a5.823,5.823,0,0,1,3.74-3.4,4.164,4.164,0,0,1,4.731,1.909c3.079,4.263-3.773,11.9-8.024,9.412l-1.482-2.793a13.706,13.706,0,0,1,1.035-5.131" transform="translate(-1946.168 -1055.985)" fill="#fdc8aa"/>
        <path id="Path_4482" data-name="Path 4482" d="M2130.219,1784.309l5.294,1.347a1.493,1.493,0,0,1,.556,2.619l-4.288,3.382a1.493,1.493,0,0,0-.566,1.269l.355,5.451a1.493,1.493,0,0,1-2.319,1.338l-4.542-3.034a1.494,1.494,0,0,0-1.382-.146l-5.074,2.022a1.493,1.493,0,0,1-1.99-1.792l1.482-5.257a1.5,1.5,0,0,0-.289-1.359l-3.491-4.2a1.493,1.493,0,0,1,1.09-2.446l5.458-.216a1.492,1.492,0,0,0,1.2-.694l2.917-4.618a1.493,1.493,0,0,1,2.663.28l1.891,5.124a1.492,1.492,0,0,0,1.032.93" transform="translate(-1623.338 -1365.015)" fill="#f4b545"/>
        <path id="Path_4483" data-name="Path 4483" d="M2266.554,1798.734l5.293,1.347a1.493,1.493,0,0,1,.556,2.619l-4.289,3.382a1.493,1.493,0,0,0-.565,1.269l.355,5.45a1.493,1.493,0,0,1-2.319,1.338l-4.542-3.034a1.493,1.493,0,0,0-1.382-.146l-5.074,2.022a1.493,1.493,0,0,1-1.99-1.792l1.482-5.257a1.491,1.491,0,0,0-.289-1.359l-3.491-4.2a1.493,1.493,0,0,1,1.09-2.446l5.458-.215a1.494,1.494,0,0,0,1.2-.695l2.917-4.618a1.493,1.493,0,0,1,2.663.28l1.891,5.124a1.493,1.493,0,0,0,1.032.93" transform="translate(-1728.048 -1376.095)" fill="#f19b48"/>
        <path id="Path_4484" data-name="Path 4484" d="M2402.888,1813.16l5.293,1.347a1.493,1.493,0,0,1,.556,2.619l-4.289,3.382a1.493,1.493,0,0,0-.565,1.269l.354,5.45a1.493,1.493,0,0,1-2.319,1.339l-4.542-3.034a1.493,1.493,0,0,0-1.382-.145l-5.074,2.021a1.493,1.493,0,0,1-1.99-1.792l1.482-5.257a1.5,1.5,0,0,0-.289-1.359l-3.49-4.2a1.493,1.493,0,0,1,1.089-2.446l5.458-.216a1.492,1.492,0,0,0,1.2-.694l2.917-4.618a1.492,1.492,0,0,1,2.662.281l1.892,5.124a1.493,1.493,0,0,0,1.032.93" transform="translate(-1832.757 -1387.174)" fill="#f19b48"/>
        <path id="Path_4485" data-name="Path 4485" d="M2539.222,1827.586l5.293,1.347a1.493,1.493,0,0,1,.556,2.62l-4.288,3.382a1.493,1.493,0,0,0-.565,1.269l.355,5.45a1.493,1.493,0,0,1-2.319,1.338l-4.542-3.034a1.493,1.493,0,0,0-1.382-.146l-5.073,2.022a1.493,1.493,0,0,1-1.99-1.792l1.481-5.257a1.493,1.493,0,0,0-.288-1.359l-3.491-4.2a1.493,1.493,0,0,1,1.09-2.446l5.457-.215a1.494,1.494,0,0,0,1.2-.694l2.917-4.618a1.493,1.493,0,0,1,2.663.28l1.891,5.124a1.493,1.493,0,0,0,1.033.93" transform="translate(-1937.467 -1398.254)" fill="#c4d7f2"/>
        <path id="Path_4486" data-name="Path 4486" d="M2675.556,1842.012l5.294,1.347a1.493,1.493,0,0,1,.556,2.619l-4.289,3.382a1.5,1.5,0,0,0-.565,1.269l.355,5.45a1.493,1.493,0,0,1-2.319,1.339l-4.542-3.034a1.493,1.493,0,0,0-1.382-.146l-5.074,2.021a1.493,1.493,0,0,1-1.99-1.792l1.482-5.257a1.489,1.489,0,0,0-.288-1.359l-3.491-4.2a1.493,1.493,0,0,1,1.09-2.446l5.458-.216a1.494,1.494,0,0,0,1.2-.694l2.916-4.618a1.493,1.493,0,0,1,2.663.28l1.891,5.124a1.492,1.492,0,0,0,1.032.93" transform="translate(-2042.177 -1409.334)" fill="#c4d7f2"/>
        <path id="Path_4487" data-name="Path 4487" d="M2420.172,963l-74.563-7.889a5.962,5.962,0,1,1,1.255-11.857l74.563,7.89A5.961,5.961,0,1,1,2420.172,963" transform="translate(-1797.418 -724.426)" fill="#36588e"/>
        <path id="Path_4488" data-name="Path 4488" d="M2269.716,1943.126l-121.93-12.9a3.613,3.613,0,1,1,.76-7.186l121.93,12.9a3.613,3.613,0,1,1-.76,7.186" transform="translate(-1647.097 -1476.949)" fill="#c4d7f2"/>
        <path id="Path_4489" data-name="Path 4489" d="M2218.506,2001.143,2058,1984.159a3.613,3.613,0,1,1,.76-7.186l160.5,16.983a3.613,3.613,0,0,1-.76,7.186" transform="translate(-1578.141 -1518.373)" fill="#c4d7f2"/>
        <g id="Group_1009" data-name="Group 1009" transform="translate(302.282 101.654)" opacity="0.2" style="mix-blend-mode: multiply;isolation: isolate">
          <g id="Group_1008" data-name="Group 1008">
            <g id="Group_1007" data-name="Group 1007" clip-path="url(#clip-path-8)">
              <path id="Path_4490" data-name="Path 4490" d="M1505.982,514.757l-62.132-2.338,2.731-72.57-42.86-1.613-2.731,72.57-62.132-2.338a25.853,25.853,0,0,0-26.807,24.863l-8.883,236.056a25.854,25.854,0,0,0,24.863,26.807l167.124,6.289a25.854,25.854,0,0,0,26.807-24.863l8.883-236.055a25.853,25.853,0,0,0-24.863-26.807" transform="translate(-1303.149 -438.234)" fill="#003889"/>
            </g>
          </g>
        </g>
        <path id="Path_4491" data-name="Path 4491" d="M1565.489,987.416H1398.247a25.854,25.854,0,0,1-25.854-25.854V725.34a25.853,25.853,0,0,1,25.854-25.854h167.242a25.854,25.854,0,0,1,25.853,25.854V961.562a25.854,25.854,0,0,1-25.853,25.854" transform="translate(-1054.049 -537.23)" fill="#fff"/>
        <path id="Path_4492" data-name="Path 4492" d="M1673.322,969.527a73.645,73.645,0,0,1-15.437,45.234q-2.117,2.743-4.482,5.269a73.733,73.733,0,0,1-50.539,23.413c-1.175.055-2.356.085-3.543.085-.89,0-1.781-.018-2.665-.049-1.811-.06-3.609-.194-5.384-.387a74,74,0,1,1,82.05-73.565" transform="translate(-1171.503 -687.797)" fill="#ecf3fe"/>
        <g id="Group_1012" data-name="Group 1012" transform="translate(377.375 245.348)" opacity="0.18" style="mix-blend-mode: multiply;isolation: isolate">
          <g id="Group_1011" data-name="Group 1011">
            <g id="Group_1010" data-name="Group 1010" clip-path="url(#clip-path-9)">
              <path id="Path_4493" data-name="Path 4493" d="M1735.888,1139.317q-2.117,2.744-4.482,5.269A73.73,73.73,0,0,1,1680.867,1168c-1.175.054-2.356.085-3.543.085-.891,0-1.78-.018-2.665-.049-.139-.012-.285-.03-.424-.042-19.992-2.041-36.78-11.682-47.354-25.793,14.771-16.3,35.659-17.527,39.6-17.612h.006l-.182-.551,2.925-6.668.715.66.066-.212,2.865-9.375a26.561,26.561,0,0,1-3.9-9.551c-1.938-.636-5.384-2.61-5.711-8.618-.339-6.19,3.4-5.517,5.4-4.736a35.118,35.118,0,0,1,.836-4.088.653.653,0,0,1-.448-.406c-.836-2.265-4.657-9.823,4.04-16.9,10.647-8.66,36.38-7.092,40.219-3.912s-3.579,10.641-3.04,11.992c.533,1.326-1.314,8.872-3.325,10.8.012.811,0,1.653-.048,2.519,2.15-.781,6.032-1.454,4.451,4.736-1.526,6.008-5.372,7.982-7.437,8.618a34.554,34.554,0,0,1-5,8.588c.121.884.272,1.986.442,3.216.321,2.332.672,4.833.993,7.056l.49-.382,1.593,6.668c.085.03,26.92,7.849,33.455,15.28" transform="translate(-1626.881 -1057.7)" fill="#003889"/>
            </g>
          </g>
        </g>
        <path id="Path_4494" data-name="Path 4494" d="M1795.99,1263.3s-1.851,20.867-18.57,20.619-15.124-19-15.124-19l1.7-8.846,2.576-13.4h24.8c0,.125.534,2.546,1.259,5.78,1.507,6.753,3.358,14.846,3.358,14.846" transform="translate(-1353.478 -954.417)" fill="#fdc8aa"/>
        <path id="Path_4495" data-name="Path 4495" d="M1706.435,1353.029a73.731,73.731,0,0,1-50.539,23.413q-1.763.082-3.543.085a73.946,73.946,0,0,1-57.982-28.016c13.136-17.43,33.9-18.738,37.839-18.829.424-.012.654-.006.654-.006l.733.351,12.046,5.735,2.6,1.241,1.356.648,2-.927,2.628-1.217,12.791-5.917,1.072-.5s33.879,10.247,36.562,18.841c.351,1.133.969,2.871,1.775,5.093" transform="translate(-1224.536 -1020.794)" fill="#f19b48"/>
        <path id="Path_4496" data-name="Path 4496" d="M1798.412,1248.451c-3.8,5.641-14.129,17.546-28.63,7.617l2.576-13.4h24.8c0,.125.534,2.546,1.258,5.78" transform="translate(-1359.259 -954.417)" fill="#efa37d"/>
        <path id="Path_4497" data-name="Path 4497" d="M1837.22,1311.971l15.142-13.627,2.257,7.134-7.613,18.841Z" transform="translate(-1411.054 -997.176)" fill="#fff"/>
        <path id="Path_4498" data-name="Path 4498" d="M1773.887,1311.971l-15.142-13.627-2.257,7.134,7.613,18.841Z" transform="translate(-1349.049 -997.176)" fill="#fff"/>
        <path id="Path_4499" data-name="Path 4499" d="M1821.227,1391.442q-1.762.082-3.543.085a73.545,73.545,0,0,1-8.049-.436l2.822-25.86,1.018-9.308-2.4-.751-1.436-.448,1.339-3.961.611-1.817,1.181-.1,2.447-.218h3.428l.926,1.884,1.654,3.361-1.75,1.054-1.6.969.83,8.794Z" transform="translate(-1389.867 -1035.793)" fill="#1f3a6f"/>
        <path id="Path_4500" data-name="Path 4500" d="M1788.169,1077.852c0,16.514-8.581,29.9-19.166,29.9s-19.166-13.387-19.166-29.9,8.581-24.86,19.166-24.86,19.166,8.347,19.166,24.86" transform="translate(-1343.94 -808.736)" fill="#fdc8aa"/>
        <path id="Path_4501" data-name="Path 4501" d="M1743.383,1048.581a.726.726,0,0,1-1.1-.324c-1.062-2.426-5.64-10.507,2.348-18.073,9.777-9.259,35.665-7.586,39.827-4.188s-2.516,11.383-1.839,12.827-.47,9.788-2.345,11.657c0,0-14.362,1.02-20.653-4.5-5.338-4.684-13.794.824-16.236,2.6" transform="translate(-1336.396 -785.928)" fill="#1f3a6f"/>
        <path id="Path_4502" data-name="Path 4502" d="M1734.49,1150.463s-7.484-4.526-6.185,4.457,7.916,9.532,7.916,9.532Z" transform="translate(-1327.286 -882.722)" fill="#fdc8aa"/>
        <path id="Path_4503" data-name="Path 4503" d="M1903.723,1150.463s7.483-4.526,6.185,4.457-7.916,9.532-7.916,9.532Z" transform="translate(-1460.8 -882.722)" fill="#fdc8aa"/>
        <path id="Path_4504" data-name="Path 4504" d="M1914.182,1167.435s1.461-1.989,2.493-1.1-.495,5.863-1.246,6.378,1.444-4.663.454-5.006a4.411,4.411,0,0,0-1.7-.275" transform="translate(-1470.163 -895.613)" fill="#efa37d"/>
        <path id="Path_4505" data-name="Path 4505" d="M1742.261,1167.435s-1.461-1.989-2.493-1.1.495,5.863,1.247,6.378-1.444-4.663-.454-5.006a4.412,4.412,0,0,1,1.7-.275" transform="translate(-1335.94 -895.613)" fill="#efa37d"/>
        <path id="Path_4506" data-name="Path 4506" d="M1536.738,1607.953l5.405.782a1.493,1.493,0,0,1,.829,2.546l-3.909,3.815a1.492,1.492,0,0,0-.429,1.322l.926,5.383a1.493,1.493,0,0,1-2.165,1.575l-4.836-2.539a1.491,1.491,0,0,0-1.39,0l-4.833,2.544a1.493,1.493,0,0,1-2.167-1.573l.92-5.383a1.493,1.493,0,0,0-.43-1.322l-3.913-3.81a1.493,1.493,0,0,1,.826-2.547l5.4-.788a1.492,1.492,0,0,0,1.124-.817l2.415-4.9a1.493,1.493,0,0,1,2.678,0l2.42,4.9a1.493,1.493,0,0,0,1.125.816" transform="translate(-1167.642 -1229.941)" fill="#f19b48"/>
        <path id="Path_4507" data-name="Path 4507" d="M1673.833,1607.953l5.405.782a1.493,1.493,0,0,1,.829,2.546l-3.909,3.815a1.493,1.493,0,0,0-.428,1.322l.926,5.383a1.493,1.493,0,0,1-2.166,1.575l-4.836-2.539a1.491,1.491,0,0,0-1.389,0l-4.833,2.544a1.493,1.493,0,0,1-2.167-1.573l.92-5.383a1.494,1.494,0,0,0-.43-1.322l-3.913-3.81a1.493,1.493,0,0,1,.826-2.547l5.4-.788a1.492,1.492,0,0,0,1.124-.817l2.414-4.9a1.493,1.493,0,0,1,2.677,0l2.42,4.9a1.493,1.493,0,0,0,1.125.816" transform="translate(-1272.937 -1229.941)" fill="#f19b48"/>
        <path id="Path_4508" data-name="Path 4508" d="M1810.928,1607.953l5.406.782a1.493,1.493,0,0,1,.829,2.546l-3.909,3.815a1.494,1.494,0,0,0-.429,1.322l.927,5.383a1.493,1.493,0,0,1-2.166,1.575l-4.836-2.539a1.491,1.491,0,0,0-1.39,0l-4.833,2.544a1.493,1.493,0,0,1-2.167-1.573l.92-5.383a1.494,1.494,0,0,0-.43-1.322l-3.913-3.81a1.493,1.493,0,0,1,.826-2.547l5.4-.788a1.492,1.492,0,0,0,1.124-.817l2.414-4.9a1.493,1.493,0,0,1,2.678,0l2.42,4.9a1.492,1.492,0,0,0,1.125.816" transform="translate(-1378.23 -1229.941)" fill="#f19b48"/>
        <path id="Path_4509" data-name="Path 4509" d="M1948.023,1607.953l5.406.782a1.493,1.493,0,0,1,.829,2.546l-3.909,3.815a1.493,1.493,0,0,0-.428,1.322l.927,5.383a1.494,1.494,0,0,1-2.166,1.575l-4.835-2.539a1.492,1.492,0,0,0-1.39,0l-4.833,2.544a1.493,1.493,0,0,1-2.167-1.573l.92-5.383a1.493,1.493,0,0,0-.43-1.322l-3.913-3.81a1.493,1.493,0,0,1,.826-2.547l5.4-.788a1.492,1.492,0,0,0,1.124-.817l2.415-4.9a1.493,1.493,0,0,1,2.677,0l2.42,4.9a1.493,1.493,0,0,0,1.125.816" transform="translate(-1483.525 -1229.941)" fill="#f19b48"/>
        <path id="Path_4510" data-name="Path 4510" d="M2085.119,1607.953l5.405.782a1.493,1.493,0,0,1,.829,2.546l-3.909,3.815a1.494,1.494,0,0,0-.429,1.322l.926,5.383a1.493,1.493,0,0,1-2.165,1.575l-4.836-2.539a1.491,1.491,0,0,0-1.389,0l-4.833,2.544a1.493,1.493,0,0,1-2.167-1.573l.92-5.383a1.5,1.5,0,0,0-.43-1.322l-3.913-3.81a1.493,1.493,0,0,1,.826-2.547l5.4-.788a1.491,1.491,0,0,0,1.124-.817l2.414-4.9a1.493,1.493,0,0,1,2.678,0l2.42,4.9a1.493,1.493,0,0,0,1.125.816" transform="translate(-1588.819 -1229.941)" fill="#c4d7f2"/>
        <path id="Path_4511" data-name="Path 4511" d="M1737.962,762.81h-74.979a5.961,5.961,0,1,1,0-11.923h74.979a5.961,5.961,0,1,1,0,11.923" transform="translate(-1272.654 -576.708)" fill="#36588e"/>
        <rect id="Rectangle_615" data-name="Rectangle 615" width="42.891" height="88.88" transform="translate(406.373 89.634)" fill="#f19b48"/>
        <path id="Path_4512" data-name="Path 4512" d="M1690.7,1754.19h-122.61a3.613,3.613,0,0,1,0-7.226H1690.7a3.613,3.613,0,0,1,0,7.226" transform="translate(-1201.578 -1341.733)" fill="#c4d7f2"/>
        <path id="Path_4513" data-name="Path 4513" d="M1645.881,1817.273h-161.4a3.613,3.613,0,0,1,0-7.226h161.4a3.613,3.613,0,0,1,0,7.226" transform="translate(-1137.363 -1390.183)" fill="#c4d7f2"/>
        <g id="Group_1015" data-name="Group 1015" transform="translate(336.186 550.534)" opacity="0.2" style="mix-blend-mode: multiply;isolation: isolate">
          <g id="Group_1014" data-name="Group 1014">
            <g id="Group_1013" data-name="Group 1013" clip-path="url(#clip-path-10)">
              <path id="Path_4514" data-name="Path 4514" d="M1623.341,2379.415l-149.3-6.025a22.661,22.661,0,0,0-23.557,21.729l-1.155,28.617a22.662,22.662,0,0,0,21.729,23.557l149.3,6.025a22.662,22.662,0,0,0,23.557-21.729l1.155-28.617a22.661,22.661,0,0,0-21.729-23.557" transform="translate(-1449.312 -2373.371)" fill="#003889"/>
            </g>
          </g>
        </g>
        <path id="Path_4515" data-name="Path 4515" d="M1596.651,2419.591h-149.42a22.662,22.662,0,0,1-22.661-22.661v-28.64a22.661,22.661,0,0,1,22.661-22.662h149.42a22.661,22.661,0,0,1,22.661,22.662v28.64a22.661,22.661,0,0,1-22.661,22.661" transform="translate(-1094.123 -1801.529)" fill="#fff"/>
        <path id="Path_4516" data-name="Path 4516" d="M1650.522,2416.911v41.1h-9.455v-16.954h-12.828v16.954h-9.456v-41.1h9.456v16.02h12.828v-16.02Z" transform="translate(-1243.285 -1856.277)" fill="#061455"/>
        <path id="Path_4517" data-name="Path 4517" d="M1798.339,2422.25h-8.974v-8.974h8.974Zm0,32.974h-8.974v-30.415h8.974Z" transform="translate(-1374.299 -1853.485)" fill="#061455"/>
        <path id="Path_4518" data-name="Path 4518" d="M1868.56,2491.217h-8.7V2460.8h8.221v5.661q1.9-6.324,6.564-6.324.662,0,1.626.09v8.853a8.872,8.872,0,0,0-4.261.844,6.1,6.1,0,0,0-2.485,3.026,14.839,14.839,0,0,0-.963,5.887Z" transform="translate(-1428.44 -1889.478)" fill="#061455"/>
        <path id="Path_4519" data-name="Path 4519" d="M1973.687,2477.615h-19.573q-.03.813-.03,1.415a6.483,6.483,0,0,0,1.732,4.909,5.779,5.779,0,0,0,4.14,1.656q4.487,0,5.391-4.788l8.13.6q-3.4,10.54-13.822,10.539a15.3,15.3,0,0,1-7.724-1.822,14.387,14.387,0,0,1-5.239-5.315,16.171,16.171,0,0,1-2.063-8.371q0-7.258,4.141-11.714a14.635,14.635,0,0,1,20.718-.316q4.2,4.141,4.2,13.2m-19.6-5.209h10.811q-.422-6.264-5.149-6.264-5.059,0-5.661,6.264" transform="translate(-1493.547 -1889.578)" fill="#061455"/>
        <g id="Group_1018" data-name="Group 1018" transform="translate(300.027 503.913)" opacity="0.2" style="mix-blend-mode: multiply;isolation: isolate">
          <g id="Group_1017" data-name="Group 1017">
            <g id="Group_1016" data-name="Group 1016" clip-path="url(#clip-path-11)">
              <path id="Path_4520" data-name="Path 4520" d="M1357.91,2232.751l-23.3-60.364-9.622,35.3-31.562,19.656Z" transform="translate(-1293.427 -2172.386)" fill="#003889"/>
            </g>
          </g>
        </g>
        <path id="Path_4521" data-name="Path 4521" d="M1321.257,2200.115l-23.3-60.364-9.622,35.3-31.562,19.657Z" transform="translate(-965.25 -1643.407)" fill="#f19b48"/>
        <path id="Path_4522" data-name="Path 4522" d="M482.514,158.584,431.394,26.143l-21.11,77.45L341.036,146.72Z" transform="translate(-261.928 -20.078)" fill="#62c5fa"/>
        <g id="Group_1021" data-name="Group 1021" transform="translate(98.828 312.422)" opacity="0.21" style="mix-blend-mode: multiply;isolation: isolate">
          <g id="Group_1020" data-name="Group 1020">
            <g id="Group_1019" data-name="Group 1019" clip-path="url(#clip-path-12)">
              <path id="Path_4523" data-name="Path 4523" d="M563.695,1729.176l-2.873-31.6-2.681.16c-1.059-29.272-3.37-93.835-3.237-96.255.036-.651-.343-4.379-.979-9.877-.174-1.583-.375-3.306-.589-5.143h-.006c-1.824-15.488-4.795-39.155-6.492-52.556v0h0c-.321-2.53-.6-4.686-.808-6.361,2.4-2.411,3.423-4.728,2.569-6.531-1.684-3.548-4.3-13.31-6.315-23.739-.078-.409-.156-.824-.234-1.24-.2-1.065-.392-2.138-.581-3.211-.157-.925-.315-1.844-.459-2.762-1.713-10.8-2.417-20.932-.389-24.242,4.424-7.231,1.39-16.106,1.418-16.609s26.573-7.33,37.609-9.727a9.341,9.341,0,0,0,2.881-1.133c3.221-1.946,4.661-5.651,5.25-9.277l2.084.635.181-11.4-2.17-.423c.067-6.123-2.356-17.35-4.9-27.5-2.774-11.036-5.7-20.79-5.731-21.307a2.115,2.115,0,0,1,.026-.349c.275-1.947,2.465-9.664,2.109-10.273s-1.45,0-1.547.053a1.1,1.1,0,0,0-.19-1.3c-.587-.675-1.666.162-1.666.162a.9.9,0,0,0-.73-1.13c-.958-.143-.932.474-1.323.509s-.414-.649-.414-.649c.009-1.14-.437-9.242-1.726-9.236s-.02,15.355-.318,15.4-.322-.481-.322-.481c-.479-4.218-4.384-14.095-2.576-1.243,1.5,10.678,1.571,43.189,1.55,53.882l-4.468-.871-.2,8.722,1.848.563v0l-.2.94c-10.168-2.441-36.178-2.685-50.6-2.617a14.52,14.52,0,0,1-2.161-4.721,26.87,26.87,0,0,1-.857-6.911c10.415-.335,8.848-11.077,7.957-14.9a4.343,4.343,0,0,0,2.739-1.754,7.408,7.408,0,0,0,1.45-4.095,6.732,6.732,0,0,0-1-4.084,3.606,3.606,0,0,0-3.039-1.768,3.564,3.564,0,0,0-1.62.413,27.74,27.74,0,0,0-4.081-4.771c.791-6.3-1.158-13.785-16.136-11.178-24.729,4.3-26.949,20.244-25.936,32.315s-52.939,35.286-34.491,56.67c7.178,8.32,14.972,12.371,22.262,13.464l-1.866,8.947-.11.423-1.92,7.156-3.014-1.1-.225,10.175.563.22-1.5,4.051-15.78,42.849s-10.874,4.69-11.162,8.831-1.045,8.853.072,8.928,2.871-4.494,3.032-6.065.152,6.251,4.765-.256,7.559-6.038,9.639-10.287c.99-2.023,7.978-12.425,15.052-22.815,4.855-7.125,9.749-14.244,12.768-18.618l.007-.019,2.632,1.028,5.35-8.8-3.436-1.257,6.74-15.078s5.074.1,6.63,3.647a2.525,2.525,0,0,1-.242,1.6s0,.007,0,.014c-2.9,7.868-25.522,38.437-24.4,47.7a7.789,7.789,0,0,0,4.85,6.351,13.588,13.588,0,0,0,1.6.6l-.7,7.258-2.219,23.113s-17.339,84.2-22.187,129.127l-3.156.014s-3.026,38.69-1.151,41.2,28.926,1.716,28.926,1.716c-.383-2.179-6.567-8.692-6.567-8.692l5.484-34.341-2.017.009c6.138-21.264,18.016-61.4,29.427-94.224,4-11.5,7.945-22.107,11.564-30.686l7.658,35.8,21.037,90.591-2.828.168s7.624,36.693,9.3,39.7,31.041-.138,31.041-.138c-.077-4.7-11.554-9.508-11.554-9.508M523.39,1392.284a3.208,3.208,0,0,1-2.2,1.359c-.065-.23-.106-.358-.106-.358a2.914,2.914,0,0,0,1.717-2.747c-.059-.47-.148-.929-.252-1.384l2,.282a6.155,6.155,0,0,1-1.158,2.849m-1.859-8.356h.01a2.71,2.71,0,0,1,2.234,1.353,5.5,5.5,0,0,1,.843,2.8l-2.466-.347a17.98,17.98,0,0,0-1.658-3.561,2.493,2.493,0,0,1,1.037-.243" transform="translate(-426.051 -1346.856)" fill="#003889"/>
            </g>
          </g>
        </g>
        <path id="Path_4524" data-name="Path 4524" d="M962.875,1419.32l-17.788-1.451s-2.379-44.483-4.953-57.335,1.92-2.975,2.65,1.243c0,0,.056.536.351.481s-1.887-15.4-.6-15.4,2.217,8.1,2.275,9.236c0,0,.064.684.453.649s.326-.652,1.293-.509a.956.956,0,0,1,.8,1.13s1.03-.837,1.656-.162a1.114,1.114,0,0,1,.267,1.3c.094-.054,1.145-.676,1.543-.053s-1.339,8.326-1.5,10.272a2.108,2.108,0,0,0-.005.349c.063.516,3.568,10.27,7,21.307,3.418,11.009,6.767,23.287,6.557,28.945" transform="translate(-721.454 -1034.434)" fill="#f3ba9f"/>
        <path id="Path_4525" data-name="Path 4525" d="M424.28,1980.415s-1.046,1.649-2.732,4.327l-.007.02c-2.758,4.374-7.229,11.493-11.659,18.618-6.456,10.389-12.824,20.791-13.694,22.815-1.826,4.249-4.808,3.779-9.026,10.286s-4.689-1.314-4.749.256-1.549,6.147-2.67,6.065-.646-4.788-.6-8.928,10.636-8.831,10.636-8.831L403,1982.194l1.257-4.052.945-3.078Z" transform="translate(-291.089 -1516.923)" fill="#f3ba9f"/>
        <path id="Path_4526" data-name="Path 4526" d="M566.672,2045.138c-5.1,5.324-12.178,25.834-19.281,50.464-13.552,47.037-27.172,109.1-27.172,109.1l-18.452.082c-.837-37.237,14.791-144,14.791-144l.843-23.113.652-17.824c12.229-41.321,42.471-30.72,42.471-30.72s20.982,40.5,6.148,56" transform="translate(-385.35 -1526.794)" fill="#15315e"/>
        <path id="Path_4527" data-name="Path 4527" d="M618.543,2045.138c-5.1,5.324-12.178,25.834-19.281,50.464l-7.611-56.048c-12.241.988-18.843-.332-22.379-1.873l.652-17.824c12.229-41.321,42.471-30.72,42.471-30.72s20.981,40.5,6.148,56" transform="translate(-437.222 -1526.794)" fill="#072542"/>
        <path id="Path_4528" data-name="Path 4528" d="M758.81,2241.293l-17.888.08L710.68,2137.724,689,2058.421l-.079-17.613,40.239-4.709,4.615,14.688.714,2.284s.75,4,1.9,10.2c2.5,13.4,6.875,37.069,9.622,52.557h.006c.324,1.837.627,3.56.9,5.143.964,5.5,1.564,9.226,1.567,9.877.014,3.134,10.329,110.448,10.329,110.448" transform="translate(-529.114 -1563.799)" fill="#1f3a6f"/>
        <path id="Path_4529" data-name="Path 4529" d="M884.539,2860.367l25.826-1.541,4.754,31.6s11.764,4.813,12.12,9.507c0,0-29.174,3.15-31.033.138s-11.668-39.7-11.668-39.7" transform="translate(-679.359 -2195.684)" fill="#f19b48"/>
        <path id="Path_4530" data-name="Path 4530" d="M489.12,2858.431l26.685-.119-3.439,34.341s6.571,6.513,7.084,8.691c0,0-27,.792-29.028-1.716s-1.3-41.2-1.3-41.2" transform="translate(-375.567 -2195.29)" fill="#f19b48"/>
        <path id="Path_4531" data-name="Path 4531" d="M731.642,1514.08a3.885,3.885,0,0,1-3.129-1.768,7.44,7.44,0,0,1-.036-8.179,3.652,3.652,0,0,1,6.273-.028,7.44,7.44,0,0,1,.036,8.179,3.882,3.882,0,0,1-3.129,1.8Zm-.022-10.736h-.01a2.908,2.908,0,0,0-2.313,1.373,6.439,6.439,0,0,0,.031,7,2.912,2.912,0,0,0,2.315,1.352h.011a2.907,2.907,0,0,0,2.313-1.373,6.44,6.44,0,0,0-.031-7,2.912,2.912,0,0,0-2.315-1.352" transform="translate(-558.57 -1153.851)" fill="#1f3a6f"/>
        <path id="Path_4532" data-name="Path 4532" d="M657.155,1618.91l-26.67.542,8.177-14.013,2.477-4.238,9.573,2.561a27.645,27.645,0,0,0,1.3,8.02,12.661,12.661,0,0,0,5.138,7.13" transform="translate(-484.236 -1229.78)" fill="#f3ba9f"/>
        <path id="Path_4533" data-name="Path 4533" d="M679.091,1611.78a43.955,43.955,0,0,1-13.354-6.342l2.477-4.238,9.573,2.561a27.646,27.646,0,0,0,1.3,8.02" transform="translate(-511.311 -1229.78)" fill="#efa37d"/>
        <path id="Path_4534" data-name="Path 4534" d="M642.527,1464.084s12,6.6,13.829,16.49a2.736,2.736,0,0,1-1.553,2.747s7.356,19.342-11.28,15.819-24.48-34.951-1-35.055" transform="translate(-481.656 -1124.47)" fill="#f3ba9f"/>
        <path id="Path_4535" data-name="Path 4535" d="M756.656,2111.887c-7.322,4.28-20.519,9.056-39.441,4.678l-1.915-9.553,38.737-7.608.715,2.285s.749,4,1.9,10.2" transform="translate(-549.377 -1612.42)" fill="#072542"/>
        <path id="Path_4536" data-name="Path 4536" d="M622.02,1659.757c-.068,4.261-1.059,9.224-4.833,11.589a8.782,8.782,0,0,1-2.813,1.133c-10.893,2.4-37.031,9.224-37.029,9.727s3.565,9.378-.429,16.609c-1.83,3.309-.523,13.442,1.833,24.242.2.918.411,1.837.623,2.762.253,1.072.506,2.145.772,3.211.1.416.2.831.307,1.24,2.637,10.429,5.834,20.191,7.729,23.739,4.148,7.779-26.01,25.124-52.934,18.246a2.962,2.962,0,0,1-2.142-3.459l4.057-20.034-11.574,19.806a6.963,6.963,0,0,1-5.956,3.455,22.547,22.547,0,0,1-9.045-1.563,8.432,8.432,0,0,1-5.228-6.351c-1.672-9.266,19.133-39.835,21.561-47.7v-.014a2.482,2.482,0,0,0,.147-1.6c-1.767-3.548-6.847-3.646-6.847-3.646l-6.388,16.488-19.182-5.611,2.05-9.819.085-.423,1.824-12.241.029-1.047.714-26.508s16.763-23.748,40.785-17.722c0,0,46.14-.951,60.75,2.507l.144-.94.834-5.607,19.468,2.094a35.927,35.927,0,0,1,.691,7.438" transform="translate(-379.907 -1267.433)" fill="#f19b48"/>
        <path id="Path_4537" data-name="Path 4537" d="M483.766,1943.52l25.763,9.223-4.826,8.8-20.556-7.849Z" transform="translate(-371.551 -1492.695)" fill="#1f3a6f"/>
        <path id="Path_4538" data-name="Path 4538" d="M703.965,1518.376a.68.68,0,0,1-.094-.007l-16.547-2.312a.671.671,0,0,1,.186-1.329l16.548,2.312a.671.671,0,0,1-.092,1.336" transform="translate(-527.446 -1163.362)" fill="#1f3a6f"/>
        <path id="Path_4539" data-name="Path 4539" d="M528.974,1819.5c-.072.416-3.465,17.427-25.49,22.713l.085-.423,1.824-12.24.029-1.047c11.56-4.782,23.164-8.873,23.552-9" transform="translate(-386.695 -1397.446)" fill="#e59d29"/>
        <path id="Path_4540" data-name="Path 4540" d="M464.675,1454.474a21.612,21.612,0,0,0,1.9-4.733c1.6-6.005,3.223-19.515-15.953-16.143-24.472,4.3-25.743,20.245-24.012,32.315s-50.839,35.286-31.116,56.671,41.835,14.575,48.655,1.8-.42-18.954,5.605-22,17.35-21.549,11.426-33.265c0,0-7.7-15.147-2.25-15.591,4.876-.4,3.378,5.322,5.748.951" transform="translate(-300.346 -1100.646)" fill="#1f3a6f"/>
        <path id="Path_4541" data-name="Path 4541" d="M810.917,1828.95c-6.481-14.847-13.981-38.534-13.981-38.534,4.616-.188,12.578-2.317,12.578-2.317,0,.5,3.565,9.378-.429,16.609-1.831,3.31-.523,13.443,1.833,24.242" transform="translate(-612.077 -1373.326)" fill="#e59d29"/>
        <path id="Path_4542" data-name="Path 4542" d="M973.774,1678.321c-.068,4.261-1.059,9.224-4.833,11.59l-16.3-14.575.144-.94Z" transform="translate(-731.661 -1285.997)" fill="#e59d29"/>
        <path id="Path_4543" data-name="Path 4543" d="M944.092,1643.082l24.86,7.438-.5-11.4-24.68-4.755Z" transform="translate(-724.853 -1255.249)" fill="#1f3a6f"/>
        <path id="Path_4544" data-name="Path 4544" d="M501.015,1994.932l-.007.021c-2.758,4.374-7.229,11.493-11.659,18.618l-6.879-21.187,1.257-4.052Z" transform="translate(-370.556 -1527.113)" fill="#efa37d"/>
        <path id="Path_4545" data-name="Path 4545" d="M562.059,1935.527c-.791,7.72-4.885,40.637-16.333,54.055a8.433,8.433,0,0,1-5.228-6.351c-1.672-9.266,19.133-39.835,21.561-47.7" transform="translate(-415.049 -1486.556)" fill="#e59d29"/>
        <g id="Group_1024" data-name="Group 1024" transform="translate(473.656 578.444)" opacity="0.2" style="mix-blend-mode: multiply;isolation: isolate">
          <g id="Group_1023" data-name="Group 1023">
            <g id="Group_1022" data-name="Group 1022" clip-path="url(#clip-path-13)">
              <path id="Path_4546" data-name="Path 4546" d="M2299.59,2589.97l-92.28-23.214a9.818,9.818,0,0,0-9.3,3.231l-11.93-3c9.547-32.522-6.1-63.066-38.594-71.241-36.439-9.167-80.476,13.207-98.168,49.874s-2.44,73.956,34,83.122c32.5,8.175,71.04-8.739,91.546-38.5l11.929,3a5.867,5.867,0,0,0,4.507,6.706l92.28,23.213c4.034,1.015,8.891-1.453,10.849-5.512l8.921-18.489c1.958-4.059.276-8.172-3.757-9.186m-135.412-15.456c-13.059,27.065-45.565,43.581-72.461,36.815s-38.154-34.29-25.095-61.355,45.565-43.58,72.461-36.814,38.154,34.29,25.095,61.355" transform="translate(-2041.947 -2493.691)" fill="#003889"/>
            </g>
          </g>
        </g>
        <path id="Path_4547" data-name="Path 4547" d="M2243.03,2565.809l-97.394-24.347a7.941,7.941,0,0,0-8.589,3.389l-12.59-3.148a71.892,71.892,0,1,0-6.1,24.387l12.591,3.147a7.942,7.942,0,0,0,5.983,7.032l97.395,24.347a7.945,7.945,0,0,0,9.635-5.781l4.847-19.392a7.945,7.945,0,0,0-5.781-9.635m-203.168,22.4a53.065,53.065,0,1,1,64.351-38.612,53.126,53.126,0,0,1-64.351,38.612" transform="translate(-1521.352 -1893.08)" fill="#36588e"/>
        <rect id="Rectangle_620" data-name="Rectangle 620" width="25.137" height="12.978" transform="matrix(0.243, -0.97, 0.97, 0.243, 597.007, 673.01)" fill="#1f3a6f"/>
        <g id="Group_1027" data-name="Group 1027" transform="translate(287.938 632.958)" opacity="0.2" style="mix-blend-mode: multiply;isolation: isolate">
          <g id="Group_1026" data-name="Group 1026">
            <g id="Group_1025" data-name="Group 1025" clip-path="url(#clip-path-14)">
              <path id="Path_4548" data-name="Path 4548" d="M1296.781,2750.3l17.474,2.757c3.959.625,4.847,5.567,1.5,8.364L1301,2773.768a5.546,5.546,0,0,0-2.057,4.311l.449,17.654c.1,4-4.576,7-7.916,5.078l-14.741-8.486a4.961,4.961,0,0,0-4.589-.048l-17.2,8.154c-3.9,1.848-7.675-1.241-6.395-5.226l5.65-17.591a4.444,4.444,0,0,0-.78-4.341l-11.077-12.614c-2.51-2.858-.168-7.768,3.963-8.308l18.233-2.385a5.894,5.894,0,0,0,4.108-2.635l10.35-15.95c2.345-3.614,7.572-3.559,8.844.092l5.618,16.116a4.114,4.114,0,0,0,3.318,2.712" transform="translate(-1241.311 -2728.701)" fill="#003889"/>
            </g>
          </g>
        </g>
        <path id="Path_4549" data-name="Path 4549" d="M1259.372,2737.893l18.284,2.647a5.05,5.05,0,0,1,2.8,8.612l-13.222,12.9a5.05,5.05,0,0,0-1.45,4.471l3.133,18.207a5.05,5.05,0,0,1-7.324,5.328l-16.357-8.588a5.051,5.051,0,0,0-4.7,0l-16.348,8.606a5.05,5.05,0,0,1-7.33-5.32l3.113-18.21a5.049,5.049,0,0,0-1.455-4.469l-13.236-12.888a5.05,5.05,0,0,1,2.794-8.615l18.281-2.667a5.05,5.05,0,0,0,3.8-2.765l8.167-16.571a5.05,5.05,0,0,1,9.057-.006l8.185,16.563a5.051,5.051,0,0,0,3.8,2.76" transform="translate(-924.525 -2085.803)" fill="#f19b48"/>
        <path id="Path_4550" data-name="Path 4550" d="M2840.208,640.27a17.884,17.884,0,1,1-17.885-17.885,17.884,17.884,0,0,1,17.885,17.885" transform="translate(-2153.914 -478.014)" fill="#62c5fa"/>
        <path id="Path_4551" data-name="Path 4551" d="M876.268,734.715a12.646,12.646,0,1,1-12.646-12.646,12.646,12.646,0,0,1,12.646,12.646" transform="translate(-653.581 -554.575)" fill="#62c5fa"/>
        <path id="Path_4552" data-name="Path 4552" d="M35.769,2304.917a17.884,17.884,0,1,1-17.885-17.885,17.884,17.884,0,0,1,17.885,17.885" transform="translate(0 -1756.525)" fill="#62c5fa"/>
      </g>
    </g>
  </g>
</svg>
