<svg id="Group_943" data-name="Group 943" xmlns="http://www.w3.org/2000/svg" xmlns:xlink="http://www.w3.org/1999/xlink" width="22.352" height="22.352" viewBox="0 0 22.352 22.352">
  <defs>
    <clipPath id="clip-path">
      <rect id="Rectangle_564" data-name="Rectangle 564" width="22.352" height="22.352" fill="#061455"/>
    </clipPath>
  </defs>
  <g id="Group_942" data-name="Group 942" transform="translate(0 0)" clip-path="url(#clip-path)">
    <path id="Path_4409" data-name="Path 4409" d="M11.292,2.035c3.015,0,3.372.011,4.563.066a6.245,6.245,0,0,1,2.1.389,3.5,3.5,0,0,1,1.3.845,3.5,3.5,0,0,1,.845,1.3,6.252,6.252,0,0,1,.389,2.1c.054,1.191.066,1.548.066,4.563s-.011,3.372-.066,4.563a6.252,6.252,0,0,1-.389,2.1,3.738,3.738,0,0,1-2.143,2.143,6.245,6.245,0,0,1-2.1.389c-1.191.054-1.548.066-4.563.066s-3.372-.011-4.563-.066a6.245,6.245,0,0,1-2.1-.389,3.5,3.5,0,0,1-1.3-.845,3.5,3.5,0,0,1-.845-1.3,6.245,6.245,0,0,1-.389-2.1c-.054-1.191-.066-1.548-.066-4.563S2.046,7.92,2.1,6.729a6.245,6.245,0,0,1,.389-2.1,3.5,3.5,0,0,1,.845-1.3,3.5,3.5,0,0,1,1.3-.845,6.245,6.245,0,0,1,2.1-.389c1.191-.054,1.548-.066,4.563-.066m0-2.035C8.225,0,7.84.013,6.636.068A8.289,8.289,0,0,0,3.9.593a5.534,5.534,0,0,0-2,1.3,5.534,5.534,0,0,0-1.3,2A8.289,8.289,0,0,0,.068,6.636C.013,7.84,0,8.225,0,11.292s.013,3.451.068,4.656a8.289,8.289,0,0,0,.525,2.741,5.534,5.534,0,0,0,1.3,2,5.537,5.537,0,0,0,2,1.3,8.289,8.289,0,0,0,2.741.525c1.2.055,1.589.068,4.656.068s3.451-.013,4.656-.068a8.289,8.289,0,0,0,2.741-.525,5.773,5.773,0,0,0,3.3-3.3,8.289,8.289,0,0,0,.525-2.741c.055-1.2.068-1.589.068-4.656s-.013-3.451-.068-4.656A8.289,8.289,0,0,0,21.99,3.9a5.537,5.537,0,0,0-1.3-2,5.534,5.534,0,0,0-2-1.3A8.289,8.289,0,0,0,15.947.068C14.743.013,14.358,0,11.292,0" transform="translate(-0.103 -0.078)" fill="#061455"/>
    <path id="Path_4410" data-name="Path 4410" d="M26.474,20.676a5.8,5.8,0,1,0,5.8,5.8,5.8,5.8,0,0,0-5.8-5.8m0,9.562a3.764,3.764,0,1,1,3.764-3.764,3.764,3.764,0,0,1-3.764,3.764" transform="translate(-15.286 -15.26)" fill="#061455"/>
    <path id="Path_4411" data-name="Path 4411" d="M62.8,16.068a1.355,1.355,0,1,1-1.355-1.355A1.355,1.355,0,0,1,62.8,16.068" transform="translate(-44.226 -10.882)" fill="#061455"/>
  </g>
</svg>
