<svg id="Group_1187" data-name="Group 1187" xmlns="http://www.w3.org/2000/svg" xmlns:xlink="http://www.w3.org/1999/xlink" width="494.97" height="502.695" viewBox="0 0 494.97 502.695">
  <defs>
    <clipPath id="clip-path">
      <rect id="Rectangle_692" data-name="Rectangle 692" width="494.97" height="502.695" fill="none"/>
    </clipPath>
    <clipPath id="clip-path-2">
      <path id="Path_4580" data-name="Path 4580" d="M213.645,32.221C106.823,46.184,54.267,133.255,44.317,148.943,16.486,192.825.036,248.269,0,303v.356C.033,355.474,14.961,406.917,49.129,447.1c46.352,54.509,110.463,67.53,143.63,74.266,22.461,4.562,128.144,23.242,217.458-40.842,7.6-5.452,17.215-12.352,27.379-23.052,36.334-38.251,57.343-101.616,57.374-167.949v-.277c-.032-74.2-26.313-152.077-86.749-202.71-45.622-38.222-105.761-56.4-162.034-56.4a251.5,251.5,0,0,0-32.543,2.087" transform="translate(0 -30.134)" fill="none"/>
    </clipPath>
    <clipPath id="clip-path-3">
      <rect id="Rectangle_654" data-name="Rectangle 654" width="494.971" height="502.695" fill="none"/>
    </clipPath>
    <clipPath id="clip-path-4">
      <rect id="Rectangle_652" data-name="Rectangle 652" width="130.837" height="234.208" fill="none"/>
    </clipPath>
    <clipPath id="clip-path-5">
      <rect id="Rectangle_653" data-name="Rectangle 653" width="131.019" height="71.838" fill="none"/>
    </clipPath>
    <clipPath id="clip-path-6">
      <path id="Path_4585" data-name="Path 4585" d="M779.969,43.647C732.6,63.3,692.393,115.311,708.126,168.435c5.111,17.257,2.426,36.3,19.618,43.8,9.3,4.058,34.633,6.473,44.265,3.275,25.6-8.5,42.426-31.761,28.5-57.557-4.458-8.261-10.229-15.807-14.079-24.369s-5.6-18.723-1.68-27.251c7.705-16.739,33.3-22.06,49.9-21.558,19.591.593,37.343,10.283,47.886,26.906,13.14,20.718,16.468,45.917,14.545,69.966-2.057,25.733-12.907,45.384-29.168,65.124-14,17-29.416,33.31-38.721,53.266-8.542,18.321-11.333,38.621-11.719,58.665-.075,3.885-19.395,40.5-19.312,51.68.012,1.58,21.912,6.815,23.492,6.833l40.2.449A3.2,3.2,0,0,0,865.1,414.5c.612-54.416,17.35-106.3,59.72-142.841,15.417-13.3,32.021-24.127,44.009-40.911,17.086-23.923,25.516-47.466,23.083-76.991-2.222-26.965-11.1-53.945-28.678-74.867C944.339,56.4,916.689,42.36,887.952,36.3a212.031,212.031,0,0,0-41.827-4.533c-.537,0-1.078-.006-1.616-.006-22.274,0-44.669,3.642-64.541,11.887" transform="translate(-704.657 -31.76)" fill="none"/>
    </clipPath>
    <clipPath id="clip-path-7">
      <path id="Path_4586" data-name="Path 4586" d="M1253.435,2328.447c0,19.617.063,33.019,17.506,39.32,4.807,1.736,23.192,1.687,28.6,1.687,25.023,0,38.893-22.138,38.893-47.161s-26.5-43.479-51.524-43.479-33.472,24.61-33.472,49.632" transform="translate(-1253.435 -2278.815)" fill="none"/>
    </clipPath>
    <clipPath id="clip-path-8">
      <path id="Path_4587" data-name="Path 4587" d="M723.657,0C701.436.017,679.1,3.662,659.279,11.887,611.906,31.542,571.7,83.551,587.436,136.675c5.111,17.257,16.928,38.98,34.12,46.48,9.3,4.058,20.131,3.789,29.763.591,25.6-8.5,42.426-31.761,28.5-57.557-4.458-8.261-10.229-15.807-14.079-24.369s-5.6-18.724-1.68-27.251c7.705-16.739,33.3-22.06,49.9-21.558,19.591.593,37.343,10.283,47.886,26.906,13.14,20.718,16.468,45.917,14.545,69.966-2.058,25.733-12.908,45.384-29.168,65.125-14,17-29.416,33.31-38.721,53.266-8.542,18.321-11.333,38.621-11.719,58.665-.075,3.885,1.233,44.454,1.316,55.638a2.894,2.894,0,0,0,2.864,2.874l40.2.449a3.2,3.2,0,0,0,3.245-3.161c.612-54.416,17.35-106.295,59.72-142.841,15.417-13.3,32.02-24.127,44.008-40.911,17.086-23.923,25.516-47.466,23.083-76.991-2.222-26.965-11.1-53.945-28.678-74.867C823.65,24.642,796,10.6,767.262,4.54A212.047,212.047,0,0,0,725.435.006c-.482,0-.968-.006-1.45-.006Z" transform="translate(-583.967)" fill="none"/>
    </clipPath>
    <clipPath id="clip-path-9">
      <path id="Path_4588" data-name="Path 4588" d="M1132.745,2316.451a45.308,45.308,0,1,0,45.307-45.308,45.308,45.308,0,0,0-45.307,45.308" transform="translate(-1132.745 -2271.143)" fill="none"/>
    </clipPath>
    <clipPath id="clip-path-11">
      <rect id="Rectangle_659" data-name="Rectangle 659" width="181.517" height="117.622" fill="none"/>
    </clipPath>
    <clipPath id="clip-path-12">
      <rect id="Rectangle_660" data-name="Rectangle 660" width="7.528" height="13.672" fill="none"/>
    </clipPath>
    <clipPath id="clip-path-13">
      <rect id="Rectangle_661" data-name="Rectangle 661" width="16.323" height="4.775" fill="none"/>
    </clipPath>
    <clipPath id="clip-path-14">
      <rect id="Rectangle_662" data-name="Rectangle 662" width="18.855" height="58.57" fill="none"/>
    </clipPath>
    <clipPath id="clip-path-15">
      <rect id="Rectangle_663" data-name="Rectangle 663" width="89.799" height="57.772" fill="none"/>
    </clipPath>
    <clipPath id="clip-path-16">
      <rect id="Rectangle_664" data-name="Rectangle 664" width="93.557" height="60.137" fill="none"/>
    </clipPath>
    <clipPath id="clip-path-17">
      <rect id="Rectangle_665" data-name="Rectangle 665" width="61.726" height="23.447" fill="none"/>
    </clipPath>
    <clipPath id="clip-path-18">
      <rect id="Rectangle_666" data-name="Rectangle 666" width="41.385" height="40.171" fill="none"/>
    </clipPath>
    <clipPath id="clip-path-19">
      <rect id="Rectangle_667" data-name="Rectangle 667" width="150.046" height="75.469" fill="none"/>
    </clipPath>
    <clipPath id="clip-path-20">
      <path id="Path_4611" data-name="Path 4611" d="M2044.067,582.287l-111.892,4.188a1.806,1.806,0,0,0-1.927,1.623l.042.984a1.8,1.8,0,0,0,2.03,1.453l111.9-4.086a1.807,1.807,0,0,0,1.929-1.623l-.047-1.085a1.774,1.774,0,0,0-1.935-1.455l-.1,0" transform="translate(-1930.247 -582.285)" fill="none"/>
    </clipPath>
    <linearGradient id="linear-gradient" x1="-2.988" y1="48.036" x2="-2.986" y2="48.036" gradientUnits="objectBoundingBox">
      <stop offset="0" stop-color="#dae3fe"/>
      <stop offset="1" stop-color="#e9effd"/>
    </linearGradient>
    <clipPath id="clip-path-21">
      <path id="Path_4612" data-name="Path 4612" d="M1988.3,740.07l-111.893,4.166a1.822,1.822,0,0,0-1.925,1.677l.043,1.019a1.816,1.816,0,0,0,2.032,1.508l111.9-4.061a1.824,1.824,0,0,0,1.927-1.678l-.048-1.124a1.8,1.8,0,0,0-1.941-1.51l-.093,0" transform="translate(-1874.483 -740.068)" fill="none"/>
    </clipPath>
    <linearGradient id="linear-gradient-2" x1="-2.901" y1="43.963" x2="-2.9" y2="43.963" xlink:href="#linear-gradient"/>
    <clipPath id="clip-path-22">
      <path id="Path_4613" data-name="Path 4613" d="M2001.377,806.07l-124.736,4.71c-1.225.046-2.191.811-2.153,1.7l.044,1.029c.038.883,1.046,1.559,2.258,1.514l124.74-4.6c1.226-.045,2.194-.81,2.156-1.7l-.048-1.135c-.037-.856-.984-1.517-2.145-1.517l-.116,0" transform="translate(-1874.487 -806.068)" fill="none"/>
    </clipPath>
    <linearGradient id="linear-gradient-3" x1="-2.603" y1="39.763" x2="-2.602" y2="39.763" xlink:href="#linear-gradient"/>
    <clipPath id="clip-path-23">
      <path id="Path_4614" data-name="Path 4614" d="M1939.241,675.317l-60.986,1.778c-.6.018-1.047.84-1,1.831l.056,1.143c.048.982.565,1.76,1.158,1.744l60.992-1.659c.6-.016,1.048-.839,1-1.831l-.062-1.262c-.048-.972-.555-1.744-1.14-1.744h-.019" transform="translate(-1877.254 -675.317)" fill="none"/>
    </clipPath>
    <linearGradient id="linear-gradient-4" x1="-5.323" y1="58.568" x2="-5.321" y2="58.568" xlink:href="#linear-gradient"/>
    <clipPath id="clip-path-24">
      <path id="Path_4615" data-name="Path 4615" d="M2329.08,663.577l-57.644,1.652c-.566.016-.987.837-.937,1.829l.057,1.143c.049.982.54,1.761,1.1,1.746l57.65-1.534c.566-.015.988-.837.938-1.829l-.063-1.262c-.048-.972-.531-1.746-1.084-1.746h-.017" transform="translate(-2270.495 -663.577)" fill="none"/>
    </clipPath>
    <linearGradient id="linear-gradient-5" x1="-6.811" y1="60.061" x2="-6.808" y2="60.061" xlink:href="#linear-gradient"/>
    <clipPath id="clip-path-25">
      <path id="Path_4616" data-name="Path 4616" d="M619.055,2697.444a4.453,4.453,0,0,0,4.26,4.825c8.608.358,27.02,1.055,33.627.761a1.449,1.449,0,0,0,1.275-1.985,3.244,3.244,0,0,0-1.659-1.748l-30.414-13.978-5.371-.868s-1.153,6.53-1.719,12.993" transform="translate(-619.038 -2684.451)" fill="none"/>
    </clipPath>
    <linearGradient id="linear-gradient-6" x1="-2.706" y1="0.769" x2="-2.702" y2="0.769" gradientUnits="objectBoundingBox">
      <stop offset="0" stop-color="#09005d"/>
      <stop offset="1" stop-color="#1a0f91"/>
    </linearGradient>
    <clipPath id="clip-path-26">
      <path id="Path_4617" data-name="Path 4617" d="M623.444,2657.568l.927,7.811s5.328,2.48,8.966-.312l-2.206-8.7Z" transform="translate(-623.444 -2656.362)" fill="none"/>
    </clipPath>
    <linearGradient id="linear-gradient-7" x1="-11.314" y1="2.242" x2="-11.296" y2="2.242" gradientUnits="objectBoundingBox">
      <stop offset="0" stop-color="#febbba"/>
      <stop offset="1" stop-color="#ff928e"/>
    </linearGradient>
    <clipPath id="clip-path-27">
      <path id="Path_4618" data-name="Path 4618" d="M493.728,1879.458s-2.129-53.575,0,1.888c1.905,49.636,16.509,101.6,19.556,111.967a2.613,2.613,0,0,0,2.592,1.876,26.423,26.423,0,0,0,8.683-1.765,1.518,1.518,0,0,0,.89-1.765c-10.662-44.7-8.914-144.441-8.513-146.481l-21.96,0Z" transform="translate(-492.782 -1845.174)" fill="none"/>
    </clipPath>
    <clipPath id="clip-path-28">
      <path id="Path_4619" data-name="Path 4619" d="M413.454,2715.481a2.717,2.717,0,0,0,2.391,3.254c2.842.28,7.218.639,10.723.615a2.709,2.709,0,0,0,2.682-3.022c-.388-3.2-1.6-8.443-5.334-12.531l-6.848-.371s-1.836,3.3-3.614,12.055" transform="translate(-413.399 -2703.425)" fill="none"/>
    </clipPath>
    <linearGradient id="linear-gradient-8" x1="-3.104" y1="0.911" x2="-3.097" y2="0.911" xlink:href="#linear-gradient-6"/>
    <clipPath id="clip-path-29">
      <path id="Path_4620" data-name="Path 4620" d="M424.854,2645.372l2.165,11.811s2.141,1.593,6.376.438l-1.034-12.708Z" transform="translate(-424.854 -2644.913)" fill="none"/>
    </clipPath>
    <linearGradient id="linear-gradient-9" x1="-8.93" y1="2.008" x2="-8.909" y2="2.008" xlink:href="#linear-gradient-7"/>
    <clipPath id="clip-path-30">
      <path id="Path_4621" data-name="Path 4621" d="M376.931,1837.017c-8.72,52.625,1.892,130.068,5.47,145.225a2.363,2.363,0,0,0,1.908,1.8,15.878,15.878,0,0,0,6.82-.272,2.167,2.167,0,0,0,1.557-1.995c.48-12.254-.384-87.484,7.741-117.215a6.752,6.752,0,0,1,2.6-3.726l15.77-11.211,1.209-18.122Z" transform="translate(-373.574 -1831.497)" fill="none"/>
    </clipPath>
    <clipPath id="clip-path-31">
      <path id="Path_4622" data-name="Path 4622" d="M432.955,1287.315c-26.132-.432-54.966,6.861-54.966,6.861-7.789,45.451-1.362,97.875-1.362,97.875,20.231,5.305,43.052-3.244,43.052-3.244,3.362-19,19.051-72.462,19.051-72.462a86.07,86.07,0,0,0,31.948-10.138c-6.607-7.658-9.722-17.4-11.075-23.164a87.68,87.68,0,0,1-26.648,4.272" transform="translate(-374.135 -1283.043)" fill="none"/>
    </clipPath>
    <clipPath id="clip-path-32">
      <path id="Path_4623" data-name="Path 4623" d="M894.916,1081.759c-3.846,16.244-24.009,29.415-44.725,35.853,1.353,5.76,4.468,15.505,11.075,23.164,34.379-19.33,39.466-57.383,39.466-57.383a5.015,5.015,0,0,0-3.964-1.98,4.911,4.911,0,0,0-1.852.347" transform="translate(-850.191 -1081.412)" fill="none"/>
    </clipPath>
    <linearGradient id="linear-gradient-10" x1="-1.946" y1="4.643" x2="-1.944" y2="4.643" xlink:href="#linear-gradient-7"/>
    <clipPath id="clip-path-33">
      <path id="Path_4624" data-name="Path 4624" d="M1099.745,957.729c-1,1.364.018,8.534.082,10.208,1.832,3.492,4.942,2.192,4.673,1.338a6.933,6.933,0,0,0,5.208-3.073c1.134-1.612,2.334-3.672,3.213-5.256a7.021,7.021,0,0,0,.7-5.167c-.6-2.291-1.878-3.889-2.925-5.783l5.01-5.219a2.458,2.458,0,0,0-.307-3.414s-10.328,9.1-15.655,16.366" transform="translate(-1099.307 -941.363)" fill="none"/>
    </clipPath>
    <linearGradient id="linear-gradient-11" x1="-5.478" y1="12.173" x2="-5.473" y2="12.173" xlink:href="#linear-gradient-7"/>
    <clipPath id="clip-path-34">
      <path id="Path_4625" data-name="Path 4625" d="M1118.559,1012.183l-1.433,3.853,4.071,4.516s1.369-7.646,2.386-9.3.49-2.455-.457-2.939Z" transform="translate(-1117.126 -1008.312)" fill="none"/>
    </clipPath>
    <linearGradient id="linear-gradient-12" x1="-13.801" y1="26.509" x2="-13.788" y2="26.509" xlink:href="#linear-gradient-7"/>
    <clipPath id="clip-path-35">
      <path id="Path_4626" data-name="Path 4626" d="M237.289,1382.667a57.767,57.767,0,0,1,21.219,5.687c1.805-9.929,17.227-18,17.227-18l-10.023-25.3s-24.409,16.585-28.423,37.612" transform="translate(-237.289 -1345.055)" fill="none"/>
    </clipPath>
    <clipPath id="clip-path-36">
      <path id="Path_4627" data-name="Path 4627" d="M237.9,1574.448c16.2,29.629,60.249-1.637,60.249-1.637l-3.627-6.757s-27.4,15.488-36.652,2.263a10.394,10.394,0,0,1-1.906-8.077,57.77,57.77,0,0,0-21.219-5.687,29.022,29.022,0,0,0,3.154,19.9" transform="translate(-234.189 -1554.553)" fill="none"/>
    </clipPath>
    <linearGradient id="linear-gradient-13" x1="-0.641" y1="4.514" x2="-0.638" y2="4.514" xlink:href="#linear-gradient-7"/>
    <clipPath id="clip-path-38">
      <path id="Path_4631" data-name="Path 4631" d="M564.192,1564.471c-.84,3.039,1.243,11.607,1.243,11.607a7.883,7.883,0,0,0,7.128-2.49c1.636-1.6,2.606-3.21,3.934-2.345a2.773,2.773,0,0,0,4.06-.934l-2.379-2.625c3.485,1.693,3.85-1.476,3.85-1.476l-2.558-1.979c4.125,1.277,4.448-2.682,4.448-2.682a79.417,79.417,0,0,0-11.83-3.155,9.284,9.284,0,0,0-1.466-.123c-4.267,0-5.67,3.455-6.43,6.2" transform="translate(-563.993 -1558.269)" fill="none"/>
    </clipPath>
    <linearGradient id="linear-gradient-14" x1="-4.892" y1="12.178" x2="-4.884" y2="12.178" xlink:href="#linear-gradient-7"/>
    <clipPath id="clip-path-39">
      <path id="Path_4632" data-name="Path 4632" d="M516.106,1188.669l-8.315,24.046a.866.866,0,0,0,.395,1.043c2.266,1.253,10.432,4.875,20.273-1.364a4.08,4.08,0,0,0,1.879-2.914l2.692-20.812Z" transform="translate(-507.742 -1188.669)" fill="none"/>
    </clipPath>
    <linearGradient id="linear-gradient-15" x1="-3.589" y1="9.654" x2="-3.582" y2="9.654" xlink:href="#linear-gradient-7"/>
    <clipPath id="clip-path-40">
      <path id="Path_4633" data-name="Path 4633" d="M536.387,1071.019l6.9,18.558c9.881,5.639,21.2,6.137,22.367-.805s-7.96-24.13-7.96-24.13Z" transform="translate(-536.387 -1064.642)" fill="none"/>
    </clipPath>
    <linearGradient id="linear-gradient-16" x1="-2.131" y1="7.52" x2="-2.127" y2="7.52" xlink:href="#linear-gradient-7"/>
    <clipPath id="clip-path-41">
      <path id="Path_4634" data-name="Path 4634" d="M494.247,998.675a.708.708,0,0,1-1.122.008c-1.222-1.59-4.435-4.892-8.9-2.891-4.174,1.873-4.644,4.932-4.587,6.474a.7.7,0,0,1-.835.721c-2.11-.4-7.175-.748-9.539,4.447-1.947,4.279-.682,6.7.471,7.887a.706.706,0,0,1-.3,1.172c-1.387.425-3.178,1.6-3,4.85.248,4.493,5.271,4.1,6.7,3.892a.709.709,0,0,1,.629.222c1.226,1.357,6.751,7.118,12.73,7.813a.715.715,0,0,0,.75-.944l-2.588-7.522a.712.712,0,0,1,.385-.882l1.283-.568a.708.708,0,0,0,.309-1.037,18.486,18.486,0,0,1-2.54-5.393s-1.641-1.051,4.178-2.444,14.5-3.555,16.321-8.508c1.3-3.522-.838-10.936-4.981-10.936-1.537,0-3.351,1.021-5.368,3.639" transform="translate(-466.427 -995.036)" fill="none"/>
    </clipPath>
    <clipPath id="clip-path-42">
      <path id="Path_4635" data-name="Path 4635" d="M544.1,1147.917c-.475,3.756,5.854,5.441,8.989,4.04l-2.013-3.336s-3.219-2.209-5.292-2.209a1.533,1.533,0,0,0-1.684,1.5" transform="translate(-544.076 -1146.412)" fill="none"/>
    </clipPath>
    <linearGradient id="linear-gradient-17" x1="-8.891" y1="25.585" x2="-8.875" y2="25.585" xlink:href="#linear-gradient-7"/>
  </defs>
  <g id="Group_1186" data-name="Group 1186" clip-path="url(#clip-path)">
    <g id="Group_1094" data-name="Group 1094" transform="translate(0 5.41)">
      <g id="Group_1093" data-name="Group 1093" clip-path="url(#clip-path-2)">
        <rect id="Rectangle_651" data-name="Rectangle 651" width="708.186" height="711.146" transform="translate(-251.315 202.355) rotate(-38.841)" fill="#081e86"/>
      </g>
    </g>
    <g id="Group_1102" data-name="Group 1102">
      <g id="Group_1101" data-name="Group 1101" clip-path="url(#clip-path-3)">
        <path id="Path_4581" data-name="Path 4581" d="M1752.265,1374.007a3.2,3.2,0,0,1-2.148-1.268c-7.538-10.16-62.353-89.666,10.6-162.341,69.253-68.992,100.645-83.157,104.82-123.693a4.756,4.756,0,0,1,8.993-1.6c15.736,31.894,40.253,106.318-40.881,155.167-89.5,53.886-82.165,112.955-77.836,129.741a3.214,3.214,0,0,1-3.546,4" transform="translate(-1413.891 -888.114)" fill="#62c5fa"/>
        <path id="Path_4582" data-name="Path 4582" d="M1921.536,2301.881a4.631,4.631,0,0,1-3.964-3.879c-2.137-13.825-7.383-65.487,30.677-79.187,41.9-15.081,75.724,23.939,106.522-6.6a2.337,2.337,0,0,1,3.958,2.043c-2.743,15.954-14.951,52.907-69.274,60.343-58.144,7.958-64.687,14.629-63.513,22.9a3.9,3.9,0,0,1-4.406,4.38Z" transform="translate(-1572.062 -1814.477)" fill="#62c5fa"/>
        <g id="Group_1097" data-name="Group 1097" transform="translate(318.809 238.646)" opacity="0.47">
          <g id="Group_1096" data-name="Group 1096">
            <g id="Group_1095" data-name="Group 1095" clip-path="url(#clip-path-4)">
              <path id="Path_4583" data-name="Path 4583" d="M1906.572,1330.526a59.7,59.7,0,0,1-2.781,8.63,87.436,87.436,0,0,1-3.77,8.2,107.514,107.514,0,0,1-9.666,15.254,126.446,126.446,0,0,1-25.785,25.269,165.032,165.032,0,0,1-15.128,9.808,137.523,137.523,0,0,0-14.361,9.62,151.305,151.305,0,0,0-24.869,24.022c-14.653,17.821-25.052,39.328-28.475,62.226a121.047,121.047,0,0,0-.195,34.637,143.25,143.25,0,0,0,9.177,33.715,1.133,1.133,0,0,1-2.076.907,135.619,135.619,0,0,1-10.953-34.012,117.973,117.973,0,0,1-1.019-35.946,123.46,123.46,0,0,1,9.7-34.766,140.141,140.141,0,0,1,18.864-30.8,151.086,151.086,0,0,1,25.821-25.241,144.183,144.183,0,0,1,15.014-10.136,165.605,165.605,0,0,0,14.671-9.309,139.145,139.145,0,0,0,25.52-23.276,121.638,121.638,0,0,0,10.323-13.947,91.791,91.791,0,0,0,7.987-15.4l.027-.069a1.035,1.035,0,0,1,1.972.61" transform="translate(-1775.763 -1329.253)" fill="#fff"/>
            </g>
          </g>
        </g>
        <g id="Group_1100" data-name="Group 1100" transform="translate(347.005 407.346)" opacity="0.47">
          <g id="Group_1099" data-name="Group 1099">
            <g id="Group_1098" data-name="Group 1098" clip-path="url(#clip-path-5)">
              <path id="Path_4584" data-name="Path 4584" d="M1932.864,2339.59a3.673,3.673,0,0,0,.106-1.444l-.044-1.425-.033-2.848q.005-2.848.127-5.693c.169-3.793.492-7.582,1-11.352a85.066,85.066,0,0,1,5.779-22.1c3-7.02,7.555-13.73,14.159-18.113a31.228,31.228,0,0,1,10.847-4.462,39.725,39.725,0,0,1,11.653-.591c15.135,1.755,29.971,4.657,44.846,7.014,7.409,1.1,14.923,2.091,22.2,1.1a33.036,33.036,0,0,0,5.318-1.216,28.022,28.022,0,0,0,4.966-2.218,35.039,35.039,0,0,0,8.43-7.015l.008-.008a.923.923,0,0,1,1.38,1.225,36.994,36.994,0,0,1-8.76,7.6,30.152,30.152,0,0,1-5.31,2.509,35.251,35.251,0,0,1-5.684,1.429c-7.747,1.135-15.427.17-22.921-.858-7.516-1.07-14.937-2.463-22.384-3.668-7.424-1.208-14.935-2.376-22.328-3.244a37.121,37.121,0,0,0-10.9.451,28.7,28.7,0,0,0-10.02,4.016c-6.145,3.913-10.6,10.14-13.631,16.88a83.273,83.273,0,0,0-6.037,21.508c-.569,3.707-.957,7.446-1.193,11.2q-.174,2.812-.229,5.631l-.019,2.817.018,1.407a3.055,3.055,0,0,0,.22,1.386.857.857,0,1,1-1.569.11Z" transform="translate(-1932.81 -2268.908)" fill="#fff"/>
            </g>
          </g>
        </g>
      </g>
    </g>
    <g id="Group_1104" data-name="Group 1104" transform="translate(126.51 5.702)">
      <g id="Group_1103" data-name="Group 1103" clip-path="url(#clip-path-6)">
        <rect id="Rectangle_655" data-name="Rectangle 655" width="480.142" height="489.577" transform="matrix(0.761, -0.649, 0.649, 0.761, -202.788, 162.395)" fill="#dd8a3a"/>
      </g>
    </g>
    <g id="Group_1106" data-name="Group 1106" transform="translate(225.034 409.125)">
      <g id="Group_1105" data-name="Group 1105" clip-path="url(#clip-path-7)">
        <rect id="Rectangle_656" data-name="Rectangle 656" width="123.516" height="124.155" transform="matrix(0.761, -0.649, 0.649, 0.761, -44.772, 38.162)" fill="#dd8a3a"/>
      </g>
    </g>
    <g id="Group_1108" data-name="Group 1108" transform="translate(104.842)">
      <g id="Group_1107" data-name="Group 1107" clip-path="url(#clip-path-8)">
        <rect id="Rectangle_657" data-name="Rectangle 657" width="487.897" height="484.498" transform="matrix(0.687, -0.727, 0.727, 0.687, -204.908, 204.002)" fill="#f19b48"/>
      </g>
    </g>
    <g id="Group_1110" data-name="Group 1110" transform="translate(203.366 407.747)">
      <g id="Group_1109" data-name="Group 1109" clip-path="url(#clip-path-9)">
        <rect id="Rectangle_658" data-name="Rectangle 658" width="127.99" height="127.99" transform="matrix(0.671, -0.741, 0.741, 0.671, -45.083, 49.816)" fill="#f19b48"/>
      </g>
    </g>
    <g id="Group_1139" data-name="Group 1139">
      <g id="Group_1138" data-name="Group 1138" clip-path="url(#clip-path-3)">
        <g id="Group_1113" data-name="Group 1113" transform="translate(120.969 13.849)" opacity="0.63">
          <g id="Group_1112" data-name="Group 1112">
            <g id="Group_1111" data-name="Group 1111" clip-path="url(#clip-path-11)">
              <path id="Path_4589" data-name="Path 4589" d="M676.133,194.762a.581.581,0,0,1-.567-.456c-3.175-14.336-3.641-36.787,12.169-62.326,15.431-24.927,37.077-41.607,64.337-49.575,29.14-8.517,63.735-6.694,102.83,5.42a.581.581,0,0,1-.344,1.111c-75.107-23.273-134-7.768-165.835,43.656-15.6,25.207-15.151,47.337-12.022,61.463a.581.581,0,0,1-.442.693.573.573,0,0,1-.126.014" transform="translate(-673.795 -77.14)" fill="#fff"/>
            </g>
          </g>
        </g>
        <g id="Group_1116" data-name="Group 1116" transform="translate(125.891 140.866)" opacity="0.63">
          <g id="Group_1115" data-name="Group 1115">
            <g id="Group_1114" data-name="Group 1114" clip-path="url(#clip-path-12)">
              <path id="Path_4590" data-name="Path 4590" d="M708.158,798.292a.58.58,0,0,1-.47-.238,58.343,58.343,0,0,1-6.439-12.645.582.582,0,0,1,1.087-.415,58.4,58.4,0,0,0,6.292,12.374.582.582,0,0,1-.469.924" transform="translate(-701.21 -784.62)" fill="#fff"/>
            </g>
          </g>
        </g>
        <g id="Group_1119" data-name="Group 1119" transform="translate(248.093 418.914)" opacity="0.63">
          <g id="Group_1118" data-name="Group 1118">
            <g id="Group_1117" data-name="Group 1117" clip-path="url(#clip-path-13)">
              <path id="Path_4591" data-name="Path 4591" d="M1397.61,2338.118a.576.576,0,0,1-.262-.063,32.63,32.63,0,0,0-14.9-3.549.582.582,0,0,1,0-1.163,33.785,33.785,0,0,1,15.424,3.675.582.582,0,0,1-.264,1.1" transform="translate(-1381.868 -2333.343)" fill="#fff"/>
            </g>
          </g>
        </g>
        <g id="Group_1122" data-name="Group 1122" transform="translate(214.534 422.894)" opacity="0.63">
          <g id="Group_1121" data-name="Group 1121">
            <g id="Group_1120" data-name="Group 1120" clip-path="url(#clip-path-14)">
              <path id="Path_4592" data-name="Path 4592" d="M1210.323,2414.08a.575.575,0,0,1-.324-.1,34.15,34.15,0,0,1,2.947-58.4.582.582,0,0,1,.551,1.024,32.987,32.987,0,0,0-2.848,56.413.582.582,0,0,1-.326,1.063" transform="translate(-1194.947 -2355.51)" fill="#fff"/>
            </g>
          </g>
        </g>
        <g id="Group_1125" data-name="Group 1125" transform="translate(8.464 70.589)" opacity="0.3">
          <g id="Group_1124" data-name="Group 1124">
            <g id="Group_1123" data-name="Group 1123" clip-path="url(#clip-path-15)">
              <path id="Path_4593" data-name="Path 4593" d="M139.359,407.357a1.371,1.371,0,0,1-1.929.2c-1.143-.926-2.344-1.816-3.569-2.645a1.371,1.371,0,0,1-.381-1.882l.015-.022a1.371,1.371,0,0,1,1.9-.366c1.289.873,2.553,1.81,3.757,2.785a1.371,1.371,0,0,1,.288,1.811,1.346,1.346,0,0,1-.085.117m-11.735-6.07c-1.326-.654-2.691-1.258-4.061-1.8a1.371,1.371,0,1,1,1-2.553c1.441.565,2.879,1.2,4.274,1.888a1.371,1.371,0,0,1-1.214,2.459m-10.943-3.954c-1.434-.342-2.9-.626-4.359-.843a1.371,1.371,0,1,1,.4-2.712c1.536.229,3.08.528,4.59.888a1.371,1.371,0,1,1-.636,2.667m-11.552-1.407c-1.476-.013-2.969.038-4.44.152a1.371,1.371,0,0,1-.211-2.734c1.548-.119,3.12-.173,4.674-.16a1.371,1.371,0,0,1-.023,2.743m-11.578,1.2c-1.438.315-2.884.7-4.3,1.132a1.371,1.371,0,1,1-.81-2.62c1.485-.459,3.006-.86,4.52-1.191a1.371,1.371,0,1,1,.585,2.679m-11.023,3.734c-1.335.626-2.66,1.317-3.938,2.054a1.371,1.371,0,0,1-1.37-2.375c1.345-.776,2.74-1.5,4.145-2.161a1.371,1.371,0,0,1,1.164,2.483m-30.9,40.466a1.371,1.371,0,0,1-1.151-1.56c.232-1.534.533-3.079.9-4.591a1.371,1.371,0,1,1,2.666.641c-.345,1.436-.632,2.9-.851,4.359a1.37,1.37,0,0,1-1.56,1.151m20.987-34.385c-1.162.907-2.3,1.875-3.379,2.878a1.371,1.371,0,1,1-1.866-2.01c1.137-1.056,2.334-2.076,3.558-3.03a1.371,1.371,0,1,1,1.687,2.162M54.432,429.712a1.371,1.371,0,0,1-.773-1.779c.569-1.443,1.208-2.88,1.9-4.273a1.371,1.371,0,0,1,2.457,1.219c-.656,1.323-1.263,2.689-1.8,4.061a1.371,1.371,0,0,1-1.779.772m9.875-14.627c-.929,1.143-1.822,2.341-2.652,3.562a1.371,1.371,0,0,1-2.284-1.518l.016-.024c.874-1.285,1.813-2.547,2.791-3.75a1.371,1.371,0,0,1,2.215,1.611c-.026.041-.055.08-.086.119" transform="translate(-49.865 -393.182)" fill="#91b3fa"/>
              <path id="Path_4594" data-name="Path 4594" d="M49.694,691.8a1.364,1.364,0,0,0,.22-.789c-.022-.707-.03-1.425-.024-2.137a1.371,1.371,0,1,0-2.742-.025c-.007.748,0,1.5.025,2.248a1.371,1.371,0,0,0,2.521.7" transform="translate(-47.147 -634.651)" fill="#91b3fa"/>
            </g>
          </g>
        </g>
        <g id="Group_1128" data-name="Group 1128" transform="translate(24.417 119.893)" opacity="0.3">
          <g id="Group_1127" data-name="Group 1127">
            <g id="Group_1126" data-name="Group 1126" clip-path="url(#clip-path-16)">
              <path id="Path_4595" data-name="Path 4595" d="M140.122,906.334a1.372,1.372,0,0,0-.231-1.763c-.524-.474-1.048-.967-1.555-1.465a1.371,1.371,0,0,0-1.922,1.956c.534.524,1.085,1.044,1.637,1.543a1.371,1.371,0,0,0,1.937-.1,1.4,1.4,0,0,0,.133-.174" transform="translate(-136.003 -860.538)" fill="#91b3fa"/>
              <path id="Path_4596" data-name="Path 4596" d="M252.621,748.82a1.371,1.371,0,0,1-2.224-1.605c.844-1.169,1.651-2.392,2.409-3.648a1.371,1.371,0,0,1,2.349,1.416q-.493.817-1.008,1.61c-.49.755-1,1.5-1.526,2.227m4.148-9.767a1.371,1.371,0,0,1-.716-1.8c.575-1.335,1.1-2.709,1.561-4.083a1.371,1.371,0,1,1,2.6.87c-.484,1.447-1.037,2.893-1.643,4.3a1.37,1.37,0,0,1-1.8.716m-8.926,15.511c-1.053,1.1-2.169,2.177-3.315,3.19a1.371,1.371,0,1,1-1.816-2.055c1.089-.962,2.148-1.981,3.148-3.029a1.371,1.371,0,0,1,1.983,1.894M260.493,727.9a1.371,1.371,0,0,1-1.095-1.6c.268-1.427.478-2.882.624-4.325a1.371,1.371,0,0,1,2.728.276c-.154,1.52-.375,3.052-.657,4.554a1.369,1.369,0,0,1-1.6,1.095m-21.886,34.4c-1.269.844-2.593,1.645-3.934,2.382a1.371,1.371,0,1,1-1.32-2.4c1.274-.7,2.531-1.461,3.736-2.263a1.371,1.371,0,1,1,1.518,2.284M227.9,767.827c-1.427.547-2.893,1.041-4.359,1.467a1.371,1.371,0,1,1-.765-2.633c1.392-.4,2.786-.874,4.142-1.394a1.371,1.371,0,1,1,.982,2.56m-11.659,3.06c-1.513.224-3.052.386-4.575.483a1.371,1.371,0,1,1-.174-2.737c1.447-.092,2.909-.246,4.347-.459a1.371,1.371,0,0,1,.4,2.713m-12.049.444c-1.525-.112-3.063-.291-4.571-.532a1.371,1.371,0,1,1,.432-2.708c1.432.229,2.892.4,4.341.505a1.371,1.371,0,0,1-.2,2.735m-11.858-2.216c-1.459-.445-2.919-.958-4.338-1.525a1.371,1.371,0,1,1,1.017-2.547c1.349.539,2.735,1.026,4.121,1.449a1.371,1.371,0,1,1-.8,2.623m-11.07-4.76c-.978-.554-1.952-1.145-2.892-1.756q-.511-.332-1.012-.674a1.356,1.356,0,0,1-.361-1.9,1.371,1.371,0,0,1,1.905-.361q.476.325.962.641c.895.581,1.819,1.143,2.749,1.67a1.371,1.371,0,0,1,.517,1.868c-.014.025-.029.049-.044.073a1.371,1.371,0,0,1-1.825.445" transform="translate(-169.435 -711.237)" fill="#91b3fa"/>
              <path id="Path_4597" data-name="Path 4597" d="M643.787,672.1a1.367,1.367,0,0,0,.22-.8c-.027-.742-.07-1.5-.128-2.245a1.371,1.371,0,0,0-2.734.212c.055.71.1,1.428.122,2.132a1.371,1.371,0,0,0,2.52.7" transform="translate(-550.451 -667.796)" fill="#91b3fa"/>
            </g>
          </g>
        </g>
        <path id="Path_4598" data-name="Path 4598" d="M202.416,494.737a.641.641,0,0,0-.6-.445l-7.8-.171a33.979,33.979,0,0,0-7.112-8.4L188.023,478a.641.641,0,0,0-.341-.661l-8.318-4.281a.64.64,0,0,0-.736.107L173,478.557a33.977,33.977,0,0,0-10.97-.9l-4.671-6.246a.641.641,0,0,0-.709-.226l-8.909,2.855a.641.641,0,0,0-.445.6l-.171,7.8a33.966,33.966,0,0,0-8.4,7.112L131,488.428a.641.641,0,0,0-.661.341l-4.281,8.318a.641.641,0,0,0,.107.736l5.389,5.631a33.971,33.971,0,0,0-.9,10.97l-6.246,4.671a.64.64,0,0,0-.226.709l2.855,8.909a.641.641,0,0,0,.6.445l7.8.171a33.967,33.967,0,0,0,7.112,8.4l-1.113,7.715a.641.641,0,0,0,.341.661l8.319,4.281a.641.641,0,0,0,.736-.107l5.631-5.389a33.978,33.978,0,0,0,10.97.9l4.671,6.246a.641.641,0,0,0,.709.227l8.909-2.855a.641.641,0,0,0,.445-.6l.171-7.8a33.972,33.972,0,0,0,8.4-7.112l7.715,1.113a.641.641,0,0,0,.661-.341l4.281-8.318a.641.641,0,0,0-.107-.736L197.894,520a33.983,33.983,0,0,0,.9-10.97l6.246-4.671a.641.641,0,0,0,.226-.709Z" transform="translate(-101.861 -386.562)" fill="#62c5fa"/>
        <path id="Path_4599" data-name="Path 4599" d="M314.23,660.419a9.4,9.4,0,1,1,.835-1.1,9.415,9.415,0,0,1-.835,1.1m-14.25-5.766a7.21,7.21,0,1,0,1.788-5.221,7.315,7.315,0,0,0-.647.852,7.158,7.158,0,0,0-1.141,4.369" transform="translate(-244.312 -529.037)" fill="#bdd0fb"/>
        <path id="Path_4600" data-name="Path 4600" d="M262.72,604.386a23.579,23.579,0,0,0,1.192-2.055q.173-.335.334-.675a23.293,23.293,0,0,0,1.317-3.461l.014-.048c.013-.046.026-.092.039-.138.025-.089.05-.179.074-.268a.548.548,0,1,0-1.059-.285,22.05,22.05,0,0,1-19.286,16.224,21.89,21.89,0,0,1-12.072-2.345,22.357,22.357,0,0,1-1.961-1.138,22.027,22.027,0,1,1,30.747-30.08.548.548,0,1,0,.932-.579,23.125,23.125,0,1,0-32.279,31.578,23.648,23.648,0,0,0,2.058,1.194,23.127,23.127,0,0,0,29.949-7.923" transform="translate(-180.682 -466.541)" fill="#bdd0fb"/>
        <g id="Group_1131" data-name="Group 1131" transform="translate(92.246 51.399)" opacity="0.3">
          <g id="Group_1130" data-name="Group 1130">
            <g id="Group_1129" data-name="Group 1129" clip-path="url(#clip-path-17)">
              <path id="Path_4601" data-name="Path 4601" d="M843.226,349.494a.846.846,0,0,0-.068-1.013c-.468-.546-.959-1.085-1.459-1.6a.847.847,0,1,0-1.217,1.178c.477.493.945,1.006,1.391,1.527a.847.847,0,0,0,1.194.091.861.861,0,0,0,.159-.182" transform="translate(-781.637 -335.79)" fill="#91b3fa"/>
              <path id="Path_4602" data-name="Path 4602" d="M570.668,295.532a.847.847,0,0,1-1.191.128,35.194,35.194,0,0,0-2.877-2.085q-.313-.2-.633-.4a.847.847,0,0,1-.273-1.166.877.877,0,0,1,1.167-.273q.334.207.662.42a36.791,36.791,0,0,1,3.017,2.186.846.846,0,0,1,.179,1.12c-.015.024-.033.047-.051.071m-8.487-4.4a35.113,35.113,0,0,0-4.006-1.563.847.847,0,0,1,.517-1.613,36.687,36.687,0,0,1,4.2,1.638.848.848,0,0,1,.413,1.125.892.892,0,0,1-.059.106.847.847,0,0,1-1.065.306m-8.175-2.618a34.8,34.8,0,0,0-4.268-.531.847.847,0,0,1,.1-1.69,36.515,36.515,0,0,1,4.476.556.847.847,0,0,1,.676.989.856.856,0,0,1-.122.3.847.847,0,0,1-.867.371m-8.569-.53a34.912,34.912,0,0,0-4.267.53.847.847,0,0,1-.313-1.665,36.731,36.731,0,0,1,4.475-.555.847.847,0,0,1,.1,1.69M537,289.563a35.32,35.32,0,0,0-4.011,1.55.847.847,0,0,1-.706-1.54,37.081,37.081,0,0,1,4.2-1.625.847.847,0,0,1,.513,1.615m-7.8,3.579a34.712,34.712,0,0,0-3.508,2.479.847.847,0,0,1-1.062-1.32,36.462,36.462,0,0,1,3.679-2.6.847.847,0,0,1,.89,1.441m-6.685,5.375a34.819,34.819,0,0,0-2.794,3.268.847.847,0,0,1-1.353-1.02,36.682,36.682,0,0,1,2.93-3.426.847.847,0,0,1,1.217,1.178m-8.192,11.155a.846.846,0,0,1-.45-1.11,36.864,36.864,0,0,1,1.718-3.52c.1-.174.193-.346.292-.517a.847.847,0,0,1,1.467.849c-.093.16-.185.322-.276.488a35.118,35.118,0,0,0-1.641,3.36.833.833,0,0,1-.07.132.846.846,0,0,1-1.04.318" transform="translate(-513.806 -286.291)" fill="#91b3fa"/>
            </g>
          </g>
        </g>
        <g id="Group_1134" data-name="Group 1134" transform="translate(121.192 84.322)" opacity="0.3">
          <g id="Group_1133" data-name="Group 1133">
            <g id="Group_1132" data-name="Group 1132" clip-path="url(#clip-path-18)">
              <path id="Path_4603" data-name="Path 4603" d="M710.237,523.24a36.9,36.9,0,0,1-2.682,3.53.847.847,0,1,1-1.284-1.1,35,35,0,0,0,2.558-3.367.847.847,0,0,1,1.414.932l-.006.01m1.1-3.457a.846.846,0,0,1-.372-1.138,35.382,35.382,0,0,0,1.684-3.882.847.847,0,0,1,1.592.58,37.045,37.045,0,0,1-1.765,4.068.9.9,0,0,1-.046.08.847.847,0,0,1-1.093.292m-6.875,10.167a36.766,36.766,0,0,1-3.456,2.778.847.847,0,0,1-.98-1.382,35.152,35.152,0,0,0,3.3-2.649.847.847,0,1,1,1.138,1.254m10.022-18.228a.847.847,0,0,1-.635-1.015,34.759,34.759,0,0,0,.7-4.172.847.847,0,1,1,1.684.176,36.31,36.31,0,0,1-.73,4.377.848.848,0,0,1-1.016.635M697.24,535.064a36.81,36.81,0,0,1-4.023,1.865.847.847,0,1,1-.618-1.577,34.843,34.843,0,0,0,3.836-1.778.847.847,0,0,1,.8,1.491M689,538.3a37.03,37.03,0,0,1-4.353.849.847.847,0,0,1-.223-1.679,35.387,35.387,0,0,0,4.152-.81A.847.847,0,0,1,689,538.3m-8.777,1.166a36.58,36.58,0,0,1-4.431-.22.847.847,0,0,1,.187-1.683,34.635,34.635,0,0,0,4.225.21.847.847,0,0,1,.856.838.837.837,0,0,1-.136.47.847.847,0,0,1-.7.386" transform="translate(-675.038 -499.294)" fill="#91b3fa"/>
              <path id="Path_4604" data-name="Path 4604" d="M897.212,473.094a.843.843,0,0,0,.136-.477c-.013-.725-.049-1.452-.1-2.163a.847.847,0,1,0-1.689.131c.053.677.086,1.371.1,2.063a.847.847,0,0,0,1.557.445" transform="translate(-855.963 -469.673)" fill="#91b3fa"/>
            </g>
          </g>
        </g>
        <path id="Path_4605" data-name="Path 4605" d="M601.583,353.477a.429.429,0,0,0-.4-.3l-5.218-.115a22.742,22.742,0,0,0-4.759-5.622l.745-5.162a.429.429,0,0,0-.228-.443l-5.566-2.865a.429.429,0,0,0-.493.072l-3.768,3.606a22.728,22.728,0,0,0-7.341-.605l-3.126-4.179a.429.429,0,0,0-.474-.152l-5.962,1.91a.429.429,0,0,0-.3.4l-.115,5.218A22.736,22.736,0,0,0,558.959,350l-5.162-.745a.429.429,0,0,0-.443.228l-2.865,5.566a.429.429,0,0,0,.071.493l3.606,3.768a22.728,22.728,0,0,0-.605,7.341l-4.18,3.126a.429.429,0,0,0-.152.474l1.91,5.962a.429.429,0,0,0,.4.3l5.218.115a22.722,22.722,0,0,0,4.759,5.622l-.745,5.163a.428.428,0,0,0,.228.442l5.566,2.865a.429.429,0,0,0,.493-.071l3.768-3.606a22.74,22.74,0,0,0,7.341.605l3.126,4.179a.429.429,0,0,0,.474.152l5.962-1.91a.429.429,0,0,0,.3-.4l.115-5.218a22.732,22.732,0,0,0,5.622-4.759l5.162.745a.429.429,0,0,0,.443-.228l2.865-5.567a.429.429,0,0,0-.071-.493l-3.606-3.768a22.73,22.73,0,0,0,.605-7.341l4.18-3.126a.428.428,0,0,0,.151-.474Z" transform="translate(-450.609 -277.066)" fill="#62c5fa"/>
        <path id="Path_4606" data-name="Path 4606" d="M675.992,463.9a6.385,6.385,0,1,1,.574-.756,6.565,6.565,0,0,1-.574.756m-7.922-.7a4.712,4.712,0,1,0-.418-6.651,4.776,4.776,0,0,0-.418.551,4.72,4.72,0,0,0,.836,6.1" transform="translate(-545.433 -371.888)" fill="#bdd0fb"/>
        <path id="Path_4607" data-name="Path 4607" d="M640.151,424.857q.438-.674.814-1.4a16.068,16.068,0,0,0,1.188-3.026l.038-.141a.847.847,0,0,0-.355-.93.857.857,0,0,0-.243-.108.848.848,0,0,0-1.037.6,14.307,14.307,0,0,1-1.1,2.831h0c-.025.05-.052.1-.077.148a14.12,14.12,0,0,1-4.674,5.188,14.34,14.34,0,0,1-3.453,1.679l-.03.01-.092.03a14.166,14.166,0,0,1-10.876-.9,14.419,14.419,0,0,1-1.269-.736,14.26,14.26,0,1,1,19.9-19.474.847.847,0,1,0,1.439-.894,15.954,15.954,0,1,0-22.269,21.785,16.226,16.226,0,0,0,1.42.824,15.976,15.976,0,0,0,20.671-5.481" transform="translate(-501.158 -328.345)" fill="#bdd0fb"/>
        <path id="Path_4608" data-name="Path 4608" d="M1699.628,857.776,1675,882.968l29.54-7.891Z" transform="translate(-1374.281 -703.776)" fill="#62c5fa"/>
        <path id="Path_4609" data-name="Path 4609" d="M1958.705,584.32l-139.932,6.791a6.3,6.3,0,0,1-6.6-6.29V527.253a11.582,11.582,0,0,1,11.224-11.577l126.115-3.9a17.005,17.005,0,0,1,17.005,17v47.344a8.207,8.207,0,0,1-7.809,8.2" transform="translate(-1486.824 -419.893)" fill="#62c5fa"/>
        <g id="Group_1137" data-name="Group 1137" transform="translate(327.495 93.438)" opacity="0.85">
          <g id="Group_1136" data-name="Group 1136">
            <g id="Group_1135" data-name="Group 1135" clip-path="url(#clip-path-19)">
              <path id="Path_4610" data-name="Path 4610" d="M1832.78,595.922a8.652,8.652,0,0,1-8.638-8.653V535.384a11.323,11.323,0,0,1,11.161-11.242l122.108-3.687a16.594,16.594,0,0,1,16.777,16.37v44.733a8.136,8.136,0,0,1-7.851,8.048L1833.2,595.912q-.211.01-.422.01m124.64-74.861-122.1,3.687a10.719,10.719,0,0,0-10.572,10.635V587.27a8.045,8.045,0,0,0,8.426,8.036L1966.309,589a7.529,7.529,0,0,0,7.272-7.442V536.825a15.984,15.984,0,0,0-16.161-15.764" transform="translate(-1824.141 -520.454)" fill="#fff"/>
            </g>
          </g>
        </g>
      </g>
    </g>
    <g id="Group_1141" data-name="Group 1141" transform="translate(346.545 104.54)">
      <g id="Group_1140" data-name="Group 1140" clip-path="url(#clip-path-20)">
        <rect id="Rectangle_669" data-name="Rectangle 669" width="115.97" height="8.289" transform="translate(-0.035 0)" fill="url(#linear-gradient)"/>
      </g>
    </g>
    <g id="Group_1143" data-name="Group 1143" transform="translate(336.534 132.867)">
      <g id="Group_1142" data-name="Group 1142" clip-path="url(#clip-path-21)">
        <rect id="Rectangle_670" data-name="Rectangle 670" width="115.975" height="8.412" transform="translate(-0.037 0)" fill="url(#linear-gradient-2)"/>
      </g>
    </g>
    <g id="Group_1145" data-name="Group 1145" transform="translate(336.534 144.717)">
      <g id="Group_1144" data-name="Group 1144" clip-path="url(#clip-path-22)">
        <rect id="Rectangle_671" data-name="Rectangle 671" width="129.274" height="9.003" transform="translate(-0.037)" fill="url(#linear-gradient-3)"/>
      </g>
    </g>
    <g id="Group_1147" data-name="Group 1147" transform="translate(337.031 121.242)">
      <g id="Group_1146" data-name="Group 1146" clip-path="url(#clip-path-23)">
        <rect id="Rectangle_672" data-name="Rectangle 672" width="63.303" height="6.513" transform="translate(-0.045 0)" fill="url(#linear-gradient-4)"/>
      </g>
    </g>
    <g id="Group_1149" data-name="Group 1149" transform="translate(407.631 119.135)">
      <g id="Group_1148" data-name="Group 1148" clip-path="url(#clip-path-24)">
        <rect id="Rectangle_673" data-name="Rectangle 673" width="59.844" height="6.386" transform="translate(-0.045 0)" fill="url(#linear-gradient-5)"/>
      </g>
    </g>
    <g id="Group_1151" data-name="Group 1151" transform="translate(111.138 481.95)">
      <g id="Group_1150" data-name="Group 1150" clip-path="url(#clip-path-25)">
        <rect id="Rectangle_674" data-name="Rectangle 674" width="40.798" height="42.037" transform="translate(-9.608 10.229) rotate(-47.406)" fill="url(#linear-gradient-6)"/>
      </g>
    </g>
    <g id="Group_1153" data-name="Group 1153" transform="translate(111.929 476.907)">
      <g id="Group_1152" data-name="Group 1152" clip-path="url(#clip-path-26)">
        <rect id="Rectangle_675" data-name="Rectangle 675" width="9.893" height="11.497" fill="url(#linear-gradient-7)"/>
      </g>
    </g>
    <g id="Group_1155" data-name="Group 1155" transform="translate(88.471 331.272)">
      <g id="Group_1154" data-name="Group 1154" clip-path="url(#clip-path-27)">
        <rect id="Rectangle_676" data-name="Rectangle 676" width="156.47" height="127.92" transform="translate(-82.086 90.364) rotate(-53.58)" fill="#62c5fa"/>
      </g>
    </g>
    <g id="Group_1157" data-name="Group 1157" transform="translate(74.219 485.357)">
      <g id="Group_1156" data-name="Group 1156" clip-path="url(#clip-path-28)">
        <rect id="Rectangle_677" data-name="Rectangle 677" width="22.78" height="22.802" transform="translate(-8.211 8.643) rotate(-47.406)" fill="url(#linear-gradient-8)"/>
      </g>
    </g>
    <g id="Group_1159" data-name="Group 1159" transform="translate(76.276 474.852)">
      <g id="Group_1158" data-name="Group 1158" clip-path="url(#clip-path-29)">
        <rect id="Rectangle_678" data-name="Rectangle 678" width="8.542" height="13.863" transform="translate(0)" fill="url(#linear-gradient-9)"/>
      </g>
    </g>
    <g id="Group_1161" data-name="Group 1161" transform="translate(67.069 328.816)">
      <g id="Group_1160" data-name="Group 1160" clip-path="url(#clip-path-30)">
        <rect id="Rectangle_679" data-name="Rectangle 679" width="153.889" height="132.533" transform="translate(-78.468 99.084) rotate(-53.58)" fill="#62c5fa"/>
      </g>
    </g>
    <g id="Group_1163" data-name="Group 1163" transform="translate(67.17 230.35)">
      <g id="Group_1162" data-name="Group 1162" clip-path="url(#clip-path-31)">
        <rect id="Rectangle_680" data-name="Rectangle 680" width="149.306" height="144.285" transform="matrix(0.502, -0.865, 0.865, 0.502, -53.565, 85.508)" fill="#061455"/>
      </g>
    </g>
    <g id="Group_1165" data-name="Group 1165" transform="translate(152.638 194.15)">
      <g id="Group_1164" data-name="Group 1164" clip-path="url(#clip-path-32)">
        <rect id="Rectangle_681" data-name="Rectangle 681" width="72.727" height="67.314" transform="translate(-18.51 52.885) rotate(-70.71)" fill="url(#linear-gradient-10)"/>
      </g>
    </g>
    <g id="Group_1167" data-name="Group 1167" transform="translate(197.363 169.007)">
      <g id="Group_1166" data-name="Group 1166" clip-path="url(#clip-path-33)">
        <rect id="Rectangle_682" data-name="Rectangle 682" width="34.457" height="27.299" transform="translate(-9.937 26.785) rotate(-70.71)" fill="url(#linear-gradient-11)"/>
      </g>
    </g>
    <g id="Group_1169" data-name="Group 1169" transform="translate(200.562 181.026)">
      <g id="Group_1168" data-name="Group 1168" clip-path="url(#clip-path-34)">
        <rect id="Rectangle_683" data-name="Rectangle 683" width="14.286" height="12.132" transform="translate(-4.871 9.825) rotate(-63.631)" fill="url(#linear-gradient-12)"/>
      </g>
    </g>
    <g id="Group_1171" data-name="Group 1171" transform="translate(42.601 241.483)">
      <g id="Group_1170" data-name="Group 1170" clip-path="url(#clip-path-35)">
        <rect id="Rectangle_684" data-name="Rectangle 684" width="56.748" height="54.987" transform="translate(-18.799 32.388) rotate(-59.868)" fill="#061455"/>
      </g>
    </g>
    <g id="Group_1173" data-name="Group 1173" transform="translate(42.045 279.095)">
      <g id="Group_1172" data-name="Group 1172" clip-path="url(#clip-path-36)">
        <rect id="Rectangle_685" data-name="Rectangle 685" width="64.613" height="49.525" transform="translate(-0.654)" fill="url(#linear-gradient-13)"/>
      </g>
    </g>
    <g id="Group_1175" data-name="Group 1175">
      <g id="Group_1174" data-name="Group 1174" clip-path="url(#clip-path-3)">
        <path id="Path_4628" data-name="Path 4628" d="M551.627,1469.221l14.957-52.232a1.522,1.522,0,0,1,1.288-1.1c2.71-.316,10.562-1.2,19.628-1.97,10.92-.924,23.6-1.672,31.181-1.036a1.528,1.528,0,0,1,1.249,2.2c-4.31,8.719-22.036,44.184-30.913,55.8a1.533,1.533,0,0,1-1.233.605l-34.7-.323a1.528,1.528,0,0,1-1.455-1.949" transform="translate(-452.542 -1159.031)" fill="#91b3fa"/>
        <path id="Path_4629" data-name="Path 4629" d="M754.342,1386.207l10.844-1.807a.778.778,0,0,1,.867,1.012l-1.073,3.253a.778.778,0,0,1-.636.527l-10.435,1.394a.778.778,0,0,1-.861-.949l.664-2.84a.779.779,0,0,1,.63-.59" transform="translate(-617.833 -1135.844)" fill="#bdd0fb"/>
        <path id="Path_4630" data-name="Path 4630" d="M715.038,1410.236l.893-4.653a1.076,1.076,0,0,1,.948-.867l21.9-2.223a1.076,1.076,0,0,1,1.154,1.321l-1.392,5.8a1.076,1.076,0,0,1-.992.823l-21.4,1.078a1.076,1.076,0,0,1-1.11-1.277" transform="translate(-586.648 -1150.693)" fill="#bdd0fb"/>
      </g>
    </g>
    <g id="Group_1177" data-name="Group 1177" transform="translate(101.256 279.762)">
      <g id="Group_1176" data-name="Group 1176" clip-path="url(#clip-path-38)">
        <rect id="Rectangle_687" data-name="Rectangle 687" width="20.566" height="18.306" transform="translate(-0.641)" fill="url(#linear-gradient-14)"/>
      </g>
    </g>
    <g id="Group_1179" data-name="Group 1179" transform="translate(91.157 213.407)">
      <g id="Group_1178" data-name="Group 1178" clip-path="url(#clip-path-39)">
        <rect id="Rectangle_688" data-name="Rectangle 688" width="25.377" height="29.965" transform="translate(-0.089)" fill="url(#linear-gradient-15)"/>
      </g>
    </g>
    <g id="Group_1181" data-name="Group 1181" transform="translate(96.3 191.139)">
      <g id="Group_1180" data-name="Group 1180" clip-path="url(#clip-path-40)">
        <rect id="Rectangle_689" data-name="Rectangle 689" width="42.38" height="42.17" transform="matrix(0.521, -0.854, 0.854, 0.521, -13.813, 22.648)" fill="url(#linear-gradient-16)"/>
      </g>
    </g>
    <g id="Group_1183" data-name="Group 1183" transform="translate(83.739 178.643)">
      <g id="Group_1182" data-name="Group 1182" clip-path="url(#clip-path-41)">
        <rect id="Rectangle_690" data-name="Rectangle 690" width="55.594" height="55.609" transform="matrix(0.62, -0.785, 0.785, 0.62, -19.399, 23.105)" fill="#061455"/>
      </g>
    </g>
    <g id="Group_1185" data-name="Group 1185" transform="translate(97.68 205.82)">
      <g id="Group_1184" data-name="Group 1184" clip-path="url(#clip-path-42)">
        <rect id="Rectangle_691" data-name="Rectangle 691" width="10.857" height="11.696" transform="matrix(0.521, -0.854, 0.854, 0.521, -3.537, 5.062)" fill="url(#linear-gradient-17)"/>
      </g>
    </g>
  </g>
</svg>
