<svg xmlns="http://www.w3.org/2000/svg" width="99" height="99" viewBox="0 0 99 99">
  <g id="Group_1265" data-name="Group 1265" transform="translate(-298 -4090)">
    <rect id="Rectangle_467" data-name="Rectangle 467" width="99" height="99" rx="20" transform="translate(298 4090)" fill="#f5f5f5"/>
    <rect id="Rectangle_468" data-name="Rectangle 468" width="87" height="87" rx="20" transform="translate(304 4096)" fill="#fff"/>
    <g id="Exp-4.-F--Updated-" transform="translate(310.471 4112.41)">
      <g id="Group_468" data-name="Group 468" transform="translate(0 0)">
        <g id="Group_467" data-name="Group 467" transform="translate(8.403)">
          <path id="Path_110" data-name="Path 110" d="M144.182,83.238c0-3.686-.762-11.059,8.6-11.059s8.6,7.373,8.6,11.059c0,4.915-5.168,11.059-8.6,11.059S144.182,88.2,144.182,83.238Z" transform="translate(-124.157 -72.151)" fill="#f19b48" fill-rule="evenodd"/>
          <path id="Path_111" data-name="Path 111" d="M232.79,81.394c0-3.108-.642-9.323,7.251-9.323s7.251,6.215,7.251,9.323c0,4.143-4.356,9.322-7.251,9.322S232.79,85.578,232.79,81.394Z" transform="translate(-190.052 -72.071)" fill="#f19b48" fill-rule="evenodd"/>
          <path id="Path_112" data-name="Path 112" d="M66.123,81.394c0-3.108-.642-9.323,7.251-9.323s7.251,6.215,7.251,9.323c0,4.143-4.357,9.322-7.251,9.322S66.123,85.578,66.123,81.394Z" transform="translate(-66.111 -72.071)" fill="#f19b48" fill-rule="evenodd"/>
        </g>
        <path id="Path_113" data-name="Path 113" d="M33.333,170.581l1.615-10.888a5.7,5.7,0,0,1,3.288-4.355l5.592-2.528a6.114,6.114,0,0,0,5.1,3.1,6.494,6.494,0,0,0,5.244-3.1l5.573,2.559a5.7,5.7,0,0,1,3.234,4.2l1.892,10.824c-4.249,4.867-8.561,5.934-15.862,5.934s-11.423-.866-15.674-5.743Z" transform="translate(-33.333 -132.112)" fill="#061455" fill-rule="evenodd"/>
        <path id="Path_114" data-name="Path 114" d="M199.207,170.39l1.778-10.765a5.7,5.7,0,0,1,3.274-4.263l5.647-2.553a6.114,6.114,0,0,0,5.1,3.1,6.494,6.494,0,0,0,5.244-3.1l5.518,2.534a5.7,5.7,0,0,1,3.25,4.289l1.728,10.948c-4.249,4.867-8.358,5.743-15.658,5.743s-11.626-1.057-15.877-5.934Z" transform="translate(-156.685 -132.112)" fill="#061455" fill-rule="evenodd"/>
        <path id="Path_115" data-name="Path 115" d="M96.2,189.015l2.422-13.239a5.7,5.7,0,0,1,3.557-4.291l8.782-3.382a7.273,7.273,0,0,0,6.064,3.69c4.123,0,6.238-3.69,6.238-3.69l8.667,3.387a5.7,5.7,0,0,1,3.519,4.223l2.575,13.3c-5.6,5.79-12.219,8.651-20.9,8.651S101.8,194.817,96.2,189.015Z" transform="translate(-80.086 -143.485)" fill="#62c5fa" fill-rule="evenodd"/>
        <path id="Path_116" data-name="Path 116" d="M119.438,226.706v8.611a1.424,1.424,0,0,0,2.848,0v-8.611a1.424,1.424,0,1,0-2.848,0Z" transform="translate(-97.365 -186.006)" fill="#2a7de4" fill-rule="evenodd"/>
        <path id="Path_117" data-name="Path 117" d="M225.006,226.706v8.611a1.424,1.424,0,0,0,2.848,0v-8.611a1.424,1.424,0,1,0-2.848,0Z" transform="translate(-175.87 -186.006)" fill="#2a7de4" fill-rule="evenodd"/>
        <path id="Path_118" data-name="Path 118" d="M168.558,182.5H166.1l-2.349,12.92a1.424,1.424,0,0,0,.262,1.109l2.178,2.9a1.424,1.424,0,0,0,2.279,0l2.178-2.9a1.424,1.424,0,0,0,.262-1.109l-2.349-12.92Z" transform="translate(-130.3 -154.19)" fill="#061455" fill-rule="evenodd"/>
      </g>
    </g>
    <rect id="Rectangle_469" data-name="Rectangle 469" width="99" height="99" rx="20" transform="translate(298 4090)" fill="#f5f5f5"/>
    <rect id="Rectangle_470" data-name="Rectangle 470" width="87" height="87" rx="20" transform="translate(304 4096)" fill="#fff"/>
    <g id="Exp-4.-F--Updated--2" data-name="Exp-4.-F--Updated-" transform="translate(317.528 4112.41)">
      <g id="Group_462" data-name="Group 462" transform="translate(0 0)">
        <path id="Path_92" data-name="Path 92" d="M93.278,54.611A4.611,4.611,0,0,0,88.667,50H37.944a4.611,4.611,0,0,0-4.611,4.611V89.195a4.611,4.611,0,0,0,4.611,4.611H88.667a4.611,4.611,0,0,0,4.611-4.611V54.611Z" transform="translate(-33.333 -50)" fill="#f5f5f5" fill-rule="evenodd"/>
        <path id="Path_93" data-name="Path 93" d="M93.278,227.778H33.333v2.306a4.611,4.611,0,0,0,4.611,4.611H88.667a4.611,4.611,0,0,0,4.611-4.611v-2.306Z" transform="translate(-33.333 -190.889)" fill="#061455" fill-rule="evenodd"/>
        <path id="Path_94" data-name="Path 94" d="M145.711,156.709a10.749,10.749,0,0,0-3.458-1.153,6.061,6.061,0,0,1-4.6,2.306,6.134,6.134,0,0,1-4.623-2.306,10.521,10.521,0,0,0-3.458,1.153,13.849,13.849,0,0,0-1.851,2.272,2.29,2.29,0,0,0,.866,3.529,24.92,24.92,0,0,0,9.275,2.269,23.037,23.037,0,0,0,8.966-2.234,2.275,2.275,0,0,0,.812-3.52A13.917,13.917,0,0,0,145.711,156.709Z" transform="translate(-107.737 -133.653)" fill="#62c5fa" fill-rule="evenodd"/>
        <path id="Path_95" data-name="Path 95" d="M149.932,84.695s-.45-6.917,5.825-6.917,5.678,6.917,5.678,6.917c0,3.5-3.378,6.917-5.678,6.917S149.932,88.194,149.932,84.695Z" transform="translate(-125.732 -72.014)" fill="#f19b48" fill-rule="evenodd"/>
        <path id="Path_96" data-name="Path 96" d="M141.819,261.111H125.68l-3.458,9.222h23.056Z" transform="translate(-103.777 -217.305)" fill="#19319f" fill-rule="evenodd"/>
        <path id="Path_97" data-name="Path 97" d="M131.125,300H101.153a1.153,1.153,0,1,0,0,2.306h29.972a1.153,1.153,0,1,0,0-2.306Z" transform="translate(-86.167 -248.125)" fill="#061455" fill-rule="evenodd"/>
        <circle id="Ellipse_41" data-name="Ellipse 41" cx="2.466" cy="2.466" r="2.466" transform="translate(49.238 5.869)" fill="#ff4a64"/>
      </g>
    </g>
  </g>
</svg>
