<svg xmlns="http://www.w3.org/2000/svg" width="99" height="99" viewBox="0 0 99 99">
  <g id="Group_1264" data-name="Group 1264" transform="translate(-1030 -4090)">
    <rect id="Rectangle_465" data-name="Rectangle 465" width="99" height="99" rx="20" transform="translate(1030 4090)" fill="#f5f5f5"/>
    <rect id="Rectangle_466" data-name="Rectangle 466" width="87" height="87" rx="20" transform="translate(1036 4096)" fill="#fff"/>
    <g id="Exp-4.-F--Updated-" transform="translate(1048.376 4109.673)">
      <g id="Group_750" data-name="Group 750" transform="translate(0 0)">
        <path id="Path_643" data-name="Path 643" d="M235.751,219.452a5.188,5.188,0,0,1-5.187,5.188H211.111V202.594A2.594,2.594,0,0,1,213.7,200h19.453a2.594,2.594,0,0,1,2.594,2.594Z" transform="translate(-173.503 -164.986)" fill="#061455" fill-rule="evenodd"/>
        <path id="Path_644" data-name="Path 644" d="M107.06,109.654H55.187A5.188,5.188,0,0,1,50,104.467V52.594A2.593,2.593,0,0,1,52.594,50h46.8a2.593,2.593,0,0,1,2.594,2.594v51.99a5.071,5.071,0,0,0,5.071,5.071Z" transform="translate(-50 -50)" fill="#f5f5f5" fill-rule="evenodd"/>
        <path id="Path_645" data-name="Path 645" d="M131.915,162.408c-.956-.789-3.89-1.3-3.89-1.3a6.818,6.818,0,0,1-5.174,2.594,6.9,6.9,0,0,1-5.2-2.594s-2.944.5-3.891,1.3a15.593,15.593,0,0,0-2.082,2.556,2.576,2.576,0,0,0,.974,3.969,28.029,28.029,0,0,0,10.434,2.552,25.916,25.916,0,0,0,10.087-2.513,2.559,2.559,0,0,0,.913-3.959,15.648,15.648,0,0,0-2.17-2.606Z" transform="translate(-96.846 -135.175)" fill="#62c5fa" fill-rule="evenodd"/>
        <path id="Path_646" data-name="Path 646" d="M133.826,91.114s-.506-7.781,6.553-7.781,6.388,7.781,6.388,7.781c0,3.937-3.8,7.781-6.388,7.781S133.826,95.051,133.826,91.114Z" transform="translate(-114.252 -75.552)" fill="#f19b48" fill-rule="evenodd"/>
        <g id="Group_749" data-name="Group 749" transform="translate(7.781 44.092)">
          <path id="Path_647" data-name="Path 647" d="M84.63,241.483h35.014a1.3,1.3,0,0,0,0-2.594H84.63a1.3,1.3,0,1,0,0,2.594Z" transform="translate(-83.333 -238.889)" fill="#061455" fill-rule="evenodd"/>
          <path id="Path_648" data-name="Path 648" d="M84.63,269.261h35.014a1.3,1.3,0,0,0,0-2.594H84.63a1.3,1.3,0,1,0,0,2.594Z" transform="translate(-83.333 -260.183)" fill="#061455" fill-rule="evenodd"/>
        </g>
      </g>
    </g>
  </g>
</svg>
