<svg xmlns="http://www.w3.org/2000/svg" width="62.091" height="62.046" viewBox="0 0 62.091 62.046">
  <g id="Layer_3" data-name="Layer 3" transform="translate(0.047 0.046)">
    <path id="Path_4427" data-name="Path 4427" d="M42.253,23.216a.969.969,0,1,0-1.526,1.194,11.508,11.508,0,0,1,2.461,7.153,11.625,11.625,0,1,1-5.366-9.8.969.969,0,0,0,1.044-1.633,13.572,13.572,0,1,0,3.391,3.084Z" transform="translate(-0.563 -0.563)" fill="#fff"/>
    <path id="Path_4428" data-name="Path 4428" d="M45.767,41.656a.977.977,0,0,1-.11-1.231,17.318,17.318,0,0,0,2.259-5.213l2.495,1.248c-.011.117-.036.232-.036.352a3.887,3.887,0,1,0,.686-2.193L48.29,33.232a17.7,17.7,0,0,0,.026-4.3,17.127,17.127,0,0,0-2.667-7.336l2.2-2.2a8.741,8.741,0,1,0-1.37-1.37L44.5,20a17.393,17.393,0,0,0-11.254-6.3c-.426-.053-.852-.085-1.276-.109V11.486a3.875,3.875,0,1,0-1.938,0v2.107A17.329,17.329,0,0,0,19.374,18l-3.85-3.85a8.741,8.741,0,1,0-1.37,1.37L18,19.374A17.341,17.341,0,0,0,13.592,30.03H11.486a3.875,3.875,0,1,0,0,1.938h2.107c.022.424.055.85.109,1.276a17.147,17.147,0,0,0,3.444,8.3l-2.994,2.994a8.741,8.741,0,1,0,1.37,1.37l2.889-2.889a17.378,17.378,0,0,0,10.518,5.3,17.809,17.809,0,0,0,3.24.078l.646,2.585a3.86,3.86,0,1,0,2.06-.6c-.071,0-.137.017-.207.021l-.562-2.247a17.244,17.244,0,0,0,6.32-2.493.976.976,0,0,1,1.23.11L57.039,61.148A2.9,2.9,0,0,0,59.094,62a1.913,1.913,0,0,0,.235-.01,2.914,2.914,0,0,0,2.131-1.21,2.987,2.987,0,0,0-.388-3.815Zm8.483-6.781a1.938,1.938,0,1,1-1.938,1.938A1.938,1.938,0,0,1,54.25,34.874ZM53.281,5.811A6.781,6.781,0,1,1,46.5,12.593a6.781,6.781,0,0,1,6.781-6.781ZM8.717,58.125A6.781,6.781,0,1,1,15.5,51.343a6.781,6.781,0,0,1-6.781,6.781ZM36.812,54.25a1.938,1.938,0,1,1-1.938-1.938A1.938,1.938,0,0,1,36.812,54.25Zm-7.75-46.5A1.938,1.938,0,1,1,31,9.686,1.938,1.938,0,0,1,29.062,7.749ZM8.717,15.5A6.781,6.781,0,1,1,15.5,8.718,6.781,6.781,0,0,1,8.717,15.5ZM7.749,32.937A1.938,1.938,0,1,1,9.686,31,1.938,1.938,0,0,1,7.749,32.937Zm52.14,26.712a.969.969,0,0,1-.716.411.95.95,0,0,1-.764-.281L43.027,44.4a2.873,2.873,0,0,0-2.041-.849,2.966,2.966,0,0,0-1.611.484,15.538,15.538,0,1,1,4.654-4.658,2.9,2.9,0,0,0,.368,3.652L59.7,58.334a1.05,1.05,0,0,1,.185,1.315Z" transform="translate(0 0)" fill="#fff"/>
    <path id="Path_4429" data-name="Path 4429" d="M24,35.563v1.73a2.943,2.943,0,0,0,1.673,2.639,13.529,13.529,0,0,0,12.153,0A2.942,2.942,0,0,0,39.5,37.293v-1.73a7.758,7.758,0,0,0-4.826-7.169,3.875,3.875,0,1,0-5.848,0A7.758,7.758,0,0,0,24,35.563Zm5.813-9.688a1.938,1.938,0,1,1,1.938,1.938A1.938,1.938,0,0,1,29.813,25.875ZM31.75,29.75a5.818,5.818,0,0,1,5.813,5.813v1.73a1,1,0,0,1-.57.889,11.522,11.522,0,0,1-10.486,0,1,1,0,0,1-.57-.889v-1.73A5.818,5.818,0,0,1,31.75,29.75Z" transform="translate(-0.751 -0.688)" fill="#fff"/>
    <path id="Path_4430" data-name="Path 4430" d="M51.585,18.014a9.01,9.01,0,0,0,6.518,0,2.463,2.463,0,0,0,1.585-2.3,4.827,4.827,0,0,0-2.441-4.18,2.906,2.906,0,1,0-4.805,0A4.827,4.827,0,0,0,50,15.719,2.463,2.463,0,0,0,51.585,18.014Zm2.29-8.108a.969.969,0,1,1,.969.969A.969.969,0,0,1,53.875,9.906Zm.969,2.906a2.906,2.906,0,0,1,2.906,2.906.515.515,0,0,1-.329.484h0a7.023,7.023,0,0,1-5.153,0,.515.515,0,0,1-.33-.484A2.906,2.906,0,0,1,54.844,12.813Z" transform="translate(-1.563 -0.22)" fill="#fff"/>
    <path id="Path_4431" data-name="Path 4431" d="M11.246,51.539a2.906,2.906,0,1,0-4.805,0A4.827,4.827,0,0,0,4,55.719a2.463,2.463,0,0,0,1.585,2.3,9.01,9.01,0,0,0,6.518,0,2.463,2.463,0,0,0,1.585-2.3,4.827,4.827,0,0,0-2.441-4.18ZM7.875,49.906a.969.969,0,1,1,.969.969A.969.969,0,0,1,7.875,49.906Zm3.546,6.3h0a7.023,7.023,0,0,1-5.153,0,.515.515,0,0,1-.33-.484,2.906,2.906,0,0,1,5.813,0,.515.515,0,0,1-.329.484Z" transform="translate(-0.126 -1.469)" fill="#fff"/>
    <path id="Path_4432" data-name="Path 4432" d="M11.246,7.539a2.906,2.906,0,1,0-4.805,0A4.827,4.827,0,0,0,4,11.719a2.463,2.463,0,0,0,1.585,2.3,9.01,9.01,0,0,0,6.518,0,2.463,2.463,0,0,0,1.585-2.3,4.827,4.827,0,0,0-2.441-4.18ZM7.875,5.906a.969.969,0,1,1,.969.969A.969.969,0,0,1,7.875,5.906Zm3.546,6.3h0a7.023,7.023,0,0,1-5.153,0,.515.515,0,0,1-.33-.484,2.906,2.906,0,1,1,5.813,0,.515.515,0,0,1-.329.484Z" transform="translate(-0.126 -0.095)" fill="#fff"/>
  </g>
</svg>
