<svg xmlns="http://www.w3.org/2000/svg" xmlns:xlink="http://www.w3.org/1999/xlink" width="1920" height="888.994" viewBox="0 0 1920 888.994">
  <defs>
    <linearGradient id="linear-gradient" x1="0.5" y1="0.327" x2="0.5" y2="0.75" gradientUnits="objectBoundingBox">
      <stop offset="0" stop-color="#061455" stop-opacity="0"/>
      <stop offset="1" stop-color="#061455"/>
    </linearGradient>
    <clipPath id="clip-path">
      <rect id="Rectangle_755" data-name="Rectangle 755" width="1920" height="888.994" transform="translate(0 5638)" fill="url(#linear-gradient)"/>
    </clipPath>
    <clipPath id="clip-path-2">
      <rect id="Rectangle_640" data-name="Rectangle 640" width="1067.839" height="1078.374" fill="none"/>
    </clipPath>
    <clipPath id="clip-path-4">
      <rect id="Rectangle_629" data-name="Rectangle 629" width="1062.158" height="1062.167" fill="none"/>
    </clipPath>
    <clipPath id="clip-path-5">
      <path id="Path_4555" data-name="Path 4555" d="M1065.3,534.818c0,293.312-237.767,531.086-531.077,531.086S3.141,828.13,3.141,534.818,240.915,3.737,534.222,3.737,1065.3,241.519,1065.3,534.818" transform="translate(-3.141 -3.737)" fill="none"/>
    </clipPath>
    <radialGradient id="radial-gradient" cx="0.263" cy="0.331" r="0.711" gradientUnits="objectBoundingBox">
      <stop offset="0" stop-color="#fff"/>
      <stop offset="0.394" stop-color="#fdfdfd"/>
      <stop offset="0.536" stop-color="#f6f6f6"/>
      <stop offset="0.638" stop-color="#eaeaea"/>
      <stop offset="0.72" stop-color="#d9d9d9"/>
      <stop offset="0.791" stop-color="#c3c3c4"/>
      <stop offset="0.853" stop-color="#a8a8a9"/>
      <stop offset="0.909" stop-color="#878789"/>
      <stop offset="0.959" stop-color="#636365"/>
      <stop offset="1" stop-color="#404042"/>
    </radialGradient>
    <clipPath id="clip-path-6">
      <rect id="Rectangle_630" data-name="Rectangle 630" width="583.97" height="1052.971" fill="none"/>
    </clipPath>
    <clipPath id="clip-path-7">
      <rect id="Rectangle_631" data-name="Rectangle 631" width="360.087" height="944.863" fill="none"/>
    </clipPath>
    <clipPath id="clip-path-8">
      <rect id="Rectangle_632" data-name="Rectangle 632" width="669.475" height="648.937" fill="none"/>
    </clipPath>
    <clipPath id="clip-path-9">
      <rect id="Rectangle_633" data-name="Rectangle 633" width="113.067" height="281.179" fill="none"/>
    </clipPath>
    <clipPath id="clip-path-10">
      <rect id="Rectangle_634" data-name="Rectangle 634" width="938.771" height="1062.168" fill="none"/>
    </clipPath>
    <clipPath id="clip-path-11">
      <rect id="Rectangle_635" data-name="Rectangle 635" width="997.256" height="1032.995" fill="none"/>
    </clipPath>
    <clipPath id="clip-path-12">
      <rect id="Rectangle_637" data-name="Rectangle 637" width="192.712" height="651.495" fill="none"/>
    </clipPath>
    <clipPath id="clip-path-13">
      <rect id="Rectangle_638" data-name="Rectangle 638" width="154.967" height="613.647" fill="none"/>
    </clipPath>
  </defs>
  <g id="Mask_Group_79" data-name="Mask Group 79" transform="translate(0 -5638)" clip-path="url(#clip-path)">
    <rect id="Rectangle_627" data-name="Rectangle 627" width="1920" height="1280.994" transform="translate(0 5638)" fill="#061455"/>
    <g id="Group_1071" data-name="Group 1071" transform="translate(317.952 5920.329)">
      <g id="Group_1070" data-name="Group 1070" transform="translate(823.014 -140.811) rotate(60)" clip-path="url(#clip-path-2)">
        <g id="Group_1069" data-name="Group 1069">
          <g id="Group_1068" data-name="Group 1068" clip-path="url(#clip-path-2)">
            <path id="Path_4553" data-name="Path 4553" d="M1065.3,536.971c0,293.31-237.767,531.084-531.077,531.084S3.141,830.282,3.141,536.971,240.914,5.887,534.222,5.887,1065.3,243.672,1065.3,536.971" transform="translate(1.665 3.12)" fill="#62c5fa"/>
            <path id="Path_4554" data-name="Path 4554" d="M1067.837,540.1s-.061,3.266-.188,9.581c-.249,6.313.035,15.684-1.062,27.9a508.335,508.335,0,0,1-17.275,104.591c-12.2,43.96-31.375,96.938-66.015,150.935-34.308,53.819-82.932,109.542-148.535,154.272a549.02,549.02,0,0,1-109.386,57.161c-39.871,15.584-83.4,25.358-128.494,30.6-90.422,10.362-188.3-4.012-278.121-45.22-89.6-41.072-170.682-108.417-227.6-194.648C33.616,749.622,1.03,645.365,0,540.1a591.142,591.142,0,0,1,4.911-78.739c3.811-26.034,8.9-51.927,16.361-77.151A539.646,539.646,0,0,1,86.98,242.138c57.1-87.255,139.239-155.38,230.008-195.864,45.241-20.706,92.951-33.668,140.241-40.682,11.879-1.435,23.658-3.213,35.478-3.834,5.9-.39,11.775-.99,17.65-1.2Q519.174.348,527.94.141c12.211-.476,23.107.4,34.618.532C574.09,1.6,585.765,2.139,597.038,3.6c45.2,5.473,88.725,15.58,128.621,31.289A549.914,549.914,0,0,1,834.993,92.428c65.562,44.933,114.158,100.688,148.431,154.554,34.651,54.018,53.838,107.013,65.986,150.995a507.857,507.857,0,0,1,17.2,104.6c1.089,12.206.8,21.615,1.045,27.929.119,6.326.181,9.6.181,9.6m-1.758-.024s-.093-3.24-.3-9.541c-.323-6.294-.144-15.668-1.388-27.81A503.5,503.5,0,0,0,1046,398.916c-5.785-21.995-14.694-45.631-25.905-70.574a506.872,506.872,0,0,0-43.307-77.006C941.479,199.167,891.5,146.845,826.867,104.58A535.765,535.765,0,0,0,595.032,21.392c-10.939-1.378-21.843-1.825-32.934-2.71q-8.5-.2-17.077-.4l-8.578-.2-8.242.193q-8.471.227-17,.454c-5.681.22-11.351.828-17.054,1.219-11.424.629-22.8,2.4-34.27,3.817-22.81,3.632-45.8,8.118-68.388,14.946-11.41,3-22.518,7.163-33.849,10.815-11.059,4.385-22.415,8.22-33.274,13.369C236.295,101.21,156.267,166.6,99.856,250.7,43.039,334.429,10.72,436.661,9.61,540.1a581.207,581.207,0,0,0,4.928,77.324c3.782,25.553,8.791,50.971,16.161,75.712A529.68,529.68,0,0,0,95.678,832.263C152.263,917.4,233.36,983.556,322.6,1021.285c10.991,5.093,22.478,8.88,33.656,13.2,11.444,3.618,22.679,7.68,34.221,10.535,22.842,6.559,46.035,10.759,69.013,14.093,11.548,1.27,23.031,2.89,34.41,3.36,5.713.318,11.311.841,17.064.985q8.673.142,17.295.275c11.173.454,22.559-.453,33.719-.6,11.146-.935,22.281-1.45,33.219-2.9a540.9,540.9,0,0,0,231.921-84.269C891.7,933.5,941.652,881.159,976.936,828.937a506.812,506.812,0,0,0,43.309-77.034c11.2-24.952,20.1-48.605,25.87-70.6a505.7,505.7,0,0,0,18.314-103.831c1.224-12.12,1.042-21.54,1.362-27.833.2-6.308.289-9.558.289-9.558" transform="translate(0 0)" fill="#0065d0"/>
            <g id="Group_1043" data-name="Group 1043" transform="translate(4.806 5.717)" style="mix-blend-mode: multiply;isolation: isolate">
              <g id="Group_1042" data-name="Group 1042">
                <g id="Group_1041" data-name="Group 1041" clip-path="url(#clip-path-4)">
                  <g id="Group_1040" data-name="Group 1040" transform="translate(0)">
                    <g id="Group_1039" data-name="Group 1039" clip-path="url(#clip-path-5)">
                      <rect id="Rectangle_628" data-name="Rectangle 628" width="1062.158" height="1062.167" transform="translate(0)" fill="url(#radial-gradient)"/>
                    </g>
                  </g>
                </g>
              </g>
            </g>
            <g id="Group_1046" data-name="Group 1046" transform="translate(59.96 10.31)" style="mix-blend-mode: multiply;isolation: isolate">
              <g id="Group_1045" data-name="Group 1045">
                <g id="Group_1044" data-name="Group 1044" clip-path="url(#clip-path-6)">
                  <path id="Path_4556" data-name="Path 4556" d="M391.095,1044.6c5.971,3.438,11.827,7.2,17.925,10.347a64.239,64.239,0,0,0,6.057,3.052c3.129.608,6.267,1.166,9.417,1.715q6.235-12.459,12.474-24.921a78.219,78.219,0,0,0-4.094-12.61c-3.274-7.688-7.853-15.8-9.383-24.1-2.63-14.271-1.6-29.952,7.326-42.212,11-15.141,30.673-32,33.7-51.289.707-4.518,1.383-9.79,4.059-13.655,13.552-19.616,32.917-34.438,47.71-53.383,19.7-25.235,26.308-49.494,37.074-79.027,9.466-25.95,37-50.045,35.192-79.133-2.417-38.919-45.5-40.952-73.72-54.119-29.117-13.568-62.52-28.974-79.475-57.9-15.474-26.38-24.192-69.517-50.937-86.92-12.7-8.263-17.171.771-28.346-1.938-8.3-2.006-15.567-6.137-23.7-8.314-25.024-6.721-46.3,15.069-61.937,30.862-6.365,6.411-27.694,28.544-37.756,15.119-16.592-22.134-25.645-80.82,17.414-71.752,25.324,5.35,57.491-19.423,44.852-47.045-5.191-11.351-14.639-12.875-24.394-16.133-9.679-3.239-19-6.017-25.125-14.47-6.611-9.122,8.872-19.408,15.156-21.843,15.974-6.189,46.783-15.789,61.426-1.9,9.677,9.189,24.49,32.746,39.068,30.466,31.02-4.85,27.784-25.6,37.166-45.623,10.678-22.749,37.706-21.429,58.859-21.02,32.2.62,62.768-8.623,93.981,2.3,25.15,8.814,32.128-13.1,40.565-32.711,5.3-12.313,10.107-24.793,14.957-37.29,5.248-13.546,13.768-27.279,16.031-41.662,4.8-30.624-24.3-57.112-54.09-57.181-37.033-.067-73.473,8.591-110.711,3.028-12.319-1.845-24.576-4.717-32.945-14.909C412.883,113.793,407,93.356,385.16,90.956a4.6,4.6,0,0,1-3.456-7.1c14.908-26.557,39.768-20.951,64.61-31.667,17.244-7.423,25.35-25.572,31.793-45.452C285.3,20.028,120.861,136.252,39.19,300.843c13.554.635,33.785,1.235,40.091,11.436,4.44,7.166,5.679,13.286,6.337,21.689,1.5,19.1,8.008,24.43,23.661,30.466,47.17,18.191,26.214,96.99,55.336,129.738,11.667,13.115,43.9,50.354,9.259,59.864-13.413,3.695-27.132,2.159-40.827,3.4-49.288,4.467-1.958,49.927,14.186,64.526,33.931,30.688,13.653,51.179-8.666,83.426-12.579,18.193,20.818,40.847,27.694,60.317,10.561,29.911,8.37,57.351,11.8,88.109,3.236,29.042,19.781,24.456,36.393,36.9a203.078,203.078,0,0,1,27.763,25.058c19.793,21.465,43.325,42.074,59.445,66.573,14.463,21.979,44.53,31.952,66.171,45.959,2.139,1.391,11.958,7.91,23.262,16.286" transform="translate(-39.191 -6.739)" fill="#84d1f6"/>
                </g>
              </g>
            </g>
            <g id="Group_1049" data-name="Group 1049" transform="translate(706.877 98.025)" style="mix-blend-mode: multiply;isolation: isolate">
              <g id="Group_1048" data-name="Group 1048">
                <g id="Group_1047" data-name="Group 1047" clip-path="url(#clip-path-7)">
                  <path id="Path_4557" data-name="Path 4557" d="M585.321,64.07C566.863,84.1,553.739,106.041,574,128.312c11.643,12.809,33.125,27.605,26.009,47.149-3.032,8.334-15.694,13.8-23.531,15.191-29.822,5.281-25.3,45.639-24.268,68.819.8,17.986.866,35.284-1.9,53.082-6.216,40.016,38.165,27.106,58.4,11.845,1.816-1.371,5.8-3.049,7.267-.066,4.758,9.685,5.616,17.778,6.277,28.561,1.643,26.97,23.693,17.644,40.8,12.621,16.6-4.87,29.446-7.922,41.575,5.673,10.289,11.522-4.027,31.8,21.383,37.206,10.919,2.333,15,5.675,22.073,14.385,13.158,16.185-5.272,42.863-10.064,57.675-1.16,3.585-4.777,7.475-8.8,5.144-20.208-11.726-55.654-41.422-71.067-10.131-4.168,8.452-10.442,16.886-21.415,15.378-20.11-2.76-58.754-34.751-70.19-2.829-4.688,13.066-8.161,27.382-16.213,38.924-11.77,16.871-24.723,21.912-44.1,27.047-48.117,12.8-15.44,45.024-9.353,71.769,2.621,11.545,4.079,24.276,8.753,35.214,7.14,16.718,24.1,5.771,34.237,4.568,11-1.311,20.635-.188,28.572,8.041,16.355,16.975,41.242,43.027,24.834,67.517-5.607,8.36-13.271,15.336-18.6,23.849-13.364,21.372-1.579,31.179,9.662,45.648,9.268,11.935,12.286,21.81,8.615,36.581-2.076,8.364-9.431,16.279-14.478,22.792-10.254,13.236-15.843,26.43-20.241,42.528-3.822,13.972-7.491,31.351-18.465,41.809-21.175,20.2-51.879,20.8-70.73,45.016-2.442,3.126-4.7,6.385-7.013,9.616,209.383-71.2,360.087-269.328,360.087-502.8,0-184.429-94.056-346.859-236.789-442.067m95.154,179.388a105.51,105.51,0,0,1-32.66,45.092c-2.29,1.816-6.875,2.878-7.81-1.1-3.026-12.878-4.673-28.393,3.438-39.9C651.3,236.411,663.93,233,677.03,233.427c3.669.119,4.527,3.1,3.722,5.984a7.256,7.256,0,0,1-.277,4.047" transform="translate(-462.023 -64.07)" fill="#84d1f6"/>
                </g>
              </g>
            </g>
            <g id="Group_1052" data-name="Group 1052" transform="translate(70.634 195.055)" opacity="0.3" style="mix-blend-mode: multiply;isolation: isolate">
              <g id="Group_1051" data-name="Group 1051">
                <g id="Group_1050" data-name="Group 1050" clip-path="url(#clip-path-8)">
                  <path id="Path_4558" data-name="Path 4558" d="M232.819,307.128C188,289.074,183.013,241.277,160.043,204.859c-18.366-29.114-43.354-46.309-71.126-53.9a531.319,531.319,0,0,0-42.75,65.528C102.442,212.847,154.35,239.9,158.059,311.5c2.558,49.344-13.262,91.348-37.285,133.679C93.216,493.746,48.962,552.03,48.439,610.213c-.257,28.768,22.194,104.011,66.351,77.52,20.136-12.07,34.834-29.814,52.222-45.212,14.57-12.9,55.076-43.443,72.786-17.692,26.205,38.113-4.66,89.46,30.174,128.321,63,70.329,105.583-36.757,129.084-83.264,13.283-26.292,32.31-58.345,63.544-65.709,15.532-3.641,28.365-3.445,43.844-.609,38.191,6.96,54.844-41.312,52.55-70.037-2.52-31.375-29.937-133.237,18.558-146.677,35.038-9.7,53.313,19.389,77.263,38.815,41.081,33.347,88.658-26.782,40.712-54.777-21.02-12.278-44.816-15.98-68.873-17.009-46.085-1.991-146.339,6.7-146.9-63.027-.317-39.776,20.087-75.762,19.859-115.489-.436-77.545-62.176-21.531-93.6,4.562-21.963,18.259-50.565,32.232-75.652,10.645-10.626-9.137-15.615-24.669-21.992-36.69-3.756-7.062-8.9-19.337-16.25-23.314-28.289-15.347-29.01,31.083-28.3,41.266,2.521,36.174,15.327,69.266,6.576,105.425-3.456,14.281-19.464,37.15-37.579,29.865" transform="translate(-46.167 -127.49)" fill="#1cb6f0"/>
                </g>
              </g>
            </g>
            <g id="Group_1055" data-name="Group 1055" transform="translate(4.806 346.03)" opacity="0.3" style="mix-blend-mode: multiply;isolation: isolate">
              <g id="Group_1054" data-name="Group 1054">
                <g id="Group_1053" data-name="Group 1053" clip-path="url(#clip-path-9)">
                  <path id="Path_4559" data-name="Path 4559" d="M81.8,374.866c21.632-31.188,44.251-70.176,29.9-109.643-16.42-45.177-53.428-51.35-79.74-17.524a529.972,529.972,0,0,0-21.586,259.65C23.453,455.235,51.48,418.565,81.8,374.866" transform="translate(-3.141 -226.169)" fill="#1cb6f0"/>
                </g>
              </g>
            </g>
            <g id="Group_1058" data-name="Group 1058" transform="translate(128.193 9.008)" opacity="0.3" style="mix-blend-mode: multiply;isolation: isolate">
              <g id="Group_1057" data-name="Group 1057">
                <g id="Group_1056" data-name="Group 1056" clip-path="url(#clip-path-10)">
                  <path id="Path_4560" data-name="Path 4560" d="M491.483,5.888a528.982,528.982,0,0,0-214.813,45.4c15.365,52.79,43.093,96.75,110.384,88.452,55.951-6.909,103.639-42.949,160.9-25.307,33.846,10.416,48.11,42.873,47.871,75.2-.156,21.79-10.107,42.983-18.929,62.357-8.718,19.184-26.464,51.315-7.183,71.578,17.282,18.141,44.534,26.028,68.192,16.239,57.239-23.694,8.129-92.824,24.8-133.734,22.708-55.72,102.92-84.051,154.751-53.079,57.88,34.58,42.175,103.075-1.047,143.538-32.371,30.3-119.3,94.675-47.38,133.267,34.573,18.568,73.053,16.718,108.716,30.347,61.677,23.542,70.1,78.215,28.829,126.834-23.352,27.5-57.771,43.377-92.7,49.181-50.785,8.427-100.9-32.978-151-12.61-128.244,52.146,71.452,270.186-96.79,316.881-57.058,15.818-62.794-60.479-78.32-95.087-25.411-56.628-62.62-11.6-77.04,26.184-11.366,29.779-18.555,61.258-30.832,90.652-25.006,59.9-83.495,50.9-117.432,4.818-27.042-36.725-47.689-100.29-103.107-95.469-24.118,2.09-50.53,7.755-75.566,5.707,97.422,116.6,243.87,190.824,407.695,190.824,293.31,0,531.077-237.776,531.077-531.084S784.793,5.888,491.483,5.888" transform="translate(-83.789 -5.888)" fill="#1cb6f0"/>
                </g>
              </g>
            </g>
            <path id="Path_4561" data-name="Path 4561" d="M314.463,308.918c14.376,3.344,19.426,20.592,25.812,31.5,19.666,33.554,23.673-1.974,31.834-15.534,7.595-12.6,5.474-22.34,21.161-29.608,15.671-7.252,32.46-10.408,49.45-13.133,23.182-3.738,44.246-6.7,67.754-4.235,36.705,3.822,59.87,7.679,76.458-36.228,8.022-21.243,23.28-64.43-11.9-73.825-24.346-6.5-45-1.955-69.107,2.895-23.952,4.819-44.093,6.242-67.881-.343-17.942-4.971-29.643-22.963-48.122-29.265-13.21-4.492-32.129-8.675-42.207-19.262-21.918-23.034,7.249-49.129,26.756-61.439,6.664-4.2,18.187-5.1,25.82-5.967,28.477-3.205,42.022-17.256,55.906-38.679q2.7-4.165,5.363-8.272C280.421,24.792,125.86,133,44.015,286.012c2.345,2.2,5.623,3.5,10.138,3.5a36.262,36.262,0,0,1,8.623.257c5.7,1.594,14.822,3.687,17.789,9.7,8.979,18.242,8.966,51.281,36.993,53.833,7.475.67,14.9,1.785,21.187,6.345,19.851,14.437,9.533,46.137,16.285,66.5,12.936,39.041,27.247,77.857,48.429,113.26,2.7,4.51.129,11.646-4.668,13.774-18.851,8.4-38.013,8.271-57.679,13.234-40.9,10.287,24.851,50.339,32.434,59.261,32.4,38.139-1.294,59.245-26.733,84.842,19,18.009,32.039,35.634,37.033,62.886,7.552,41.217,6.31,85.4,39.733,115.979,30.287,27.712,61.748,50.989,89.389,81.634,31.574,34.984,70.712,49.7,110.612,69.489-7.963-21.86-35.013-43.084-26.4-66.778,10.447-28.719,37.279-43.566,43.368-75.132,2.6-13.448,15.916-23.661,25.881-31.17,19.013-14.331,36.309-26.471,44.653-50.867,14.943-43.7,30.286-75.188,55.62-113.121,47.071-70.52-122.408-63.989-142.488-117.495-15.919-42.4-50.767-95.041-103.695-92.982-27.992,1.079-46.208,28.2-73.074,36.139-3.271,7.838-7.391,14.385-13.386,16.185-12.015,3.579-19.123-10.63-24.9-18.722-11.137-15.584-22.434-33.775-17.509-53.784,5.148-20.915,17.028-39,23-59.63-8.715-6.12-27.221-13.852-28.782-21.054-3.271-15.053-.841-30.689-.318-45.948a11.705,11.705,0,0,1,7.861-10.8c36.236-12.4,81.871-35.543,121.052-26.439" transform="translate(23.326 3.985)" fill="#72bb32"/>
            <path id="Path_4562" data-name="Path 4562" d="M315.645,309.633c8.984,2.261,14.835,10.258,18.924,18.055,4.132,7.945,7.844,16.286,13.819,23.026l2.456,2.274a22.6,22.6,0,0,0,2.873,1.652,6.148,6.148,0,0,0,6.03-1.576c3.1-3.222,4.784-7.524,6.507-11.626,1.685-4.163,3.155-8.418,5.058-12.512,2-4.064,4.345-7.887,5.932-12.084,1.651-4.152,3.159-8.464,5.748-12.224,2.6-3.8,6.515-6.368,10.5-8.461,4.114-1.911,8.334-3.395,12.494-5.113l13-3.781a471.427,471.427,0,0,1,53.247-8.768c17.9-1.972,36.1-1.222,53.9.929,8.915.721,17.96,1.209,26.67-.539a37.589,37.589,0,0,0,22.021-13.653c5.581-6.9,9.4-15.1,12.61-23.4a185.95,185.95,0,0,0,7.963-25.61c1.81-8.67,2.95-17.738,1.013-26.317a25.394,25.394,0,0,0-16.228-18.838c-16.817-6-35.139-5.332-52.695-2.293-17.654,3.012-35.155,7.558-53.449,8.017-9.06-.334-18.211-.422-27.05-2.714a53.378,53.378,0,0,1-25.148-10.424c-7.4-5.281-14.1-11.316-21.69-15.777-7.434-4.59-16.237-6.576-24.828-9.443-8.537-2.846-17.316-6.04-24.585-12.074a28.388,28.388,0,0,1-4.937-5.015,27.731,27.731,0,0,1-3.849-5.938c-1.934-4.371-3.069-9.288-2.221-14.062,1.432-9.555,7.091-17.539,13.318-24.137a113.5,113.5,0,0,1,21.187-17.269c2.375-1.3,4.188-1.951,6.31-2.957l6.957-1.77c4.547-.789,9.044-1.375,13.5-1.847,8.8-1.369,17.406-3.1,25.036-7.373a69.143,69.143,0,0,0,19.8-16.875c5.572-6.84,10.261-14.443,15.177-22l1.922,3.167-32.264,4.2L398.73,20.642c-10.552,2.486-20.994,5.422-31.494,8.113-10.392,3.074-20.618,6.713-30.93,10.04-10.193,3.678-20.154,7.977-30.244,11.928-9.949,4.292-19.622,9.209-29.447,13.773-9.66,4.9-19.013,10.395-28.537,15.558-9.331,5.5-18.337,11.544-27.521,17.282-8.959,6.082-17.6,12.641-26.409,18.932-8.551,6.651-16.79,13.692-25.2,20.515-8.1,7.183-15.921,14.689-23.892,22.01l-22.5,23.43-21.023,24.755-19.464,26L64.236,260.11,48.112,288.283l-.656-3.967a10.322,10.322,0,0,0,3.49,1.946,19.771,19.771,0,0,0,2.108.465l2.281.168-.292.012,9.412.263.252.037.156.047c5.594,1.7,12.172,2.777,17.662,8.236a17.142,17.142,0,0,1,2.941,4.689c.618,1.328,1.215,2.72,1.758,4.269,1.166,3.025,2.015,5.846,2.912,8.744,3.482,11.311,6.493,23.069,13.99,30.607a22.683,22.683,0,0,0,13.822,6.476c5.6.718,12.255,1.307,18.415,3.932l4.411,2.475,1.092.64a10.286,10.286,0,0,1,1.128.9l1.7,1.449a31.27,31.27,0,0,1,6.31,7.993c3.253,5.889,4.559,12.319,5.246,18.462,1.33,12.3.266,24.358,2.453,35.266,1.071,5.076,3.557,10.961,5.358,16.528l5.858,16.892c4.385,10.987,8.3,22.172,13.064,32.986,5.075,10.665,9.224,21.817,15.234,31.973L206.66,535.3l1.059,1.943.754,1.458.442,1.028a12.918,12.918,0,0,1,.814,3.309,16.6,16.6,0,0,1-.047,3.251,14.783,14.783,0,0,1-6.228,10.318l-1.453.858a7.9,7.9,0,0,1-1.457.6l-2.113.736-4.218,1.466c-2.863.909-5.511,2.117-8.556,2.788-6.03,1.235-12.379,2.837-18.147,3.652-5.916.924-11.779,1.929-17.416,3.172-5.658,1.114-11.749,2.272-14.827,4.948a4.539,4.539,0,0,0-1.932,4.155,14.652,14.652,0,0,0,2.613,6.267A70.154,70.154,0,0,0,147.1,597.725c8.531,7.919,17.957,14.77,27.458,22.588a27.791,27.791,0,0,1,3.833,3.781l2.7,3.556a53.261,53.261,0,0,1,5.2,7.9,40.988,40.988,0,0,1,5.82,18.8,35.748,35.748,0,0,1-4.461,19.3,71.182,71.182,0,0,1-11.063,15.321c-8.294,9.145-17.442,16.808-25.713,25.134l-.086-5.812A182.053,182.053,0,0,1,170.158,729.8a106.951,106.951,0,0,1,13.871,25.814c3.45,9.187,5.053,19,6.515,28.209l3.96,28.049c2.743,18.442,6.5,36.8,15.122,52.852a82.6,82.6,0,0,0,16.34,21.516c6.709,6.248,14.019,12.5,21,18.739l21.363,18.483c7.153,6.092,14.079,12.635,21.126,18.944,7.2,6.137,13.48,13.366,20.228,20.052,6.691,6.824,13.012,13.372,19.857,19.957l10.575,8.8c3.647,2.81,7.56,5.366,11.328,8.066a272.318,272.318,0,0,0,24.037,14.262c8.175,4.519,16.69,8.507,25.13,12.671l25.474,12.353-4.116,3.678c-5.863-15.551-19.112-28.255-25.686-45.581a39.072,39.072,0,0,1-2.358-13.912,30.559,30.559,0,0,1,1.209-7.108l.488-1.74a11.6,11.6,0,0,1,.713-1.74l1.363-2.983,2.716-5.967L404,957.374a121.184,121.184,0,0,1,7.694-11.007c10.8-13.863,22.207-27.167,26.355-43.644l1.865-6.368a27.827,27.827,0,0,1,2.671-6.489,47.744,47.744,0,0,1,8.392-10.991c6.4-6.447,13.655-11.566,20.6-16.811,6.917-5.283,13.835-10.511,19.888-16.553a82.288,82.288,0,0,0,15.013-20.4c6.9-15.6,11.768-32.737,19.255-48.607,3.781-7.945,6.856-16.251,11.193-23.907,4.22-7.706,8.283-15.517,12.612-23.145l14.051-22.272c2.341-3.712,4.593-7.278,6.652-11.126a36.17,36.17,0,0,0,3.644-11.686c.685-4.062-.318-8.051-1.7-11.807a32.062,32.062,0,0,0-7.466-9.726c-6.2-5.678-13.9-9.807-21.716-13.425-15.78-7.133-32.5-12.345-49.038-18.072-16.5-5.777-33.243-11.528-48.413-20.875-7.457-4.721-14.7-10.5-19.3-18.471-2.117-4.175-3.608-8.172-5.222-12.258-1.756-3.97-3.372-7.973-5.366-11.842a176.565,176.565,0,0,0-28.855-43.075c-11.885-12.465-26.373-23.011-43.133-27.363-8.233-2.234-17.085-3.262-25.465-2.075l-6.479.99-5.955,2.194c-4.067,1.149-7.671,3.837-11.534,5.7-14.718,9-28.177,21.1-45.34,26.49l.61-.552a49.559,49.559,0,0,1-5.379,9.934c-2.28,3.017-5.113,5.981-9.319,6.854a14.245,14.245,0,0,1-11.153-2.154,34.131,34.131,0,0,1-7.878-8.15c-2.244-3.017-4.166-6.15-6.291-9.175-2.105-3.039-4.244-6.054-6.2-9.239-2.073-3.1-3.788-6.415-5.577-9.682a72.61,72.61,0,0,1-4.217-10.382,49.478,49.478,0,0,1-2.312-10.984l-.15-5.643a55.142,55.142,0,0,1,.73-5.589c.355-3.886,2.075-7.134,3.043-10.737a94.307,94.307,0,0,1,3.747-10.457l8.866-20.4c3.224-6.678,5.277-13.77,7.9-20.662l.207.585c-7.576-5.17-16.178-8.907-23.587-14.642a17.291,17.291,0,0,1-4.772-5.239c-1.024-2.413-.8-4.619-1.255-6.938a72.829,72.829,0,0,1-.815-13.88c-.159-4.666.386-9.262.568-13.9.32-4.636.4-9.194.92-13.88a12.35,12.35,0,0,1,8.577-10.291l13.061-4.694,26.025-9.654c4.325-1.655,8.761-2.977,13.159-4.428a134.953,134.953,0,0,1,13.329-3.865c4.5-1.106,8.933-2.479,13.542-3.031,4.587-.58,9.109-1.811,13.745-1.86s9.264-.5,13.866-.243Zm0,0-13.759-1.79c-4.6-.237-9.241.229-13.857.308s-9.143,1.325-13.716,1.923c-4.6.571-9.027,1.963-13.511,3.1a135.069,135.069,0,0,0-13.3,3.923c-4.385,1.466-8.811,2.811-13.129,4.484L208.4,331.357l-13.04,4.758a11.656,11.656,0,0,0-8.121,9.844c-.48,4.492-.552,9.215-.845,13.8-.158,4.61-.682,9.242-.5,13.832a71.9,71.9,0,0,0,.875,13.776c.433,2.2.338,4.806,1.2,6.657a16.449,16.449,0,0,0,4.547,4.911c7.292,5.6,15.876,9.276,23.618,14.5a.511.511,0,0,1,.205.586c-2.6,6.945-4.654,14.135-7.843,20.827l-8.739,20.355a93.441,93.441,0,0,0-3.684,10.445c-.933,3.528-2.7,7.035-2.951,10.578a53.619,53.619,0,0,0-.682,5.405l.176,5.451c.523,3.576.959,7.249,2.3,10.661a70.791,70.791,0,0,0,4.174,10.136c1.775,3.211,3.476,6.473,5.543,9.521,1.932,3.112,4.093,6.126,6.215,9.158,2.143,3.023,4.114,6.195,6.3,9.1a32.539,32.539,0,0,0,7.478,7.7,12.217,12.217,0,0,0,9.957,1.824c3.164-.655,6-3.325,8.037-6.158a47.977,47.977,0,0,0,5.115-9.571,1.024,1.024,0,0,1,.618-.552c16.582-5.268,29.843-17.243,44.761-26.5,3.99-1.952,7.517-4.645,11.915-5.945l6.357-2.332,6.476-1.017a66.437,66.437,0,0,1,26.433,2c17.338,4.423,32.265,15.208,44.448,27.868a179.389,179.389,0,0,1,29.539,43.627c2.033,3.9,3.718,8.006,5.517,12.019,1.608,4.045,3.233,8.23,5.1,11.856,4.227,7.252,11.092,12.764,18.337,17.29,14.729,8.984,31.37,14.659,47.839,20.316,16.524,5.632,33.312,10.777,49.454,17.975,8.023,3.67,15.987,7.844,22.769,13.975a35.805,35.805,0,0,1,8.41,10.913c1.7,4.373,2.829,9.161,2.082,13.826A40.069,40.069,0,0,1,573.739,698c-2.041,3.859-4.449,7.725-6.756,11.4l-13.828,22.171c-4.27,7.587-8.239,15.327-12.38,22.983-4.259,7.595-7.25,15.774-10.935,23.633-7.391,15.824-11.987,32.568-19.154,48.992a86.882,86.882,0,0,1-15.82,21.748c-6.322,6.362-13.373,11.735-20.312,17.085-13.82,10.558-28.883,20.532-31.474,38.026-4.437,17.891-16.626,32.062-27.047,45.625a116.628,116.628,0,0,0-7.283,10.5l-3.286,5.323-2.693,5.984-1.345,2.985a6.853,6.853,0,0,0-.528,1.285l-.376,1.432a24.635,24.635,0,0,0-.975,5.785,33.526,33.526,0,0,0,2.088,11.772c5.855,15.653,19.1,28.179,25.919,45.484a2.945,2.945,0,0,1-4,3.738l-.115-.051-25.468-12.2c-8.488-4.135-17.077-8.11-25.422-12.673a274.38,274.38,0,0,1-24.634-14.472c-3.906-2.759-7.913-5.347-11.736-8.263l-11.2-9.25c-6.762-6.427-13.574-13.43-20.11-20.024-6.683-6.539-12.829-13.588-20.016-19.655-7.038-6.225-13.845-12.6-21.066-18.707l-21.5-18.4c-7.094-6.294-14.158-12.26-21.277-18.818A90.108,90.108,0,0,1,203.2,868.2c-9.382-17.29-13.3-36.528-16.19-55.2l-4.08-27.939c-1.53-9.36-3.048-18.266-6.274-26.754a98.448,98.448,0,0,0-12.919-23.76,174.3,174.3,0,0,0-18.539-20.37,4.066,4.066,0,0,1-.133-5.75l.049-.061c8.508-8.607,17.633-16.367,25.31-24.948,7.586-8.445,14.135-18.26,13.234-28.648A32.632,32.632,0,0,0,178.9,639.84a43.236,43.236,0,0,0-4.651-6.987l-2.726-3.537a22.38,22.38,0,0,0-2.575-2.436c-8.907-7.3-18.893-14.385-27.81-22.752a78.286,78.286,0,0,1-12.5-14.212,22.8,22.8,0,0,1-3.9-10.193,13.312,13.312,0,0,1,5.018-11.478c6.383-4.9,12.722-5.343,18.568-6.671,6.014-1.305,11.9-2.263,17.767-3.164,6.043-.831,11.264-2.2,16.931-3.25a87.965,87.965,0,0,0,8.436-2.7l4.229-1.447,2.113-.728c.151-.069,1.157-.369.606-.231l.462-.292a6.7,6.7,0,0,0,2.688-4.575c-.031-.39.1-1.014.034-1.2-.159-.286.283-.1-.188-1.016l-.438-1.03-.055-.127c-.069-.145.428.825.184.35l-.133-.249-.265-.5-1.073-1.987-8.563-15.918c-6.1-10.436-10.248-21.747-15.358-32.62-4.783-11.02-8.705-22.38-13.1-33.552l-5.777-16.918c-1.813-5.776-4.1-10.9-5.538-17.5-2.379-12.584-1.147-24.606-2.391-36-.592-5.658-1.775-11.146-4.3-15.742a24.437,24.437,0,0,0-11.15-10.367c-4.894-2.093-10.243-2.667-16.429-3.462a29.863,29.863,0,0,1-17.842-8.533c-9.444-9.828-12.11-22.486-15.624-33.63-.845-2.8-1.718-5.691-2.684-8.23a42.231,42.231,0,0,0-1.623-4,9.536,9.536,0,0,0-1.72-2.869c-3.017-3.23-8.808-4.806-14.47-6.372l.4.084-7.83-.252-.3.014-3.195-.245a25.4,25.4,0,0,1-3.231-.733,20.143,20.143,0,0,1-3.146-1.375,26.16,26.16,0,0,1-2.824-2.062,2.914,2.914,0,0,1-.759-3.79l.1-.184L58.742,256.72l18.177-27.376L96.74,203.139,118.124,178.2c7.624-7.852,15.125-15.837,22.861-23.578,8.093-7.373,16.036-14.917,24.258-22.139,8.53-6.859,16.892-13.935,25.563-20.6,8.932-6.322,17.688-12.9,26.771-19,9.3-5.76,18.431-11.817,27.882-17.321,9.64-5.173,19.112-10.678,28.89-15.572,9.939-4.57,19.729-9.481,29.788-13.762,10.2-3.949,20.278-8.23,30.578-11.9,10.424-3.309,20.754-6.928,31.253-9.978,10.6-2.667,21.152-5.577,31.8-8.032L430,10.262l32.541-4.076A2.032,2.032,0,0,1,464.5,9.314l-.028.043c-4.925,7.48-9.726,15.2-15.555,22.288A72.99,72.99,0,0,1,427.851,49.39c-8.213,4.532-17.527,6.362-26.43,7.677-4.483.445-8.906,1.016-13.217,1.735l-6.131,1.467c-1.941.9-4.354,1.86-5.91,2.7a109.839,109.839,0,0,0-20.6,16.618c-6.03,6.288-11.254,13.832-12.523,22.2-1.406,8.436,3.176,16.618,9.752,22.1,6.6,5.568,15.082,8.777,23.5,11.606,8.387,2.86,17.414,4.913,25.365,9.828,7.9,4.715,14.619,10.844,21.82,16.019a50.6,50.6,0,0,0,24.056,10.087c8.637,2.292,17.587,2.4,26.45,2.783,17.8-.343,35.379-4.767,53.131-7.728,17.645-2.991,36.614-3.6,53.838,2.67a28.944,28.944,0,0,1,11.34,7.872,29.617,29.617,0,0,1,6,12.446c1.981,9.065.737,18.326-1.131,27.134A188.872,188.872,0,0,1,589,242.413c-3.3,8.4-7.2,16.712-12.979,23.8a39.159,39.159,0,0,1-22.933,14.056c-8.984,1.755-18.122,1.195-27.07.435-17.891-2.241-35.8-3.06-53.682-1.187a470.9,470.9,0,0,0-53.169,8.5L406.243,291.7c-4.149,1.691-8.442,3.185-12.472,5.032-3.926,2.046-7.768,4.532-10.309,8.227-2.546,3.652-4.067,7.911-5.743,12.081-1.619,4.227-4.016,8.1-6,12.082-1.906,4.053-3.4,8.3-5.1,12.463-1.756,4.106-3.455,8.418-6.643,11.715a6.468,6.468,0,0,1-6.348,1.616,22.3,22.3,0,0,1-2.945-1.711l-2.477-2.315c-5.988-6.83-9.648-15.179-13.745-23.142-4.051-7.809-9.833-15.8-18.809-18.113" transform="translate(22.144 3.269)" fill="#098137"/>
            <path id="Path_4563" data-name="Path 4563" d="M792.522,362.814c-14.112-5.073-36.04-24.758-50.011-8.88-2.2,2.5-7.794,6.224-11.19,3.822-1.138.551-2.237,1.147-3.392,1.646a9.752,9.752,0,0,1-1.766.5c-.249.67-.419,1.457-.678,2.091-1.894,4.576-7.937,8.725-12.68,5.589-13.139-8.676-23.89-18.739-35.824-28.785-13.964-11.762-31.323,15.515-39.314,24.326a8.457,8.457,0,0,1-7.956,2.384c-21.927-6.7-66.067-26.644-72.006,7.985-2.521,14.677-6.235,20.2-16.588,30.881-10.956,11.3-29.182,19.911-42.487,28.44-17.752,11.409-4.328,70.774,20.619,62.768,23.675-7.595,48.536-7.021,67.171,11,16.828,16.259,47.886,43.272,49.087,68.639.343,7.235-1.2,14.522-6.567,19.949-17.471,17.676-30.474,35.559-22.793,61.679,9.968,33.9,12.693,41.078-1.363,75.282-11.513,28.006-25.394,48.676-49.6,67.459-15.962,12.387-31.907,23.976-44.017,37.46,173.4-86.9,292.652-265.832,293.475-472.808a26.841,26.841,0,0,1-12.12-1.424" transform="translate(259.956 178.013)" fill="#72bb32"/>
            <path id="Path_4564" data-name="Path 4564" d="M793.3,362.968c-10.5-4.114-19.727-11.239-30.743-14a22.732,22.732,0,0,0-8.341-.63,13.53,13.53,0,0,0-4.045,1.048,15.656,15.656,0,0,0-3.66,2.006c-2.2,1.692-3.92,4.031-6.368,5.568-2.29,1.509-5.48,2.739-8.172,1.134l.231.021a24.226,24.226,0,0,1-5.185,2.171l.153-.147c-1,4.244-4.518,8.273-9.114,8.872a7.988,7.988,0,0,1-6.212-2.2l-5.281-3.961L696,354.919c-3.453-2.731-6.755-5.665-10.131-8.493-3.412-2.739-6.608-5.944-10.2-8.3-3.617-2.384-8.312-1.8-12.052.312C656,342.644,650.38,349.72,644.86,356.463l-4.157,5.148c-1.467,1.686-2.83,3.548-5.274,4.315a9.494,9.494,0,0,1-6.866-.185l-6.29-2.039a224.475,224.475,0,0,0-25.289-7.2c-8.445-1.6-17.584-2.777-25.359.577-2.039.62-3.557,2.085-5.264,3.228-1.224,1.646-2.948,2.941-3.651,4.957l-1.38,2.8c-.335.991-.54,2.046-.816,3.057-.54,1.984-1.063,4.3-1.516,6.4-.514,2.143-.875,4.295-1.51,6.447l-2.648,6.394a56.417,56.417,0,0,1-7.887,10.99c-1.567,1.672-2.81,3.317-4.639,5l-4.98,4.327c-3.152,3.045-7.013,5.436-10.75,7.965-7.44,5.076-15.174,9.226-22.538,13.941a16.453,16.453,0,0,0-8.153,8.306,34.185,34.185,0,0,0-2.237,12.087,59.781,59.781,0,0,0,4.836,24.715c3.241,7.422,8.641,15.309,15.912,15.858,3.207.3,7.576-1.3,11.846-2.459a92.421,92.421,0,0,1,13.458-2.445,66.444,66.444,0,0,1,27.348,2.425c9.1,2.376,16.869,8.326,23.641,14.291,6.4,6.017,12.919,12,19.169,18.372,12.172,12.78,24.928,26.591,29.5,45.57a40.885,40.885,0,0,1,.773,7.417,32,32,0,0,1-.574,7.029c-.687,5.271-3.268,9.831-6.645,13.845-6.088,6.556-11.813,12.668-16.323,19.733a49.4,49.4,0,0,0-7.671,22.769l.162,6.017c.043,2.006.754,3.986,1.082,5.993.623,3.875,2.179,8.288,3.351,12.455,2.384,8.494,5.151,17.145,5.76,26.652a68.505,68.505,0,0,1-4.039,27.542c-1.242,4.451-3.136,8.435-4.679,12.662-1.756,4.611-3.719,8.144-5.563,12.266-1.981,3.961-3.514,8.008-5.874,11.9l-7.243,11.635a65.694,65.694,0,0,1-8.17,10.893c-2.941,3.438-5.8,6.98-8.839,10.33-6.816,5.84-13.406,12.31-20.437,17.576-13.912,10.782-28.082,21.147-39.631,33.765l-4.584-6.017,31.947-17.3,30.792-19.342,29.412-21.389c9.284-7.791,18.74-15.413,27.9-23.369,8.735-8.418,17.7-16.62,26.256-25.235,8.13-9.011,16.571-17.763,24.476-26.987,7.5-9.548,15.388-18.824,22.587-28.613,6.825-10.058,14.1-19.822,20.573-30.116,6.123-10.5,12.768-20.739,18.468-31.479,5.381-10.912,11.34-21.569,16.26-32.7,4.6-11.264,9.876-22.287,13.932-33.768,3.77-11.589,8.135-23,11.418-34.727,2.965-11.822,6.463-23.522,8.982-35.438,2.153-11.992,4.732-23.935,6.533-35.979,1.328-12.122,2.925-24.216,4.038-36.355l1.579-36.565.051.041c-2.049-.021-4.1.017-6.147-.047Zm0,0,5.982,1.375c2.042.05,4.089,0,6.138.006.02,0,.043.011.043.034v.009l-1.328,36.58c-1.048,12.16-2.544,24.279-3.807,36.416-1.714,12.081-4.218,24.039-6.294,36.073-2.44,11.961-5.869,23.694-8.759,35.559-3.216,11.779-7.5,23.249-11.213,34.88-4.019,11.524-9,22.711-13.457,34.086-4.741,11.265-10.535,22.059-15.757,33.108-5.548,10.9-12.044,21.282-18.018,31.964-6.32,10.47-13.476,20.419-20.189,30.665-7.082,9.977-14.847,19.469-22.255,29.222-7.8,9.438-16.159,18.415-24.225,27.649-8.478,8.845-17.376,17.283-26.069,25.947-9.12,8.194-18.532,16.066-27.8,24.114l-29.412,22.161-30.913,20.059-32.294,17.769a3.83,3.83,0,0,1-4.688-5.924l.086-.1C521.307,821.1,535.7,810.5,549.5,799.637c7.029-5.358,12.942-11.358,19.486-16.973,2.844-3.2,5.493-6.548,8.253-9.807a59.6,59.6,0,0,0,7.578-10.237l6.68-10.808c2.192-3.637,3.79-7.887,5.719-11.813,1.721-3.918,3.969-8.161,5.269-11.814,1.452-4.036,3.309-8.066,4.408-12.119a60.042,60.042,0,0,0,3.814-24.282c-.428-8.124-2.948-16.466-5.271-24.883-2.324-8.179-5.326-17.556-4.741-27.233a57.469,57.469,0,0,1,9.1-26.67c5.023-7.794,11.479-14.539,17.383-20.812,2.231-2.7,4.244-6.037,4.672-9.585a24.435,24.435,0,0,0,.542-6.1,35.276,35.276,0,0,0-.584-5.682c-3.53-15.827-15.446-29.55-27.166-42.033-5.975-6.31-12.325-12.344-18.653-18.506-6.268-5.635-12.764-10.89-20.89-13.161a60.447,60.447,0,0,0-24.819-2.6,86.185,86.185,0,0,0-12.524,2.047l-6.386,1.689c-2.084.266-5,1.305-7.509.721-5.451-.324-9.688-3.872-12.841-7.338a42.143,42.143,0,0,1-7.142-12.027,64.53,64.53,0,0,1-4.775-26.806,38.51,38.51,0,0,1,2.821-13.672c1.011-2.039,2.632-4.946,4.269-6.106l1.235-1.1.883-.739.711-.427,2.863-1.691c7.553-4.637,15.439-8.727,22.614-13.45,3.611-2.339,7.321-4.51,10.589-7.543l5.056-4.243c1.441-1.27,2.939-3.106,4.4-4.613,5.976-6.437,10.4-13.409,11.79-22.373.512-2.2,1-4.169,1.637-6.432.315-1.1.565-2.22.95-3.3l1.577-3.1c.858-2.185,2.8-3.729,4.253-5.52,1.937-1.3,3.738-2.884,5.982-3.553,8.725-3.517,18.052-2,26.627-.262a223.486,223.486,0,0,1,25.347,7.691l6.259,2.085a8.123,8.123,0,0,0,5.993.254c3.872-1.513,6-5.838,8.956-9.024,5.607-6.726,11.282-13.837,19.239-18.171,3.856-2.192,9.1-2.835,13.028-.19,3.755,2.517,6.792,5.635,10.213,8.427,3.36,2.843,6.625,5.791,10.053,8.542l10.52,8,5.246,4a7.333,7.333,0,0,0,5.777,2.124c4.276-.545,7.706-4.269,8.719-8.462a.2.2,0,0,1,.153-.147A23.523,23.523,0,0,0,732,357.706a.268.268,0,0,1,.239.02c2.359,1.447,5.434.381,7.69-1.106,2.375-1.449,4.116-3.781,6.378-5.5a16.187,16.187,0,0,1,3.753-2.023,13.992,13.992,0,0,1,4.126-1.039,22.834,22.834,0,0,1,8.424.695c11.068,2.852,20.214,10.035,30.691,14.218" transform="translate(259.176 177.859)" fill="#098137"/>
            <path id="Path_4565" data-name="Path 4565" d="M556.831,69.859a97.99,97.99,0,0,0-7.68,7.423c-27.663,30.081,13.269,59.314,28.785,82.751,8.283,12.514,23.294,48.074,39.572,51.9,14.718,3.445,48.35,7.526,40.735,31.583-9.653,30.569-35.438,51.708-47.251,80.973-.034.1-.129.19-.17.292-1.7,4.492-3.276,9.019-4.553,13.612-1.79,6.481-3.865,12.893,6.336,12.413,8.075-.393,15.6-3.273,22.7-7.044,10.769-5.728,20.711-12.844,31.428-18.621a8.107,8.107,0,0,1,6.481-.617c3.375-1.509,6.821-.927,7.9,3.687,5.144,21.774,37.118,11.724,39.141,35.042.6,6.775-.633,13.684-.9,19.923a158.155,158.155,0,0,0,6.761,17.229,25.557,25.557,0,0,0,7.451,3.38c.335.086.679.153,1.014.257,12.951-3.669,28.245-5.057,36.028,7.166a42.474,42.474,0,0,1,3.147,5.9C750.441,274.132,670.175,150.329,556.831,69.859" transform="translate(286.065 37.023)" fill="#72bb32"/>
            <path id="Path_4566" data-name="Path 4566" d="M557.041,69.859c-6.284,6.158-12.969,12.738-15.208,21.311-2.425,8.473-.257,17.543,4.125,25.1,8.638,15.46,22.383,27.168,33.088,41.852,5.17,7.566,9.148,15.543,13.725,23.118,4.492,7.6,9.256,15.107,15.139,21.279,2.933,3.029,6.328,5.644,9.842,6.651,4.025,1.06,8.588,1.759,12.959,2.8,8.727,2.13,18.029,4.3,25.668,11.132a18.849,18.849,0,0,1,6.207,14.042c.119,2.755-.566,4.9-1.235,7.7l-2.367,6.256c-3.019,8.344-8.034,16.767-12.772,24.251-4.965,7.57-10.151,14.864-15.215,22.108-4.931,7.292-9.835,14.6-13.4,22.412l-2.745,5.838c-.693,1.536-1.4,4.073-2.1,6.057-1.371,4.269-2.991,8.52-3.667,12.272-.36,2.027.024,2.595.024,2.384-.188.132.747.182,1.2.379l2.306.063c2.142-.329,4.578-.448,6.49-.95a49.912,49.912,0,0,0,5.667-1.718c7.768-2.739,15.076-7.833,22.885-12.327l11.548-6.9,5.771-3.456,1.928-.826a19.954,19.954,0,0,1,2.76-.635,12.711,12.711,0,0,1,5.153.571l-3.086.115a10.141,10.141,0,0,1,8.753-.176c3.36,1.5,4.611,5.574,4.926,6.713.584,1.654,1.167,3.669,1.836,4.305a13.465,13.465,0,0,0,2.486,3c4.311,3.771,11.137,5.451,18.208,8.194a30.349,30.349,0,0,1,10.6,6.386,18.817,18.817,0,0,1,4.01,5.488,20.661,20.661,0,0,1,1.928,6.339l.277,1.6a11.418,11.418,0,0,1,.05,1.749l-.026,2.693-.043,5.387c-.136,3.618-.548,7.3-.8,10.942l-.223-1.554,6.516,16.776-1.467-1.732A29.509,29.509,0,0,0,732.1,398.6a38.762,38.762,0,0,0,3.848,1.32h-2.321a76.847,76.847,0,0,1,12.036-2.359,38.8,38.8,0,0,1,6.345-.234,25.8,25.8,0,0,1,6.511.8c2.206.274,4.315,1.392,6.432,2.263a13.688,13.688,0,0,1,2.93,1.882,32.488,32.488,0,0,1,2.751,2.165l2.206,2.67,1.086,1.354.266.341c.112.17-.066-.147.283.427l.086.159.343.638,2.7,5.109-7.706,2.624-4.777-25.627L759.1,366.783l-7.278-25.035c-2.7-8.259-5.684-16.426-8.514-24.646-3.094-8.124-6.5-16.124-9.729-24.2-3.462-7.977-7.2-15.829-10.783-23.753-3.825-7.817-7.974-15.466-11.943-23.209-4.209-7.619-8.727-15.059-13.072-22.6-4.6-7.4-9.474-14.614-14.187-21.941-4.974-7.154-10.185-14.135-15.26-21.219l-16.3-20.454-17.188-19.74-18.132-18.893L597.649,103.1,577.734,86.025Zm0,0,21.381,15.3,20.538,16.433,19.707,17.461L637.5,137.482,655.41,156.84l16.828,20.315c5.264,7.047,10.658,14,15.807,21.132,4.911,7.3,9.988,14.509,14.769,21.9,4.546,7.54,9.261,14.98,13.669,22.61,4.165,7.758,8.517,15.425,12.532,23.269,3.781,7.962,7.775,15.829,11.366,23.878,3.335,8.164,6.842,16.26,10.021,24.479,2.924,8.32,6.008,16.588,8.794,24.957l7.552,25.359,6.286,25.709,5,25.993a4.109,4.109,0,0,1-7.653,2.726l-.054-.1L767.6,413.97l-.343-.633-.087-.159c.275.48.026.069.061.148l-.188-.217-.754-.883-1.46-1.8c-.548-.523-1.216-.887-1.805-1.354-.655-.39-1.125-1.042-1.9-1.236-1.467-.513-2.769-1.351-4.449-1.5a18.043,18.043,0,0,0-4.92-.566,30.588,30.588,0,0,0-5.188.231,68.517,68.517,0,0,0-10.6,2.151,4.4,4.4,0,0,1-2.042.064l-.289-.058a48.755,48.755,0,0,1-4.894-1.662,38.261,38.261,0,0,1-4.829-2.531,3.112,3.112,0,0,1-1.412-1.587l-.061-.151-7-17.674a3.434,3.434,0,0,1-.234-1.446l.02-.119c.239-3.514.591-6.984.754-10.532l.092-5.389.046-2.69c-.011-.266.031-1.307-.011-.935l-.2-1.056a12.25,12.25,0,0,0-1.123-3.929,10.212,10.212,0,0,0-2.286-3.143,22.049,22.049,0,0,0-7.734-4.595c-6.147-2.59-13.887-4.12-20.627-9.85a21.457,21.457,0,0,1-4.268-5.315,22.914,22.914,0,0,1-2.341-5.568c-.669-2.231-.77-1.867-.77-1.987.145-.032-.586-.19-1.639.308a3.74,3.74,0,0,1-2.529.252l-.557-.138a5.077,5.077,0,0,0-1.449-.155c-.164.077-.239.029-.513.043a9.67,9.67,0,0,1-1.167.459l-5.719,3.38-11.459,6.758-11.539,6.762a71.775,71.775,0,0,1-12.722,6.007,53.708,53.708,0,0,1-7.14,2.053c-2.417.557-4.483.61-6.739.946a37.577,37.577,0,0,1-4.371-.107,14.732,14.732,0,0,1-2.427-.647,5.679,5.679,0,0,1-2.5-1.349,7.82,7.82,0,0,1-3.019-5.289,14.847,14.847,0,0,1,.154-4.582c.985-5.029,2.664-9.117,4.019-13.324.8-2.208,1.242-4.016,2.332-6.551l2.968-6.258c3.915-8.384,9.07-15.936,14.154-23.362,5.168-7.364,10.542-14.452,15.472-21.724,4.87-7.489,9.308-14.369,12.567-22.734l2.485-6.209c.283-1.53,1.073-3.695.926-5.434a12.658,12.658,0,0,0-4.106-9.683c-5.658-5.395-14.4-8-22.775-10.11-4.281-1.1-8.565-1.822-13.133-3.1-5.05-1.6-8.814-4.874-12-8.24-6.308-6.9-10.988-14.685-15.422-22.489-4.474-7.783-8.194-15.97-12.893-23.277-9.815-14.454-23.436-26.839-31.838-42.992-4.243-7.9-6.351-17.63-3.4-26.36,2.768-8.891,9.738-15.05,16.279-20.99" transform="translate(285.855 37.023)" fill="#098137"/>
            <path id="Path_4567" data-name="Path 4567" d="M590.984,212.126A98.048,98.048,0,0,0,578.331,183.1c-.514-1.389-1.088-2.76-1.473-4.2-1.983-7.527-4.3-15.346-8.523-21.912-6.686-10.424-21.747-4.751-26.041,4.7-7.2,15.86-14.1,35.062-14.392,52.479-.216,12.483-.809,28.307,10.353,36.537,10.509,7.748,28.369.173,38.226-4.715,9.977-4.919,17.214-23.318,14.5-33.861" transform="translate(279.722 80.237)" fill="#72bb32"/>
            <path id="Path_4568" data-name="Path 4568" d="M592.438,212.972c-1.775-4.989-3.5-10-5.317-14.966l-7.809-13.747-.058-.116c-1.92-4.564-3.138-9.3-4.982-13.724a47.111,47.111,0,0,0-6.654-12.126c-.874-.759-1.706-1.963-2.587-2.359-.9-.254-1.585-.685-2.46-.95l-2.939-.26-2.991.552a15.917,15.917,0,0,0-9.151,7.581c-.889,1.276-1.678,4.3-2.535,6.354l-2.642,6.805-4.3,13.476c-1,4.582-2.186,9.152-3.06,13.721-.428,4.625-1.2,9.068-1.406,13.854a119.12,119.12,0,0,0,.112,14.042,31.7,31.7,0,0,0,3.285,12.532,15.782,15.782,0,0,0,9.342,8.063c3.464,1.366,8.647.926,13.1.262a79.481,79.481,0,0,0,13.718-4.056,24.537,24.537,0,0,0,11.649-7.8,40.046,40.046,0,0,0,6.652-12.763c1.233-4.66,2.041-9.564,1.037-14.377m0,0c1.1,4.792.393,9.738-.754,14.458a46.8,46.8,0,0,1-6.14,13.288,28.991,28.991,0,0,1-11.556,9.186,82.138,82.138,0,0,1-13.782,5.592c-4.974,1.108-9.783,2.479-15.748.929a21.536,21.536,0,0,1-13.049-9.354,34.538,34.538,0,0,1-5.425-15.026,94.551,94.551,0,0,1-.9-15.085c.1-4.939.812-10.136,1.222-15.2.97-4.959,2.368-9.793,3.551-14.685,1.628-4.749,3.421-9.472,5.229-14.1,2.176-4.561,3.635-8.572,6.609-13.5a21.848,21.848,0,0,1,13.7-9.322l4.243-.347c1.423.182,2.863.516,4.252.811a25.154,25.154,0,0,1,4.053,2.292,17.22,17.22,0,0,1,2.514,2.792c3.146,4.648,4.647,9.125,6.094,13.943,1.5,4.723,2.075,9.613,3.764,14.1l-.052-.116,7.166,14.265c1.709,5.009,3.335,10.052,5.008,15.075" transform="translate(278.268 79.391)" fill="#098137"/>
            <path id="Path_4569" data-name="Path 4569" d="M211.918,269.183c-8.975-9.842-24.671-12.4-33.821-1.44a4.2,4.2,0,0,0-2.443,2.965c-.052.376-.09.806-.142,1.2a16.226,16.226,0,0,0-.759,9.242c-.252,8.279,1,16.732,7.218,22.356,8.6,7.786,25.384,2.57,32.357-4.851,7.716-8.23,4.445-21.963-2.41-29.472" transform="translate(92.434 138.103)" fill="#72bb32"/>
            <path id="Path_4570" data-name="Path 4570" d="M213.149,269.479l-3.6-3.172c-1.337-.866-2.725-1.648-4.071-2.474-1.463-.618-3.009-1.033-4.484-1.556-1.55-.274-3.115-.419-4.645-.635-1.561.133-3.1.34-4.587.537-1.427.56-2.864.993-4.192,1.6-1.213.886-2.472,1.622-3.576,2.529l-2.837,3.253-.806.624c-.321.3-.707.643-.737.942-.119.155.035.2-.008.217-.021.292-.026.832-.043,1.233l-.188.71c-.107,1.3-.24,2.52-.425,3.713l.661,3.767.055.54,0,.249a43.649,43.649,0,0,0,1.449,10.291,19.08,19.08,0,0,0,4.334,8.025l.367.419.185.21.09.107c-1.051-.811-.28-.217-.511-.393l.021.014.035.023.076.049,1.187.809a26.111,26.111,0,0,0,2.332,1.509c1.268.047,1.9.9,3.7.913l2.358.309c.826-.061,1.651-.124,2.494-.124a25.994,25.994,0,0,0,5.109-.659,27.807,27.807,0,0,0,9.628-4.171,14.568,14.568,0,0,0,1.949-1.486l1.891-2.18a15.582,15.582,0,0,0,2.223-4.651l.656-2.684.06-2.794a26.217,26.217,0,0,0-.779-5.6,28.054,28.054,0,0,0-5.372-10.02m0,0a29.127,29.127,0,0,1,3.383,4.651,33.358,33.358,0,0,1,2.477,5.214A26.949,26.949,0,0,1,220.432,285a22.1,22.1,0,0,1,.133,5.961,18.355,18.355,0,0,1-1.723,6.048l-1.47,2.486a15.15,15.15,0,0,1-2.173,2.489,33.824,33.824,0,0,1-16.4,8.872,20.474,20.474,0,0,1-6.6.558c-2.1.188-5.015-.782-7.454-1.637-1.016-.488-1.681-1.011-2.543-1.519l-1.218-.762-.076-.047-.6-.454-.161-.158-.308-.314-.618-.626a24.1,24.1,0,0,1-6.339-12.01,41.446,41.446,0,0,1-.588-12.553l.06.783.073-5.581c.514-1.851,1.083-3.672,1.68-5.413l-.188.7.291-1.337a5.887,5.887,0,0,1,.982-2.157,7.354,7.354,0,0,1,3.107-2.443l-.8.623,4.154-3.319c1.53-.869,3.2-1.5,4.754-2.215,1.666-.436,3.395-.646,5.04-.946l5,.278c1.606.4,3.213.722,4.766,1.183l4.414,2.026c1.346.893,2.722,1.741,4.03,2.658Z" transform="translate(91.203 137.807)" fill="#098137"/>
            <g id="Group_1061" data-name="Group 1061" transform="translate(67.341 11.504)" opacity="0.4" style="mix-blend-mode: screen;isolation: isolate">
              <g id="Group_1060" data-name="Group 1060">
                <g id="Group_1059" data-name="Group 1059" clip-path="url(#clip-path-11)">
                  <path id="Path_4571" data-name="Path 4571" d="M193.413,335.356c36.236-12.4,81.871-35.543,121.052-26.439,14.376,3.344,19.426,20.592,25.812,31.5,19.665,33.552,23.672-1.974,31.834-15.535,7.595-12.6,5.473-22.341,21.161-29.608,15.671-7.252,32.46-10.407,49.45-13.133,23.18-3.738,44.246-6.7,67.753-4.235,36.707,3.823,59.87,7.68,76.46-36.226,8.022-21.243,23.28-64.431-11.9-73.827-24.346-6.5-45-1.955-69.107,2.895-23.953,4.819-44.093,6.244-67.881-.341-17.942-4.972-29.645-22.965-48.122-29.267-13.21-4.492-32.131-8.675-42.207-19.262-21.92-23.034,7.247-49.129,26.754-61.439,6.666-4.2,18.187-5.1,25.821-5.965,28.477-3.207,42.022-17.256,55.906-38.679q2.7-4.168,5.361-8.272a529.008,529.008,0,0,0-79.4,13.757c-4.371,12.182-9.6,23.849-20.856,32.129-21.453,15.774-106.736,52.764-61.215,81.388,46.085,28.974,41.541,35.867,5.962,68.065-22.217,20.111-36.188,47.99-61.169,65.031-6.669,4.561-20.076,5.607-27.827,4.888-27.856-2.607-49.312.958-72.647,18.514-7.771,5.847-20.257,12.861-30.084,6.755-23.863-14.776-35.212-40.357-54.985-38.729q-8.023,13.118-15.319,26.695c2.345,2.2,5.624,3.5,10.138,3.5a36.261,36.261,0,0,1,8.623.259c5.7,1.593,14.824,3.686,17.789,9.7,8.979,18.242,8.967,51.281,36.994,53.835,7.475.669,14.9,1.785,21.187,6.343,19.85,14.438,9.533,46.139,16.283,66.5,12.936,39.042,27.249,77.857,48.429,113.261,2.7,4.51.13,11.644-4.666,13.773-1.495.659-3,1.2-4.5,1.756,16.189,6.284,30.249,3.413,51.876-8.823,14.818-8.386,31.894-20.1,49.233-22.581,36.107-5.2,57.289,32.209,73.285,59.34,14.166,24.013-7.377,48.119-24.473,63.291C314.087,672.934,378,728.534,378.8,761.375c.194,7.905-2.347,17.986-8.97,23.217-25.272,19.939-21.932,38.635-23.437,66.151-.8,14.653-14,29.019-28.118,31.222-15.313,2.385-24.747-26.8-28.8-36.679-5.571-13.571-10.185-29.4-19.417-40.977C253.265,783.2,234.573,821.094,224.342,833c-2.632,3.069-7.4,6.42-11.406,3.393a113.508,113.508,0,0,0-21.259-12.18c4.5,24.182,12.113,47.069,31.9,65.176,30.287,27.712,61.748,50.989,89.389,81.636,31.572,34.984,70.71,49.7,110.612,69.489-7.965-21.862-35.015-43.085-26.4-66.78,10.445-28.717,37.277-43.566,43.367-75.13,2.6-13.448,15.916-23.661,25.882-31.17,19.013-14.333,36.309-26.471,44.653-50.867,14.942-43.7,30.286-75.19,55.619-113.122,47.072-70.52-122.408-63.987-142.488-117.495-15.919-42.4-50.766-95.041-103.693-92.982-27.992,1.079-46.209,28.2-73.075,36.141-3.27,7.836-7.39,14.385-13.386,16.185-12.015,3.577-19.121-10.632-24.9-18.722-11.135-15.586-22.432-33.777-17.507-53.784,5.147-20.916,17.028-39,22.994-59.63-8.713-6.12-27.221-13.854-28.782-21.055-3.27-15.053-.841-30.689-.317-45.946a11.7,11.7,0,0,1,7.861-10.8M403.176,188.047a36.513,36.513,0,0,1,5.346-1.648c16.719-3.514,34.4,8.041,48.148,15.843,4.388,2.486,2.125,8.745.3,11.9-10.306,17.709-34.384,30.965-52.161,39.484-12.977,6.225-40.05,20.1-53.92,8.507-26.574-22.186,21.406-84.611,52.293-74.084" transform="translate(-44.015 -7.519)" fill="#b8d424"/>
                  <path id="Path_4572" data-name="Path 4572" d="M789.459,362.785c-14.112-5.073-36.04-24.758-50.011-8.88-2.2,2.5-7.794,6.224-11.19,3.822-1.138.551-2.237,1.147-3.392,1.646a9.75,9.75,0,0,1-1.766.5c-.249.67-.419,1.457-.678,2.091-1.894,4.576-7.937,8.725-12.68,5.589-13.139-8.676-23.89-18.739-35.824-28.785a11.245,11.245,0,0,0-7.165-2.814c1.216,7.151,2.022,14.4,2.921,22.067,4,33.875,22.625,29.218,47.9,38.082,16.339,5.719,13.125,26.927,10.9,39.673-8.3,47.559-19.493,89.523-73.406,96.011-3.788.447-5.941-3.136-6.213-6.358-2.128-24.2,8.494-48.282,5.828-72.156-4.373-39.175-37.753-.78-50.466,3.121-15.67,4.818-26.566,3.384-41.629-3.317-32.247-14.334-51.263,6.96-66.289,32.968,5,7.595,11.819,12.105,19.888,9.507,23.675-7.595,48.536-7.021,67.171,11,16.828,16.259,47.886,43.272,49.087,68.639.343,7.235-1.2,14.522-6.567,19.949-17.471,17.676-30.474,35.559-22.793,61.679,9.968,33.9,12.693,41.078-1.363,75.282-11.513,28.006-25.394,48.676-49.6,67.459-15.962,12.387-31.907,23.976-44.017,37.46C681.5,750.113,800.756,571.186,801.58,364.21a26.841,26.841,0,0,1-12.12-1.424" transform="translate(195.678 166.538)" fill="#b8d424"/>
                  <path id="Path_4573" data-name="Path 4573" d="M577.643,90.865c1.062,10.1,1.781,20.521,2.194,31.6,1.8,47.648,54.041,27.741,71.119,62.461,10.62,21.586,21.9,72.506,10.148,95.739-6.345,12.549-10.824,18.773-23.658,25.081-17.094,8.418-25.754,19.085-33.881,31.857a67.037,67.037,0,0,0,11.675-4.971c10.769-5.727,20.711-12.844,31.428-18.621a8.107,8.107,0,0,1,6.481-.617c3.377-1.509,6.821-.927,7.9,3.687,5.142,21.774,37.117,11.726,39.141,35.042.6,6.775-.635,13.684-.9,19.923a158,158,0,0,0,6.762,17.23,25.522,25.522,0,0,0,7.451,3.378c.334.086.678.155,1.013.259,12.953-3.669,28.245-5.058,36.029,7.166a42.421,42.421,0,0,1,3.146,5.9A530.278,530.278,0,0,0,577.643,90.865" transform="translate(238.787 36.651)" fill="#b8d424"/>
                  <path id="Path_4574" data-name="Path 4574" d="M590.984,212.126A98.048,98.048,0,0,0,578.331,183.1c-.514-1.389-1.088-2.76-1.473-4.2-1.983-7.527-4.3-15.346-8.523-21.912-6.686-10.424-21.747-4.751-26.041,4.7-7.2,15.86-14.1,35.062-14.392,52.479-.216,12.483-.809,28.307,10.353,36.537,10.509,7.748,28.369.173,38.226-4.715,9.977-4.919,17.214-23.318,14.5-33.861" transform="translate(212.382 68.733)" fill="#b8d424"/>
                  <path id="Path_4575" data-name="Path 4575" d="M211.918,269.183c-8.975-9.842-24.671-12.4-33.821-1.44a4.2,4.2,0,0,0-2.443,2.965c-.052.376-.09.806-.142,1.2a16.226,16.226,0,0,0-.759,9.242c-.252,8.279,1,16.732,7.218,22.356,8.6,7.786,25.384,2.57,32.357-4.851,7.716-8.23,4.445-21.963-2.41-29.472" transform="translate(25.093 126.6)" fill="#b8d424"/>
                </g>
              </g>
            </g>
            <g id="Group_1064" data-name="Group 1064" transform="translate(12.616 129.485)" style="mix-blend-mode: overlay;isolation: isolate">
              <g id="Group_1063" data-name="Group 1063">
                <g id="Group_1062" data-name="Group 1062" clip-path="url(#clip-path-12)">
                  <path id="Path_4576" data-name="Path 4576" d="M200.958,84.633S-131.563,364.062,76.979,736.127c0,0-160.494-359.859,123.979-651.494" transform="translate(-8.246 -84.633)" fill="#fff"/>
                </g>
              </g>
            </g>
            <g id="Group_1067" data-name="Group 1067" transform="translate(896.072 296.563)" opacity="0.7" style="mix-blend-mode: multiply;isolation: isolate">
              <g id="Group_1066" data-name="Group 1066">
                <g id="Group_1065" data-name="Group 1065" clip-path="url(#clip-path-13)">
                  <path id="Path_4577" data-name="Path 4577" d="M686.35,193.837s118.788,375.53-100.667,613.647c0,0,266.355-200.327,100.667-613.647" transform="translate(-585.683 -193.837)" fill="#22613c"/>
                </g>
              </g>
            </g>
          </g>
        </g>
      </g>
    </g>
    <rect id="Rectangle_641" data-name="Rectangle 641" width="1920" height="1240.994" transform="translate(0 5638)" fill="url(#linear-gradient)"/>
    <g id="Group_1074" data-name="Group 1074" transform="translate(-60.695 271.355)">
      <path id="Union_6" data-name="Union 6" d="M22.727,0H242.274a22.726,22.726,0,1,1,0,45.453H22.727A22.726,22.726,0,1,1,22.727,0Z" transform="translate(690.195 6007.143)" fill="#f5f5f5"/>
      <text id="UI_UX_Designer_Brazil" data-name="UI/UX Designer, Brazil" transform="translate(717.695 6036.143)" fill="#061455" font-size="20" font-family="Ubuntu-Bold, Ubuntu" font-weight="700"><tspan x="0" y="0">UI/UX Designer, Brazil</tspan></text>
    </g>
    <g id="Group_1073" data-name="Group 1073" transform="translate(-177.268 132.68)">
      <path id="Union_4" data-name="Union 4" d="M70.638,0h185.5c13.616,0,24.654,10.239,24.654,22.869S269.75,45.738,256.134,45.738H70.638c-13.616,0-24.654-10.239-24.654-22.869S57.021,0,70.638,0Z" transform="translate(930.907 6007)" fill="#fff"/>
      <text id="Data_Analyst_Poland" data-name="Data Analyst, Poland" transform="translate(994.793 6036.395)" fill="#061455" font-size="20" font-family="Ubuntu-Bold, Ubuntu" font-weight="700"><tspan x="0" y="0">Data Analyst, Poland</tspan></text>
    </g>
    <g id="Group_1076" data-name="Group 1076" transform="translate(7.573 157)">
      <line id="Line_54" data-name="Line 54" y2="198" transform="translate(526.5 6052.5)" fill="none" stroke="#fff" stroke-width="2"/>
      <circle id="Ellipse_98" data-name="Ellipse 98" cx="8" cy="8" r="8" transform="translate(519 6243)" fill="#fff"/>
    </g>
    <g id="Group_1077" data-name="Group 1077" transform="translate(235 271.497)">
      <line id="Line_54-2" data-name="Line 54" y2="123" transform="translate(526.5 6052.5)" fill="none" stroke="#fff" stroke-width="2"/>
      <circle id="Ellipse_98-2" data-name="Ellipse 98" cx="8" cy="8" r="8" transform="translate(519 6167)" fill="#fff"/>
    </g>
    <g id="Group_1081" data-name="Group 1081" transform="translate(637.452 152.691)">
      <line id="Line_54-3" data-name="Line 54" y2="81.727" transform="translate(526.5 6093.773)" fill="none" stroke="#fff" stroke-width="2"/>
      <circle id="Ellipse_98-3" data-name="Ellipse 98" cx="8" cy="8" r="8" transform="translate(519 6167)" fill="#fff"/>
    </g>
    <g id="Group_1079" data-name="Group 1079" transform="translate(810.5 86.418)">
      <line id="Line_54-4" data-name="Line 54" y2="75.953" transform="translate(526.5 6014.547)" fill="none" stroke="#fff" stroke-width="2"/>
      <circle id="Ellipse_98-4" data-name="Ellipse 98" cx="8" cy="8" r="8" transform="translate(519 6082.5)" fill="#fff"/>
    </g>
    <g id="Group_1078" data-name="Group 1078" transform="translate(390.025 133.68)">
      <line id="Line_54-5" data-name="Line 54" y2="51" transform="translate(526.5 6052.5)" fill="none" stroke="#fff" stroke-width="2"/>
      <circle id="Ellipse_98-5" data-name="Ellipse 98" cx="8" cy="8" r="8" transform="translate(519 6095.5)" fill="#fff"/>
    </g>
    <g id="Group_1080" data-name="Group 1080" transform="translate(341.757 218.276)">
      <path id="Union_6-2" data-name="Union 6" d="M22.727,0H280.274a22.726,22.726,0,0,1,0,45.453H22.727A22.726,22.726,0,1,1,22.727,0Z" transform="translate(670.195 6007.143)" fill="#f5f5f5"/>
      <text id="Backend_Developer_Egypt" data-name="Backend Developer, Egypt" transform="translate(697.195 6036.143)" fill="#061455" font-size="20" font-family="Ubuntu-Bold, Ubuntu" font-weight="700"><tspan x="0" y="0">Backend Developer, Egypt</tspan></text>
    </g>
    <g id="Group_1075" data-name="Group 1075" transform="translate(4.073 194)">
      <path id="Union_3" data-name="Union 3" d="M22.727,0H204.274a22.726,22.726,0,1,1,0,45.453H22.727A22.726,22.726,0,1,1,22.727,0Z" transform="translate(415.927 6007)" fill="#fff"/>
      <text id="AI_Engineer_Kenya" data-name="AI Engineer, Kenya" transform="translate(440.927 6037)" fill="#061455" font-size="20" font-family="Ubuntu-Bold, Ubuntu" font-weight="700"><tspan x="0" y="0">AI Engineer, Kenya</tspan></text>
    </g>
    <g id="Group_1072" data-name="Group 1072" transform="translate(-31.5 87.502)">
      <path id="Union_5" data-name="Union 5" d="M23.542,0H265.313c13,0,23.541,10.175,23.541,22.726s-10.54,22.726-23.541,22.726H23.542C10.54,45.453,0,35.278,0,22.726S10.54,0,23.542,0Z" transform="translate(1224.573 6005.916)" fill="#f5f5f5"/>
      <text id="Product_Manager_Pakistan" data-name="Product Manager, Pakistan" transform="translate(1241.5 6034.916)" fill="#061455" font-size="20" font-family="Ubuntu-Bold, Ubuntu" font-weight="700"><tspan x="0" y="0">Product Manager, Pakistan</tspan></text>
    </g>
  </g>
</svg>
