<svg id="Layer_1" data-name="Layer 1" xmlns="http://www.w3.org/2000/svg" xmlns:xlink="http://www.w3.org/1999/xlink" viewBox="0 0 1097.87 575.49"><defs><style>.cls-1,.cls-28{fill:none;}.cls-2{clip-path:url(#clip-path);}.cls-3{clip-path:url(#clip-path-2);}.cls-4{fill:#62c5fa;}.cls-5{fill:#0065d0;}.cls-6{clip-path:url(#clip-path-4);}.cls-7{clip-path:url(#clip-path-5);}.cls-8{fill:url(#radial-gradient);}.cls-9{clip-path:url(#clip-path-6);}.cls-10{fill:#84d1f6;}.cls-11{opacity:0.3;}.cls-12{clip-path:url(#clip-path-7);}.cls-13{fill:#1cb6f0;}.cls-14{clip-path:url(#clip-path-8);}.cls-15{clip-path:url(#clip-path-9);}.cls-16{fill:#72bb32;}.cls-17{fill:#098137;}.cls-18{opacity:0.4;}.cls-19{clip-path:url(#clip-path-10);}.cls-20{fill:#b8d424;}.cls-21{clip-path:url(#clip-path-11);}.cls-22{fill:#fff;}.cls-23{fill:#f5f5f5;}.cls-24,.cls-25{isolation:isolate;}.cls-25{font-size:20px;fill:#061455;font-family:Arial-BoldMT, Arial;font-weight:700;}.cls-26{letter-spacing:-0.06em;}.cls-27{letter-spacing:-0.04em;}.cls-28{stroke:#fff;stroke-width:2px;}.cls-29{fill:url(#linear-gradient);}</style><clipPath id="clip-path"><rect class="cls-1" x="-390.81" y="-312.15" width="1920" height="888.99"/></clipPath><clipPath id="clip-path-2"><rect class="cls-1" x="10.98" y="27.43" width="1078.37" height="1067.84" transform="translate(-206.97 350.29) rotate(-30)"/></clipPath><clipPath id="clip-path-4"><rect class="cls-1" x="22.13" y="30.78" width="1062.17" height="1062.16" transform="translate(-206.81 351.88) rotate(-30)"/></clipPath><clipPath id="clip-path-5"><path class="cls-1" d="M818.76,1021.79c-254,146.65-578.82,59.63-725.47-194.38S33.66,248.59,287.68,101.93,866.5,42.31,1013.15,296.32s59.61,578.82-194.39,725.47"/></clipPath><radialGradient id="radial-gradient" cx="-390.47" cy="672.48" r="0.71" gradientTransform="matrix(0, 1062.16, 1062.17, 0, -713550.11, 415048.87)" gradientUnits="userSpaceOnUse"><stop offset="0" stop-color="#fff"/><stop offset="0.39" stop-color="#fdfdfd"/><stop offset="0.54" stop-color="#f6f6f6"/><stop offset="0.64" stop-color="#eaeaea"/><stop offset="0.72" stop-color="#d9d9d9"/><stop offset="0.79" stop-color="#c3c3c4"/><stop offset="0.85" stop-color="#a8a8a9"/><stop offset="0.91" stop-color="#878789"/><stop offset="0.96" stop-color="#636365"/><stop offset="1" stop-color="#404042"/></radialGradient><clipPath id="clip-path-6"><rect class="cls-1" x="-65.23" y="110.58" width="1052.97" height="583.97" transform="translate(-139.48 284.56) rotate(-30)"/></clipPath><clipPath id="clip-path-7"><rect class="cls-1" x="178.45" y="105.46" width="648.94" height="669.47" transform="translate(-152.72 310.44) rotate(-30)"/></clipPath><clipPath id="clip-path-8"><rect class="cls-1" x="218.81" y="69.27" width="281.18" height="113.07" transform="translate(-14.75 196.56) rotate(-30)"/></clipPath><clipPath id="clip-path-9"><rect class="cls-1" x="50.13" y="147.55" width="1062.17" height="938.77" transform="translate(-230.6 373.26) rotate(-30)"/></clipPath><clipPath id="clip-path-10"><rect class="cls-1" x="59.38" y="84.89" width="1032.99" height="997.26" transform="translate(-214.6 366.12) rotate(-30)"/></clipPath><clipPath id="clip-path-11"><rect class="cls-1" x="84.65" y="55" width="651.49" height="192.71" transform="translate(-20.7 225.48) rotate(-30)"/></clipPath><linearGradient id="linear-gradient" x1="-390.31" y1="672.45" x2="-390.31" y2="672.03" gradientTransform="matrix(1920, 0, 0, -1240.99, 749961.53, 834599.02)" gradientUnits="userSpaceOnUse"><stop offset="0" stop-color="#061455" stop-opacity="0"/><stop offset="1" stop-color="#061455"/></linearGradient></defs><g class="cls-2"><g id="Mask_Group_79" data-name="Mask Group 79"><g id="Group_1071" data-name="Group 1071"><g class="cls-3"><g id="Group_1070" data-name="Group 1070"><g id="Group_1069" data-name="Group 1069"><g class="cls-3"><g id="Group_1068" data-name="Group 1068"><path id="Path_4553" data-name="Path 4553" class="cls-4" d="M815.91,1023.44c-254,146.65-578.82,59.62-725.47-194.39S30.81,250.23,284.83,103.58,863.65,44,1010.3,298s59.61,578.82-194.39,725.47"/><path id="Path_4554" data-name="Path 4554" class="cls-5" d="M816.34,1024.19l-8.4,4.63c-5.59,2.94-13.56,7.87-24.69,13A508.72,508.72,0,0,1,684,1079.19c-44.18,11.41-99.64,21.3-163.73,18.29-63.76-2.8-136.33-17-207.87-51.49a549.24,549.24,0,0,1-104.19-66.16c-33.43-26.73-63.66-59.54-90.75-96C63.32,810.73,26.82,718.78,17.6,620.39c-9.23-98.14,8.55-202,54.77-294.44,45.4-92.66,119.4-173,210.05-226.53A592.32,592.32,0,0,1,353.06,64.3c24.45-9.71,49.42-18.25,75-24.4A539.75,539.75,0,0,1,584,25.77C688.06,31.59,788.13,68.66,868.58,127c40.55,28.82,75.63,63.66,105.35,101.11C981.11,237.71,988.54,247,995,257c3.29,4.91,6.74,9.7,9.86,14.68s6.11,10,9.16,15c6.51,10.34,11.2,20.21,16.84,30.25,5,10.45,10.34,20.83,14.71,31.32,17.86,41.88,30.87,84.63,37.21,127a549.67,549.67,0,0,1,4.84,123.46c-6.13,79.24-30.12,149.21-59.63,205.82-29.46,57-65.76,100.13-97.78,132.64a507.75,507.75,0,0,1-82,67.2c-10,7-18.32,11.5-23.67,14.87l-8.22,5m-.86-1.54s2.76-1.7,8.11-5,13.5-8,23.39-15.11a503.4,503.4,0,0,0,80.72-67.83c16.15-16,32.17-35.54,48.16-57.72a506.53,506.53,0,0,0,45-76c27.52-56.66,47.85-126.11,52.13-203.21a535.72,535.72,0,0,0-43.87-242.37c-4.28-10.16-9.34-19.83-14.12-29.88l-8.19-15-4.12-7.53-4.29-7-8.89-14.49c-3-4.81-6.39-9.42-9.58-14.16-6.26-9.58-13.48-18.55-20.45-27.77-14.55-17.94-29.93-35.61-47.13-51.75-8.31-8.39-17.47-15.92-26.29-23.91-9.33-7.39-18.33-15.3-28.22-22.13C780.65,84.61,684,48,583,41.2,482.05,33.86,377.36,57,287.22,107.74a581.1,581.1,0,0,0-64.5,42.93c-20.24,16.05-39.75,33.1-57.49,51.85a529.48,529.48,0,0,0-88,125.84C31.8,419.93,15.05,523.24,27,619.39c1.08,12.07,3.55,23.91,5.4,35.75,2.58,11.72,4.68,23.48,8,34.9,5.74,23.07,13.7,45.25,22.3,66.82,4.68,10.63,9,21.39,14.3,31.48,2.58,5.1,4.93,10.21,7.68,15.27s5.61,10.09,8.41,15.11c5.19,9.91,11.67,19.31,17.38,28.9,6.38,9.19,12.39,18.58,19.12,27.32a540.84,540.84,0,0,0,188.94,158.72c69.06,34.7,139.37,51.78,202.23,56.23a506.45,506.45,0,0,0,88.37-1c27.21-2.78,52.15-6.9,74.08-12.9a505.41,505.41,0,0,0,99.08-36c11.1-5,19.17-9.87,24.78-12.74s8.42-4.53,8.42-4.53"/><g id="Group_1043" data-name="Group 1043"><g id="Group_1042" data-name="Group 1042"><g class="cls-6"><g id="Group_1041" data-name="Group 1041"><g id="Group_1040" data-name="Group 1040"><g class="cls-7"><g id="Group_1039" data-name="Group 1039"><rect id="Rectangle_628" data-name="Rectangle 628" class="cls-8" x="22.13" y="30.78" width="1062.17" height="1062.16" transform="translate(-206.81 351.88) rotate(-30)"/></g></g></g></g></g></g></g><g id="Group_1046" data-name="Group 1046"><g id="Group_1045" data-name="Group 1045"><g class="cls-9"><g id="Group_1044" data-name="Group 1044"><path id="Path_4556" data-name="Path 4556" class="cls-10" d="M48.35,710.14c0,6.89-.33,13.84,0,20.7a66.62,66.62,0,0,0,.38,6.77c1,3,2.13,6,3.23,9L79.78,745a77.47,77.47,0,0,0,8.87-9.85c5-6.68,9.76-14.7,16.18-20.17,11-9.41,25.14-16.36,40.22-14.76,18.61,2,43,10.56,61.27,3.54,4.26-1.65,9.17-3.7,13.85-3.32,23.77,1.93,46.28,11.29,70.09,14.63,31.7,4.44,56-2,87-7.4,27.21-4.78,61.84,7,86.13-9.09,32.5-21.56,12.72-59.88,10-90.91-2.81-32-6.17-68.63,10.41-97.77,15.1-26.6,48.1-55.71,49.8-87.58.81-15.13-9.25-14.48-12.49-25.51-2.42-8.2-2.47-16.55-4.65-24.69-6.69-25-36.2-32.56-57.7-38.2-8.73-2.31-38.57-9.72-32-25.14,10.87-25.44,57.17-62.62,70.85-20.8,8,24.61,45.56,40.08,63.16,15.32,7.24-10.17,3.83-19.11,1.78-29.19s-4.29-19.46,0-29c4.59-10.29,21.24-2,26.49,2.2,13.35,10.74,37.07,32.62,32.36,52.25-3.12,13-16.11,37.58-6.85,49.06,19.71,24.44,36.06,11.27,58.09,9.38,25-2.13,37.42,21.94,47.64,40.46,15.56,28.2,38.85,50.05,45,82.54,4.94,26.19,27.41,21.28,48.61,18.78,13.31-1.57,26.52-3.65,39.77-5.69,14.35-2.23,30.51-1.72,44.1-6.95,28.92-11.16,37.31-49.6,22.47-75.44-18.46-32.1-44.18-59.33-58-94.36-4.56-11.59-8.2-23.64-3.56-36,6.67-17.71,21.43-33,12.59-53.14a4.6,4.6,0,0,1,2.22-6.12,4.49,4.49,0,0,1,2.2-.42c30.45-.37,38,24,59.73,40.12,15.05,11.22,34.82,9.16,55.26,4.8C882.75,106.23,699.88,21.94,516.51,33.5c6.22,12.06,15.82,29.88,10.14,40.44-4,7.43-8.67,11.56-15.62,16.33-15.79,10.85-17.15,19.15-14.55,35.73,7.83,49.94-70.89,71.2-84.69,112.79-5.52,16.66-21.66,63.2-47.21,38-9.91-9.77-15.44-22.42-23.36-33.66-28.51-40.45-44.22,23.27-48.79,44.55-9.61,44.73-37.49,37.41-76.58,34.21-22-1.8-25,38.45-38.39,54.14-20.62,24.1-45.48,35.93-70.4,54.28-23.54,17.32-11.29,29.35-13.76,50a203.74,203.74,0,0,1-7.82,36.57c-8.7,27.88-14.78,58.56-27.94,84.77-11.8,23.52-5.4,54.54-6.71,80.29-.14,2.55-.87,14.31-2.47,28.29"/></g></g></g></g><g id="Group_1052" data-name="Group 1052" class="cls-11"><g id="Group_1051" data-name="Group 1051"><g class="cls-12"><g id="Group_1050" data-name="Group 1050"><path id="Path_4558" data-name="Path 4558" class="cls-13" d="M554.31,239.53c-6.78-47.84,32.12-76.06,52.18-114.16,16-30.46,18.42-60.7,11.11-88.54a531.25,531.25,0,0,0-78.12-4.26C570.77,79.48,573.29,138,513.14,177c-41.45,26.88-85.74,34.18-134.41,34.55-55.84.41-128.44-8.77-179.09,19.87-25,14.16-79,71.22-34,96.22,20.52,11.4,43.24,15.26,65.26,22.62,18.46,6.17,65.17,26,51.72,54.19-19.91,41.75-79.81,40.69-96,90.29-29.41,89.72,84.62,73.06,136.65,70.16,29.41-1.64,66.68-1.19,88.68,22.17,10.91,11.63,17.16,22.85,22.44,37.67,13.07,36.55,63.2,26.84,86.93,10.49,25.92-17.87,100.42-92.54,136.31-57.27,25.92,25.5,9.86,55.87,5,86.32-8.34,52.25,67.52,63.39,67.79,7.87.12-24.34-8.57-46.8-19.71-68.15-21.32-40.9-79-123.38-18.86-158.73,34.28-20.16,75.65-20.49,109.94-40.55,66.94-39.15-12.44-64.61-50.75-78.78-26.79-9.89-53.19-27.67-47-60.19,2.6-13.77,13.55-25.86,20.77-37.39,4.24-6.78,12.3-17.38,12.07-25.73C736,170.44,695.44,193,687,198.73c-30.06,20.27-52.32,47.91-88,58.41-14.1,4.15-41.9,1.72-44.65-17.61"/></g></g></g></g><g id="Group_1055" data-name="Group 1055" class="cls-11"><g id="Group_1054" data-name="Group 1054"><g class="cls-14"><g id="Group_1053" data-name="Group 1053"><path id="Path_4559" data-name="Path 4559" class="cls-13" d="M363.44,149c37.83,3.14,82.9,3.23,109.91-28.93,30.91-36.81,17.75-71.95-24.7-77.82A530.08,530.08,0,0,0,213,153.4c51.67-14.73,97.44-8.79,150.44-4.38"/></g></g></g></g><g id="Group_1058" data-name="Group 1058" class="cls-11"><g id="Group_1057" data-name="Group 1057"><g class="cls-15"><g id="Group_1056" data-name="Group 1056"><path id="Path_4560" data-name="Path 4560" class="cls-13" d="M1010.3,298A529.11,529.11,0,0,0,863.58,134.63c-38,39.7-62.25,85.7-21.41,139.82,34,45,89,68.28,102.36,126.69,7.91,34.52-13.07,63.11-41.19,79.06-19,10.76-42.27,12.74-63.46,14.79-21,2-57.68,2.74-65.58,29.57-7.07,24-.28,51.58,20,67.17,49.14,37.72,84.45-39.37,128.22-45.39,59.6-8.19,124.25,47.11,123.34,107.48-1,67.42-68.18,88.06-124.83,70.86-42.43-12.88-141.64-56-139.1,25.6,1.2,39.23,22,71.63,28.07,109.33,10.45,65.18-32.68,99.81-95.43,88.38-35.49-6.47-66.45-28.34-88.94-55.69C593,852.53,603.77,788.43,561.08,755.23c-109.28-85-198.26,197-322.82,74.61-42.23-41.5,21-84.62,43.19-115.37,36.33-50.32-21.26-60-61.2-53.62-31.47,5-62.33,14.56-93.92,18.62C62,687.77,40.5,632.61,63.44,580.18c18.29-41.78,63-91.44,31.13-137-13.87-19.84-32-39.88-42.73-62.58C-.43,523.24,8.52,687.18,90.43,829.05c146.66,254,471.46,341,725.47,194.39S1157,552,1010.3,298"/></g></g></g></g><path id="Path_4561" data-name="Path 4561" class="cls-16" d="M648.07,278.36c4.29,14.12-8.12,27.12-14.37,38.1-19.23,33.81,13.54,19.51,29.37,19.8,14.71.28,22.08-6.43,36.22,3.52s25.24,22.91,36.1,36.26c14.82,18.21,27.92,35,37.54,56.56,15,33.7,23.29,55.69,69.6,48.1,22.41-3.67,67.44-12.05,58-47.22-6.55-24.33-20.81-39.94-37.06-58.4S836,340,829.81,316.12c-4.66-18,5.07-37.15,1.29-56.3-2.72-13.69-8.55-32.16-4.42-46.19,9-30.49,46.17-18.28,66.58-7.54,7,3.67,13.51,13.2,18.08,19.37,17,23.06,35.95,27.77,61.45,29.08l9.84.51C877.11,106.81,706.12,27.06,532.68,32.69c-.73,3.13-.22,6.62,2,10.53a36.57,36.57,0,0,1,4.09,7.59c1.47,5.74,4.22,14.68.49,20.26C528,88,499.38,104.48,511.18,130c3.16,6.81,5.9,13.8,5.1,21.52-2.58,24.41-35.19,31.33-49.45,47.36C439.49,229.62,413,261.42,393,297.47c-2.56,4.59-10,5.93-14.26,2.84C362,288.19,352.53,271.53,338.4,257,309,226.7,307.23,303.67,303.29,314.7c-16.83,47.13-52,28.5-86.84,19.27-6.1,25.46-14.84,45.56-35.95,63.51-31.91,27.15-70.8,48.17-80.57,92.4-8.86,40.09-13.28,79-26,118.23C59.42,653,66.24,694.2,69.05,738.65c15-17.83,19.81-51.87,44.64-56.25,30.09-5.32,56.36,10.5,86.75,0,12.94-4.47,28.45,2,39.93,6.83,21.92,9.3,41.08,18.21,66.38,13.23,45.32-8.91,80.26-11.36,125.78-8.39,84.6,5.51-5.79-138,30.5-182.14,28.76-35,56.93-91.49,28.68-136.3-14.93-23.7-47.52-25.91-67.83-45.21-8.43,1.08-16.16.79-20.71-3.5-9.11-8.62-.36-21.88,3.76-30.93,7.93-17.43,18-36.31,37.83-42.05,20.68-6,42.28-4.76,63.14-9.9.94-10.61-1.62-30.5,3.84-35.45,11.4-10.36,26.16-16.07,39.63-23.25a11.71,11.71,0,0,1,13.29,1.41c28.85,25.18,71.71,53.13,83.42,91.61"/><path id="Path_4562" data-name="Path 4562" class="cls-17" d="M648.07,278.36c2.53,8.91-1.47,18-6.17,25.41s-10.19,14.94-13,23.48l-.75,3.27a22.86,22.86,0,0,0,0,3.31,6.14,6.14,0,0,0,4.38,4.43c4.34,1.08,8.91.39,13.32-.17s8.87-1.48,13.37-1.88,9-.18,13.43-.9,8.91-1.5,13.46-1.14,8.77,2.46,12.57,4.87c3.72,2.6,7.11,5.52,10.68,8.26l9.77,9.37a468.42,468.42,0,0,1,34.22,41.73c10.66,14.51,19.11,30.65,26.15,47.14,3.83,8.08,7.93,16.16,13.8,22.83a37.59,37.59,0,0,0,22.83,12.24c8.77,1.38,17.78.59,26.57-.78a185.68,185.68,0,0,0,26.16-5.91c8.42-2.77,16.84-6.31,23.3-12.28a25.38,25.38,0,0,0,8.2-23.47c-3.21-17.57-13-33.1-24.36-46.78s-24.12-26.67-33.67-42.28c-4.24-8-8.74-16-11.17-24.79a53.32,53.32,0,0,1-3.55-27c.87-9.05,2.75-17.87,2.82-26.67.26-8.73-2.42-17.35-4.24-26.22s-3.42-18-1.83-27.33a28.42,28.42,0,0,1,1.87-6.78,27.82,27.82,0,0,1,3.22-6.31c2.82-3.86,6.51-7.3,11.07-9,9-3.54,18.73-2.63,27.56-.54a113.5,113.5,0,0,1,25.55,9.72c2.31,1.41,3.78,2.65,5.71,4l5,5.14c2.95,3.55,5.71,7.15,8.34,10.77,5.59,6.94,11.39,13.53,18.91,18a69.11,69.11,0,0,0,24.51,8.71c8.71,1.4,17.64,1.66,26.64,2.14L981,256.24,961.19,230.4l-21.3-24.59c-7.43-7.89-15.2-15.47-22.78-23.21-7.85-7.47-16.12-14.5-24.16-21.77-8.28-7-17-13.47-25.45-20.23-8.69-6.47-17.78-12.39-26.65-18.61-9.07-5.92-18.51-11.27-27.74-16.94-9.43-5.33-19.17-10.11-28.73-15.19-9.75-4.72-19.75-8.92-29.6-13.41-10-4.08-20.25-7.69-30.37-11.56-10.27-3.43-20.68-6.45-31-9.69l-31.54-7.77-32-5.83-32.25-3.85-32.42-1.88L532.79,36l3.11-2.55a10.3,10.3,0,0,0,.06,4,20.54,20.54,0,0,0,.65,2.06l1,2.06-.16-.25,4.48,8.29.09.23,0,.16c1.33,5.7,3.68,11.93,1.7,19.42a17.14,17.14,0,0,1-2.59,4.89,45,45,0,0,1-2.82,3.65c-2,2.53-4.05,4.67-6.12,6.9-8.05,8.67-16.73,17.16-19.51,27.42A22.71,22.71,0,0,0,514,127.47c2.17,5.2,5,11.26,5.8,17.91l.06,5.06v1.26a11.46,11.46,0,0,1-.21,1.43l-.41,2.2a31.13,31.13,0,0,1-3.77,9.46c-3.47,5.76-8.39,10.11-13.36,13.77-10,7.3-21,12.41-29.32,19.76-3.86,3.46-7.71,8.56-11.63,12.9l-11.7,13.52c-7.32,9.29-15.05,18.28-22,27.81-6.69,9.73-14.28,18.9-20.07,29.18l-9.22,15.08L397,298.69l-.88,1.39-.67.89a12.79,12.79,0,0,1-2.46,2.36,16.79,16.79,0,0,1-2.84,1.59,14.8,14.8,0,0,1-12.05-.24l-1.47-.83a7.83,7.83,0,0,1-1.25-1l-1.69-1.46-3.38-2.92c-2.22-2-4.59-3.71-6.69-6-4.09-4.6-8.65-9.3-12.24-13.89-3.76-4.66-7.56-9.23-11.45-13.49s-7.85-9-11.7-10.37a4.55,4.55,0,0,0-4.57.41,14.64,14.64,0,0,0-4.12,5.39,70.56,70.56,0,0,0-5.23,15.9c-2.59,11.34-3.81,22.93-5.83,35.07a27.54,27.54,0,0,1-1.36,5.21l-1.73,4.12a53.83,53.83,0,0,1-4.24,8.45,41,41,0,0,1-13.37,14.44,35.73,35.73,0,0,1-18.94,5.79A71.19,71.19,0,0,1,250,347.6c-12.07-2.61-23.28-6.7-34.63-9.7l5-3a181.13,181.13,0,0,1-8.94,27.52A106.74,106.74,0,0,1,196,387.36c-6.23,7.58-13.93,13.88-21.17,19.75l-22.31,17.45c-14.6,11.6-28.62,24-38.21,39.53A82.38,82.38,0,0,0,103.88,489c-2.06,8.94-3.82,18.4-5.73,27.56l-5.33,27.74c-1.7,9.24-3.9,18.51-5.84,27.77-1.72,9.3-4.84,18.36-7.25,27.54-2.57,9.21-5.08,18-7.36,27.18L70,640.34c-.61,4.56-.87,9.23-1.32,13.84a274.31,274.31,0,0,0-.34,28c.18,9.34,1,18.71,1.6,28.1l2,28.24-5.25-1.73c10.54-12.85,14.92-30.68,26.63-45a39.07,39.07,0,0,1,10.87-9A30.89,30.89,0,0,1,111,680.2l1.75-.45a11.83,11.83,0,0,1,1.87-.25l3.26-.31,6.53-.63,6.85.18a122.39,122.39,0,0,1,13.38,1.16c17.4,2.43,34.63,5.65,51,1l6.45-1.57a27.25,27.25,0,0,1,6.95-.93,47.44,47.44,0,0,1,13.72,1.77c8.78,2.32,16.84,6,24.86,9.43s16,6.73,24.28,8.95a82.18,82.18,0,0,0,25.17,2.8c17-1.82,34.24-6.18,51.72-7.63,8.77-.7,17.5-2.19,26.3-2.26s17.58-.58,26.35-.65l26.32,1c4.38.18,8.6.34,13,.2a36.35,36.35,0,0,0,11.94-2.68c3.86-1.44,6.81-4.31,9.38-7.38a32.23,32.23,0,0,0,4.69-11.33c1.81-8.21,1.54-16.94.76-25.52-1.71-17.23-5.55-34.32-8.86-51.5s-6.64-34.56-6.13-52.37c.36-8.82,1.74-18,6.34-25.95,2.56-3.92,5.28-7.21,8-10.65,2.56-3.5,5.22-6.9,7.57-10.57a176.68,176.68,0,0,0,22.88-46.52c4.85-16.53,6.74-34.35,2.13-51-2.18-8.25-5.72-16.43-10.94-23.09l-4.09-5.12-4.88-4.06c-3-2.94-7.16-4.72-10.7-7.13-15.16-8.25-32.37-13.86-45.62-26l.79.25a50.24,50.24,0,0,1-11.3.31c-3.75-.47-7.73-1.44-10.59-4.65a14.22,14.22,0,0,1-3.71-10.73,34,34,0,0,1,3.12-10.9c1.49-3.45,3.24-6.68,4.8-10s3.12-6.7,4.9-10,3.66-6.48,5.6-9.67a72.48,72.48,0,0,1,6.88-8.84,49.1,49.1,0,0,1,8.35-7.49l4.82-2.95a53.78,53.78,0,0,1,5.2-2.17c3.54-1.63,7.22-1.77,10.82-2.73a92,92,0,0,1,10.93-2l22.1-2.53c7.4-.54,14.56-2.31,21.84-3.48l-.4.47c.69-9.15-.37-18.47.89-27.75a17.09,17.09,0,0,1,2.15-6.75c1.58-2.1,3.6-3,5.38-4.56a73.16,73.16,0,0,1,11.61-7.64c4-2.48,8.22-4.3,12.33-6.46s8.16-4.25,12.48-6.15a12.35,12.35,0,0,1,13.2,2.29l10.59,9,21.38,17.71c3.59,2.92,6.95,6.1,10.41,9.18a135.55,135.55,0,0,1,10,9.61c3.21,3.35,6.61,6.5,9.4,10.22s6.12,7,8.48,11,5.07,7.77,7.14,11.89Zm0,0-5.33-12.82c-2.09-4.1-4.82-7.88-7.19-11.84s-5.72-7.26-8.53-10.92-6.21-6.83-9.44-10.15a137.4,137.4,0,0,0-10-9.56c-3.47-3.06-6.84-6.22-10.45-9.12l-21.46-17.61L565,187.43a11.65,11.65,0,0,0-12.58-2.11c-4.13,1.83-8.26,4.13-12.37,6.16s-8.35,4-12.23,6.49a71.76,71.76,0,0,0-11.5,7.64c-1.69,1.48-4,2.7-5.16,4.37a16.38,16.38,0,0,0-2,6.39c-1.21,9.12-.1,18.39-.75,27.71a.51.51,0,0,1-.4.47c-7.32,1.22-14.57,3-22,3.62l-22,2.61a93.6,93.6,0,0,0-10.89,2c-3.52,1-7.44,1.18-10.63,2.73a54.06,54.06,0,0,0-5,2.12l-4.63,2.87c-2.83,2.24-5.8,4.46-8.08,7.33a70.33,70.33,0,0,0-6.69,8.68c-1.9,3.14-3.87,6.25-5.48,9.56s-3.26,6.61-4.82,10-3.31,6.66-4.73,10a32.55,32.55,0,0,0-2.93,10.32,12.22,12.22,0,0,0,3.4,9.54c2.15,2.41,5.88,3.53,9.35,3.88a48,48,0,0,0,10.85-.36,1.06,1.06,0,0,1,.78.26c12.86,11.73,29.86,17.23,45.33,25.52,3.69,2.48,7.78,4.18,11.11,7.34l5.2,4.34,4.12,5.1a66.44,66.44,0,0,1,11.48,23.89c4.84,17.23,3,35.55-1.91,52.43a179.5,179.5,0,0,1-23,47.4c-2.36,3.71-5.08,7.22-7.65,10.78s-5.51,6.92-7.72,10.35c-4.17,7.29-5.51,16-5.81,24.52-.41,17.25,3,34.5,6.33,51.59s7.32,34.24,9.16,51.82c.83,8.78,1.2,17.76-.72,26.7a35.89,35.89,0,0,1-5.24,12.74c-2.94,3.66-6.52,7-10.94,8.72a40.15,40.15,0,0,1-13.48,3.11c-4.36.16-8.91,0-13.25-.16L401.42,695c-8.71.1-17.4.53-26.1.77s-17.28,1.61-25.93,2.35c-17.4,1.51-34.2,5.9-52,7.91a86.75,86.75,0,0,1-26.74-2.83c-8.67-2.29-16.85-5.71-24.95-9.05-16.06-6.69-32.23-14.74-48.67-8.24-17.71,5.1-36.08,1.63-53-.61a115.4,115.4,0,0,0-12.73-1.06l-6.25-.18-6.53.66-3.26.33a6.36,6.36,0,0,0-1.38.18l-1.43.39a24.54,24.54,0,0,0-5.49,2,33.33,33.33,0,0,0-9.15,7.69C87.13,708.27,82.9,726,71.32,740.56a2.94,2.94,0,0,1-4.13.47,2.91,2.91,0,0,1-1.1-2.06l0-.13-2.16-28.15c-.67-9.42-1.52-18.85-1.74-28.36a275,275,0,0,1,.22-28.57c.43-4.76.67-9.52,1.28-14.29l2.41-14.33c2.19-9.07,4.85-18.47,7.29-27.42s5.35-17.91,7-27.17c1.88-9.2,4-18.29,5.67-27.59l5.19-27.82c1.9-9.29,3.54-18.39,5.66-27.84a90.09,90.09,0,0,1,11.22-27c10.28-16.77,25-29.78,39.7-41.62L170,401.14c7.34-6,14.3-11.78,20-18.82a98.13,98.13,0,0,0,14.12-23.06A174.07,174.07,0,0,0,212.5,333a4.06,4.06,0,0,1,4.91-3h.08c11.71,3.06,23,7.09,34.26,9.44,11.11,2.35,22.88,3.11,31.43-2.86A32.52,32.52,0,0,0,293.73,325a43.51,43.51,0,0,0,3.73-7.52l1.7-4.13a22.36,22.36,0,0,0,.82-3.44c1.87-11.37,3-23.56,5.8-35.46a77.9,77.9,0,0,1,6.06-17.94,22.82,22.82,0,0,1,6.87-8.47,13.31,13.31,0,0,1,12.45-1.39c7.44,3.07,11,8.34,15.06,12.74,4.14,4.56,7.91,9.18,11.63,13.81,3.74,4.81,7.53,8.65,11.28,13a85.85,85.85,0,0,0,6.55,6l3.37,2.94,1.69,1.46c.13.1.9.82.5.41l.48.26a6.71,6.71,0,0,0,5.31,0c.32-.22.93-.42,1.06-.57s.23.19.78-.67l.68-.9.08-.11c.09-.13-.5.78-.21.34l.15-.24.3-.48,1.18-1.93,9.51-15.37c6-10.5,13.7-19.75,20.57-29.61,7.15-9.65,15-18.73,22.5-28.12l11.77-13.46c4.09-4.46,7.39-9,12.38-13.55,9.71-8.35,20.74-13.3,30-20.07,4.61-3.34,8.77-7.11,11.49-11.6a24.48,24.48,0,0,0,3.4-14.84c-.63-5.28-2.81-10.2-5.22-16a29.93,29.93,0,0,1-1.53-19.72c3.79-13.1,13.42-21.73,21.31-30.35,2-2.13,4.07-4.33,5.79-6.44a41.33,41.33,0,0,0,2.65-3.4,9.58,9.58,0,0,0,1.63-2.93c1.29-4.22-.24-10-1.72-15.71l.13.38-3.7-6.9-.16-.26L530.44,42a26.28,26.28,0,0,1-1-3.16,20.58,20.58,0,0,1-.38-3.41,27,27,0,0,1,.37-3.48,2.92,2.92,0,0,1,2.91-2.55h.21l32.87,0,32.8,2.06,32.6,4.06,32.29,6c10.62,2.68,21.28,5.18,31.85,8,10.44,3.32,20.94,6.43,31.31,9.94,10.2,4,20.51,7.66,30.62,11.84,9.94,4.57,20,8.87,29.84,13.68,9.64,5.18,19.45,10,28.94,15.49,9.3,5.76,18.8,11.21,27.93,17.23,8.93,6.32,18.08,12.35,26.81,18.92,8.52,6.86,17.27,13.44,25.6,20.53,8.07,7.37,16.37,14.51,24.26,22.08,7.61,7.84,15.41,15.52,22.86,23.52l21.36,24.88,19.8,26.15a2,2,0,0,1-1.73,3.26h-.05c-8.94-.53-18-.83-27.08-2.33a72.93,72.93,0,0,1-25.9-9.37c-8-4.85-14.27-12-19.86-19-2.63-3.66-5.34-7.21-8.11-10.58l-4.34-4.58c-1.75-1.23-3.79-2.84-5.29-3.77a110,110,0,0,0-24.69-9.53c-8.47-2.08-17.61-2.83-25.49.26S829,209.22,827.51,217.65s-.06,17.45,1.69,26.16,4.46,17.53,4.18,26.88c-.14,9.2-2.09,18.08-3,26.9a50.64,50.64,0,0,0,3.29,25.88c2.34,8.63,6.72,16.43,10.82,24.3,9.2,15.24,21.82,28.25,33.26,42.15s21.42,29.91,24.6,48a28.9,28.9,0,0,1-1.14,13.75,29.6,29.6,0,0,1-7.78,11.42c-6.86,6.25-15.5,9.8-24.07,12.59A188,188,0,0,1,843,481.48c-8.92,1.34-18.07,2.12-27.1.66a39.17,39.17,0,0,1-23.64-12.83c-6-6.91-10.09-15.1-13.91-23.23-7-16.62-15.25-32.53-25.81-47.08a469.26,469.26,0,0,0-34-41.8l-9.65-9.35c-3.54-2.75-7-5.72-10.59-8.29-3.74-2.37-7.81-4.46-12.28-4.81s-8.89.43-13.34,1.07-9,.57-13.46.84-8.89,1.21-13.34,1.82-9,1.21-13.47.1a6.46,6.46,0,0,1-4.57-4.69,21.44,21.44,0,0,1,0-3.4l.76-3.31c2.92-8.6,8.32-15.94,13.17-23.47s8.77-16.42,6.28-25.35"/><path id="Path_4569" data-name="Path 4569" class="cls-16" d="M549.61,296.59c4-12.69-1.59-27.57-15.66-30a4.18,4.18,0,0,0-3.79-.63l-1.11.47a16.24,16.24,0,0,0-8.38,4c-7.3,3.92-14,9.23-15.75,17.43-2.45,11.34,10.46,23.27,20.37,25.59,11,2.57,21.25-7.13,24.32-16.82"/><path id="Path_4570" data-name="Path 4570" class="cls-17" d="M549.61,296.59l.95-4.7c.08-1.59.07-3.19.11-4.77-.2-1.57-.61-3.12-.9-4.66-.53-1.48-1.19-2.9-1.77-4.34-.9-1.28-1.84-2.51-2.76-3.7-1.2-1-2.29-2-3.48-2.83-1.37-.61-2.64-1.33-4-1.83l-4.23-.83-.95-.39a2.11,2.11,0,0,0-1.18-.17c-.19,0-.16.13-.19.1-.27.13-.74.4-1.09.58l-.71.2c-1.18.55-2.3,1.05-3.43,1.48l-2.93,2.46-.44.32-.22.12a43.68,43.68,0,0,0-8.18,6.4,19.19,19.19,0,0,0-4.79,7.77l-.18.53-.09.26,0,.13c.17-1.31,0-.35.08-.64v.16l-.1,1.43a25.75,25.75,0,0,0-.15,2.78c.6,1.12.17,2.09,1.06,3.66l.92,2.19c.46.69.93,1.37,1.35,2.1a25.93,25.93,0,0,0,3.12,4.1,27.85,27.85,0,0,0,8.43,6.25,14.37,14.37,0,0,0,2.26.94l2.84.55a15.61,15.61,0,0,0,5.14-.4l2.65-.77,2.45-1.35a26.69,26.69,0,0,0,4.46-3.47,28.25,28.25,0,0,0,6-9.66m0,0a29,29,0,0,1-2.34,5.25,33.07,33.07,0,0,1-3.27,4.75,26.94,26.94,0,0,1-4.2,4.07,21.71,21.71,0,0,1-5.09,3.09,18.45,18.45,0,0,1-6.1,1.54l-2.89,0a15.49,15.49,0,0,1-3.24-.64,33.82,33.82,0,0,1-15.89-9.77,20.56,20.56,0,0,1-3.78-5.44c-1.21-1.72-1.83-4.73-2.31-7.27-.08-1.12,0-2,.05-3l.05-1.44v-.09l.09-.74.06-.22.12-.42.23-.85a24.12,24.12,0,0,1,7.23-11.5,41.58,41.58,0,0,1,10.58-6.78l-.65.44,4.87-2.73c1.86-.48,3.72-.9,5.53-1.25l-.7.19,1.3-.42a6.08,6.08,0,0,1,2.36-.23,7.44,7.44,0,0,1,3.67,1.47l-.94-.38,4.95,1.94c1.52.89,2.9,2,4.3,3,1.21,1.22,2.25,2.62,3.34,3.89l2.26,4.47c.45,1.59,1,3.14,1.35,4.72l.46,4.83c-.1,1.62-.15,3.23-.29,4.82Z"/><g id="Group_1061" data-name="Group 1061" class="cls-18"><g id="Group_1060" data-name="Group 1060"><g class="cls-19"><g id="Group_1059" data-name="Group 1059"><path id="Path_4571" data-name="Path 4571" class="cls-20" d="M564.65,186.74c28.86,25.18,71.72,53.13,83.42,91.62,4.29,14.12-8.12,27.12-14.37,38.1-19.23,33.81,13.54,19.51,29.37,19.8,14.71.28,22.08-6.43,36.22,3.52s25.24,22.91,36.1,36.26c14.83,18.21,27.92,35,37.54,56.56,15.05,33.7,23.29,55.69,69.61,48.1,22.4-3.67,67.43-12.05,58-47.21-6.54-24.34-20.81-39.95-37.06-58.41S836,340,829.82,316.13c-4.67-18,5.06-37.16,1.28-56.31-2.71-13.69-8.55-32.16-4.42-46.18,9-30.5,46.17-18.29,66.58-7.55,7,3.67,13.51,13.2,18.08,19.38,17,23.05,36,27.76,61.45,29.07l9.84.51A529.1,529.1,0,0,0,931,193.16c-12.74,2.31-25.45,3.62-38.25-2-24.39-10.69-99.07-66.06-101.09-12.32-2,54.4-10.29,53.91-56,39.19-28.52-9.18-59.65-7.34-86.9-20.46-7.29-3.49-14.9-14.58-18.15-21.65C619,150.5,605.18,133.7,578.3,122.27c-8.94-3.8-21.26-11.11-20.89-22.67.87-28.06,17.35-50.68,6.05-67q-15.37-.39-30.78.08c-.73,3.14-.22,6.63,2,10.53a36.9,36.9,0,0,1,4.09,7.6c1.47,5.73,4.22,14.68.49,20.26C528,88,499.37,104.48,511.18,130c3.15,6.81,5.9,13.8,5.1,21.52-2.58,24.41-35.19,31.33-49.45,47.35C439.48,229.63,413,261.43,393,297.48c-2.55,4.59-10,5.93-14.26,2.84-1.31-1-2.54-2-3.77-3,2.66,17.16,12.17,27.9,33.58,40.52,14.67,8.64,33.36,17.57,44.17,31.34,22.56,28.67.76,65.72-14.74,93.14-13.72,24.27-45.36,17.67-67.05,10.45C332.63,460,316.44,543.19,288.4,560.3c-6.75,4.12-16.75,7-24.59,3.84-29.91-11.91-44.43.33-69,12.78-13.09,6.63-32.13,2.39-41.1-8.74-9.72-12.07,10.84-34.83,17.37-43.28,9-11.61,20.37-23.52,25.78-37.3,9.88-25.1-32.28-22.34-47.71-25.25-4-.74-9.26-3.2-8.64-8.18a113.37,113.37,0,0,0-.08-24.5c-18.69,16-34.71,34-40.5,60.21-8.85,40.09-13.28,79-26,118.23C59.41,653,66.23,694.2,69.05,738.65c15-17.83,19.8-51.87,44.63-56.25,30.09-5.32,56.37,10.5,86.75,0,12.94-4.47,28.45,2,39.93,6.83,21.92,9.3,41.08,18.21,66.38,13.24,45.32-8.91,80.26-11.37,125.78-8.4,84.61,5.51-5.79-138,30.51-182.14,28.76-35,56.92-91.49,28.68-136.3-14.93-23.7-47.53-25.91-67.84-45.21-8.42,1.09-16.15.79-20.71-3.5-9.11-8.62-.35-21.87,3.76-30.92,7.93-17.44,18-36.32,37.83-42.06,20.69-6,42.29-4.75,63.14-9.9.94-10.61-1.62-30.5,3.84-35.45,11.4-10.36,26.16-16.08,39.63-23.25a11.7,11.7,0,0,1,13.28,1.41m232.46,108a35.16,35.16,0,0,1,4.1,3.8c11.41,12.73,10.24,33.82,10.36,49.62,0,5.05-6.51,6.22-10.16,6.21-20.49-.07-44-14.29-60.27-25.43-11.88-8.12-37.43-24.63-34.33-42.44,5.93-34.11,84-23.77,90.31,8.24"/><path id="Path_4575" data-name="Path 4575" class="cls-20" d="M549.61,296.59c4-12.69-1.59-27.56-15.66-30a4.18,4.18,0,0,0-3.79-.63l-1.11.47a16.24,16.24,0,0,0-8.38,4c-7.3,3.92-14,9.23-15.76,17.43-2.44,11.34,10.47,23.27,20.38,25.59,11,2.57,21.25-7.13,24.32-16.82"/></g></g></g></g><g id="Group_1064" data-name="Group 1064"><g id="Group_1063" data-name="Group 1063"><g class="cls-21"><g id="Group_1062" data-name="Group 1062"><path id="Path_4576" data-name="Path 4576" class="cls-22" d="M740.68,71.93S332.43-76.32,114.48,290.31c0,0,231.4-318.92,626.2-218.38"/></g></g></g></g></g></g></g></g></g></g><g id="Group_1074" data-name="Group 1074"><path id="Union_6" data-name="Union 6" class="cls-23" d="M261.42,328.35H481a22.73,22.73,0,0,1,0,45.45H261.42a22.73,22.73,0,1,1,0-45.45Z"/><g id="UI_UX_Designer_Brazil" data-name="UI UX Designer Brazil" class="cls-24"><text class="cls-25" transform="translate(266.19 357.35)">UI/UX Designe<tspan class="cls-26" x="136.7" y="0">r</tspan><tspan x="143.38" y="0">, Brazil</tspan></text></g></g><g id="Group_1073" data-name="Group 1073"><path id="Union_4" data-name="Union 4" class="cls-22" d="M433.47,189.53H619c13.61,0,24.65,10.24,24.65,22.87s-11,22.87-24.66,22.87H433.47c-13.62,0-24.66-10.24-24.66-22.87S419.85,189.53,433.47,189.53Z"/><g id="Data_Analyst_Poland" data-name="Data Analyst Poland" class="cls-24"><text class="cls-25" transform="translate(426.72 218.93)">Data<tspan class="cls-27" x="43.35" y="0"> </tspan><tspan x="48.16" y="0">Analyst, Poland</tspan></text></g></g><g id="Group_1076" data-name="Group 1076"><line id="Line_54" data-name="Line 54" class="cls-28" x1="143.26" y1="259.35" x2="143.26" y2="457.35"/><circle id="Ellipse_98" data-name="Ellipse 98" class="cls-22" cx="143.76" cy="457.85" r="8"/></g><g id="Group_1077" data-name="Group 1077"><line id="Line_54-2" data-name="Line 54-2" class="cls-28" x1="370.69" y1="373.85" x2="370.69" y2="496.85"/><circle id="Ellipse_98-2" data-name="Ellipse 98-2" class="cls-22" cx="371.19" cy="496.35" r="8"/></g><g id="Group_1081" data-name="Group 1081"><line id="Line_54-3" data-name="Line 54-3" class="cls-28" x1="773.14" y1="296.32" x2="773.14" y2="378.04"/><circle id="Ellipse_98-3" data-name="Ellipse 98-3" class="cls-22" cx="773.64" cy="377.54" r="8"/></g><g id="Group_1079" data-name="Group 1079"><line id="Line_54-4" data-name="Line 54-4" class="cls-28" x1="946.19" y1="150.82" x2="946.19" y2="226.77"/><circle id="Ellipse_98-4" data-name="Ellipse 98-4" class="cls-22" cx="946.69" cy="226.77" r="8"/></g><g id="Group_1078" data-name="Group 1078"><line id="Line_54-5" data-name="Line 54-5" class="cls-28" x1="525.72" y1="236.03" x2="525.72" y2="287.03"/><circle id="Ellipse_98-5" data-name="Ellipse 98-5" class="cls-22" cx="526.22" cy="287.03" r="8"/></g><g id="Group_1080" data-name="Group 1080"><path id="Union_6-2" data-name="Union 6-2" class="cls-23" d="M643.87,275.27H901.42a22.73,22.73,0,0,1,0,45.45H643.87a22.73,22.73,0,1,1,0-45.45Z"/><g id="Backend_Developer_Egypt" data-name="Backend Developer Egypt" class="cls-24"><text class="cls-25" transform="translate(648.14 304.27)">Backend Develope<tspan class="cls-26" x="177.85" y="0">r</tspan><tspan x="184.53" y="0">, Egypt</tspan></text></g></g><g id="Group_1075" data-name="Group 1075"><path id="Union_3" data-name="Union 3" class="cls-22" d="M51.92,250.85H233.47a22.73,22.73,0,0,1,0,45.46H51.92a22.73,22.73,0,1,1,0-45.46Z"/><g id="AI_Engineer_Kenya" data-name="AI Engineer Kenya" class="cls-24"><text class="cls-25" transform="translate(54.19 280.85)">AI Enginee<tspan class="cls-26" x="103.35" y="0">r</tspan><tspan x="110.03" y="0">, Kenya</tspan></text></g></g><g id="Group_1072" data-name="Group 1072"><path id="Union_5" data-name="Union 5" class="cls-23" d="M825.81,143.27h241.77c13,0,23.54,10.18,23.54,22.73s-10.54,22.72-23.54,22.72H825.81c-13,0-23.55-10.17-23.55-22.72S812.8,143.27,825.81,143.27Z"/><g id="Product_Manager_Pakistan" data-name="Product Manager Pakistan" class="cls-24"><text class="cls-25" transform="translate(819.19 172.27)">Product Manage<tspan class="cls-26" x="155.58" y="0">r</tspan><tspan x="162.26" y="0">, Pakistan</tspan></text></g></g></g></g><rect id="Rectangle_641" data-name="Rectangle 641" class="cls-29" x="-390.81" y="-311.78" width="1920" height="1240.99"/></svg>