<svg xmlns="http://www.w3.org/2000/svg" width="47.764" height="62" viewBox="0 0 47.764 62">
  <g id="rating" transform="translate(-58.785 0)">
    <g id="Group_990" data-name="Group 990" transform="translate(58.785 0)">
      <path id="Path_4436" data-name="Path 4436" d="M105.256,51.929l-.015,0V48.582a.911.911,0,1,0-1.822,0v3.08l-1.531-.222-1.506-3.052a1.509,1.509,0,0,0-2.706,0l-.239.483V45.7a.911.911,0,0,0-1.822,0v5.82l-2.814.409a1.509,1.509,0,0,0-.836,2.573l1.188,1.157H88.543L89.731,54.5h0a1.509,1.509,0,0,0-.836-2.573l-2.006-.291-1.512-8.931.851-1.281.473.336a1.651,1.651,0,0,0,2.432-.609h0l3.134-6.281L99.4,37.636a6.892,6.892,0,0,1,4.016,6.268v.426a.911.911,0,1,0,1.822,0V43.9a8.709,8.709,0,0,0-5.15-7.955l-.017-.007L88.258,31.366V28.52a9.15,9.15,0,0,0,3.5-6.1A4.117,4.117,0,0,0,94.687,15.6V11.925A12.135,12.135,0,0,0,84.859.017a.911.911,0,1,0-.343,1.79,10.311,10.311,0,0,1,8.35,10.118v2.467a4.3,4.3,0,0,0-1.034-.2c0-.992.083-.726-3.079-4.125h0A1.671,1.671,0,0,0,86.609,9.8a19.1,19.1,0,0,1-11.28,3.115,1.748,1.748,0,0,0-1.5.428,1.705,1.705,0,0,0-.5.871,4.86,4.86,0,0,0-1.073.248V11.924a10.31,10.31,0,0,1,8.35-10.118.911.911,0,0,0-.343-1.79,12.135,12.135,0,0,0-9.828,11.908v3.77A3.883,3.883,0,0,0,69.42,18.3a4.131,4.131,0,0,0,3.945,4.118,9.05,9.05,0,0,0,3.7,6.244v2.7l-11.8,4.576-.017.007a8.709,8.709,0,0,0-5.15,7.955v8.023l-.015,0a1.509,1.509,0,0,0-.836,2.573l2.438,2.376L61.1,60.233a1.509,1.509,0,0,0,2.189,1.59l3.013-1.584,3.013,1.584a1.508,1.508,0,0,0,2.189-1.59l-.472-2.751h6.9l-.472,2.751a1.509,1.509,0,0,0,2.189,1.59l3.013-1.584,3.013,1.584a1.508,1.508,0,0,0,2.189-1.59L87.4,57.482h6.9l-.472,2.751a1.509,1.509,0,0,0,2.189,1.59l3.013-1.584,3.013,1.584a1.509,1.509,0,0,0,2.189-1.59l-.575-3.355,2.438-2.376A1.509,1.509,0,0,0,105.256,51.929ZM91.831,16.02a2.294,2.294,0,0,1,0,4.563Zm-18.54,4.563A2.3,2.3,0,0,1,71.242,18.3a2.424,2.424,0,0,1,2.049-2.237Zm17.27,13.629L87.593,40.16,83.98,37.594l3.657-4.514Zm-6.631,7.38H81.4l-.812-1.221,2.078-1.476,2.078,1.476Zm.806,8.248-.717-1.452a1.509,1.509,0,0,0-2.706,0l-.726,1.472,1.091-6.445h1.971Zm-5.851-18.18V29.682a9.9,9.9,0,0,0,3.8.742,9.189,9.189,0,0,0,3.755-.807v2.05l-3.772,4.656ZM75.114,21.273V14.731A20.937,20.937,0,0,0,87.5,11.4c1.459,1.568,2.27,2.409,2.507,2.707v7.171a7.448,7.448,0,0,1-14.895,0Zm2.572,11.808L81.344,37.6,77.734,40.16l-2.968-5.948ZM69.542,55.688a1.519,1.519,0,0,0-.434,1.335l.5,2.891-2.6-1.365a1.509,1.509,0,0,0-1.4,0l-2.6,1.365.5-2.891a1.509,1.509,0,0,0-.434-1.335l-2.1-2.047,2.9-.422a1.51,1.51,0,0,0,1.135-.825l1.3-2.63c1.372,2.78,1.31,2.669,1.39,2.791a1.509,1.509,0,0,0,1.044.665l2.9.422Zm2.64-.028h0L73.369,54.5h0a1.509,1.509,0,0,0-.836-2.573L69.72,51.52V45.7a.911.911,0,1,0-1.822,0v3.171l-.239-.484a1.509,1.509,0,0,0-2.706,0L63.446,51.44l-1.531.222V43.9a6.892,6.892,0,0,1,4.015-6.267l7.129-2.764,3.134,6.281a1.651,1.651,0,0,0,2.432.609l.473-.336.851,1.281-1.512,8.932-2,.29A1.509,1.509,0,0,0,75.6,54.5l1.188,1.157H72.182Zm13.721.028a1.518,1.518,0,0,0-.434,1.335l.5,2.891-2.6-1.365a1.509,1.509,0,0,0-1.4,0l-2.6,1.365.5-2.891a1.52,1.52,0,0,0-.434-1.335l-2.1-2.047,2.9-.422a1.525,1.525,0,0,0,1.135-.825l1.3-2.63,1.3,2.63a1.52,1.52,0,0,0,1.136.825l2.9.422Zm16.361,0a1.508,1.508,0,0,0-.434,1.335l.5,2.891-2.6-1.365a1.509,1.509,0,0,0-1.4,0l-2.6,1.365.5-2.891a1.518,1.518,0,0,0-.434-1.335l-2.1-2.047,2.9-.422a1.51,1.51,0,0,0,1.135-.825l1.3-2.63,1.3,2.63a1.51,1.51,0,0,0,1.136.825l2.9.422Z" transform="translate(-58.785 0)" fill="#fff"/>
    </g>
  </g>
</svg>
