<svg xmlns="http://www.w3.org/2000/svg" width="62.001" height="62" viewBox="0 0 62.001 62">
  <g id="technology" transform="translate(-0.999 -1)">
    <path id="Path_4433" data-name="Path 4433" d="M21,45a3,3,0,1,0,3,3A3,3,0,0,0,21,45Zm0,4a1,1,0,1,1,1-1A1,1,0,0,1,21,49Z" fill="#fff"/>
    <circle id="Ellipse_91" data-name="Ellipse 91" cx="1" cy="1" r="1" transform="translate(16 19)" fill="#fff"/>
    <circle id="Ellipse_92" data-name="Ellipse 92" cx="1" cy="1" r="1" transform="translate(24 19)" fill="#fff"/>
    <path id="Path_4434" data-name="Path 4434" d="M26,24V23H16v1a5,5,0,0,0,10,0ZM18.17,25h5.658a3,3,0,0,1-5.658,0Z" fill="#fff"/>
    <path id="Path_4435" data-name="Path 4435" d="M60,23a3,3,0,0,0,0-6,2.9,2.9,0,0,0-.363.037L57.618,13H51.475a8.882,8.882,0,0,0,.466-2h3.677l2.018-4.037A2.933,2.933,0,0,0,58,7a3.015,3.015,0,1,0-2.156-.923L54.382,9H51.941a9,9,0,1,0-13.624,8.685A2.956,2.956,0,0,0,38,19v3.613c-.039.034-.085.057-.121.094l-.969.968a3.108,3.108,0,0,0,.474,4.783L38.9,29.466A7.2,7.2,0,0,1,31.929,35H30.8a7.134,7.134,0,0,1-1.4-.138l-3.656-.729-.5-1.513A7.011,7.011,0,0,0,29.92,27H30a4,4,0,0,0,4-4,3.961,3.961,0,0,0-.634-2.143A20.493,20.493,0,0,0,34,15.838,10.851,10.851,0,0,0,23.162,5h-3.69a8.192,8.192,0,0,0-7.208,4.25l-.279.14A7.17,7.17,0,0,0,8,15.839a20.454,20.454,0,0,0,.635,5.017A3.96,3.96,0,0,0,8,23a4,4,0,0,0,4,4h.08a7.011,7.011,0,0,0,4.5,5.56l-.373,1.489-.266.017A16,16,0,0,0,1,50a7.008,7.008,0,0,0,7,7h.35l.228,1.825A4.773,4.773,0,0,0,13.306,63H28.659a4.775,4.775,0,0,0,4.729-4.174l1.559-12.469a4.876,4.876,0,0,0,.037-.592,4.721,4.721,0,0,0-.943-2.818A13.008,13.008,0,0,0,46,30V27.816A2.993,2.993,0,0,0,45,22H44V19c0-.02-.005-.038-.006-.058A8.932,8.932,0,0,0,48,17.478v2.057l3,2v3.933l4.195,3.5a3.035,3.035,0,1,0,1.282-1.534L53,24.532V20.465l-3-2v-2.82c.168-.208.329-.422.478-.644h5.9l1.462,2.923A2.993,2.993,0,0,0,60,23ZM58,3a1,1,0,1,1-1,1A1,1,0,0,1,58,3Zm1,27a1,1,0,1,1-1-1A1,1,0,0,1,59,30ZM39.848,16.231A6.947,6.947,0,0,1,38.124,15h5.695a11.164,11.164,0,0,1-.991,1.638,2.956,2.956,0,0,0-2.98-.407ZM49,13H46.653a13.072,13.072,0,0,0,.309-2H49.92a6.937,6.937,0,0,1-.6,2Zm-7.586,0a11.143,11.143,0,0,1-.368-2h3.9a11.214,11.214,0,0,1-.362,2Zm3.175-6a11.214,11.214,0,0,1,.362,2h-3.9a11.214,11.214,0,0,1,.362-2ZM42.182,5A11.3,11.3,0,0,1,43,3.6,11.175,11.175,0,0,1,43.818,5Zm4.78,4a13.073,13.073,0,0,0-.309-2h2.662a6.906,6.906,0,0,1,.6,2Zm-.941-4a13.246,13.246,0,0,0-.8-1.633A7.009,7.009,0,0,1,47.89,5ZM39.979,5H38.11a7,7,0,0,1,2.67-1.633A13.246,13.246,0,0,0,39.979,5Zm-.632,2a13.072,13.072,0,0,0-.309,2H36.08a6.937,6.937,0,0,1,.6-2Zm-.306,4a13.226,13.226,0,0,0,.311,2H36.675a6.985,6.985,0,0,1-.6-2Zm6.98,4H47.89a7,7,0,0,1-2.67,1.633,13.246,13.246,0,0,0,.8-1.633ZM30.8,37h1.124a9.048,9.048,0,0,0,1.718-.167,20.23,20.23,0,0,1,1.683,3.913A10.994,10.994,0,0,1,33,41H21.463l3.92-4.9,3.633.725A9.258,9.258,0,0,0,30.8,37ZM30,25V21a2,2,0,0,1,0,4ZM10,23a2,2,0,0,1,2-2v4A2,2,0,0,1,10,23Zm2-5v1a3.96,3.96,0,0,0-1.653.368A18.416,18.416,0,0,1,10,15.838a5.183,5.183,0,0,1,2.88-4.66l.865-.433.149-.3A6.206,6.206,0,0,1,19.472,7h3.69A8.848,8.848,0,0,1,32,15.838a18.471,18.471,0,0,1-.346,3.53A3.968,3.968,0,0,0,30,19V16H29a3,3,0,0,1-3-3V11H24v2a4.948,4.948,0,0,0,1.026,3H25a3,3,0,0,1-3-3V11H20v2a4.948,4.948,0,0,0,1.014,2.985,3,3,0,0,1-1.468-.49l-.21-.14A2.993,2.993,0,0,1,18,12.859V11H16v1.859q0,.12.006.24A5.01,5.01,0,0,0,12,18Zm2,8V18a3,3,0,0,1,2.5-2.958,4.988,4.988,0,0,0,1.729,1.979l.21.139a4.974,4.974,0,0,0,2.773.84H28v8a5.006,5.006,0,0,1-5,5H19A5.006,5.006,0,0,1,14,26Zm5,7h4c.092,0,.181-.01.272-.014l.592,1.81-2.879,3.6-2.9-3.634.447-1.787c.153.012.307.025.463.025ZM8,55a5.006,5.006,0,0,1-5-5,14,14,0,0,1,13.07-13.938l.473-.03L20.5,41H11.748a4.771,4.771,0,0,0-4.766,4.766,4.846,4.846,0,0,0,.037.591L7.35,49H5v2H7.6l.5,4Zm20.659,6H13.306a2.767,2.767,0,0,1-2.651-2H31.309A2.767,2.767,0,0,1,28.658,61Zm4.3-14.892L31.6,57H10.365L9,46.107a2.606,2.606,0,0,1-.021-.342A2.769,2.769,0,0,1,11.749,43H30.218a2.769,2.769,0,0,1,2.766,2.766,3.024,3.024,0,0,1-.023.343Zm4.275-5.959a22.064,22.064,0,0,0-1.648-3.932,9.194,9.194,0,0,0,5.4-7.076l.089-.624-2.587-1.725a1.106,1.106,0,0,1-.168-1.7l.97-.969a.43.43,0,0,1,.706.293V25a3,3,0,0,0,3,3h1v2a11.014,11.014,0,0,1-6.764,10.149ZM46,25a1,1,0,0,1-1,1H43a1,1,0,0,1-1-1v-.586A2.461,2.461,0,0,0,41.965,24H45A1,1,0,0,1,46,25Zm-6-3V19a1,1,0,0,1,2,0v3Zm21-2a1,1,0,1,1-1-1A1,1,0,0,1,61,20Z" fill="#fff"/>
  </g>
</svg>
