<svg xmlns="http://www.w3.org/2000/svg" width="31.925" height="22.353" viewBox="0 0 31.925 22.353">
  <path id="youtube" d="M31.267-2.584A4,4,0,0,0,28.453-5.4c-2.5-.684-12.491-.684-12.491-.684s-9.993,0-12.491.658A4.081,4.081,0,0,0,.657-2.584,42.143,42.143,0,0,0,0,5.094a41.988,41.988,0,0,0,.657,7.679,4,4,0,0,0,2.814,2.814c2.524.684,12.491.684,12.491.684s9.993,0,12.491-.658A4,4,0,0,0,31.267,12.8a42.156,42.156,0,0,0,.657-7.679A40,40,0,0,0,31.267-2.584ZM12.78,9.88V.308l8.31,4.786Zm0,0" transform="translate(0 6.082)" fill="#061455"/>
</svg>
